<?xml version="1.0" encoding="utf-8"?>
<!-- Generator: Adobe Illustrator 23.0.1, SVG Export Plug-In . SVG Version: 6.00 Build 0)  -->
<svg version="1.1" id="Layer_1" xmlns="http://www.w3.org/2000/svg" xmlns:xlink="http://www.w3.org/1999/xlink" x="0px" y="0px"
	 viewBox="0 0 512 512" style="enable-background:new 0 0 512 512;" xml:space="preserve">
<style type="text/css">
	.st0{fill:#FFFFFF;}
</style>
<g>
	<path class="st0" d="M116.9,313.1l18.7,0l9,9c0.2,0.2,0.3,0.3,0.5,0.4l0.2,0.1c0.1,0.1,0.3,0.1,0.4,0.2c0.1,0,0.1,0.1,0.2,0.1
		c0.1,0.1,0.3,0.1,0.4,0.1l0.2,0.1c0.4,0.1,0.8,0.1,1.2,0l14.5-4.8l14.6,4.8c0.2,0,0.7,0.1,1.1,0l0.2,0c0.1,0,0.3-0.1,0.4-0.1
		c0.1,0,0.1-0.1,0.2-0.1c0.1-0.1,0.2-0.1,0.4-0.2l0.2-0.1c0.1-0.1,0.3-0.2,0.4-0.4l0.2-0.2l8.9-8.9l18.7,0c13,0,23.9,9.4,26.2,21.7
		h7.1c-2.4-16.2-16.4-28.7-33.3-28.7l-16.6,0v-10.5l0.8-0.4c18.1-10.5,29.4-30,29.4-50.9v-30.2c0-32.4-26.4-58.8-58.8-58.8
		c-32.4,0-58.8,26.4-58.8,58.8v30.2c0,20.9,11.3,40.4,29.4,50.9l0.8,0.4v10.5l-16.6,0c-16.9,0-30.9,12.5-33.3,28.7h7.1
		C93,322.5,103.9,313.1,116.9,313.1z M183.8,308.2l-7.5,7.5l-13-4.3c-0.2-0.1-0.4-0.1-0.5-0.1l-0.3-0.1c0,0-0.1,0-0.1,0l-0.8,0
		c-0.2,0-0.3,0.1-0.5,0.1l-13.1,4.4l-7.5-7.5V299l2,0.7c12.6,4.5,26.6,4.5,39.2,0l2-0.7V308.2z M110.4,211.9
		c1.2-27.8,23.9-49.6,51.7-49.6s50.6,21.8,51.7,49.6l0.2,3.9l-9.4-9.3c-0.1,0-0.1-0.1-0.2-0.2c-0.1-0.1-0.2-0.1-0.3-0.2
		c-0.1-0.1-0.2-0.1-0.3-0.1c-0.1-0.1-0.2-0.1-0.4-0.1c-0.1,0-0.2-0.1-0.3-0.1c-0.1,0-0.2-0.1-0.4-0.1c-0.1,0-0.2,0-0.3,0l-0.2,0
		c-0.2,0-0.4,0-0.5,0c-0.1,0-0.2,0-0.3,0.1c-0.1,0-0.2,0.1-0.3,0.1c-0.1,0-0.2,0.1-0.3,0.1l-0.2,0.1c-0.1,0.1-18.1,9.6-38.5,9.6
		c-20.4,0-38.4-9.6-38.6-9.6c0,0-0.1,0-0.2-0.1c-0.1,0-0.2-0.1-0.3-0.1c-0.1,0-0.2-0.1-0.3-0.1s-0.2,0-0.3-0.1c-0.1,0-0.2,0-0.4,0
		l-0.1,0l-0.2,0c-0.1,0-0.3,0-0.4,0c-0.1,0-0.1,0-0.2,0c-0.2,0-0.3,0.1-0.4,0.1c-0.1,0-0.2,0.1-0.2,0.1c-0.1,0.1-0.2,0.1-0.4,0.2
		c-0.1,0-0.1,0.1-0.2,0.1c-0.1,0.1-0.2,0.2-0.3,0.3l-0.2,0.1l-9.2,9.1L110.4,211.9z M110.3,244.2v-18.7l12.3-12.3l1,0.4
		c7.3,3.3,22,8.9,38.6,8.9c17.3,0,32.7-6.2,38.6-8.9l1-0.4l12.3,12.3v18.7c0,28.6-23.2,51.8-51.8,51.8
		C133.6,296,110.3,272.8,110.3,244.2z"/>
	<path class="st0" d="M307.3,77.3H124.5c-3.7,0-6.8,3-6.8,6.8c0,3.8,3,6.8,6.8,6.8h182.7v-11C307.2,79,307.2,78.2,307.3,77.3z"/>
	<path class="st0" d="M454.7,361.8c0,16.5-13.4,29.9-29.8,29.9H55.4c-16.5,0-29.9-13.4-29.9-29.9V120.7c0-16.5,13.4-29.9,29.9-29.9
		h42c3.7,0,6.8-3,6.8-6.8c0-3.7-3-6.8-6.8-6.8h-42C31.5,77.3,12,96.8,12,120.7v241.1c0,23.9,19.5,43.4,43.4,43.4h108.9l-13.3,43.4
		h-24.9c-12.7,0-23,10.3-23,23c0,12.7,10.3,23,23,23H354c12.7,0,23-10.3,23-23c0-12.7-10.3-23-23-23h-24.9l-13.3-43.4h109
		c23.9,0,43.4-19.5,43.4-43.4V212.7h-13.6V361.8z M165.3,448.6l13.3-43.4h123.2l13.3,43.4 M354,462.2c5.2,0,9.5,4.2,9.5,9.5
		c0,5.2-4.2,9.5-9.5,9.5H126.2c-5.2,0-9.5-4.3-9.5-9.5c0-5.2,4.2-9.5,9.5-9.5H354z"/>
	<path class="st0" d="M418.5,291.1c0,3.7,3,6.8,6.8,6.8c3.7,0,6.8-3,6.8-6.8v-78.4h-13.6L418.5,291.1L418.5,291.1z"/>
	<path class="st0" d="M55.4,113.5c-4,0-7.3,3.3-7.3,7.3v220.8c0,3.7,3,6.8,6.8,6.8h370.4c3.7,0,6.8-3,6.8-6.8v-23.4
		c0-3.8-3-6.8-6.8-6.8c-3.8,0-6.8,3-6.8,6.8v16.6H240.7h-7.1H90.7h-7.1H61.7V127h245.5v-13.6L55.4,113.5L55.4,113.5z"/>
	<path class="st0" d="M244.8,373.7c2.3-2.3,2.7-5.9,0.9-8.6c-1.5-2.3-4.3-3.4-7-2.9c-2.9,0.6-5.1,3.1-5.4,6
		C232.8,374.3,240.4,378,244.8,373.7z"/>
	<path class="st0" d="M460,80.9h-17.9h-47.3c-2.8,0-5,2.3-5,5c0,2.4,1.7,4.4,4,4.9c0.3,0.1,0.7,0.1,1,0.1h32.3h29.3h3.6
		c2.8,0,5-2.3,5-5C465.1,83.2,462.8,80.9,460,80.9z"/>
	<path class="st0" d="M358.9,90.9h0.5c1.2,0,2.4-0.5,3.3-1.4c1-0.9,1.5-2.2,1.5-3.5c0-1.3-0.6-2.6-1.5-3.6c-0.9-0.9-2.3-1.5-3.6-1.5
		c-1.3,0-2.6,0.6-3.5,1.5c-0.9,0.9-1.5,2.2-1.5,3.6c0,1.3,0.5,2.6,1.5,3.5C356.5,90.4,357.7,90.9,358.9,90.9z"/>
	<path class="st0" d="M460,119.2h-5.4H432h-72.8c-2.7,0-5,2.2-5,5c0,1,0.3,2,0.9,2.8c0.9,1.3,2.4,2.2,4.1,2.2h59.4h13.6h22.6h5.4
		c2.8,0,5-2.3,5-5C465.1,121.5,462.8,119.2,460,119.2z"/>
	<path class="st0" d="M460,157.5h-5.4h-22.6h-13.6h-59.4c-2.7,0-5,2.2-5,5c0,2.7,2.3,5,5,5h59.4h13.6h22.6h5.4c2.8,0,5-2.3,5-5
		C465.1,159.7,462.8,157.5,460,157.5z"/>
	<path class="st0" d="M472.2,40.1H347c-21.1,0-38.4,16.5-39.7,37.2c-0.1,0.8-0.1,1.7-0.1,2.6v11v22.6V127v45.9
		c0,20.3,15.2,37.2,35.3,39.5l3.3,0.4v25.9c0,2,1.2,3.9,3.1,4.6c1.8,0.8,4.1,0.3,5.5-1.1l29.5-29.5h34.7h13.6h22.6h13.6h4
		c22,0,39.8-17.9,39.8-39.8v-93C512,57.9,494.2,40.1,472.2,40.1z M502,172.9c0,16.4-13.4,29.8-29.8,29.8h-4h-13.6h-22.6h-13.6h-36.8
		c-1.3,0-2.6,0.5-3.5,1.5l-22.5,22.4v-18.9c0-2.7-2.2-5-5-5H347c-16.4,0-29.8-13.4-29.8-29.8V127v-13.6V90.9v-11
		c0-0.9,0-1.7,0.1-2.6c1.3-15.2,14.1-27.2,29.7-27.2h125.2c16.4,0,29.8,13.4,29.8,29.8L502,172.9L502,172.9z"/>
	<path class="st0" d="M180.5,267.8c-19,13.5-37,1.6-37.8,1.1l-2.8,4.1c0.1,0.1,9.2,6.1,21.5,6.1c6.7,0,14.3-1.8,22-7.3L180.5,267.8z
		"/>
	<rect x="159" y="244.8" class="st0" width="4.9" height="17.5"/>
</g>
</svg>
