<?xml version="1.0" encoding="utf-8"?>
<!-- Generator: Adobe Illustrator 23.0.1, SVG Export Plug-In . SVG Version: 6.00 Build 0)  -->
<svg version="1.1" id="Layer_1" xmlns="http://www.w3.org/2000/svg" xmlns:xlink="http://www.w3.org/1999/xlink" x="0px" y="0px"
	 viewBox="0 0 512 512" style="enable-background:new 0 0 512 512;" xml:space="preserve">
<style type="text/css">
	.st0{fill:#FFFFFF;}
</style>
<g>
	<path class="st0" d="M256.6,183.7c25.6,0,46.4-20.8,46.4-46.4s-20.8-46.4-46.4-46.4s-46.4,20.8-46.4,46.4
		C210.2,162.9,231,183.7,256.6,183.7z M256.6,107.2c16.6,0,30.1,13.5,30.1,30.1s-13.5,30.1-30.1,30.1s-30.1-13.5-30.1-30.1
		C226.4,120.7,239.9,107.2,256.6,107.2z"/>
	<path class="st0" d="M256.6,312.2c25.6,0,46.4-20.8,46.4-46.4s-20.8-46.4-46.4-46.4s-46.4,20.8-46.4,46.4
		C210.2,291.4,231,312.2,256.6,312.2z M256.6,235.7c16.6,0,30.1,13.5,30.1,30.1s-13.5,30.1-30.1,30.1s-30.1-13.5-30.1-30.1
		C226.4,249.2,239.9,235.7,256.6,235.7z"/>
	<path class="st0" d="M145.4,236c25.6,0,46.4-20.8,46.4-46.4s-20.8-46.4-46.4-46.4S99,164,99,189.6C99,215.2,119.8,236,145.4,236z
		 M145.4,159.5c16.6,0,30.1,13.5,30.1,30.1s-13.5,30.1-30.1,30.1s-30.1-13.5-30.1-30.1C115.3,173,128.8,159.5,145.4,159.5z"/>
	<path class="st0" d="M367.7,236c25.6,0,46.4-20.8,46.4-46.4s-20.8-46.4-46.4-46.4s-46.4,20.8-46.4,46.4
		C321.3,215.2,342.1,236,367.7,236z M367.7,159.5c16.6,0,30.1,13.5,30.1,30.1s-13.5,30.1-30.1,30.1s-30.1-13.5-30.1-30.1
		S351.1,159.5,367.7,159.5z"/>
	<path class="st0" d="M235.4,319.5c-0.3,0.1-32.3,7.1-45.7,42.8c-5.6-13.2-16.4-28.3-37.1-36.8l-0.3-0.1c-1-0.3-23.8-8-50.9-8
		c-5.4,0-10.7,0.3-15.7,0.9c1.4-15.2,8.4-45,41-56.1l2.4-0.8l-4-11.8l-2.4,0.8c-51.3,17.4-49.8,74.8-49.8,75.4l0.3,7.2l7.1-1.3
		c6.5-1.2,13.5-1.8,20.8-1.8c24.7,0,46.2,7,46.9,7.2c34.4,14.1,35.9,49.8,35.9,56.7l-0.1,3.5l9.8,0.3h2.6l0.1-2.9
		c1-53.7,39.9-62.6,41.5-63l2.5-0.5l-2.5-12.2L235.4,319.5z"/>
	<path class="st0" d="M389.2,250.4l-2.4-0.8l-4,11.8l2.4,0.8c32.6,11.1,39.6,40.9,41,56.1c-5-0.6-10.3-0.9-15.7-0.9
		c-27.2,0-50,7.7-51,8l-0.2,0.1c-20.6,8.4-31.4,23.5-37,36.7c-13.4-35.7-45.4-42.7-45.7-42.8l-2.5-0.5l-2.5,12.2l2.5,0.5
		c1.7,0.4,40.5,9.3,41.5,62.9v3l12.5-0.4V394c0-4.3,0.8-42.7,35.7-57c0.9-0.3,22.2-7.3,47-7.3c7.4,0,14.4,0.6,20.9,1.8l7.1,1.3
		l0.3-7.2C439,325.2,440.4,267.8,389.2,250.4z"/>
	<path class="st0" d="M160.7,249.5l41.1,29.3l-2.6-15c-0.1-0.5-2-12.6,1.8-26.3c5.1-18.4,17.7-30.8,37.5-36.8l2.5-0.8l-3.6-11.9
		l-2.5,0.8c-40.7,12.4-47.8,45.6-48.6,63.7L168,239.4L160.7,249.5z"/>
	<path class="st0" d="M274.7,188l-3.6,11.9l2.5,0.8c47.1,14.3,39.7,61.2,39.3,63.2l-2.6,15l41-29.3l-7.2-10.1l-18.3,13.1
		c-0.7-18.1-7.9-51.3-48.6-63.7L274.7,188z"/>
</g>
</svg>
