<?xml version="1.0" encoding="utf-8"?>
<!-- Generator: Adobe Illustrator 23.0.1, SVG Export Plug-In . SVG Version: 6.00 Build 0)  -->
<svg version="1.1" id="Layer_1" xmlns="http://www.w3.org/2000/svg" xmlns:xlink="http://www.w3.org/1999/xlink" x="0px" y="0px"
	 viewBox="0 0 512 512" style="enable-background:new 0 0 512 512;" xml:space="preserve">
<style type="text/css">
	.st0{fill:#FFFFFF;}
</style>
<g>
	<path class="st0" d="M256.1,72.7C155,72.7,72.7,154.9,72.7,256S155,439.4,256.1,439.4c101.1,0,183.4-82.3,183.4-183.4
		S357.2,72.7,256.1,72.7z M256.1,422.8C164.1,422.8,89.4,348,89.4,256c0-91.9,74.8-166.7,166.7-166.7c91.9,0,166.7,74.8,166.7,166.7
		C422.8,348,348,422.8,256.1,422.8z"/>
	<path class="st0" d="M256.1,131c4.6,0,8.3-3.7,8.3-8.3V106c0-4.6-3.7-8.3-8.3-8.3c-4.6,0-8.3,3.7-8.3,8.3v16.7
		C247.7,127.3,251.5,131,256.1,131z"/>
	<path class="st0" d="M256.1,381.1c-4.6,0-8.3,3.7-8.3,8.3v16.7c0,4.6,3.7,8.3,8.3,8.3c4.6,0,8.3-3.7,8.3-8.3v-16.7
		C264.4,384.8,260.7,381.1,256.1,381.1z"/>
	<path class="st0" d="M389.5,264.4h16.7c4.6,0,8.3-3.7,8.3-8.3c0-4.6-3.7-8.3-8.3-8.3h-16.7c-4.6,0-8.3,3.7-8.3,8.3
		C381.1,260.7,384.9,264.4,389.5,264.4z"/>
	<path class="st0" d="M264.4,215.5v-42.9c0-4.6-3.7-8.3-8.3-8.3c-4.6,0-8.3,3.7-8.3,8.3v42.9c-14.3,3.7-25,16.7-25,32.2
		c0,6.2,1.8,11.9,4.7,16.8l-69,69c-3.3,3.3-3.3,8.5,0,11.8c1.6,1.6,3.8,2.4,5.9,2.4c2.1,0,4.3-0.8,5.9-2.4l69-69
		c5,2.9,10.7,4.7,16.8,4.7c18.4,0,33.3-15,33.3-33.3C289.4,232.2,278.8,219.3,264.4,215.5z M256.1,264.4c-9.2,0-16.7-7.5-16.7-16.7
		s7.5-16.7,16.7-16.7c9.2,0,16.7,7.5,16.7,16.7S265.3,264.4,256.1,264.4z"/>
	<g>
		<path class="st0" d="M14.3,264.4c4.6,0,8.3-3.7,8.3-8.3c0-128.7,104.7-233.4,233.4-233.4c52.7,0,103.2,17.6,144.2,50h-44.2
			c-4.6,0-8.3,3.7-8.3,8.3c0,4.6,3.7,8.3,8.3,8.3h66c0.5,0.1,1.1,0.1,1.6,0h7.4v-75c0-4.6-3.7-8.3-8.3-8.3c-4.6,0-8.3,3.7-8.3,8.3
			v48.4C369.8,26,314.3,6,256.1,6C118.2,6,6,118.1,6,256C6,260.7,9.7,264.4,14.3,264.4z"/>
		<path class="st0" d="M105.1,444.9c-2.8,3.7-2,8.9,1.8,11.7c1.4,1.1,3.2,1.6,4.9,1.6c2.6,0,5.1-1.1,6.8-3.3
			c2.7-3.7,1.9-8.9-1.8-11.7C113.1,440.4,107.9,441.2,105.1,444.9z"/>
		<path class="st0" d="M66.3,391.7c-2.7-3.7-7.9-4.6-11.7-1.9c-3.8,2.8-4.6,7.9-1.9,11.7c1.7,2.3,4.2,3.5,6.8,3.5
			c1.7,0,3.3-0.5,4.8-1.6C68.1,400.7,68.9,395.4,66.3,391.7z"/>
		<path class="st0" d="M69.5,409.8c-3.4,3.1-3.8,8.3-0.7,11.7c1.6,1.9,3.9,2.8,6.3,2.8c1.9,0,3.9-0.7,5.5-2.1
			c3.4-3.1,3.8-8.3,0.7-11.8C78.3,407.1,73,406.8,69.5,409.8z"/>
		<path class="st0" d="M98.2,427.8c-3.3-3.1-8.7-2.8-11.8,0.5c-3.2,3.4-2.9,8.7,0.5,11.8c1.6,1.4,3.6,2.2,5.6,2.2
			c2.3,0,4.5-0.9,6.2-2.7C101.8,436.2,101.6,430.9,98.2,427.8C98.2,427.8,98.2,427.8,98.2,427.8z"/>
		<path class="st0" d="M53.3,371.4C53.2,371.4,53.2,371.4,53.3,371.4c-2.3-4-7.4-5.4-11.4-3.1c-4,2.3-5.4,7.3-3.1,11.3
			c1.5,2.7,4.3,4.2,7.2,4.2c1.3,0,2.8-0.3,4.1-1.1C54.1,380.5,55.5,375.4,53.3,371.4z"/>
		<path class="st0" d="M497.3,273.7c0.2,0,0.3,0,0.3,0c4.5,0,8.2-3.6,8.3-8c0.2-4.7-3.4-8.5-8-8.7c-4.6-0.2-8.5,3.4-8.7,8
			C489.2,269.6,492.7,273.5,497.3,273.7z"/>
		<path class="st0" d="M16.5,289.3c4.6-0.5,7.9-4.6,7.4-9.2c-0.5-4.6-4.6-7.9-9.2-7.4c-4.6,0.4-7.9,4.6-7.4,9.1
			c0.4,4.3,4.1,7.5,8.2,7.5C15.9,289.3,16.2,289.3,16.5,289.3z"/>
		<path class="st0" d="M21.2,313.8c4.5-0.9,7.4-5.3,6.4-9.8c-0.9-4.5-5.3-7.4-9.8-6.4c-4.5,0.9-7.4,5.3-6.4,9.8
			c0.8,3.9,4.2,6.6,8.1,6.6C20,314,20.6,314,21.2,313.8z"/>
		<path class="st0" d="M42.3,349.8c-1.8-4.2-6.8-6.1-11-4.3c-4.2,1.8-6.1,6.8-4.3,11c1.4,3.1,4.4,5,7.7,5c1.1,0,2.3-0.3,3.3-0.8
			C42.3,359,44.2,354.1,42.3,349.8z"/>
		<path class="st0" d="M33.8,327.3c-1.3-4.4-6.1-6.8-10.4-5.4c-4.4,1.4-6.8,6.1-5.4,10.5c1.2,3.5,4.4,5.7,7.9,5.7
			c0.8,0,1.8-0.1,2.6-0.3C32.8,336.4,35.2,331.6,33.8,327.3z"/>
		<path class="st0" d="M251.6,489.4c-4.6-0.1-8.4,3.6-8.5,8.2c-0.1,4.7,3.6,8.4,8.2,8.5c0.1,0,0.2,0,0.2,0c4.6,0,8.3-3.6,8.3-8.2
			C259.8,493.3,256.2,489.5,251.6,489.4z"/>
		<path class="st0" d="M440.6,398.9c-2.8,3.6-2.2,8.8,1.4,11.7c1.6,1.2,3.3,1.8,5.2,1.8c2.4,0,4.9-1.1,6.6-3.3
			c2.8-3.6,2.2-8.8-1.5-11.7C448.6,394.6,443.4,395.3,440.6,398.9z"/>
		<path class="st0" d="M388,448.4c-3.8,2.6-4.8,7.8-2.1,11.6c1.6,2.3,4.2,3.6,6.8,3.6c1.7,0,3.2-0.4,4.8-1.4
			c3.8-2.6,4.8-7.8,2.1-11.6C397,446.8,391.9,445.9,388,448.4z"/>
		<path class="st0" d="M407.2,433.8c-3.5,3-3.9,8.3-0.9,11.8c1.7,1.9,4,2.9,6.3,2.9c1.9,0,3.8-0.7,5.4-2c3.5-3,3.9-8.2,0.9-11.8
			C416,431.2,410.7,430.8,407.2,433.8z"/>
		<path class="st0" d="M465.8,376.4c-3.9-2.4-9.1-1.2-11.5,2.7c-2.4,3.9-1.3,9.1,2.7,11.5c1.4,0.8,2.9,1.3,4.4,1.3
			c2.7,0,5.5-1.3,7.1-3.9C470.9,384,469.7,378.8,465.8,376.4z"/>
		<path class="st0" d="M424.8,417.2c-3.2,3.3-3.1,8.6,0.3,11.8c1.6,1.6,3.7,2.3,5.8,2.3c2.2,0,4.4-0.8,6-2.6
			c3.2-3.3,3.1-8.6-0.3-11.8C433.2,413.8,428,413.8,424.8,417.2z"/>
		<path class="st0" d="M496.6,282c-4.5-0.7-8.8,2.6-9.4,7.1c-0.7,4.6,2.5,8.8,7.1,9.4c0.4,0.1,0.8,0.1,1.2,0.1c4.1,0,7.7-3,8.3-7.2
			C504.3,286.9,501.2,282.6,496.6,282z"/>
		<path class="st0" d="M492.7,306.6c-4.5-1.1-9,1.7-10.2,6.1c-1.1,4.5,1.7,9,6.1,10.2c0.7,0.2,1.3,0.3,2,0.3c3.8,0,7.2-2.6,8.1-6.3
			C499.8,312.3,497.1,307.8,492.7,306.6z"/>
		<path class="st0" d="M136.9,456.6c-4-2.3-9.1-1.1-11.4,2.9c-2.4,3.9-1.1,9.1,2.8,11.4c1.3,0.8,2.8,1.2,4.2,1.2
			c2.8,0,5.6-1.4,7.2-4.1C142.1,464.1,140.8,459,136.9,456.6z"/>
		<path class="st0" d="M486.1,330.8c-4.3-1.6-9.2,0.7-10.7,5c-1.6,4.3,0.6,9.1,4.9,10.7c0.9,0.3,1.9,0.5,2.8,0.5
			c3.4,0,6.7-2.1,7.8-5.5C492.7,337.1,490.5,332.4,486.1,330.8z"/>
		<path class="st0" d="M477.1,354.2c-4.1-2-9.2-0.3-11.2,3.8c-2,4.2-0.3,9.2,3.8,11.2c1.2,0.6,2.4,0.8,3.7,0.8
			c3.1,0,6.1-1.7,7.5-4.7C483,361.2,481.3,356.2,477.1,354.2z"/>
		<path class="st0" d="M227.5,487.7c-4.6-0.6-8.7,2.7-9.3,7.3c-0.6,4.6,2.7,8.8,7.2,9.2v0.1c0.3,0,0.7,0,1,0c4.2,0,7.8-3.1,8.3-7.3
			C235.3,492.4,232.1,488.3,227.5,487.7z"/>
		<path class="st0" d="M180.6,476.9c-4.3-1.5-9.1,0.8-10.6,5.2c-1.5,4.3,0.8,9.1,5.2,10.6c0.9,0.3,1.8,0.4,2.8,0.4
			c3.4,0,6.7-2.2,7.8-5.6C187.2,483.1,184.9,478.4,180.6,476.9z"/>
		<path class="st0" d="M203.7,483.5c-4.5-1-8.9,1.8-10,6.3c-1,4.5,1.8,9,6.3,10c0.7,0.2,1.2,0.2,1.9,0.2c3.8,0,7.3-2.6,8.1-6.4
			C211.1,489,208.2,484.5,203.7,483.5z"/>
		<path class="st0" d="M158.2,467.9c-4.3-2-9.2-0.2-11.1,4c-1.9,4.2-0.2,9.2,4,11.1c1.2,0.5,2.3,0.8,3.5,0.8c3.2,0,6.2-1.7,7.6-4.8
			C164.1,474.8,162.4,469.9,158.2,467.9z"/>
		<path class="st0" d="M299.6,485.4c-4.5,0.8-7.5,5.3-6.7,9.8c0.7,4,4.3,6.8,8.3,6.8c0.5,0,1,0,1.5-0.1c4.5-0.9,7.5-5.3,6.7-9.8
			C308.5,487.4,304.1,484.5,299.6,485.4z"/>
		<path class="st0" d="M323,479.7c-4.4,1.2-6.9,5.9-5.6,10.3c1.1,3.6,4.4,5.9,8,5.9c0.8,0,1.6-0.1,2.4-0.3c4.4-1.3,6.9-6,5.6-10.4
			C332.1,480.9,327.4,478.4,323,479.7z"/>
		<path class="st0" d="M345.8,471.5c-4.2,1.8-6.3,6.7-4.5,10.9c1.3,3.2,4.4,5.1,7.7,5.1c1.1,0,2.2-0.2,3.2-0.6
			c4.3-1.8,6.3-6.7,4.5-10.9C354.9,471.8,350,469.8,345.8,471.5z"/>
		<path class="st0" d="M275.7,488.6c-4.6,0.4-8,4.4-7.6,9c0.3,4.3,4,7.7,8.3,7.7c0.2,0,0.4,0,0.7,0v-0.1c4.6-0.3,8-4.3,7.6-8.9
			C284.3,491.7,280.3,488.3,275.7,488.6z"/>
		<path class="st0" d="M367.5,461.1c-4.1,2.2-5.6,7.3-3.3,11.3c1.5,2.8,4.3,4.4,7.3,4.4c1.3,0,2.7-0.3,3.9-1.1
			c4.1-2.2,5.6-7.3,3.3-11.3C376.6,460.4,371.5,458.9,367.5,461.1z"/>
	</g>
</g>
</svg>
