<?xml version="1.0" encoding="utf-8"?>
<!-- Generator: Adobe Illustrator 16.0.0, SVG Export Plug-In . SVG Version: 6.00 Build 0)  -->
<!DOCTYPE svg PUBLIC "-//W3C//DTD SVG 1.1//EN" "http://www.w3.org/Graphics/SVG/1.1/DTD/svg11.dtd">
<svg version="1.1" id="Layer_1" xmlns="http://www.w3.org/2000/svg" xmlns:xlink="http://www.w3.org/1999/xlink" x="0px" y="0px"
	 width="512px" height="512px" viewBox="0 0 512 512" enable-background="new 0 0 512 512" xml:space="preserve">
<g>
	<g>
		<g>
			<g>
				<path fill="#65696F" d="M440.768,108.411v31.104c0,3.433-3.636,6.21-8.112,6.21H249.877c-4.474,0-8.112-2.777-8.112-6.21
					v-31.104c0-3.417,3.639-6.212,8.112-6.212h182.778C437.132,102.199,440.768,104.994,440.768,108.411z"/>
			</g>
		</g>
	</g>
	<g>
		<g>
			<path fill="#307167" d="M386.487,86.411v31.106c0,3.434-3.642,6.208-8.115,6.208H160.825c-4.474,0-8.112-2.775-8.112-6.208
				V86.411c0-3.416,3.639-6.209,8.112-6.209h217.547C382.846,80.201,386.487,82.995,386.487,86.411z"/>
		</g>
	</g>
	<g>
		<g>
			<g>
				<path fill="#65696F" d="M440.768,192.742v31.105c0,3.433-3.636,6.211-8.112,6.211H252.194c-4.471,0-8.113-2.778-8.113-6.211
					v-31.105c0-3.416,3.642-6.21,8.113-6.21h180.461C437.132,186.531,440.768,189.326,440.768,192.742z"/>
			</g>
		</g>
	</g>
	<g>
		<g>
			<path fill="#307167" d="M386.487,170.743v31.104c0,3.436-3.642,6.212-8.115,6.212H165.461c-4.474,0-8.112-2.776-8.112-6.212
				v-31.104c0-3.417,3.639-6.21,8.112-6.21h212.911C382.846,164.532,386.487,167.326,386.487,170.743z"/>
		</g>
	</g>
	<g>
		<g>
			<g>
				<path fill="#65696F" d="M364.312,280.099v21.163c0,0.838-0.21,1.647-0.601,2.365c-1.231,2.273-4.129,3.847-7.514,3.847H254.554
					c-4.474,0-8.113-2.781-8.113-6.212v-31.104c0-3.411,3.639-6.215,8.113-6.215h95.756l5.888,19.612l3.479-3.456l0.094-0.091
					l1.063,3.547L364.312,280.099z"/>
			</g>
		</g>
	</g>
	<g>
		<g>
			<path fill="#307167" d="M330.896,248.156v31.107c0,3.434-3.642,6.21-8.112,6.21H170.138c-4.471,0-8.113-2.776-8.113-6.21v-31.107
				c0-3.413,3.642-6.207,8.113-6.207h152.646C327.254,241.95,330.896,244.744,330.896,248.156z"/>
		</g>
	</g>
	<path fill="#BDC5D1" d="M505.997,320.753V53.471c0.003-17.872-14.542-32.413-32.411-32.413H38.417C20.542,21.058,6,35.599,6,53.471
		v267.34v40.5c0,17.874,14.542,32.414,40.212,32.414h158.828c-1.88,32.257-15.395,48.608-40.267,48.608h-16.205
		c-13.398,0-24.304,10.904-24.304,24.305c0,13.398,10.906,24.305,24.304,24.305h210.641c13.398,0,24.302-10.906,24.302-24.305
		c0-13.4-10.906-24.305-24.305-24.305h-16.202c-24.876,0-38.393-16.352-40.271-48.608h178.648c10.074,0,24.619-14.54,24.619-32.414
		v-40.5C506,320.791,505.997,320.772,505.997,320.753z M22.205,53.471c0-8.942,7.275-16.209,16.212-16.209h435.169
		c8.935,0,16.209,7.268,16.209,16.209v259.24h-16.204V61.567c0-4.474-3.629-8.103-8.1-8.103H46.509
		c-4.471,0-8.103,3.629-8.103,8.103v251.144H22.205V53.471z M457.386,312.711H54.611V69.667h402.774V312.711z M359.209,458.538
		c4.469,0,8.1,3.636,8.1,8.1s-3.631,8.1-8.103,8.1H148.568c-4.471,0-8.102-3.636-8.102-8.1s3.631-8.1,8.102-8.1H359.209z
		 M303.551,442.333h-99.319c9.975-11.048,15.847-27.507,17.032-48.608h65.258C287.696,414.826,293.568,431.285,303.551,442.333z
		 M489.795,361.311c0,8.944-7.274,16.212-8.414,16.212H294.393h-81.01H46.212c-16.732,0-24.008-7.268-24.008-16.212v-32.397h24.305
		h418.984h24.302V361.311z"/>
	<g>
		<g>
			<path fill="#307167" d="M423.464,278.338l-19.562-19.564l10.871-10.871c2.02-2.018,2.832-4.938,2.134-7.719
				c-0.695-2.761-2.781-4.938-5.517-5.773l-81.019-24.292c-2.869-0.858-5.952-0.094-8.063,2.017
				c-2.109,2.109-2.873,5.215-2.018,8.067l13.119,43.739l11.175,37.273c0.833,2.736,3.015,4.821,5.773,5.517
				c2.756,0.695,5.699-0.091,7.719-2.108l0.995-0.997l5.239-5.263l5.215-5.215l19.562,19.562c1.511,1.533,3.573,2.368,5.728,2.368
				c2.157,0,4.22-0.835,5.725-2.368l22.924-22.924C426.618,286.636,426.618,281.513,423.464,278.338z M394.815,295.537
				l-17.801-17.823c-2.065-2.065-4.775-3.086-7.488-3.086c-2.71,0-5.402,1.021-7.465,3.086l-2.292,2.294l-0.094,0.091l-3.479,3.456
				l-5.888-19.612l-10.175-33.982l53.59,16.065l-6.258,6.283c-1.735,1.735-2.688,4.032-2.688,6.465c0,2.456,0.975,4.775,2.688,6.491
				l18.798,18.798L394.815,295.537z"/>
		</g>
	</g>
	<g>
		<path fill="#BDC5D1" d="M117.433,125.373H79.646c-6.392,0-11.591-5.201-11.591-11.591v-21.29c0-6.39,5.2-11.59,11.591-11.59
			h37.787c6.39,0,11.591,5.201,11.591,11.59v21.29C129.024,120.172,123.823,125.373,117.433,125.373z M79.646,90.174
			c-1.256,0-2.319,1.062-2.319,2.318v21.29c0,1.257,1.063,2.319,2.319,2.319h37.787c1.256,0,2.317-1.062,2.317-2.319v-21.29
			c0-1.256-1.061-2.318-2.317-2.318H79.646z"/>
	</g>
	<g>
		<path fill="#BDC5D1" d="M117.433,206.858H79.646c-6.392,0-11.591-5.2-11.591-11.589v-21.292c0-6.39,5.2-11.59,11.591-11.59h37.787
			c6.39,0,11.591,5.201,11.591,11.59v21.292C129.024,201.659,123.823,206.858,117.433,206.858z M79.646,171.659
			c-1.256,0-2.319,1.062-2.319,2.318v21.292c0,1.253,1.063,2.314,2.319,2.314h37.787c1.256,0,2.317-1.061,2.317-2.314v-21.292
			c0-1.256-1.061-2.318-2.317-2.318H79.646z"/>
	</g>
	<g>
		<path fill="#BDC5D1" d="M117.433,286.59H79.646c-6.392,0-11.591-5.202-11.591-11.592v-21.29c0-6.389,5.2-11.591,11.591-11.591
			h37.787c6.39,0,11.591,5.202,11.591,11.591v21.29C129.024,281.388,123.823,286.59,117.433,286.59z M79.646,251.389
			c-1.256,0-2.319,1.063-2.319,2.319v21.29c0,1.259,1.063,2.319,2.319,2.319h37.787c1.256,0,2.317-1.061,2.317-2.319v-21.29
			c0-1.256-1.061-2.319-2.317-2.319H79.646z"/>
	</g>
	<g>
		<g>
			<g>
				<path fill="#BDC5D1" d="M278.008,345.847H227.62c-4.4,0-7.973,3.628-7.973,8.1c0,4.474,3.573,8.1,7.973,8.1h50.388
					c4.397,0,7.968-3.626,7.968-8.1C285.976,349.475,282.405,345.847,278.008,345.847z"/>
			</g>
		</g>
	</g>
</g>
</svg>
