<?xml version="1.0" encoding="utf-8"?>
<!-- Generator: Adobe Illustrator 23.0.1, SVG Export Plug-In . SVG Version: 6.00 Build 0)  -->
<svg version="1.1" xmlns="http://www.w3.org/2000/svg" xmlns:xlink="http://www.w3.org/1999/xlink" x="0px" y="0px"
	 viewBox="0 0 866 720.4" style="enable-background:new 0 0 866 720.4;" xml:space="preserve">
<style type="text/css">
	.st0{opacity:0.5;}
	.st1{fill:#64FFDA;}
	.st2{opacity:0.8;}
	.st3{fill:url(#SVGID_1_);}
	.st4{opacity:0.4;}
	.st5{fill:#FFFFFF;}
	.st6{fill:#F5F5F5;}
	.st7{opacity:0.8;fill:#011C24;enable-background:new    ;}
	.st8{fill:#FF5252;}
	.st9{fill:#FFFF00;}
	.st10{fill:#69F0AE;}
	.st11{fill:url(#SVGID_2_);}
	.st12{fill:#E0E0E0;}
	.st13{fill:none;stroke:#3AD29F;stroke-width:2;stroke-miterlimit:10;stroke-dasharray:12;}
	.st14{fill:url(#SVGID_3_);}
	.st15{fill:#307167;}
	.st16{fill:url(#SVGID_4_);}
	.st17{fill:#BDBDBD;}
	.st18{fill:url(#SVGID_5_);}
	.st19{opacity:0.2;enable-background:new    ;}
	.st20{fill:#57BC90;}
	.st21{fill:#FFFFFF;stroke:#FFFFFF;stroke-miterlimit:10;}
</style>
<g id="Layer_1">
	<g class="st0">
		<path class="st1" d="M616,117.1"/>
		<path class="st1" d="M631.4,117.1"/>
		<path class="st1" d="M616,44"/>
	</g>
	<g class="st2">
		
			<linearGradient id="SVGID_1_" gradientUnits="userSpaceOnUse" x1="434.8504" y1="-65.955" x2="434.8504" y2="252.5119" gradientTransform="matrix(1 0 0 -1 -167 632.19)">
			<stop  offset="0" style="stop-color:#808080;stop-opacity:0.25"/>
			<stop  offset="0.54" style="stop-color:#808080;stop-opacity:0.12"/>
			<stop  offset="1" style="stop-color:#808080;stop-opacity:0.1"/>
		</linearGradient>
		<path class="st3" d="M506.5,698.1H29.2V393.4c0-7.6,6.1-13.7,13.7-13.7h449.9c7.6,0,13.7,6.1,13.7,13.7L506.5,698.1z"/>
	</g>
	<g class="st4">
		<path class="st1" d="M646.4,117.1"/>
		<path class="st1" d="M661.8,117.1"/>
	</g>
	<path class="st5" d="M49.5,385.3h436.8c7.6,0,13.7,6.1,13.7,13.7v299.1l0,0H35.8l0,0V399C35.8,391.4,41.9,385.3,49.5,385.3z"/>
	<rect x="57.9" y="423.2" class="st6" width="397.8" height="260.9"/>
	<rect x="52.4" y="417.3" class="st7" width="432.5" height="256.3"/>
	<rect x="52.4" y="403.7" class="st6" width="432.5" height="13.6"/>
	<circle class="st8" cx="61.6" cy="410.3" r="3.3"/>
	<circle class="st9" cx="70.7" cy="410.3" r="3.3"/>
	<circle class="st10" cx="79.8" cy="410.3" r="3.3"/>
	<g class="st2">
		
			<linearGradient id="SVGID_2_" gradientUnits="userSpaceOnUse" x1="421.9048" y1="-82.9991" x2="421.9048" y2="-33.6934" gradientTransform="matrix(1 0 0 -1 -167 632.19)">
			<stop  offset="0" style="stop-color:#808080;stop-opacity:0.25"/>
			<stop  offset="0.54" style="stop-color:#808080;stop-opacity:0.12"/>
			<stop  offset="1" style="stop-color:#808080;stop-opacity:0.1"/>
		</linearGradient>
		<path class="st11" d="M494.5,714c-25.3,1.9-459.8,1.1-475,0C-0.3,704.4,0,667.2,0,667.2l199.3-1.3l0.7,11.3h85.3l3.3-10h220.8
			C509.4,667.2,513.8,701.4,494.5,714z"/>
	</g>
	<path class="st6" d="M532.6,672.6H305.2c2.5,2.9,2.3,7.3-0.6,9.8c-1.3,1.2-3,1.8-4.7,1.7h-86.8c-3.8,0.1-7-3-7.1-6.8
		c0-1.7,0.6-3.4,1.7-4.7H4.2c0,0-0.3,33.9,20.3,42.7c15.8,1.1,466.5,1.7,492.7,0C537.1,703.8,532.6,672.6,532.6,672.6z"/>
	<circle class="st12" cx="50.9" cy="679.9" r="2.8"/>
	<circle class="st12" cx="59.3" cy="679.9" r="2.8"/>
	<circle class="st12" cx="67.7" cy="679.9" r="2.8"/>
	<polyline class="st13" points="239,306.4 239,99.4 410,99.4 	"/>
	<polyline class="st13" points="186,243.4 186,36.4 357,36.4 	"/>
	<polyline class="st13" points="716,477.4 716,639.4 626,639.4 	"/>
	<polyline class="st13" points="770,513.4 770,675.4 680,675.4 	"/>
</g>
<g id="Layer_2">
	
		<linearGradient id="SVGID_3_" gradientUnits="userSpaceOnUse" x1="641.6572" y1="390.1531" x2="641.6572" y2="661.5931" gradientTransform="matrix(1 0 0 -1 0 722)">
		<stop  offset="0" style="stop-color:#808080;stop-opacity:0.25"/>
		<stop  offset="0.54" style="stop-color:#808080;stop-opacity:0.12"/>
		<stop  offset="1" style="stop-color:#808080;stop-opacity:0.1"/>
	</linearGradient>
	<rect x="531.4" y="60.4" class="st14" width="220.6" height="271.4"/>
	<rect x="534.4" y="63.4" class="st6" width="214.4" height="263.6"/>
	<rect x="530.2" y="58.7" class="st15" width="214.4" height="32.7"/>
	<rect x="540.1" y="66.9" class="st5" width="17.3" height="4.1"/>
	<rect x="540.1" y="74.7" class="st5" width="17.3" height="4.1"/>
	<rect x="117.8" y="87.4" class="st5" width="43.2" height="10.4"/>
	
		<linearGradient id="SVGID_4_" gradientUnits="userSpaceOnUse" x1="642.0576" y1="533.0795" x2="642.0576" y2="620.757" gradientTransform="matrix(1 0 0 -1 0 722)">
		<stop  offset="0" style="stop-color:#808080;stop-opacity:0.25"/>
		<stop  offset="0.54" style="stop-color:#808080;stop-opacity:0.12"/>
		<stop  offset="1" style="stop-color:#808080;stop-opacity:0.1"/>
	</linearGradient>
	<rect x="523.8" y="101.2" class="st16" width="236.6" height="87.7"/>
	<rect x="525.8" y="104.2" class="st5" width="231.7" height="81.8"/>
	<rect x="575.4" y="134.8" class="st17" width="58.3" height="4.1"/>
	<rect x="575.4" y="151.4" class="st10" width="58.3" height="4.1"/>
	<rect x="575.4" y="143.1" class="st12" width="168.5" height="4.1"/>
	<ellipse class="st10" cx="550.5" cy="145.1" rx="10.4" ry="9.7"/>
	
		<linearGradient id="SVGID_5_" gradientUnits="userSpaceOnUse" x1="712.72" y1="406.968" x2="712.72" y2="690.5508" gradientTransform="matrix(1 0 0 -1 0 722)">
		<stop  offset="0" style="stop-color:#808080;stop-opacity:0.25"/>
		<stop  offset="0.54" style="stop-color:#808080;stop-opacity:0.12"/>
		<stop  offset="1" style="stop-color:#808080;stop-opacity:0.1"/>
	</linearGradient>
	<rect x="604.9" y="31.4" class="st18" width="215.7" height="283.6"/>
	<rect x="607.6" y="33.6" class="st5" width="210.2" height="277"/>
	<rect x="607.4" y="33.3" class="st15" width="210.7" height="105.6"/>
	<rect x="651.7" y="168.7" class="st17" width="57.1" height="4.4"/>
	<rect x="651.7" y="186.2" class="st6" width="57.1" height="4.4"/>
	<rect x="651.7" y="177.5" class="st10" width="149.2" height="4.4"/>
	<rect x="690" y="72.8" class="st5" width="57.1" height="4.4"/>
	<rect x="690" y="82.5" class="st5" width="92" height="4.4"/>
	<path class="st19" d="M709.4,95.1h53.1c1.1,0,2,0.9,2,2V98c0,1.1-0.9,2-2,2h-53.1c-1.1,0-2-0.9-2-2v-0.8
		C707.4,96,708.3,95.1,709.4,95.1z"/>
	<circle class="st10" cx="627.2" cy="173.8" r="10.2"/>
	<rect x="651.7" y="210.9" class="st17" width="57.1" height="4.4"/>
	<rect x="651.7" y="228.3" class="st6" width="57.1" height="4.4"/>
	<rect x="651.7" y="219.6" class="st12" width="149.2" height="4.4"/>
	<circle class="st12" cx="627.2" cy="216" r="10.2"/>
	<rect x="651.7" y="253" class="st17" width="57.1" height="4.4"/>
	<rect x="651.7" y="270.4" class="st6" width="57.1" height="4.4"/>
	<rect x="651.7" y="261.7" class="st12" width="149.2" height="4.4"/>
	<circle class="st12" cx="627.2" cy="258.1" r="10.2"/>
	<path class="st20" d="M673.1,81.4c0-15.5-12.6-28-28.1-28c-15.5,0-28,12.6-28,28.1c0,11.8,7.4,22.3,18.5,26.3v-7.2
		c0-5.3,4.3-9.5,9.5-9.5l0,0c5.2,0,9.5,4.3,9.5,9.5v7.2C665.7,103.7,673.1,93.2,673.1,81.4z"/>
	<circle class="st21" cx="645.1" cy="77.5" r="10.8"/>
	<path class="st21" d="M645.1,91L645.1,91c-5.2,0-9.5,4.3-9.5,9.5v7.2c6.1,2.2,12.9,2.2,19,0v-7.2C654.5,95.3,650.3,91.1,645.1,91z"
		/>
	<path class="st21" d="M634.2,76.9c-0.9-1.7-1.3-3.5-1.1-5.4c0.1-1.9,1-3.7,2.4-4.9c1.6-1.3,3.7-1.8,5.8-2c2.1-0.2,4.1-0.1,6.2-0.5
		c3.4-0.7,6.3-2.7,8.2-5.6c0.1,1.6,0.3,3.2,0,4.7c-0.3,1.5-1.1,3.1-2.5,3.9c1.6-0.8,1.5,1,1.1,2.1c0.8,1,2.8,1.1,2.9,2.4
		c0.2,1.3,0,2.5-0.4,3.7c-0.5,1.2,0,3.2-1.2,3.3"/>
</g>
<g id="Layer_3">
	<path class="st15" d="M324.9,544.9c0-38.7-31.4-70-70.1-69.9s-70,31.4-69.9,70.1c0,29.5,18.5,55.8,46.2,65.8v-18
		c0-13.1,10.6-23.8,23.8-23.8l0,0c13.1,0,23.7,10.6,23.7,23.7v18C306.4,600.8,324.9,574.4,324.9,544.9z"/>
	<circle class="st21" cx="254.9" cy="535.3" r="26.9"/>
	<path class="st21" d="M254.9,569.1L254.9,569.1c-13.1,0-23.7,10.6-23.7,23.7v18c15.3,5.5,32.1,5.5,47.4,0v-18
		C278.6,579.7,268,569.1,254.9,569.1z"/>
	<path class="st21" d="M227.8,533.8c-2.2-4.2-3.1-8.9-2.9-13.5c0.3-4.7,2.5-9.1,6-12.3c3.9-3.3,9.2-4.5,14.4-4.9s10.3-0.2,15.4-1.2
		c8.4-1.7,15.8-6.7,20.6-13.9c0.3,4,0.7,8-0.1,11.9s-2.8,7.7-6.1,9.8c4.1-1.9,3.6,2.5,2.8,5.2c2,2.5,7,2.9,7.2,6
		c0.4,3.2,0.1,6.4-1,9.4c-1.2,2.9,0.1,8.1-3.1,8.3"/>
	<path class="st5" d="M276.4,508.9c0,0,18.8,1.6,5.4,29.5"/>
</g>
</svg>
