<?xml version="1.0" encoding="utf-8"?>
<!-- Generator: Adobe Illustrator 23.0.2, SVG Export Plug-In . SVG Version: 6.00 Build 0)  -->
<svg version="1.1" id="b1edf876-5da0-4179-85bc-2c7718e75d01"
	 xmlns="http://www.w3.org/2000/svg" xmlns:xlink="http://www.w3.org/1999/xlink" x="0px" y="0px" viewBox="0 0 1153.4 845.7"
	 style="enable-background:new 0 0 1153.4 845.7;" xml:space="preserve">
<style type="text/css">
	.st0{opacity:0.1;fill:#307167;enable-background:new    ;}
	.st1{fill:#307167;}
	.st2{fill:#464353;}
	.st3{opacity:0.1;}
	.st4{fill:#EFB7B9;}
	.st5{opacity:0.1;enable-background:new    ;}
</style>
<title>moving forward</title>
<path class="st0" d="M47.1,275.7l45.8-25l0,0l65.4-35.7l0,0l81.7-44.6l35.3-19.3l50.9-27.8l0,0l49.6-27.1l154.5-84.4
	c29-15.7,64-15.7,93,0l0.8,0.5l30.4,16.6l20,10.9l87,47.5l35.7,19.5l50.1,27.3l43.9,24l34.1,18.6l117,63.9l23.3,12.8l40.8,22.3
	c40.8,22.3,57.9,69.9,40,111.3L978.2,776.1l-6.2,14.3c-14.5,33.4-48.6,55.2-86.5,55.2H267.9c-37.9,0-72-21.8-86.5-55.2L137,687.6
	L7.1,387C-10.8,345.6,6.3,298,47.1,275.7z"/>
<path class="st0" d="M809.4,132.1c-4,7.2-15.5,1.1-23.9,0c-8.3-1.1-12.7,1.9-19.5,7.6s-13.5,0.8-21.9,0c-8.4-0.8,4.8-12.9-8.8-12.9
	c-13.5,0-8.7-8.7-8.7-8.7c15.9,0.9,42.7-4.2,70.5-11.3l50.1,27.3c-5.6,1.3-10.6,2.4-14.4,3.3C810.5,142.8,813.3,124.9,809.4,132.1z"
	/>
<path class="st0" d="M419.2,111.8c-13.5,0-0.4,12.1-8.8,12.9s-15.1,5.7-21.9,0s-11.1-8.7-19.5-7.6s-19.9,7.2-23.9,0
	c-3.7-6.7-1.5,8.2-19.1,6.1l49.6-27.1c20.9,4.8,39.9,7.7,52.2,7C427.9,103.1,432.7,111.8,419.2,111.8z"/>
<path class="st0" d="M88.3,381.2c8.3,0.8,15.1,5.7,21.9,0s11.1-8.7,19.5-7.6s19.9,7.2,23.9,0c4-7.2,1.2,10.6,23.5,5.3
	c12.4-3,38.8-7.8,55.9-19.5l-3.5,94.7c-38.4,12.7-119.5,37.8-153,35.8c0,0-4.8,8.7,8.7,8.7s0.4,12.2,8.8,12.9
	c8.3,0.7,15.1,5.7,21.9,0c6.8-5.7,11.1-8.7,19.5-7.6s19.9,7.2,23.9,0s1.2,10.6,23.5,5.3c10.1-2.4,29.2-6,45.2-13.5l-7,190l0,0
	c-27.8-4.5-56.2-3.9-83.8,1.8l44.5,102.8c14.5,33.4,48.6,55.2,86.5,55.2h617.6c37.9,0,72-21.8,86.5-55.2l6.2-14.3
	c-8.7-8-18.4-14.8-29-20c-11-5.3-22.7-9-34.7-11l0,0l4.5-238.4c17,10.3,41.2,14.8,52.9,17.6c22.3,5.3,19.5-12.5,23.5-5.3
	c4,7.2,15.5,1.1,23.9,0s12.7,1.9,19.5,7.6s13.5,0.8,21.9,0s-4.8-12.9,8.8-12.9s8.7-8.7,8.7-8.7c-35.1,2.1-122.8-25.7-158.4-37.6
	l1.8-93c17.1,11.7,43.6,16.6,56.1,19.6c22.3,5.3,19.5-12.5,23.5-5.3s15.5,1.1,23.9,0s12.7,1.9,19.5,7.6s13.5,0.8,21.9,0
	c8.4-0.8-4.8-12.9,8.8-12.9c13.5,0,8.8-8.7,8.8-8.7c-36.2,2.2-128.2-27.4-161.5-38.6l1.6-87.3c16.5,8.4,37.4,12.4,48.1,14.9
	c22.3,5.3,19.5-12.5,23.5-5.3s15.5,1.1,23.9,0s12.7,1.9,19.5,7.6s13.5,0.7,21.9,0c7.4-0.7-1.9-10.2,5-12.4l-23.3-12.8
	c-38.6-7.2-89.8-23.2-117.6-32.4l0.6-31.5l-34.1-18.6l-1.8,47c-32.2,10.9-126.1,41.3-162.8,39.1c0,0-4.8,8.7,8.7,8.7
	s0.4,12.2,8.8,12.9c8.3,0.7,15.2,5.7,21.9,0c6.7-5.7,11.1-8.7,19.5-7.5s19.9,7.2,23.9,0c4-7.2,1.2,10.6,23.5,5.3
	c12.3-3,38-7.7,55.1-19l-3.4,90.7C853.1,345.9,758,376.8,721,374.6c0,0-4.8,8.7,8.8,8.7c13.5,0,0.4,12.2,8.8,12.9
	c8.3,0.7,15.1,5.7,21.9,0c6.8-5.7,11.1-8.7,19.5-7.6c8.3,1.1,19.9,7.2,23.9,0c4-7.2,1.2,10.6,23.5,5.3c12.4-3,38.8-7.8,55.9-19.5
	l-3.5,94.7c-38.4,12.7-119.5,37.8-153,35.8c0,0-4.8,8.7,8.7,8.7s0.4,12.2,8.8,12.9c8.4,0.8,15.1,5.7,21.9,0s11.1-8.7,19.5-7.6
	s19.9,7.2,23.9,0c4-7.2,1.2,10.6,23.5,5.3c10.1-2.4,29.2-6,45.2-13.5l-8.6,231.9c-47.3,1.9-97.2,13.8-143.7,4.7
	c-28.5-5.5-54.8-18.9-83.1-25.4l-1.3-0.3l0,0l3-157.3c17,10.3,41.2,14.8,52.9,17.6c22.3,5.3,19.5-12.5,23.5-5.3
	c4,7.2,15.5,1.1,23.9,0c8.3-1.1,12.7,1.9,19.5,7.6s13.5,0.8,21.9,0c8.4-0.8-4.8-12.9,8.8-12.9c13.5,0,8.8-8.7,8.8-8.7
	c-35.1,2.1-122.8-25.7-158.4-37.6l1.8-93.1c17,11.7,43.6,16.6,56,19.6c22.3,5.3,19.5-12.5,23.5-5.3c4,7.2,15.5,1.1,23.9,0
	c8.3-1.1,12.7,1.9,19.5,7.6s13.5,0.8,21.9,0c8.4-0.8-4.8-12.9,8.8-12.9c13.5,0,8.7-8.7,8.7-8.7c-36.2,2.1-128.2-27.5-161.5-38.6
	l1.6-87.3c16.5,8.4,37.4,12.4,48.1,14.9c22.3,5.3,19.5-12.5,23.5-5.3c4,7.2,15.5,1.1,23.9,0c8.3-1.1,12.7,1.9,19.5,7.6
	s13.5,0.8,21.9,0c8.4-0.8-4.8-12.9,8.8-12.9c13.5,0,8.8-8.7,8.8-8.7c-33.6,2-115.3-23.4-153.5-36l1.6-84.5
	c16.1,7.6,35.6,11.3,45.7,13.7c22.3,5.3,19.5-12.5,23.5-5.3c4,7.2,15.5,1.1,23.9,0c8.3-1.1,12.7,1.9,19.5,7.6s13.5,0.8,21.9,0
	c8.4-0.8-4.8-12.9,8.8-12.9c13.5,0,8.8-8.7,8.8-8.7c-32.9,2-112-22.4-151.2-35.3l1.3-71c16.6,14.2,46.8,19.8,60.4,23
	c22.3,5.3,19.5-12.5,23.5-5.3c4,7.2,15.5,1.1,23.8,0l-87-47.5c-8.3-2.6-15.1-5-20-6.6l0.1-4.2L624,12.2L623.1,37
	c-37.8,12.5-120.5,38.2-154.3,36.2c0,0-4.8,8.7,8.7,8.7s0.4,12.2,8.8,12.9s15.1,5.7,21.9,0c6.8-5.7,11.1-8.7,19.5-7.6
	s19.9,7.2,23.9,0s1.2,10.6,23.5,5.3c10.4-2.5,30.3-6.2,46.6-14.2l-2.1,56.7c-26.4,9-128.8,43-167.5,40.7c0,0-4.8,8.7,8.7,8.7
	s0.4,12.1,8.8,12.9s15.1,5.7,21.9,0s11.1-8.7,19.5-7.6c8.3,1.1,19.9,7.2,23.9,0s1.2,10.6,23.5,5.3c13.5-3.2,43.3-8.6,59.9-22.5
	l-3.4,90.2C582.5,273.7,488.6,304.1,452,302c0,0-4.8,8.7,8.7,8.7s0.4,12.1,8.8,12.9s15.1,5.7,21.9,0s11.1-8.7,19.5-7.6
	c8.3,1.1,19.9,7.2,23.9,0s1.2,10.6,23.5,5.3c12.2-3,38-7.7,55.1-19l-3.4,90.7c-31.4,10.6-126.6,41.5-163.5,39.3c0,0-4.8,8.7,8.7,8.7
	s0.4,12.2,8.8,12.9s15.1,5.7,21.9,0s11.1-8.7,19.5-7.6c8.3,1.1,19.9,7.2,23.9,0s1.2,10.6,23.5,5.3c12.5-3,38.8-7.8,55.9-19.5
	l-3.5,94.7c-38.5,12.7-119.6,37.8-153,35.8c0,0-4.8,8.7,8.7,8.7s0.4,12.2,8.8,12.9s15.1,5.7,21.9,0s11.1-8.7,19.5-7.6
	c8.3,1.1,19.9,7.2,23.9,0s1.2,10.6,23.5,5.3c10.1-2.4,29.2-6,45.2-13.5L597.9,717c-70-0.7-141.7,26.8-211.9,17.3
	c-42.1-5.7-80.8-24.2-121-37.3l0,0l3.9-205.2c17,10.3,41.2,14.8,52.9,17.6c22.3,5.3,19.5-12.5,23.5-5.3s15.5,1.1,23.9,0
	s12.7,1.9,19.5,7.6c6.8,5.7,13.6,0.8,21.9,0c8.3-0.8-4.7-12.9,8.8-12.9s8.7-8.7,8.7-8.7c-35.1,2.1-122.8-25.7-158.4-37.6l1.8-93
	c17,11.7,43.5,16.6,56,19.6c22.3,5.3,19.5-12.5,23.5-5.3s15.5,1.1,23.9,0s12.7,1.9,19.5,7.6s13.5,0.8,21.9,0s-4.8-12.9,8.8-12.9
	s8.8-8.7,8.8-8.7c-36.2,2.2-128.2-27.4-161.5-38.6l1.6-87.3c16.5,8.4,37.4,12.4,48.1,14.9c22.3,5.3,19.5-12.5,23.5-5.3
	s15.5,1.1,23.9,0s12.7,1.9,19.5,7.6s13.5,0.8,21.9,0s-4.8-12.9,8.8-12.9s8.7-8.7,8.7-8.7c-33.6,2-115.3-23.4-153.5-36l0.8-42.2
	l-35.3,19.3l-0.7,19.8c-16.3,5.5-48.4,16-80.9,24.8l0,0l-65.4,35.7c0.4,0.1,0.7,0.2,1.1,0.2c8.3,0.8,15.1,5.7,21.9,0
	s11.1-8.7,19.5-7.6s19.9,7.2,23.9,0s1.2,10.6,23.5,5.3c12.3-3,38-7.7,55.1-19l-3.4,90.7c-31.4,10.6-126.6,41.5-163.5,39.3
	c0,0-4.8,8.7,8.8,8.7S79.9,380.5,88.3,381.2z"/>
<path class="st1" d="M292.8,107c0,0,18.8,39.8,12,84.4s-36.5,77-36.5,77s-18.8-39.8-12-84.4S292.8,107,292.8,107z"/>
<path class="st1" d="M174.9,268.8c0,0-20,13.2-44.6,12.9s-44.3-13.9-44.3-13.9s20-13.1,44.6-12.9
	C155.2,255.2,174.9,268.8,174.9,268.8z"/>
<path class="st1" d="M144.6,154.2c0,0,4.8,32.8,27.7,57.9c22.8,25.1,55,33,55,33s-4.8-32.8-27.7-57.9
	C176.8,162.1,144.6,154.2,144.6,154.2z"/>
<path class="st2" d="M849.7,236v593.3c0,9-7.3,16.4-16.4,16.4H167c-9,0-16.4-7.3-16.4-16.4V236c0-9,7.3-16.4,16.4-16.4h666.3
	C842.4,219.7,849.7,227,849.7,236z"/>
<g class="st3">
	<path d="M227.7,541.2c-1.7-3.5-0.3-7.7,3.1-9.4l17.6-8.5l142-69.2l12.5-6.1c0.1-0.1,0.2-0.1,0.4-0.2c3.6-1.5,7.7,0.2,9.1,3.8
		c0.3,0.8,0.5,1.7,0.5,2.6v41.3c0,3.8,3.1,6.9,7,7h346.6c3.9,0,7,3.1,7,7v57.1c0,3.8-3.2,7-7,7H419.9c-3.8,0-7,3.2-7,7V621
		c0,0.9-0.2,1.8-0.5,2.6c0,0.1-0.1,0.2-0.1,0.3c-1.7,3.5-5.8,5-9.3,3.3l-12.5-6l-142-68.5l-17.6-8.5
		C229.5,543.7,228.4,542.6,227.7,541.2z"/>
</g>
<path class="st1" d="M227.7,536.2c-1.7-3.5-0.3-7.7,3.1-9.4l17.6-8.5l142-69.2l12.5-6.1c0.1-0.1,0.2-0.1,0.4-0.2
	c3.6-1.5,7.7,0.2,9.1,3.8c0.3,0.8,0.5,1.7,0.5,2.6v41.3c0,3.8,3.1,6.9,7,7h346.6c3.9,0,7,3.1,7,7v57.1c0,3.8-3.2,7-7,7H419.9
	c-3.8,0-7,3.2-7,7V616c0,0.9-0.2,1.8-0.5,2.6c0,0.1-0.1,0.2-0.1,0.3c-1.7,3.5-5.8,5-9.3,3.3l-12.5-6l-142-68.5l-17.6-8.5
	C229.5,538.7,228.4,537.6,227.7,536.2z"/>
<path class="st4" d="M980.2,671.5c1.5-1.7,3.9-2.1,6.1-2.4l20.6-2.7c3.9-0.6,7.8-0.6,11.7,0.2c3.3,16.8,9.6,33.8,22.1,45.4
	c5,4.7,11,8.4,15.5,13.5c7,8,9.9,18.6,13,28.7c3.1,10.1,6.8,20.6,14.8,27.6c1.9,1.4,3.7,3.1,5.3,4.8c1.5,1.9,2.4,4.4,1.5,6.7
	c-4,10.8-6.8,22.2-13.5,31.5c-1.4,1.9-2.9,3.9-5.2,4.7s-4.7,0.3-7-0.5c-2.1-0.7-4.3-1.8-5.1-3.8c-0.8-1.9-0.2-4,0.3-6
	c1.5-6.2,1.8-12.5,2-18.9c0-0.4,0-0.8,0-1.2c0-0.6,0-1.1,0-1.7c0.1-5.2,0-10.6-2.2-15.2c-2-4.1-5.3-7.2-8.6-10.3l-11.6-10.8
	c-6.8-6.4-12.6-13.8-17.3-22c-1.4-2.4-2.6-4.8-4.1-7.1c-6.4-9.2-18.2-13.9-23.7-23.7c-1.8-3.4-3.9-6.7-6.2-9.8
	c-5-6.7-10.3-14.1-10-22.4C978.6,674.3,979.2,672.8,980.2,671.5z"/>
<path class="st4" d="M899.6,672.2c3.3-4,6.8-8,11.3-10.5c0.8-0.5,1.6-0.8,2.5-1c1.6-0.2,3.3,0.1,4.8,0.8c8.4,3,16.2,7.5,23.1,13.2
	c-6.6,3.6-11,10.2-14.6,16.7c-0.9,1.5-1.6,3.1-1.9,4.8c-0.3,1.7,0.3,3.5,1.6,4.7c4.9,4,7.5,10.7,9.2,16.7c0.7,2.7,1.3,5.5,1.8,8.2
	c2,11.3,4.1,22.7,6.1,34c0.6,3.3,1.4,6.9,4,9c1.2,0.9,2.7,1.5,3.8,2.6c2.1,2.2,1.9,5.6,1.3,8.6c-1.4,7.8-3.8,15.5-7.1,22.7
	c-1.8,3.9-4,7.9-7.6,10.3c-3.6,2.4-8.9,2.8-12-0.2c0.1-2.2,1.6-3.9,2.5-5.9c1.8-3.9,1.5-8.4,1.2-12.7c-0.1-1.6-0.2-3.2-0.4-4.9
	c-0.1-1.3-0.2-2.6-0.3-4c-0.9-10.2-2.5-20.4-6.9-29.7c-1.7-3.5-3.7-6.9-5.3-10.4c-5-10.9-6.3-23.8-14.2-32.8
	c-3.1-3.3-6-6.9-8.5-10.8c-1.7-2.7-2.8-5.6-3.2-8.8C889.7,685.3,894.7,678.2,899.6,672.2z"/>
<path class="st2" d="M1048.3,834.6c0.1,1,0.6,1.9,1.3,2.5c0.7,0.5,1.4,0.8,2.2,0.9c1.6,0.3,3.2,0.5,4.7,0.8c5,0.6,10.1,1.3,15.1,0.8
	c2.8-0.3,5.5-0.9,8.1-1.8c1.3-0.4,2.5-1.1,3.4-2c2-2.1,1.6-5.4,1.6-8.3c-0.2-5.2,1.6-10.4,4.9-14.4c1.6,3.3,2.7,6.9,3.3,10.5
	c0.4,2.7,0.7,5.9,2.9,7.5c2.2,1.7,5.2,1.2,7.9,0.6c0,0,0.1,0,0.1,0c0.5-0.1,0.9-0.6,0.9-1.1c0.3-4.8-1.2-9.6-1.9-14.4
	c-0.9-6.4-0.6-13.2-3-19.2c-1.6-4-4.4-7.5-8-10c-0.3-0.3-0.7-0.5-1.2-0.6c-1.2-0.2-2.3,0.5-2.7,1.6c-0.4,1-0.6,2.1-0.6,3.2
	c-0.3,2.8-1.2,5.4-2.7,7.8c-0.7,1.2-1.6,2.2-2.2,3.5c-3.9-0.4-7.9-1-11.7-1.9c-1.2-0.3-6.2-2.6-8.6-3.3c0,0.6,0,1.1,0,1.7
	c0,0.4,0,0.8,0,1.2c2.1,1.1,4.4,2,6.7,2.5l12.8,2.4c-1.2,4.8-1.8,9.1-4.7,13.4c-1.3,2.2-3.2,4-5.5,5.2c-2.3,1.2-5,1.2-7.3,0
	c-1.4-0.8-2.6-2.3-4.2-2.2c-0.7,0.1-1.3,0.3-1.9,0.6c-2.6,1.1-4.9,2.7-7,4.7C1049,828.9,1048,831.7,1048.3,834.6z"/>
<path class="st2" d="M916.9,815.2c0.2,2.2,2.1,4,4.2,4.7c2.2,0.6,4.4,0.8,6.6,0.5l4.1-0.2c2.8,0,5.5-0.4,8.2-1.1
	c2.7-0.7,5.1-2.3,6.7-4.5c1.5-2.3,1.9-5.1,2.7-7.8c1.3-3.7,3.1-7.2,5.3-10.5c0.2-0.4,0.6-0.8,1-0.6c0.2,0.1,0.3,0.3,0.4,0.6
	c1.8,6.1,3.3,12.2,4.5,18.4c2.4,0.3,4.9,0.1,7.2-0.7c0.1-9.2-0.9-18.4-3-27.3c-0.3-1.6-0.8-3.2-1.4-4.7c-1.5-3.3-4.1-6-6.6-8.6
	c-0.7-0.9-1.7-1.5-2.8-1.7c-1.1,0.1-2,0.7-2.5,1.7c-1.5,2.7-2,6-3.6,8.8c-0.6,1.1-1.3,2.2-1.9,3.3c-1.3,0.2-2.5,1-3.8,1.2
	c-1.9,0.4-3.8-0.3-5.6-0.8c-1.1-0.3-5.4-1.2-7.9-0.7c0.1,1.3,0.2,2.6,0.3,4c3.2,1.1,9.3,1.1,11.3,1.1c0.5,0,1,0,1.5,0.2
	c0.6,0.3,1.2,0.7,1.5,1.3c-1.6,4.4-2.9,8.9-4.7,13.2c-0.4,1.3-1.2,2.5-2.3,3.3c-1.4,0.8-3.2,0.4-4.7-0.2s-3-1.4-4.6-1.4
	c-1.4,0.1-2.8,0.6-4,1.3c-1.5,0.7-2.9,1.6-4.1,2.7C917.6,812,916.9,813.6,916.9,815.2z"/>
<path class="st2" d="M899.4,662.6c0.5-4.9,2.9-10.1,4.7-14.7c5.3-13.3,8.6-27.4,12.8-41s9.5-27.3,18.2-38.6c0.7-0.8,1.2-1.7,1.6-2.7
	c0.2-0.8,0.3-1.6,0.3-2.4c0.2-3.6,0.6-7.2,1.2-10.8c0,0,0,0,0,0c0.1-1.7,1.5-3,3.2-3c15-3.2,29.9-3.5,45.2-2.8l0.6,9.8
	c0,2.8,0.5,5.6,1.4,8.2c1,2.2,2.3,4.3,3.9,6.1c10.3,13,22.8,25,28.4,40.7c1.3,3.5,2.1,7.1,3.3,10.6c4.7,14.1,13.5,27.1,14.5,42
	c-2.7,0.5-6,1.9-6,4.6c0,1.6,1.2,3,1.3,4.6c0.1,2.8-3.2,4.3-5.9,5c-12.5,3-25.4,3.4-38.3,3.8c-10,0.3-20,0.6-29.8,2.2
	c-1.6,0.3-3.3,0.6-4.9,0.9c-2.7,0.6-5.8,1.1-7.7-0.9c-0.4-0.5-0.8-1.1-1.2-1.6c-0.3-0.5-0.8-0.9-1.4-1.2c-1-0.1-2,0.1-2.9,0.7
	c-3.6,1.7-7.5,2.5-11.5,2.2c-1-0.1-2-0.2-3-0.5c-0.9-0.1-1.8-0.6-2.5-1.3c-0.4-0.5-0.5-1.1-0.9-1.7c-0.3-0.4-0.7-0.7-1.2-0.9
	c-1.1-0.4-2.3-0.6-3.5-0.5c-1.3,0.1-2.7-0.4-3.7-1.3c-0.2-0.3-0.4-0.6-0.5-0.9c-0.2-0.8,0.1-1.8-0.3-2.5c-0.5-0.6-1.2-1-2-1.1
	l-7.1-1.7c-2.3-0.6-4.8-1.2-6.5-2.9C897.9,667.2,897.5,664,899.4,662.6z"/>
<path class="st5" d="M968.3,641.9c2-10.3,4-20.5,6.4-30.7c2-8.5,4.3-17.1,3.4-25.8c-0.5-4.2-4.4-13.9-1.8-17.4
	c3.8,2.2,5.6,8.1,6.3,12.2c0.8,5,0.5,10.1,0.4,15.2c0,5,0.2,10,0.8,14.9c1.1,8.6,3.2,17.1,4.2,25.7c0.7,6.1,0.9,12.2,1.1,18.3
	c0.3,9.2,0.6,18.4,0.8,27.6c-10,0.3-20,0.6-29.8,2.2C962.8,670.1,965.5,656,968.3,641.9z"/>
<path class="st5" d="M934.3,671.1c1.4-5.5,0.7-11.2,1.2-16.8c0.4-4.7,1.5-9.3,2-13.9c0.4-4.7,0.5-9.5,0.3-14.3
	c-0.2-10.2-0.1-20.4,0.5-30.6c0.2-4.2,0.6-8.5,2.3-12.4c1.4-3.1,4.3-6.6,7.9-7.2c-1.3,3.6-2.5,6.4-2.6,10.5
	c-0.1,4.1-0.1,8.2,0.9,12.2c1.5,6.1,5.4,11.4,6.6,17.5c1.1,5.8-0.2,11.6-1.2,17.4c-2.7,16.2-2.5,33-5.9,49c-0.3-0.5-0.8-0.9-1.4-1.2
	c-1-0.1-2,0.1-2.9,0.7c-3.6,1.7-7.5,2.5-11.5,2.2C930.9,679.9,933.2,675.5,934.3,671.1z"/>
<path class="st5" d="M916.3,677.2c5.5-14.7,7.1-30.5,8.6-46.1l2.8-28.2c0.3-4.9,1.2-9.7,2.5-14.4c1.2-4.1,3.5-9.2,7.2-11.5
	c2.4,3.2-1.9,14.3-2.8,18c-1.5,6.2-3.2,12.5-3.6,19c-0.4,5.3,0,10.5-0.2,15.8c-0.3,4.6-0.9,9.1-1.7,13.6c-2,12.2-3.9,24.4-5.9,36.6
	c-1.1-0.4-2.3-0.6-3.5-0.5c-1.3,0.1-2.7-0.4-3.7-1.3C916.1,677.8,916.2,677.5,916.3,677.2z"/>
<path class="st4" d="M906.8,523.5c1.9,1.6,2.8,1.9,2.8,4.2c0,1.9-1.3,4.1-1.6,6c-0.2,1.3-0.8,11.7,1,11.9
	c-6.2-0.9-11.7-4.5-16.1-8.9s-7.9-9.7-11.6-14.7c-3-4.1-6.2-8-9.5-11.8c-1.9-2.3-4.1-4.4-6.4-6.3c-1.5-1.2-3.2-2.2-4.5-3.5
	c-2.7-2.5-4.2-5.9-5.8-9.2c-4.6-10-9.4-20.8-7.4-31.6c0.4-2.2,2-4.9,4.1-4.2c0.7,0.3,1.3,0.7,1.7,1.3c3.7,4.6,4.4,10.9,6.5,16.4
	c1.9,4.8,4.9,9.1,8,13.3c2.9,4.1,6,7.9,9.4,11.5c2.4,2.5,5.1,4.7,7.7,6.9L906.8,523.5z"/>
<path class="st5" d="M906.8,523.5c1.9,1.6,2.8,1.9,2.8,4.2c0,1.9-1.3,4.1-1.6,6c-0.2,1.3-0.8,11.7,1,11.9
	c-6.2-0.9-11.7-4.5-16.1-8.9s-7.9-9.7-11.6-14.7c-3-4.1-6.2-8-9.5-11.8c-1.9-2.3-4.1-4.4-6.4-6.3c-1.5-1.2-3.2-2.2-4.5-3.5
	c-2.7-2.5-4.2-5.9-5.8-9.2c-4.6-10-9.4-20.8-7.4-31.6c0.4-2.2,2-4.9,4.1-4.2c0.7,0.3,1.3,0.7,1.7,1.3c3.7,4.6,4.4,10.9,6.5,16.4
	c1.9,4.8,4.9,9.1,8,13.3c2.9,4.1,6,7.9,9.4,11.5c2.4,2.5,5.1,4.7,7.7,6.9L906.8,523.5z"/>
<path class="st4" d="M921.2,450.5c12,11,13,35,13,35s45-6,38-11s-13-35-13-35S909.2,439.5,921.2,450.5z"/>
<path class="st1" d="M951.7,480.1c-5.7,6.2-9.3,14-12.9,21.5s-7.6,15.2-14,20.7c-0.8,0.8-1.9,1.4-3.1,1.7c-1,0-1.9-0.1-2.8-0.5
	c-5.9-1.9-12.3-4-18.2-5.9c-5.4,10.4,0,23.3-2.8,34.8c-0.3,0.8-0.3,1.7,0,2.5c0.3,0.4,0.7,0.6,1.1,0.8c4.7,2.3,9.9,3.5,15.2,3.5
	c1.6,0.1,3.1-0.1,4.6-0.6c1.7-0.7,3.3-1.7,4.7-3c6.3-5.1,13-9.7,19.9-14c4.2-2.4,8.2-5,12.1-7.8c7.2-5.5,12.7-12.8,17.9-20.2
	c4-5.7,7.8-11.7,9.4-18.4c1.7-6.7,0.7-14.5-4-19.5c-2-2.2-4.7-3.7-7.7-4.1C962.8,470.7,957.4,473.9,951.7,480.1z"/>
<path class="st5" d="M951.7,480.1c-5.7,6.2-9.3,14-12.9,21.5s-7.6,15.2-14,20.7c-0.8,0.8-1.9,1.4-3.1,1.7c-1,0-1.9-0.1-2.8-0.5
	c-5.9-1.9-12.3-4-18.2-5.9c-5.4,10.4,0,23.3-2.8,34.8c-0.3,0.8-0.3,1.7,0,2.5c0.3,0.4,0.7,0.6,1.1,0.8c4.7,2.3,9.9,3.5,15.2,3.5
	c1.6,0.1,3.1-0.1,4.6-0.6c1.7-0.7,3.3-1.7,4.7-3c6.3-5.1,13-9.7,19.9-14c4.2-2.4,8.2-5,12.1-7.8c7.2-5.5,12.7-12.8,17.9-20.2
	c4-5.7,7.8-11.7,9.4-18.4c1.7-6.7,0.7-14.5-4-19.5c-2-2.2-4.7-3.7-7.7-4.1C962.8,470.7,957.4,473.9,951.7,480.1z"/>
<circle class="st4" cx="935.7" cy="432" r="30"/>
<path class="st1" d="M925.9,490c7.6-15.2,21.6-24.7,38.9-23.3c4.7,0.4,8.8,3.4,12,6.9c6.4,7.2,9.8,16.7,11.4,26.2
	c1.6,9.5,1.6,19.2,2.2,28.9c0.2,3.7,0.6,7.6,2.4,10.8c1.1,1.9,2.6,3.5,3.1,5.6c0.6,2.4-0.3,5-1.1,7.4c-0.1,0.4-0.3,0.7-0.5,1
	c-1.1,1.2-2.9,0.1-4.4-0.4c-3.3-1.1-6.8,1.1-10.2,1.4c-2.1,0.2-4.2-0.3-6.3-0.2c-2.9,0.1-5.6,1.3-8.4,1.9
	c-9.4,1.9-19.4-3.3-28.5-0.2c-0.4-2.8-0.9-5.6-1.3-8.4c-0.5-2.7-1-5.5-1.5-8.2c-0.8-4.1-1.7-8.2-3.7-11.8c-1.8-3.2-4.4-5.9-6.1-9.1
	l-0.1-0.1C919.1,509.6,921.5,498.8,925.9,490z"/>
<path class="st4" d="M894.8,527.5c1.9,1.6,2.8,1.9,2.8,4.2c0,1.9-1.3,4.1-1.6,6c-0.2,1.3-0.8,11.7,1,11.9
	c-6.2-0.9-11.7-4.5-16.1-8.9s-7.9-9.7-11.6-14.7c-3-4.1-6.2-8-9.5-11.8c-1.9-2.3-4.1-4.4-6.4-6.3c-1.5-1.2-3.2-2.2-4.5-3.5
	c-2.7-2.5-4.2-5.9-5.8-9.2c-4.6-10-9.4-20.8-7.4-31.6c0.4-2.2,2-4.9,4.1-4.2c0.7,0.3,1.3,0.7,1.7,1.3c3.7,4.6,4.4,10.9,6.5,16.4
	c1.9,4.8,4.9,9.1,8,13.3c2.9,4.1,6,7.9,9.4,11.5c2.4,2.5,5.1,4.7,7.7,6.9L894.8,527.5z"/>
<path class="st5" d="M931.9,509.6c3.6-7.5,7.2-15.4,12.9-21.5c5.7-6.1,11-9.4,19.4-8.5c3,0.4,5.7,1.9,7.7,4.1
	c4.7,5.1,5.6,12.8,4,19.5s-5.4,12.7-9.4,18.4c-5.2,7.4-10.7,14.7-17.9,20.2c-3.3,2.5-6.8,4.7-10.4,6.8c-0.5-2.7-1-5.5-1.5-8.2
	c-0.8-4.1-1.7-8.2-3.7-11.8c-1.8-3.2-4.4-5.9-6.1-9.1l-0.1-0.1C928.6,516.2,930.3,512.8,931.9,509.6z"/>
<path class="st1" d="M939.7,484.1c-5.7,6.2-9.3,14-12.9,21.5c-3.6,7.6-7.6,15.2-14,20.7c-0.8,0.8-1.9,1.4-3.1,1.7
	c-1,0-1.9-0.1-2.8-0.5c-5.9-1.9-12.3-4-18.2-5.9c-5.4,10.4,0,23.3-2.8,34.8c-0.3,0.8-0.3,1.7,0,2.5c0.3,0.4,0.7,0.6,1.1,0.8
	c4.7,2.3,9.9,3.5,15.2,3.5c1.6,0.1,3.1-0.1,4.6-0.6c1.7-0.7,3.3-1.7,4.7-3c6.3-5.1,13-9.7,19.9-14c4.2-2.4,8.2-5,12.1-7.8
	c7.2-5.5,12.7-12.8,17.9-20.2c4-5.7,7.8-11.7,9.4-18.4c1.7-6.7,0.7-14.5-4-19.5c-2-2.2-4.7-3.7-7.7-4.1
	C950.8,474.7,945.4,477.9,939.7,484.1z"/>
<path class="st2" d="M927.6,419.6c1.7,4-1.6,7.4-2.8,11c-3.8,11.3-3.3,23.9-3,35.6c0,2.3,0.2,4.7,0.8,6.9c0.5,1.6,1.3,3,1.7,4.6
	c1.3,4.7-0.6,9.6-1.8,14.4c-0.9,3.6-1.2,8,1.7,10.3c2.1,1.7,5.1,1.6,7.8,1.1c4-0.6,7.7-2.2,10.9-4.6c3.9-3.1,6.2-7.8,8.4-12.2
	c2.2-4.4,4.8-9,9-11.6c4.2-2.6,10.5-2.6,13.5,1.4c2.5,3.4,1.8,8.1,2.7,12.2c1.1,5.5,5.1,10,8.9,14.2c1.9,2.3,4.1,4.3,6.5,6.1
	c4,2.7,8.9,3.9,13.7,5c-3.7-3.6-4.4-9.2-4.8-14.3l-1.1-12.9c-0.1-3-0.7-6-1.7-8.9c-2-5-6.5-8.4-9.9-12.6c-4.8-5.9-7.5-13.4-8.5-21
	s-0.6-15.3,0.1-22.9c0.5-4.9,1.1-9.9-0.8-14.6s-6.2-8-10.7-10.2s-9.4-3.8-13.8-6.3c-2.4-1.3-4.7-2.9-7.3-3.8c-6.7-2.2-13.8,1-20,4.3
	c-3.9,2.1-7.9,4.3-10.4,7.9c-2.5,3.6-3.2,8.9-0.2,12.2C919.5,414.7,925.5,414.8,927.6,419.6z"/>
<g class="st3">
	<path d="M979.6,421.5c0.5-3.4,0.6-6.8,0.3-10.3c-0.1,1.1-0.2,2.2-0.3,3.3c-0.6,5.5-0.9,11-0.7,16.6
		C979,427.9,979.3,424.7,979.6,421.5z"/>
	<path d="M922.4,492.8c-0.8,3.4-0.9,7.5,1.8,9.6c2.1,1.7,5.1,1.6,7.8,1.1c4-0.6,7.7-2.2,10.9-4.6c3.9-3.1,6.2-7.7,8.4-12.1
		c2.2-4.4,4.8-9,9-11.6c4.2-2.6,10.5-2.6,13.5,1.4c2.5,3.4,1.8,8.1,2.7,12.2c1.1,5.5,5.1,10,8.9,14.2c1.9,2.3,4.1,4.3,6.5,6.1
		c4,2.7,8.9,3.9,13.7,5c-2.1-2.2-3.5-5-4-8c-3.5-0.8-6.7-2.2-9.7-4.1c-2.4-1.8-4.6-3.8-6.5-6.1c-3.8-4.2-7.8-8.7-8.9-14.2
		c-0.9-4.1-0.1-8.8-2.7-12.2c-3-4-9.4-4-13.5-1.4s-6.7,7.2-9,11.6s-4.5,9.1-8.3,12.2c-3.2,2.4-6.9,4-10.9,4.6
		c-2.7,0.5-5.7,0.6-7.8-1.1C923.3,494.8,922.7,493.9,922.4,492.8z"/>
	<path d="M915,401.9c-1.1,3.1-0.8,6.7,1.3,9.1c3,3.4,8.3,3.8,10.8,7.6c0.9-1.9,1.4-3.9,0.5-6c-2.1-4.8-8.1-5-11.3-8.6
		C915.8,403.4,915.3,402.7,915,401.9z"/>
	<path d="M921.6,452c-0.1,4.8,0.1,9.6,0.2,14.3c0,2.3,0.2,4.7,0.8,6.9c0.5,1.6,1.3,3,1.7,4.6c0,0.1,0,0.1,0,0.2
		c0.6-2.4,0.6-4.8,0-7.2c-0.4-1.6-1.2-3-1.7-4.6c-0.6-2.3-0.9-4.6-0.8-6.9C921.7,456.8,921.7,454.4,921.6,452z"/>
</g>
</svg>
