<?xml version="1.0" encoding="utf-8"?>
<!-- Generator: Adobe Illustrator 23.0.1, SVG Export Plug-In . SVG Version: 6.00 Build 0)  -->
<svg version="1.1" xmlns="http://www.w3.org/2000/svg" xmlns:xlink="http://www.w3.org/1999/xlink" x="0px" y="0px"
	 viewBox="0 0 1304.2 1091.3" style="enable-background:new 0 0 1304.2 1091.3;" xml:space="preserve">
<style type="text/css">
	.st0{fill:#307167;stroke:#57BC90;stroke-width:5;stroke-miterlimit:10;}
	.st1{fill:#57BC90;}
	.st2{fill:#FFFFFF;}
</style>
<g id="Layer_2">
	<path class="st0" d="M970.8,873.5H307.2c-6.6,0-12-5.4-12-12V198c0-6.6,5.4-12,12-12h663.6c6.6,0,12,5.4,12,12v663.6
		C982.8,868.1,977.4,873.5,970.8,873.5z"/>
</g>
<g id="Layer_1">
	<g>
		<path class="st1" d="M741.5,293.2c-38.6,0-76,16.1-102.7,44.3l-6,6.4l-6.1-6.4c-26.6-28.1-64-44.3-102.6-44.3
			c-77.9,0-141.3,63.4-141.3,141.3c0,32.5,11.3,64.3,31.9,89.4L632.8,790l75.6-92.3l-11.1-10.5l-0.3,0.4l-64.2,78.3L426.5,514.2
			c-18.3-22.4-28.4-50.7-28.4-79.7c0-69.5,56.5-126,126-126c40.5,0,78.9,19.7,102.5,52.8l6.2,8.7l6.2-8.7
			c23.7-33,62-52.8,102.5-52.8c69.5,0,126,56.5,126,126c0,26.5-8.6,52.9-24.3,74.3l-2.5,3.4h19.6l6.4-12.2
			c10.6-20.2,16.1-42.8,16.1-65.5C882.8,356.6,819.4,293.2,741.5,293.2z"/>
		<path class="st2" d="M809.2,512.2v-73.6H697.3v73.6h-73.6v111.9h73.6v63.1l11.1,10.5h100.7v-73.6h73.7V512.2H809.2z M867.5,608.7
			h-73.6v73.6h-81.3v-73.6H639v-81.3h73.6v-73.6h81.3v73.6h73.6V608.7L867.5,608.7z"/>
		<g>
			<path class="st2" d="M697.3,697.7c0,0,0,0,0-10.6l11.2,10.6"/>
		</g>
	</g>
	<path class="st2" d="M390.2,65.9"/>
</g>
</svg>
