<?xml version="1.0" encoding="utf-8"?>
<!-- Generator: Adobe Illustrator 23.0.1, SVG Export Plug-In . SVG Version: 6.00 Build 0)  -->
<svg version="1.1" id="Layer_1" xmlns="http://www.w3.org/2000/svg" xmlns:xlink="http://www.w3.org/1999/xlink" x="0px" y="0px"
	 viewBox="0 0 512 512" style="enable-background:new 0 0 512 512;" xml:space="preserve">
<style type="text/css">
	.st0{fill:#307167;}
	.st1{fill:#57BC90;}
</style>
<g>
	<path class="st0" d="M364.7,7.6c-38.6,0-76,16.1-102.7,44.3l-6,6.4l-6.1-6.4C223.3,23.8,185.9,7.6,147.3,7.6C69.4,7.6,6,71,6,148.9
		c0,32.5,11.3,64.3,31.9,89.4L256,504.4l75.6-92.3l-11.1-10.5l-0.3,0.4L256,480.3L49.7,228.6c-18.3-22.4-28.4-50.7-28.4-79.7
		c0-69.5,56.5-126,126-126c40.5,0,78.9,19.7,102.5,52.8l6.2,8.7l6.2-8.7c23.7-33,62-52.8,102.5-52.8c69.5,0,126,56.5,126,126
		c0,26.5-8.6,52.9-24.3,74.3l-2.5,3.4h19.6l6.4-12.2c10.6-20.2,16.1-42.8,16.1-65.5C506,71,442.6,7.6,364.7,7.6z"/>
	<path class="st1" d="M432.4,226.6V153H320.5v73.6h-73.6v111.9h73.6v63.1l11.1,10.5h100.7v-73.6H506V226.6H432.4z M490.7,323.1
		h-73.6v73.6h-81.3v-73.6h-73.6v-81.3h73.6v-73.6h81.3v73.6h73.6L490.7,323.1L490.7,323.1z"/>
	<polyline class="st1" points="320.5,401.5 320.5,412.1 331.7,412.1 	"/>
</g>
</svg>
