<?xml version="1.0" encoding="utf-8"?>
<!-- Generator: Adobe Illustrator 16.0.0, SVG Export Plug-In . SVG Version: 6.00 Build 0)  -->
<!DOCTYPE svg PUBLIC "-//W3C//DTD SVG 1.1//EN" "http://www.w3.org/Graphics/SVG/1.1/DTD/svg11.dtd">
<svg version="1.1" id="Layer_1" xmlns="http://www.w3.org/2000/svg" xmlns:xlink="http://www.w3.org/1999/xlink" x="0px" y="0px"
	 width="512px" height="512px" viewBox="0 0 512 512" enable-background="new 0 0 512 512" xml:space="preserve">
<g>
	<path fill="#307167" d="M364.731,7.625c-38.629,0-76.031,16.136-102.695,44.294l-6.024,6.386l-6.053-6.386
		C223.328,23.761,185.893,7.625,147.267,7.625C69.37,7.625,6,70.998,6,148.892c0,32.519,11.331,64.259,31.879,89.39l218.133,266.092
		l75.645-92.309l-11.135-10.521l-0.304,0.39l-64.233,78.337L49.708,228.592c-18.327-22.411-28.407-50.71-28.407-79.7
		c0-69.455,56.511-125.966,125.966-125.966c40.543,0,78.865,19.715,102.497,52.763l6.221,8.694l6.219-8.694
		c23.659-33.048,61.983-52.763,102.527-52.763c69.452,0,125.968,56.511,125.968,125.966c0,26.493-8.612,52.901-24.271,74.285
		l-2.5,3.414h19.574l6.362-12.19C500.419,194.241,506,171.58,506,148.892C506,70.998,442.628,7.625,364.731,7.625z"/>
	<path fill="#307167" d="M432.383,226.591v-73.617H320.521v73.617h-73.616v111.857h73.616v63.096l11.135,10.521h100.727v-73.617H506
		V226.591H432.383z M490.699,323.147h-73.623v73.618h-81.254v-73.618h-73.618v-81.253h73.618v-73.621h81.254v73.621h73.623V323.147z
		"/>
</g>
</svg>
