<?xml version="1.0" encoding="utf-8"?>
<!-- Generator: Adobe Illustrator 16.0.0, SVG Export Plug-In . SVG Version: 6.00 Build 0)  -->
<!DOCTYPE svg PUBLIC "-//W3C//DTD SVG 1.1//EN" "http://www.w3.org/Graphics/SVG/1.1/DTD/svg11.dtd">
<svg version="1.1" id="Layer_1" xmlns="http://www.w3.org/2000/svg" xmlns:xlink="http://www.w3.org/1999/xlink" x="0px" y="0px"
	 width="512px" height="512px" viewBox="0 0 512 512" enable-background="new 0 0 512 512" xml:space="preserve">
<g>
	<rect x="282.411" y="207.744" fill="#FFFFFF" width="33.976" height="18.183"/>
	<path fill="#BDC5D1" d="M286.245,25.132C273.888,12.795,257.471,6,240.02,6c-17.476,0-33.896,6.797-46.239,19.136
		c-12.352,12.355-19.154,28.774-19.154,46.234c0,17.482,6.801,33.902,19.151,46.232c12.338,12.353,28.762,19.156,46.242,19.156
		c17.458,0,33.875-6.801,46.23-19.154c12.339-12.337,19.136-28.756,19.136-46.234C305.386,53.913,298.589,37.491,286.245,25.132z
		 M240.02,125.224c-14.398,0-27.922-5.603-38.085-15.779c-10.17-10.156-15.772-23.678-15.772-38.074
		c0-14.38,5.603-27.902,15.775-38.079c10.162-10.161,23.687-15.757,38.083-15.757c14.374,0,27.896,5.596,38.07,15.754
		c10.165,10.177,15.762,23.703,15.762,38.081c0,14.396-5.597,27.92-15.758,38.079C267.92,119.621,254.398,125.224,240.02,125.224z"
		/>
	<g>
		<g>
			<g>
				<path fill="#65696F" d="M128.551,417.479h-21.316c-24.846,0-45.955-16.334-53.153-38.827c-1.708-5.326-2.63-11.025-2.63-16.933
					c0-30.752,25.031-55.782,55.783-55.782h333.704c5.905,0,11.605,0.924,16.956,2.654c22.493,7.173,38.826,28.283,38.826,53.128
					c0,30.752-25.029,55.76-55.782,55.76H172.776"/>
			</g>
			<path fill="#307167" d="M116.278,381.307H71.061c-30.752,0-55.782-25.008-55.782-55.76s25.03-55.782,55.782-55.782h333.706
				c30.752,0,55.781,25.03,55.781,55.782s-25.029,55.76-55.781,55.76H172.383"/>
			<path fill="#FFFFFF" d="M407.851,304.239c-1.224-1.546-3.184-2.47-5.24-2.47c-1.494,0-2.934,0.491-4.058,1.379
				c-1.386,1.1-2.265,2.672-2.467,4.425c-0.203,1.753,0.283,3.483,1.379,4.871l8.736,11.053l-8.732,11.048
				c-1.102,1.388-1.593,3.118-1.388,4.875c0.207,1.753,1.086,3.326,2.47,4.421c1.133,0.896,2.577,1.388,4.066,1.388
				c2.048,0,4.003-0.924,5.233-2.47l11.979-15.157c1.908-2.415,1.908-5.795,0-8.21L407.851,304.239z"/>
			<path fill="#FFFFFF" d="M89.812,322.975c-0.153-0.365-0.363-0.758-0.588-1.096c-0.252-0.383-0.514-0.703-0.822-1.009
				c-0.291-0.293-0.638-0.581-1.079-0.884c-0.259-0.171-0.676-0.392-1.1-0.567c-0.383-0.162-0.793-0.284-1.221-0.369
				c-2.102-0.419-4.477,0.324-5.943,1.798c-0.315,0.315-0.595,0.648-0.854,1.036c-0.23,0.343-0.437,0.726-0.613,1.153
				c-0.146,0.356-0.284,0.798-0.372,1.244c-0.079,0.383-0.12,0.819-0.12,1.261c0,0.446,0.043,0.879,0.124,1.284
				c0.088,0.438,0.214,0.848,0.367,1.213c0.173,0.432,0.374,0.806,0.624,1.18c0.234,0.352,0.523,0.699,0.825,1.001
				c0.309,0.311,0.633,0.576,0.959,0.788c0.408,0.271,0.789,0.474,1.201,0.645c0.398,0.162,0.809,0.293,1.221,0.374
				c0.453,0.09,0.876,0.135,1.291,0.135c0.408,0,0.829-0.045,1.287-0.135c0.441-0.086,0.856-0.217,1.23-0.374
				c0.415-0.171,0.818-0.388,1.169-0.617c0.356-0.234,0.712-0.527,1.002-0.815c0.297-0.302,0.565-0.627,0.784-0.955
				c0.264-0.396,0.464-0.771,0.631-1.172c0.171-0.415,0.297-0.829,0.392-1.279c0.085-0.433,0.126-0.861,0.126-1.271
				c0-0.414-0.045-0.852-0.135-1.311C90.119,323.844,89.988,323.406,89.812,322.975z"/>
			<path fill="#FFFFFF" d="M144.562,322.975c-0.153-0.356-0.362-0.748-0.585-1.086c-0.248-0.384-0.507-0.703-0.818-1.015
				c-1.525-1.531-3.855-2.262-6.004-1.82c-0.396,0.081-0.832,0.208-1.25,0.384c-0.354,0.148-0.741,0.355-1.113,0.604
				c-0.347,0.229-0.689,0.514-1.002,0.824c-0.307,0.307-0.586,0.645-0.836,1.019c-0.234,0.352-0.437,0.734-0.613,1.148
				c-0.145,0.361-0.277,0.798-0.374,1.249c-0.077,0.383-0.117,0.819-0.117,1.261c0,0.446,0.041,0.879,0.122,1.275
				c0.092,0.433,0.214,0.852,0.376,1.244c0.173,0.419,0.383,0.807,0.615,1.153c0.237,0.352,0.516,0.693,0.838,1.019
				c0.309,0.302,0.628,0.567,0.951,0.774c0.412,0.275,0.789,0.474,1.189,0.64c0.385,0.162,0.804,0.289,1.252,0.384
				c0.433,0.085,0.852,0.13,1.273,0.13c0.417,0,0.833-0.045,1.275-0.135c0.455-0.095,0.865-0.217,1.23-0.369
				c0.423-0.176,0.807-0.374,1.158-0.608c0.376-0.243,0.699-0.51,1.019-0.829c0.311-0.312,0.579-0.636,0.789-0.96
				c0.261-0.396,0.466-0.775,0.631-1.172c0.169-0.414,0.297-0.824,0.387-1.274c0.09-0.433,0.131-0.861,0.131-1.271
				c0-0.419-0.045-0.855-0.138-1.307C144.866,323.839,144.733,323.397,144.562,322.975z"/>
			<path fill="#FFFFFF" d="M187.1,328.039c0.175,0.428,0.369,0.802,0.608,1.167c0.234,0.355,0.505,0.688,0.84,1.027
				c0.311,0.311,0.638,0.572,0.949,0.774c0.403,0.266,0.771,0.469,1.163,0.627c0.439,0.18,0.845,0.306,1.264,0.387
				c0.448,0.095,0.874,0.14,1.293,0.14c0.421,0,0.834-0.045,1.25-0.13c0.441-0.086,0.865-0.217,1.25-0.374
				c0.43-0.181,0.815-0.379,1.167-0.613c0.365-0.243,0.701-0.514,1.023-0.833c0.302-0.307,0.563-0.631,0.772-0.946
				c0.264-0.393,0.469-0.775,0.622-1.154c0.171-0.405,0.299-0.819,0.401-1.297c0.085-0.433,0.133-0.861,0.133-1.271
				c0-0.4-0.047-0.833-0.133-1.279c-0.079-0.414-0.203-0.82-0.39-1.275c-0.16-0.388-0.374-0.779-0.593-1.099
				c-0.259-0.401-0.518-0.722-0.813-1.015c-1.503-1.509-3.864-2.248-5.979-1.824c-0.423,0.085-0.852,0.212-1.277,0.388
				c-0.367,0.152-0.761,0.369-1.111,0.604c-0.347,0.229-0.687,0.509-1.002,0.82c-0.299,0.302-0.57,0.631-0.789,0.964
				c-0.261,0.388-0.466,0.766-0.648,1.198c-0.165,0.41-0.293,0.829-0.358,1.172c-0.097,0.478-0.142,0.919-0.142,1.347
				c0,0.42,0.043,0.843,0.126,1.258C186.807,327.228,186.93,327.638,187.1,328.039z"/>
			<path fill="#FFFFFF" d="M241.847,328.039c0.173,0.423,0.372,0.802,0.608,1.157c0.257,0.393,0.521,0.717,0.833,1.032
				c0.313,0.307,0.64,0.572,0.958,0.779c0.408,0.271,0.777,0.469,1.167,0.631c0.412,0.171,0.825,0.298,1.252,0.383
				c0.453,0.095,0.875,0.14,1.3,0.14c0.415,0,0.827-0.04,1.259-0.13c0.448-0.091,0.865-0.217,1.237-0.374
				c0.43-0.176,0.813-0.379,1.16-0.608c0.372-0.243,0.701-0.51,1.012-0.82c0.315-0.315,0.585-0.648,0.8-0.978
				c0.263-0.393,0.466-0.771,0.62-1.153c0.189-0.455,0.315-0.856,0.383-1.213c0.099-0.486,0.142-0.914,0.142-1.343
				c0-0.423-0.043-0.855-0.128-1.284c-0.081-0.409-0.21-0.828-0.396-1.283c-0.151-0.365-0.361-0.758-0.584-1.086
				c-0.241-0.374-0.509-0.703-0.815-1.015c-1.505-1.509-3.922-2.243-5.979-1.824c-0.433,0.085-0.845,0.212-1.226,0.369
				c-0.408,0.171-0.789,0.374-1.176,0.626c-0.335,0.226-0.676,0.505-0.989,0.82c-0.307,0.307-0.577,0.636-0.775,0.946
				c-0.271,0.401-0.48,0.784-0.658,1.212c-0.148,0.365-0.284,0.803-0.378,1.258c-0.085,0.409-0.13,0.855-0.13,1.261
				c0,0.424,0.045,0.853,0.133,1.262C241.563,327.246,241.689,327.665,241.847,328.039z"/>
			<path fill="#FFFFFF" d="M296.598,328.043c0.171,0.424,0.376,0.807,0.608,1.158c0.25,0.383,0.516,0.712,0.842,1.036
				c0.303,0.298,0.624,0.563,0.944,0.771c0.392,0.266,0.766,0.464,1.169,0.631c0.419,0.171,0.82,0.298,1.258,0.383
				c0.455,0.095,0.878,0.14,1.3,0.14c0.412,0,0.829-0.04,1.286-0.135c0.428-0.086,0.85-0.217,1.257-0.388
				c0.377-0.153,0.773-0.365,1.106-0.59c0.372-0.243,0.703-0.51,1.012-0.82c0.315-0.315,0.6-0.658,0.843-1.019
				c0.238-0.355,0.437-0.729,0.592-1.108c0.179-0.433,0.305-0.852,0.393-1.271c0.081-0.414,0.121-0.847,0.121-1.289
				c0-0.445-0.04-0.888-0.128-1.319c-0.081-0.379-0.212-0.816-0.388-1.248c-0.153-0.365-0.36-0.758-0.597-1.104
				c-0.241-0.365-0.519-0.698-0.818-0.996c-0.324-0.324-0.66-0.604-1.04-0.855c-0.327-0.217-0.719-0.429-1.141-0.604
				c-0.367-0.152-0.8-0.279-1.212-0.364c-0.833-0.176-1.728-0.176-2.577,0c-0.438,0.085-0.852,0.212-1.228,0.369
				c-0.413,0.171-0.8,0.374-1.177,0.626c-0.338,0.226-0.691,0.519-0.993,0.82c-0.304,0.302-0.565,0.627-0.777,0.951
				c-0.271,0.4-0.479,0.788-0.653,1.212c-0.151,0.36-0.288,0.798-0.381,1.253c-0.081,0.409-0.126,0.855-0.126,1.261
				c0,0.424,0.045,0.853,0.133,1.262C296.312,327.246,296.439,327.665,296.598,328.043z"/>
			<path fill="#BDC5D1" d="M186.341,427.446l-23.162-57.003c-1.477-3.646-4.638-6.395-8.374-7.336
				c-3.646-0.946-7.959,0-10.912,2.375l-47.777,38.804c-5.791,4.704-8.398,12.179-6.806,19.447
				c1.246,5.673,4.96,10.521,10.174,13.242l1.038,0.46c1.499,0.648,2.445,0.991,3.092,1.131l0.322,0.095l-11.004,42.908
				c-0.808,3.204-0.346,6.529,1.338,9.363c1.684,2.861,4.383,4.894,7.567,5.7l35.019,8.976c1.015,0.274,2.007,0.392,3.069,0.392
				c2.214,0,4.406-0.599,6.298-1.73c2.861-1.685,4.891-4.361,5.721-7.569l10.982-42.887l0.368,0.095
				c1.545,0.393,3.185,0.577,4.799,0.577c5.699,0,11.119-2.446,14.834-6.691c3.206-3.646,4.937-8.326,4.868-13.125
				C187.772,432.199,187.286,429.775,186.341,427.446z M174.252,440.18c-1.521,1.779-3.782,2.771-6.159,2.771
				c-0.692,0-1.361-0.067-1.961-0.229l-11.511-2.956l-13.865,54.079c-0.046,0.229-0.185,0.369-0.392,0.505
				c-0.139,0.071-0.277,0.117-0.438,0.117l-35.228-8.999c-0.208-0.045-0.37-0.185-0.484-0.392c-0.139-0.207-0.161-0.437-0.093-0.667
				l12.296-48.01l1.776-5.975l-11.696-3.023c-0.301-0.09-0.761-0.274-1.546-0.621l-0.322-0.117
				c-2.124-1.199-3.553-3.091-4.037-5.376c-0.669-3.023,0.392-6.114,2.791-8.052l47.777-38.777c0.069-0.071,0.324-0.185,0.784-0.162
				c0.231,0.046,0.462,0.253,0.554,0.482l23.139,57.008c0.416,0.969,0.623,2.005,0.623,3.046
				C176.306,436.769,175.59,438.684,174.252,440.18z"/>
			<path fill="#FFFFFF" d="M176.259,434.831c0.046,1.938-0.669,3.853-2.007,5.349c-1.521,1.779-3.782,2.771-6.159,2.771
				c-0.692,0-1.361-0.067-1.961-0.229l-11.511-2.956l-13.865,54.079c-0.046,0.229-0.185,0.369-0.392,0.505
				c-0.139,0.071-0.277,0.117-0.438,0.117l-35.228-8.999c-0.208-0.045-0.37-0.185-0.484-0.392c-0.139-0.207-0.161-0.437-0.093-0.667
				l12.296-48.01l1.776-5.975l-11.696-3.023c-0.301-0.09-0.761-0.274-1.546-0.621l-0.322-0.117
				c-2.124-1.199-3.553-3.091-4.037-5.376c-0.669-3.023,0.392-6.114,2.791-8.052l47.777-38.777c0.069-0.071,0.324-0.185,0.784-0.162
				c0.231,0.046,0.462,0.253,0.554,0.482l23.139,57.008C176.052,432.754,176.259,433.79,176.259,434.831z"/>
		</g>
	</g>
	<g>
		<path fill="#BDC5D1" d="M283.592,228.243h39.071c3.776,0,6.85-3.073,6.85-6.849v-24.052c0-3.778-3.073-6.851-6.85-6.851h-39.071
			c-3.778,0-6.852,3.073-6.852,6.851v24.052C276.74,225.17,279.813,228.243,283.592,228.243z M290.438,214.545v-10.356h25.38v10.356
			H290.438z"/>
		<path fill="#BDC5D1" d="M329.12,162.244l-50.201-20.08c-1.708-0.678-3.649-0.635-5.333,0.117c-1.685,0.757-3.01,2.188-3.632,3.918
			l-11.557,31.942l-1.334-3.835l3.816-9.327c0.865-2.118,0.624-4.515-0.653-6.417c-1.273-1.893-3.4-3.023-5.684-3.023h-24.514
			c-2.289,0-4.413,1.133-5.684,3.028c-1.275,1.897-1.518,4.294-0.653,6.412l3.816,9.327l-1.336,3.837l-11.553-31.942
			c-0.627-1.741-1.956-3.172-3.64-3.92c-1.671-0.75-3.653-0.786-5.344-0.113l-50.186,20.078
			c-15.835,6.333-26.067,21.443-26.067,38.5v40.512c0,3.778,3.072,6.851,6.849,6.851H348.34c1.829,0,3.551-0.712,4.846-2.01
			c1.294-1.295,2.003-3.017,2.001-4.841v-40.516C355.187,183.687,344.956,168.577,329.12,162.244z M241.165,171.515l-0.935-2.282
			h4.114l-0.928,2.271c-0.637,1.543-0.687,3.264-0.137,4.853l8.527,24.519c0.951,2.726,3.544,4.576,6.47,4.598
			c2.877,0,5.466-1.816,6.438-4.52l15.71-43.436l43.614,17.447c10.602,4.242,17.453,14.364,17.453,25.782v33.665H143.08v-33.665
			c0-11.42,6.853-21.542,17.458-25.782l43.609-17.447l15.712,43.436c0.992,2.747,3.533,4.52,6.488,4.52
			c2.891-0.025,5.47-1.872,6.421-4.601l8.521-24.507C241.843,174.79,241.798,173.067,241.165,171.515z"/>
	</g>
</g>
</svg>
