<?xml version="1.0" encoding="utf-8"?>
<!-- Generator: Adobe Illustrator 23.0.1, SVG Export Plug-In . SVG Version: 6.00 Build 0)  -->
<svg version="1.1" xmlns="http://www.w3.org/2000/svg" xmlns:xlink="http://www.w3.org/1999/xlink" x="0px" y="0px"
	 viewBox="0 0 1366 768" style="enable-background:new 0 0 1366 768;" xml:space="preserve">
<style type="text/css">
	.st0{fill:#BDC5D1;}
	.st1{fill:#307167;}
	.st2{fill:#FFFFFF;stroke:#BDC5D1;stroke-width:4;stroke-miterlimit:10;}
</style>
<g id="Layer_3">
	<g id="calculator_3_">
		<g id="_x38_50-calculator-toolbar-selected_x40_2x.png_3_">
			<g>
				<path class="st0" d="M540,326h23v-23h-23V326z M540,417h23v-23h-23V417z M540,508h23v-23h-23V508z M767.5,76h-250
					c-25.1,0-45.5,20.4-45.5,45.5v409c0,25.1,20.4,45.5,45.5,45.5h250c25.1,0,45.5-20.4,45.5-45.5v-409C813,96.4,792.6,76,767.5,76z
					 M563.3,531h-22.6c-12.5,0-22.7-10.2-22.7-22.7v-22.6c0-12.5,10.2-22.7,22.7-22.7h22.6c12.5,0,22.7,10.2,22.7,22.7v22.6
					C586,520.8,575.8,531,563.3,531z M563.3,440h-22.6c-12.5,0-22.7-10.2-22.7-22.7v-22.6c0-12.5,10.2-22.7,22.7-22.7h22.6
					c12.5,0,22.7,10.2,22.7,22.7v22.6C586,429.8,575.8,440,563.3,440z M563.3,349h-22.6c-12.5,0-22.7-10.2-22.7-22.7v-22.6
					c0-12.5,10.2-22.7,22.7-22.7h22.6c12.5,0,22.7,10.2,22.7,22.7v22.6C586,338.8,575.8,349,563.3,349z M654.3,531h-22.6
					c-12.5,0-22.7-10.2-22.7-22.7v-22.6c0-12.5,10.2-22.7,22.7-22.7h22.6c12.5,0,22.7,10.2,22.7,22.7v22.6
					C677,520.8,666.8,531,654.3,531z M654.3,440h-22.6c-12.5,0-22.7-10.2-22.7-22.7v-22.6c0-12.5,10.2-22.7,22.7-22.7h22.6
					c12.5,0,22.7,10.2,22.7,22.7v22.6C677,429.8,666.8,440,654.3,440z M654.3,349h-22.6c-12.5,0-22.7-10.2-22.7-22.7v-22.6
					c0-12.5,10.2-22.7,22.7-22.7h22.6c12.5,0,22.7,10.2,22.7,22.7v22.6C677,338.8,666.8,349,654.3,349z M768,406.1v11.4v68.1v11.4
					v11.4c0,12.5-10.2,22.7-22.7,22.7h-22.6c-12.5,0-22.7-10.2-22.7-22.7v-11.4v-11.4v-68.1v-11.4v-11.4c0-12.5,10.2-22.7,22.7-22.7
					h22.6c12.5,0,22.7,10.2,22.7,22.7V406.1z M745.3,349h-22.6c-12.5,0-22.7-10.2-22.7-22.7v-22.6c0-12.5,10.2-22.7,22.7-22.7h22.6
					c12.5,0,22.7,10.2,22.7,22.7v22.6C768,338.8,757.8,349,745.3,349z M768.1,235c0,12.7-10.3,23-23,23H540.7
					c-12.5,0-22.7-10.2-22.7-22.7v-90.6c0-12.5,10.2-22.7,22.7-22.7h204.6c12.5,0,22.7,10.2,22.7,22.7V235H768.1z M631,508h23v-23
					h-23V508L631,508z M540,235h205v-91H540V235z M722,405.4V508h23V405.4V394h-23V405.4z M722,326h23v-23h-23V326z M631,326h23v-23
					h-23V326L631,326z M631,417h23v-23h-23V417L631,417z"/>
			</g>
		</g>
	</g>
</g>
<g id="Layer_2">
	<g id="calculator_2_">
		<g id="_x38_50-calculator-toolbar-selected_x40_2x.png_2_">
			<g>
				<path class="st1" d="M794.9,96.7l-250-1.4c-25.1-0.1-45.6,20.1-45.8,45.2l-2.3,409c-0.1,25.1,20.1,45.6,45.2,45.8l250,1.4
					c25.1,0.1,45.6-20.1,45.8-45.2l2.3-409C840.3,117.3,820,96.9,794.9,96.7z M543.5,254.3l0.5-90"/>
			</g>
		</g>
	</g>
</g>
<g id="Layer_1">
	<g id="calculator_1_">
		<g id="_x38_50-calculator-toolbar-selected_x40_2x.png_1_">
			<g>
				<path class="st2" d="M585.5,361.5h23v-23h-23V361.5z M585.5,452.5h23v-23h-23V452.5z M585.5,543.5h23v-23h-23V543.5z M813,111.5
					H563c-25.1,0-45.5,20.4-45.5,45.5v409c0,25.1,20.4,45.5,45.5,45.5h250c25.1,0,45.5-20.4,45.5-45.5V157
					C858.5,131.9,838.1,111.5,813,111.5z M607.8,566.5h-22.6c-12.5,0-22.7-10.2-22.7-22.7v-22.6c0-12.5,10.2-22.7,22.7-22.7h22.6
					c12.5,0,22.7,10.2,22.7,22.7v22.6C630.5,556.3,620.3,566.5,607.8,566.5z M607.8,475.5h-22.6c-12.5,0-22.7-10.2-22.7-22.7v-22.6
					c0-12.5,10.2-22.7,22.7-22.7h22.6c12.5,0,22.7,10.2,22.7,22.7v22.6C630.5,465.3,620.3,475.5,607.8,475.5z M607.8,384.5h-22.6
					c-12.5,0-22.7-10.2-22.7-22.7v-22.6c0-12.5,10.2-22.7,22.7-22.7h22.6c12.5,0,22.7,10.2,22.7,22.7v22.6
					C630.5,374.3,620.3,384.5,607.8,384.5z M698.8,566.5h-22.6c-12.5,0-22.7-10.2-22.7-22.7v-22.6c0-12.5,10.2-22.7,22.7-22.7h22.6
					c12.5,0,22.7,10.2,22.7,22.7v22.6C721.5,556.3,711.3,566.5,698.8,566.5z M698.8,475.5h-22.6c-12.5,0-22.7-10.2-22.7-22.7v-22.6
					c0-12.5,10.2-22.7,22.7-22.7h22.6c12.5,0,22.7,10.2,22.7,22.7v22.6C721.5,465.3,711.3,475.5,698.8,475.5z M698.8,384.5h-22.6
					c-12.5,0-22.7-10.2-22.7-22.7v-22.6c0-12.5,10.2-22.7,22.7-22.7h22.6c12.5,0,22.7,10.2,22.7,22.7v22.6
					C721.5,374.3,711.3,384.5,698.8,384.5z M812.5,441.6v11.4v68.1v11.4v11.4c0,12.5-10.2,22.7-22.7,22.7h-22.6
					c-12.5,0-22.7-10.2-22.7-22.7v-11.4v-11.4v-68.1v-11.4v-11.4c0-12.5,10.2-22.7,22.7-22.7h22.6c12.5,0,22.7,10.2,22.7,22.7V441.6
					z M789.8,384.5h-22.6c-12.5,0-22.7-10.2-22.7-22.7v-22.6c0-12.5,10.2-22.7,22.7-22.7h22.6c12.5,0,22.7,10.2,22.7,22.7v22.6
					C812.5,374.3,802.3,384.5,789.8,384.5z M812.6,270.5c0,12.7-10.3,23-23,23H585.2c-12.5,0-22.7-10.2-22.7-22.7v-90.6
					c0-12.5,10.2-22.7,22.7-22.7h204.6c12.5,0,22.7,10.2,22.7,22.7v90.3H812.6z M675.5,543.5h23v-23h-23V543.5L675.5,543.5z
					 M584.5,270.5h205v-91h-205V270.5z M766.5,440.9v102.6h23V440.9v-11.4h-23V440.9z M766.5,361.5h23v-23h-23V361.5z M675.5,361.5
					h23v-23h-23V361.5L675.5,361.5z M675.5,452.5h23v-23h-23V452.5L675.5,452.5z"/>
			</g>
		</g>
	</g>
</g>
</svg>
