<?xml version="1.0" encoding="utf-8"?>
<!-- Generator: Adobe Illustrator 16.0.0, SVG Export Plug-In . SVG Version: 6.00 Build 0)  -->
<!DOCTYPE svg PUBLIC "-//W3C//DTD SVG 1.1//EN" "http://www.w3.org/Graphics/SVG/1.1/DTD/svg11.dtd">
<svg version="1.1" id="Layer_1" xmlns="http://www.w3.org/2000/svg" xmlns:xlink="http://www.w3.org/1999/xlink" x="0px" y="0px"
	 width="512px" height="512px" viewBox="0 0 512 512" enable-background="new 0 0 512 512" xml:space="preserve">
<g>
	<path fill="#65696F" d="M345.399,262.099c0,1.06-0.024,2.095-0.072,3.133c-0.024,0.195-0.024,0.393-0.024,0.565v0.272
		c-0.051,0.912-0.101,1.822-0.173,2.735c0,0.125,0,0.224-0.024,0.347c-0.024,0.171-0.024,0.32-0.051,0.493
		c-0.051,0.665-0.122,1.329-0.197,1.972c-0.123,1.06-0.271,2.095-0.419,3.131c-0.064,0.442-0.166,0.871-0.238,1.312
		c-0.024,0.152-0.053,0.302-0.082,0.45c-2.521,15.109-8.997,28.908-18.419,40.227l-0.146-0.123l-0.051-0.026l-2.341-1.774
		c-8.111-5.769-16.863-10.281-26.037-13.584c-0.024,0.099-0.072,0.173-0.097,0.271c9.195,3.304,17.996,7.789,26.134,13.534
		l2.341,1.776l0.051,0.024c-1.233,1.454-2.517,2.885-3.821,4.265l0.048,0.026c-11.858,12.426-27.415,21.277-44.871,24.754
		c-0.074-0.026-0.149-0.075-0.197-0.099c-2.441-1.185-4.835-2.492-7.127-3.923c-1.724-1.059-3.399-2.193-5.027-3.375
		c-0.52-0.371-1.035-0.742-1.531-1.135c-2.047-1.528-4.016-3.181-5.892-4.883c-8.802-8.061-15.829-17.997-20.488-29.167
		c-0.764-1.825-1.456-3.675-2.072-5.571c-2.762-8.211-4.24-16.987-4.24-26.137c0-2.143,0.074-4.264,0.246-6.358
		c0.148-1.975,0.371-3.923,0.666-5.87c1.825-12.277,6.361-23.692,12.994-33.579c1.232-1.875,2.564-3.698,3.97-5.449
		c2.711-3.429,5.695-6.633,8.924-9.592c1.876-1.727,3.845-3.352,5.892-4.881c3.946-3.034,8.187-5.696,12.675-7.94
		c1.801-0.913,3.649-1.75,5.523-2.538c7.295-3.034,15.113-5.03,23.297-5.868c0.102,0,0.222,0,0.347-0.026
		c23.408,14.458,39.275,39.971,40.421,69.226c0.01,0.217,0.029,0.431,0.039,0.647h-0.017
		C345.339,260.273,345.399,261.179,345.399,262.099z"/>
	<g>
		<g>
			<g>
				<path fill="#BDC5D1" d="M280.708,61.605c12.358-13.647,11.312-34.724-2.333-47.079c-13.647-12.359-34.726-11.314-47.083,2.333
					c-11.5,12.698-11.5,32.049,0,44.745c-15.856,9.169-25.529,26.185-25.29,44.5v41.668c0,4.599,3.731,8.331,8.333,8.331h50
					c4.599,0,8.331-3.732,8.331-8.331c0-4.601-3.732-8.335-8.331-8.335h-41.667v-33.333c0-1.358,0.383-33.33,33.333-33.33
					c17.705-0.706,32.628,13.076,33.331,30.778c0.034,0.852,0.034,1.705,0,2.552v41.668c0,4.599,3.732,8.331,8.336,8.331
					c4.599,0,8.331-3.732,8.331-8.331v-41.668C306.234,87.79,296.565,70.774,280.708,61.605z M256.001,56.106
					c-9.206,0-16.667-7.461-16.667-16.667c0-9.205,7.46-16.667,16.667-16.667s16.665,7.462,16.665,16.667
					C272.666,48.645,265.204,56.106,256.001,56.106z"/>
			</g>
		</g>
		<g>
			<g>
				<path fill="#BDC5D1" d="M280.708,411.603c12.358-13.646,11.312-34.727-2.333-47.085c-13.647-12.357-34.726-11.31-47.083,2.338
					c-11.5,12.698-11.5,32.047,0,44.747c-15.856,9.169-25.529,26.185-25.29,44.5v41.664c0,4.604,3.731,8.333,8.333,8.333h50
					c4.599,0,8.331-3.729,8.331-8.333s-3.732-8.333-8.331-8.333h-41.667v-33.331c0-1.36,0.383-33.332,33.333-33.332
					c17.705-0.706,32.628,13.073,33.331,30.78c0.034,0.848,0.034,1.7,0,2.552v41.664c0,4.604,3.732,8.333,8.336,8.333
					c4.599,0,8.331-3.729,8.331-8.333v-41.664C306.234,437.785,296.565,420.765,280.708,411.603z M256.001,406.102
					c-9.206,0-16.667-7.462-16.667-16.667c0-9.207,7.46-16.666,16.667-16.666s16.665,7.459,16.665,16.666
					C272.666,398.64,265.204,406.102,256.001,406.102z"/>
			</g>
		</g>
		<g>
			<g>
				<path fill="#BDC5D1" d="M80.711,236.605c12.357-13.647,11.313-34.729-2.333-47.081c-13.646-12.359-34.726-11.314-47.081,2.331
					c-11.501,12.701-11.501,32.052,0,44.75c-15.86,9.167-25.53,26.185-25.292,44.5v41.666c0,4.602,3.732,8.331,8.333,8.331h49.999
					c4.601,0,8.333-3.729,8.333-8.331c0-4.604-3.732-8.336-8.333-8.336H22.672v-33.33c0-1.357,0.382-33.335,33.332-33.335
					c17.705-0.703,32.627,13.076,33.333,30.783c0.034,0.847,0.034,1.697,0,2.552v41.666c0,4.602,3.732,8.331,8.333,8.331
					c4.601,0,8.333-3.729,8.333-8.331v-41.666C106.24,262.79,96.569,245.772,80.711,236.605z M56.004,231.102
					c-9.205,0-16.667-7.459-16.667-16.664c0-9.205,7.461-16.667,16.667-16.667c9.205,0,16.666,7.461,16.666,16.667
					C72.67,223.642,65.208,231.102,56.004,231.102z"/>
			</g>
		</g>
		<g>
			<g>
				<path fill="#BDC5D1" d="M480.705,236.605c12.356-13.647,11.312-34.729-2.336-47.081c-13.646-12.359-34.725-11.314-47.081,2.331
					c-11.499,12.701-11.499,32.052,0,44.75c-15.857,9.167-25.526,26.185-25.291,44.5v41.666c0,4.602,3.732,8.333,8.336,8.333h49.999
					c4.6,0,8.331-3.731,8.331-8.333c0-4.604-3.731-8.336-8.331-8.336h-41.668v-33.33c0-1.357,0.385-33.335,33.333-33.335
					c17.701-0.703,32.63,13.076,33.333,30.783c0.033,0.85,0.033,1.702,0,2.552v41.666c0,4.602,3.731,8.333,8.33,8.333
					c4.604,0,8.336-3.731,8.336-8.333v-41.666C506.232,262.79,496.563,245.772,480.705,236.605z M455.997,231.102
					c-9.208,0-16.667-7.459-16.667-16.664c0-9.205,7.459-16.667,16.667-16.667c9.207,0,16.666,7.461,16.666,16.667
					C472.663,223.642,465.199,231.102,455.997,231.102z"/>
			</g>
		</g>
		<g>
			<g>
				<path fill="#BDC5D1" d="M174.61,429.686c-2.423-1.146-4.82-2.336-7.192-3.576c-4.08-2.136-9.118-0.559-11.253,3.521
					c-2.136,4.081-0.56,9.118,3.52,11.254c2.583,1.344,5.196,2.639,7.833,3.884c4.165,1.957,9.129,0.171,11.089-3.997
					C180.563,436.607,178.775,431.643,174.61,429.686z"/>
			</g>
		</g>
		<g>
			<g>
				<path fill="#BDC5D1" d="M370.431,420.485c-2.428-3.91-7.565-5.116-11.476-2.692c-0.058,0.034-0.111,0.07-0.164,0.106
					c-2.258,1.433-4.546,2.824-6.848,4.165c-3.982,2.312-5.34,7.409-3.033,11.394c1.492,2.564,4.232,4.144,7.199,4.148h0.033
					c1.459,0,2.899-0.388,4.165-1.124c2.5-1.459,4.979-2.967,7.431-4.524C371.648,429.533,372.853,424.396,370.431,420.485z"/>
			</g>
		</g>
		<g>
			<g>
				<path fill="#BDC5D1" d="M134.02,403.958c-2.056-1.699-4.079-3.442-6.066-5.234c-3.228-3.276-8.504-3.32-11.785-0.094
					c-3.282,3.227-3.325,8.504-0.098,11.784c0.241,0.243,0.496,0.472,0.765,0.686c2.133,1.96,4.334,3.862,6.592,5.719
					c3.64,2.817,8.874,2.147,11.69-1.49C137.814,411.842,137.333,406.862,134.02,403.958z"/>
			</g>
		</g>
		<g>
			<g>
				<path fill="#BDC5D1" d="M407.645,386.878c-3.328-3.179-8.601-3.061-11.779,0.27c-0.033,0.031-0.063,0.063-0.091,0.097
					c-1.83,1.957-3.713,3.871-5.625,5.757c-3.284,3.229-3.327,8.504-0.101,11.783c1.564,1.592,3.703,2.487,5.933,2.487H396
					c2.177,0,4.276-0.857,5.832-2.389c2.08-2.034,4.103-4.112,6.082-6.224C411.092,395.331,410.977,390.056,407.645,386.878z"/>
			</g>
		</g>
		<g>
			<g>
				<path fill="#BDC5D1" d="M101.063,368.993c-1.58-2.162-3.112-4.354-4.602-6.575c-2.845-3.617-8.085-4.243-11.702-1.396
					c-3.242,2.552-4.129,7.088-2.088,10.671c1.627,2.42,3.292,4.796,5,7.137c1.555,2.128,4.029,3.395,6.665,3.416
					c4.604-0.005,8.333-3.736,8.331-8.338C102.666,372.14,102.103,370.419,101.063,368.993z"/>
			</g>
		</g>
		<g>
			<g>
				<path fill="#BDC5D1" d="M435.348,345.145c-4.03-2.225-9.102-0.756-11.326,3.276c-1.29,2.351-2.644,4.679-4.025,6.971
					c-2.379,3.941-1.112,9.063,2.826,11.444c1.301,0.78,2.784,1.196,4.301,1.199v-0.034c2.923,0.003,5.639-1.524,7.151-4.033
					c1.492-2.482,2.942-4.983,4.348-7.5C440.848,352.438,439.379,347.367,435.348,345.145z"/>
			</g>
		</g>
		<g>
			<g>
				<path fill="#BDC5D1" d="M103.829,125.722c-3.555-2.663-8.573-2.068-11.41,1.348c-1.806,2.297-3.56,4.618-5.266,6.966
					c-2.698,3.732-1.861,8.942,1.868,11.637c1.419,1.03,3.128,1.582,4.881,1.582c2.677,0,5.191-1.286,6.758-3.46
					c1.567-2.165,3.181-4.3,4.841-6.407C108.262,133.706,107.514,128.481,103.829,125.722z"/>
			</g>
		</g>
		<g>
			<g>
				<path fill="#BDC5D1" d="M413.23,119.44c-1.917-2.201-3.862-4.339-5.832-6.46c-3.163-3.347-8.446-3.499-11.788-0.33
					c-3.352,3.162-3.501,8.441-0.337,11.789c1.844,1.936,3.641,3.915,5.394,5.942c3.096,3.402,8.369,3.65,11.769,0.552
					C415.734,127.93,416.086,122.866,413.23,119.44z"/>
			</g>
		</g>
		<g>
			<g>
				<path fill="#BDC5D1" d="M141.307,92.027c-2.797-3.657-8.029-4.358-11.687-1.563c-2.313,1.768-4.581,3.583-6.809,5.441
					c-3.534,2.947-4.01,8.201-1.062,11.738c1.582,1.897,3.926,2.993,6.396,2.996c1.946,0.005,3.832-0.677,5.326-1.924
					c2.049-1.707,4.14-3.374,6.273-5.001C143.402,100.917,144.103,95.685,141.307,92.027z"/>
			</g>
		</g>
		<g>
			<g>
				<path fill="#BDC5D1" d="M374.331,84.631c-2.398-1.666-4.83-3.272-7.291-4.815c-3.813-2.579-8.99-1.58-11.571,2.232
					c-2.576,3.812-1.58,8.993,2.234,11.572c0.149,0.099,0.298,0.197,0.452,0.287h0.02c2.269,1.435,4.488,2.911,6.665,4.433
					c3.784,2.622,8.976,1.678,11.6-2.109C379.06,92.446,378.115,87.253,374.331,84.631z"/>
			</g>
		</g>
		<g>
			<g>
				<path fill="#BDC5D1" d="M185.838,68.639c-1.727-4.264-6.583-6.325-10.851-4.601c-0.093,0.036-0.184,0.077-0.277,0.118
					c-2.677,1.113-5.322,2.3-7.935,3.557c-4.143,2.008-5.874,6.992-3.866,11.133c1.384,2.86,4.275,4.686,7.45,4.7v0.111
					c1.234-0.012,2.449-0.296,3.559-0.833c2.411-1.148,4.85-2.263,7.316-3.334C185.501,77.762,187.561,72.908,185.838,68.639z"/>
			</g>
		</g>
		<g>
			<g>
				<path fill="#BDC5D1" d="M328.011,60.583c-2.745-1-5.499-1.948-8.269-2.844c-4.459-1.146-9,1.531-10.151,5.991
					c-1.05,4.083,1.112,8.312,5.042,9.843v0.034c2.567,0.835,5.1,1.668,7.628,2.627c4.319,1.589,9.106-0.628,10.695-4.951
					C334.545,66.96,332.33,62.169,328.011,60.583z"/>
			</g>
		</g>
		<g>
			<g>
				<path fill="#BDC5D1" d="M256.001,89.439c-4.603,0-8.334,3.732-8.334,8.331v16.669c0,4.604,3.732,8.333,8.334,8.333
					s8.334-3.729,8.334-8.333V97.77C264.335,93.171,260.604,89.439,256.001,89.439z"/>
			</g>
		</g>
		<g>
			<g>
				<path fill="#BDC5D1" d="M256.001,439.437c-4.603,0-8.334,3.729-8.334,8.331v16.666c0,4.602,3.732,8.336,8.334,8.336
					s8.334-3.734,8.334-8.336v-16.666C264.335,443.164,260.604,439.437,256.001,439.437z"/>
			</g>
		</g>
		<g>
			<g>
				<path fill="#BDC5D1" d="M56.004,264.437c-4.603,0-8.333,3.732-8.333,8.333v16.664c0,4.606,3.731,8.336,8.333,8.336
					c4.602,0,8.333-3.729,8.333-8.336V272.77C64.337,268.169,60.606,264.437,56.004,264.437z"/>
			</g>
		</g>
		<g>
			<g>
				<path fill="#BDC5D1" d="M455.997,264.437c-4.604,0-8.331,3.732-8.331,8.333v16.664c0,4.606,3.728,8.336,8.331,8.336
					s8.335-3.729,8.335-8.336V272.77C464.332,268.169,460.601,264.437,455.997,264.437z"/>
			</g>
		</g>
	</g>
	<path fill="none" d="M349.247,261.728c0-47.237-38.291-85.527-85.504-85.527c-47.241,0-85.506,38.29-85.506,85.527
		c0,19.7,6.657,37.872,17.9,52.32c-10.429-13.635-16.84-30.498-17.457-48.816h41.199c0.32,12.475,2.762,24.58,7.101,35.945
		c-9.221,3.33-18.022,7.866-26.208,13.686l-2.49,1.873c1.282,1.505,2.588,2.959,3.944,4.39l2.022-1.505
		c7.766-5.548,16.174-9.862,24.976-13.019c6.682,14.942,16.741,28.38,29.758,39.251l-1.626,1.134
		c2.12,0.174,4.239,0.248,6.387,0.248c2.244,0,4.485-0.099,6.679-0.248l-1.577-1.134c12.995-10.823,23.078-24.261,29.76-39.251
		c8.776,3.156,17.16,7.446,24.903,12.97l1.873,1.404c1.38-1.431,2.688-2.885,3.944-4.39l-2.343-1.774
		c-8.136-5.793-16.938-10.305-26.136-13.635c4.341-11.365,6.78-23.471,7.103-35.945h41.199c-0.051,1.182-0.099,2.391-0.197,3.573
		C349.148,266.464,349.247,264.121,349.247,261.728z M257.75,177.235l1.529,1.233c-12.401,10.281-22.214,22.881-28.921,36.983
		c-8.629-2.983-16.864-7.052-24.507-12.28l-2.021-1.379C217.883,187.836,236.793,178.74,257.75,177.235z M178.681,259.361
		c0.691-20.341,8.531-38.88,21.08-53.23l2.762,1.899c7.939,5.425,16.494,9.665,25.445,12.795
		c-4.98,12.082-7.742,25.125-8.087,38.536H178.681z M260.955,339.813c-11.268-9.813-20.093-21.797-26.109-35.062
		c8.432-2.466,17.184-3.845,26.109-4.117V339.813z M260.955,294.768c-9.713,0.245-19.231,1.774-28.402,4.536
		c-4.142-10.775-6.46-22.238-6.805-34.072h35.208V294.768z M260.955,259.361h-35.208c0.371-12.795,3.033-25.221,7.841-36.711
		c8.851,2.564,18.023,3.994,27.367,4.24V259.361z M260.955,220.999c-8.48-0.246-16.839-1.505-24.901-3.773
		c5.942-12.229,14.375-23.273,24.901-32.471V220.999z M270.078,177.235c20.906,1.505,39.769,10.553,53.798,24.458l-1.899,1.478
		c-7.642,5.228-15.9,9.296-24.506,12.28c-6.732-14.102-16.52-26.726-28.922-36.983L270.078,177.235z M266.849,184.755
		c10.527,9.197,18.959,20.242,24.925,32.471c-8.061,2.268-16.42,3.527-24.925,3.773V184.755z M266.849,339.838v-39.203
		c8.95,0.272,17.702,1.651,26.134,4.117C286.968,318.066,278.117,330.023,266.849,339.838z M295.274,299.304
		c-9.171-2.762-18.688-4.291-28.426-4.536v-29.536h35.206C301.737,277.065,299.392,288.555,295.274,299.304z M266.849,259.361
		V226.89c9.343-0.246,18.516-1.676,27.391-4.24c4.784,11.49,7.472,23.916,7.815,36.711H266.849z M307.949,259.361
		c-0.371-13.436-3.106-26.454-8.088-38.536c8.95-3.154,17.555-7.421,25.544-12.894l2.538-1.924
		c12.626,14.35,20.489,32.94,21.205,53.354H307.949z"/>
	<path fill="none" d="M219.88,259.361h-41.199c0.691-20.341,8.531-38.88,21.08-53.23l2.762,1.899
		c7.939,5.425,16.494,9.665,25.445,12.795C222.987,232.907,220.226,245.95,219.88,259.361z"/>
	<path fill="none" d="M226.98,301.177c-9.221,3.33-18.022,7.866-26.208,13.686l-2.49,1.873c-0.049-0.051-0.099-0.099-0.148-0.173
		c-0.666-0.814-1.332-1.652-1.997-2.515c-10.429-13.635-16.84-30.498-17.457-48.816h41.199
		C220.2,277.706,222.642,289.812,226.98,301.177z"/>
	<path fill="none" d="M258.982,345.853l-1.626,1.134c-19.625-1.431-37.402-9.491-51.11-21.966c-1.011-0.913-1.998-1.876-2.959-2.836
		c-0.345-0.345-0.689-0.716-1.061-1.06l2.022-1.505c7.766-5.548,16.174-9.862,24.976-13.019
		C235.906,321.544,245.965,334.981,258.982,345.853z"/>
	<path fill="none" d="M205.851,203.171l-2.021-1.379c14.053-13.956,32.963-23.052,53.92-24.557l1.529,1.233
		c-12.401,10.281-22.214,22.881-28.921,36.983C221.729,212.468,213.495,208.399,205.851,203.171z"/>
	<path fill="none" d="M260.955,184.755v36.244c-8.48-0.246-16.839-1.505-24.901-3.773
		C241.996,204.997,250.428,193.952,260.955,184.755z"/>
	<path fill="none" d="M233.588,222.65c8.851,2.564,18.023,3.994,27.367,4.24v32.471h-35.208
		C226.118,246.566,228.78,234.14,233.588,222.65z"/>
	<path fill="none" d="M225.748,265.231h35.208v29.536c-9.713,0.245-19.231,1.774-28.402,4.536
		C228.411,288.528,226.093,277.065,225.748,265.231z"/>
	<path fill="none" d="M234.846,304.752c8.432-2.466,17.184-3.845,26.109-4.117v39.179C249.688,330,240.862,318.017,234.846,304.752z
		"/>
	<path fill="none" d="M291.773,217.226c-8.061,2.268-16.42,3.527-24.925,3.773v-36.244
		C277.376,193.952,285.808,204.997,291.773,217.226z"/>
	<path fill="none" d="M266.849,339.838v-39.203c8.95,0.272,17.702,1.651,26.134,4.117
		C286.968,318.066,278.117,330.023,266.849,339.838z"/>
	<path fill="none" d="M295.274,299.304c-9.171-2.762-18.688-4.291-28.426-4.536v-29.536h35.206
		C301.737,277.065,299.392,288.555,295.274,299.304z"/>
	<path fill="none" d="M302.055,259.361h-35.206V226.89c9.343-0.246,18.516-1.676,27.391-4.24
		C299.023,234.14,301.711,246.566,302.055,259.361z"/>
	<path fill="none" d="M268.549,178.468l1.529-1.233c20.906,1.505,39.769,10.553,53.798,24.458l-1.899,1.478
		c-7.642,5.228-15.9,9.296-24.506,12.28C290.738,201.349,280.951,188.725,268.549,178.468z"/>
	<path fill="none" d="M323.508,319.571l1.873,1.404c-14.104,14.67-33.409,24.335-54.959,26.011l-1.577-1.134
		c12.995-10.823,23.078-24.261,29.76-39.251C307.381,309.758,315.765,314.048,323.508,319.571z"/>
	<path fill="none" d="M299.861,220.825c8.95-3.154,17.555-7.421,25.544-12.894l2.538-1.924c12.626,14.35,20.489,32.94,21.205,53.354
		h-41.199C307.578,245.926,304.843,232.907,299.861,220.825z"/>
	<path fill="none" d="M307.949,265.231h41.199c-0.051,1.182-0.099,2.391-0.197,3.573c0,0.125,0,0.224-0.027,0.347
		c-0.072,0.813-0.145,1.651-0.245,2.465c-0.123,1.06-0.27,2.095-0.419,3.131c-2.418,15.78-9.121,30.154-18.935,41.839l-2.343-1.774
		c-8.136-5.793-16.938-10.305-26.136-13.635C305.188,289.812,307.627,277.706,307.949,265.231z"/>
	<g>
		<g>
			<path fill="#307167" d="M298.236,259.361h-35.211V226.89c9.347-0.248,18.518-1.678,27.396-4.242
				C295.202,234.138,297.89,246.564,298.236,259.361z"/>
			<path fill="#307167" d="M320.056,201.691l-1.897,1.48c-7.645,5.228-15.906,9.294-24.511,12.277
				c-6.729-14.102-16.518-26.726-28.92-36.983l1.529-1.233C287.166,178.738,306.025,187.786,320.056,201.691z"/>
			<path fill="#307167" d="M287.955,217.226c-8.063,2.268-16.421,3.525-24.93,3.771v-36.244
				C273.555,193.95,281.986,204.997,287.955,217.226z"/>
			<path fill="#307167" d="M345.327,265.231c-0.024,0.195-0.024,0.393-0.024,0.565v0.272c-0.051,0.912-0.101,1.822-0.173,2.735
				c0,0.125,0,0.224-0.024,0.347c-0.024,0.171-0.024,0.32-0.051,0.493c-0.051,0.665-0.122,1.329-0.197,1.972
				c-0.123,1.06-0.271,2.095-0.419,3.131c-0.064,0.442-0.166,0.871-0.238,1.312c-0.024,0.152-0.053,0.302-0.082,0.45
				c-2.521,15.109-8.997,28.908-18.419,40.227l-0.146-0.123l-0.051-0.026l-2.341-1.774c-8.111-5.769-16.863-10.281-26.037-13.584
				c-0.024-0.024-0.072-0.051-0.097-0.051c4.339-11.365,6.78-23.471,7.099-35.945H345.327z"/>
			<path fill="#307167" d="M255.458,178.466c-12.402,10.281-22.215,22.881-28.921,36.983c-8.629-2.983-16.864-7.05-24.507-12.277
				l-2.022-1.382c14.054-13.955,32.964-23.052,53.921-24.557L255.458,178.466z"/>
			<path fill="#307167" d="M257.135,184.752v36.244c-8.482-0.246-16.84-1.502-24.902-3.771
				C238.174,204.997,246.607,193.95,257.135,184.752z"/>
			<path fill="#307167" d="M223.159,301.177c-9.221,3.327-18.023,7.863-26.208,13.683l-2.293,1.727l-0.197,0.147
				c-0.049-0.049-0.099-0.1-0.148-0.171c-0.665-0.814-1.331-1.654-1.996-2.517c-10.429-13.635-16.84-30.499-17.456-48.817h41.199
				C216.379,277.703,218.82,289.81,223.159,301.177z"/>
			<path fill="#307167" d="M224.145,220.825c-4.98,12.08-7.741,25.123-8.086,38.536H174.86v-0.075
				c0.715-20.316,8.555-38.832,21.08-53.155l2.762,1.897C206.64,213.453,215.195,217.693,224.145,220.825z"/>
			<path fill="#307167" d="M257.135,226.89v32.471h-35.208c0.37-12.797,3.033-25.224,7.841-36.713
				C238.618,225.212,247.791,226.642,257.135,226.89z"/>
			<path fill="#307167" d="M255.162,345.853l-1.627,1.134l-0.222,0.171l-0.172,0.125c-19.503-1.579-37.131-9.715-50.717-22.265
				c-1.01-0.888-1.996-1.849-2.958-2.836c-0.346-0.345-0.691-0.715-1.061-1.06l0.173-0.123l1.849-1.382
				c7.766-5.547,16.173-9.862,24.976-13.016C232.085,321.541,242.144,334.979,255.162,345.853z"/>
			<path fill="#307167" d="M257.135,265.229v29.536c-9.715,0.248-19.232,1.777-28.403,4.539c-4.143-10.775-6.46-22.241-6.806-34.075
				H257.135z"/>
			<path fill="#307167" d="M321.779,321.125c-11.858,12.426-27.415,21.277-44.871,24.754c-3.23,0.664-6.51,1.134-9.861,1.403
				l-0.174-0.122l-0.27-0.174l-1.58-1.134c1.58-1.306,3.082-2.637,4.561-3.995c10.802-10.083,19.329-22.064,25.199-35.256
				c8.776,3.156,17.158,7.446,24.901,12.97l1.873,1.404l0.075,0.051l0.099,0.072L321.779,321.125z"/>
			<path fill="#307167" d="M345.327,259.361h-41.201c-0.369-13.438-3.106-26.457-8.086-38.536
				c8.95-3.157,17.556-7.423,25.542-12.896l2.542-1.924C336.746,220.355,344.612,238.946,345.327,259.361z"/>
			<path fill="#307167" d="M257.135,300.633v39.179c-11.268-9.814-20.095-21.795-26.111-35.06
				C239.456,302.286,248.209,300.904,257.135,300.633z"/>
			<path fill="#307167" d="M298.236,265.229c-0.322,11.834-2.663,23.324-6.78,34.075c-9.174-2.762-18.688-4.291-28.431-4.539
				v-29.536H298.236z"/>
			<path fill="#307167" d="M289.161,304.752c-6.017,13.313-14.867,25.271-26.136,35.083v-39.202
				C271.978,300.904,280.729,302.286,289.161,304.752z"/>
		</g>
		<path fill="#FFFFFF" d="M345.311,259.361h-41.185c-0.369-13.436-3.106-26.454-8.086-38.536c8.95-3.154,17.556-7.421,25.542-12.894
			l2.542-1.924c12.487,14.199,20.308,32.548,21.164,52.706c-1.146-29.254-17.013-54.767-40.421-69.226
			c-13.019-8.037-28.329-12.672-44.75-12.672c-43.467,0-79.34,32.519-84.617,74.558c-0.024,0.198-0.049,0.395-0.073,0.59
			c-0.099,0.987-0.223,1.975-0.296,2.959c-0.05,0.469-0.074,0.913-0.099,1.382c-0.073,0.688-0.099,1.403-0.123,2.095
			c-0.025,0.32-0.025,0.641-0.025,0.961c0.838-19.946,8.655-38.141,21.056-52.244l2.762,1.897
			c7.84,5.302,16.297,9.494,25.124,12.576c0.099,0.048,0.222,0.072,0.32,0.123c-4.98,12.007-7.742,24.951-8.086,38.264H174.86
			c-0.025,0.715-0.025,1.431-0.025,2.121c0,1.06,0.025,2.121,0.075,3.133c-0.025,0.195,0,0.368,0,0.565h41.149
			c0.32,12.304,2.712,24.213,7.002,35.431c0.025,0.099,0.075,0.173,0.099,0.271c-9.222,3.304-18.023,7.815-26.208,13.585
			l-2.293,1.726c1.233,1.455,2.515,2.885,3.822,4.265c0.024,0.024,0.074,0.074,0.098,0.099l0.099-0.074l1.75-1.281
			c7.768-5.523,16.174-9.787,24.977-12.92c6.682,14.817,16.741,28.156,29.758,38.955l-1.627,1.134l-0.222,0.174
			c2.244,0.173,4.512,0.271,6.805,0.271c2.268,0,4.536-0.099,6.756-0.271l-0.27-0.174l-1.58-1.134
			c1.58-1.306,3.082-2.637,4.561-3.995c10.802-9.984,19.329-21.894,25.199-34.96c8.776,3.133,17.158,7.372,24.901,12.869
			l1.849,1.358l0.024,0.023l0.075,0.049c0.026-0.024,0.074-0.072,0.099-0.099c1.305-1.38,2.588-2.811,3.821-4.265l-0.051-0.024
			l-2.341-1.776c-8.138-5.745-16.938-10.23-26.134-13.534c0.024-0.099,0.072-0.173,0.097-0.271
			c4.29-11.218,6.684-23.127,7.002-35.431h41.177c0-0.173,0-0.37,0.024-0.565c0.048-1.038,0.072-2.073,0.072-3.133
			C345.399,261.179,345.339,260.273,345.311,259.361z M298.236,259.361h-35.211V226.89c9.347-0.246,18.518-1.676,27.393-4.24
			C295.202,234.14,297.89,246.566,298.236,259.361z M266.257,177.235c13.931,1.011,26.972,5.35,38.264,12.279
			c5.648,3.451,10.873,7.543,15.535,12.179l-1.9,1.478c-7.642,5.228-15.903,9.296-24.508,12.28
			c-3.4-7.101-7.567-13.833-12.424-20.069c-4.859-6.164-10.332-11.836-16.496-16.914L266.257,177.235z M263.025,184.755
			c4.638,4.069,8.877,8.482,12.675,13.166c4.806,5.993,8.925,12.477,12.253,19.305c-8.063,2.268-16.419,3.527-24.928,3.773V184.755z
			 M257.134,220.999c-2.983-0.099-5.966-0.296-8.924-0.665c-5.425-0.592-10.75-1.627-15.977-3.108
			c5.941-12.229,14.373-23.273,24.901-32.471V220.999z M253.929,177.235l1.529,1.233c-12.402,10.281-22.215,22.881-28.921,36.983
			c-8.629-2.983-16.865-7.052-24.507-12.28l-2.022-1.379C214.062,187.836,232.972,178.74,253.929,177.235z M229.767,222.65
			c4.734,1.382,9.566,2.417,14.472,3.132c4.241,0.616,8.556,0.985,12.895,1.107v32.471h-35.208
			C222.296,246.566,224.959,234.14,229.767,222.65z M257.134,265.231v29.536c-7.667,0.197-15.212,1.185-22.56,2.959
			c-1.972,0.467-3.92,0.984-5.844,1.577c-4.141-10.775-6.458-22.238-6.804-34.072H257.134z M257.134,339.813
			c-11.267-9.813-20.094-21.797-26.11-35.062c1.849-0.542,3.724-1.035,5.622-1.454c6.682-1.553,13.535-2.441,20.488-2.663V339.813z
			 M264.557,338.482c-0.496,0.467-1.011,0.91-1.531,1.355v-39.203c8.952,0.272,17.704,1.651,26.136,4.117
			C283.417,317.45,275.083,328.94,264.557,338.482z M291.456,299.304c-9.174-2.762-18.688-4.291-28.431-4.536v-29.536h35.211
			C297.914,277.065,295.573,288.555,291.456,299.304z M345.327,259.361c-0.01-0.217-0.029-0.431-0.039-0.647
			c0.01,0.217,0.015,0.431,0.022,0.647H345.327z"/>
		<path fill="none" d="M216.059,259.361H174.86v-0.075c0.715-20.316,8.555-38.832,21.08-53.155l2.762,1.897
			c7.938,5.425,16.494,9.665,25.444,12.797C219.165,232.905,216.404,245.948,216.059,259.361z"/>
		<path fill="none" d="M223.159,301.177c-9.221,3.327-18.023,7.863-26.208,13.683l-2.293,1.727
			c-11.636-14.029-18.91-31.854-19.748-51.357h41.149C216.379,277.703,218.82,289.81,223.159,301.177z"/>
		<path fill="none" d="M255.162,345.853l-1.627,1.134l-0.222,0.171c-21.449-1.7-40.681-11.415-54.734-26.158l1.849-1.382
			c7.766-5.547,16.173-9.862,24.976-13.016C232.085,321.541,242.144,334.979,255.162,345.853z"/>
		<path fill="none" d="M202.03,203.171l-2.022-1.382c14.054-13.955,32.964-23.052,53.921-24.557l1.529,1.233
			c-12.402,10.281-22.215,22.881-28.921,36.983C217.908,212.465,209.673,208.399,202.03,203.171z"/>
		<path fill="none" d="M257.135,184.752v36.244c-8.482-0.246-16.84-1.502-24.902-3.771
			C238.174,204.997,246.607,193.95,257.135,184.752z"/>
		<path fill="none" d="M229.767,222.648c8.851,2.564,18.023,3.994,27.368,4.242v32.471h-35.208
			C222.296,246.564,224.959,234.138,229.767,222.648z"/>
		<path fill="none" d="M221.926,265.229h35.208v29.536c-9.715,0.248-19.232,1.777-28.403,4.539
			C224.589,288.528,222.272,277.063,221.926,265.229z"/>
		<path fill="none" d="M231.024,304.752c8.432-2.466,17.186-3.848,26.111-4.119v39.179
			C245.867,329.997,237.04,318.017,231.024,304.752z"/>
		<path fill="none" d="M287.955,217.226c-8.063,2.268-16.421,3.525-24.93,3.771v-36.244
			C273.555,193.95,281.986,204.997,287.955,217.226z"/>
		<path fill="none" d="M263.025,339.835v-39.202c8.952,0.271,17.704,1.653,26.136,4.119
			C283.145,318.064,274.294,330.023,263.025,339.835z"/>
		<path fill="none" d="M291.456,299.304c-9.174-2.762-18.688-4.291-28.431-4.539v-29.536h35.211
			C297.914,277.063,295.573,288.553,291.456,299.304z"/>
		<path fill="none" d="M298.236,259.361h-35.211V226.89c9.347-0.248,18.518-1.678,27.396-4.242
			C295.202,234.138,297.89,246.564,298.236,259.361z"/>
		<path fill="none" d="M264.728,178.466l1.529-1.233c20.909,1.505,39.769,10.553,53.799,24.458l-1.897,1.48
			c-7.645,5.228-15.906,9.294-24.511,12.277C286.918,201.347,277.13,188.723,264.728,178.466z"/>
		<path fill="none" d="M321.558,320.973l0.075,0.051c-14.078,14.743-33.31,24.434-54.76,26.134l-0.27-0.171l-1.58-1.134
			c12.992-10.825,23.076-24.263,29.76-39.251c8.776,3.153,17.16,7.444,24.901,12.968L321.558,320.973z"/>
		<path fill="none" d="M296.04,220.825c8.95-3.157,17.556-7.423,25.542-12.896l2.542-1.924c12.622,14.35,20.488,32.94,21.203,53.356
			h-41.201C303.757,245.923,301.02,232.905,296.04,220.825z"/>
		<path fill="none" d="M345.327,265.231c-0.024,0.195-0.024,0.393-0.024,0.565v0.272c-0.051,1.206-0.149,2.391-0.248,3.575
			c-1.678,17.776-8.728,33.997-19.502,46.968l-0.051-0.026l-2.341-1.774c-8.111-5.769-16.863-10.281-26.037-13.584
			c-0.024-0.024-0.072-0.051-0.097-0.051c4.339-11.365,6.78-23.471,7.099-35.945H345.327z"/>
	</g>
	<path fill="#65696F" d="M325.049,316.586l0.049,0.026l0.148,0.123c9.853-11.762,16.551-26.185,18.862-41.988
		c0.147-1.036,0.297-2.071,0.419-3.131c0.077-0.643,0.149-1.307,0.2-1.972c0.026-0.173,0.026-0.322,0.051-0.493
		c0.023-0.123,0.023-0.222,0.023-0.347c0.075-0.913,0.126-1.823,0.174-2.735v-0.272c0-0.173,0-0.37,0.024-0.565
		c0.05-1.038,0.076-2.073,0.076-3.133c0-30.67-16.329-57.596-40.799-72.61c2.632-0.246,5.285-0.368,7.991-0.368
		c45.834,0.024,82.962,36.932,83.034,82.47c0,45.564-37.176,82.499-83.034,82.499c-12.953,0-25.214-2.959-36.133-8.21
		c17.569-3.477,33.229-12.328,45.167-24.754l-0.051-0.026c1.314-1.38,2.605-2.811,3.846-4.265l-0.049-0.024"/>
</g>
</svg>
