<?xml version="1.0" encoding="utf-8"?>
<!-- Generator: Adobe Illustrator 16.0.0, SVG Export Plug-In . SVG Version: 6.00 Build 0)  -->
<!DOCTYPE svg PUBLIC "-//W3C//DTD SVG 1.1//EN" "http://www.w3.org/Graphics/SVG/1.1/DTD/svg11.dtd">
<svg version="1.1" id="Layer_1" xmlns="http://www.w3.org/2000/svg" xmlns:xlink="http://www.w3.org/1999/xlink" x="0px" y="0px"
	 width="512px" height="512px" viewBox="0 0 512 512" enable-background="new 0 0 512 512" xml:space="preserve">
<g>
	<path fill="#57BC90" d="M307.999,162.342H171.971c-7.79,0-7.79-11.987,0-11.987h136.028
		C315.789,150.354,315.789,162.342,307.999,162.342z"/>
	<path fill="#57BC90" d="M307.999,235.813H171.971c-7.79,0-7.79-11.987,0-11.987h136.028
		C315.789,223.826,315.789,235.813,307.999,235.813z"/>
	<path fill="#57BC90" d="M244.886,296.715c7.794,0,7.794,11.987,0,11.987h-73.489c-7.79,0-7.79-11.987,0-11.987H244.886z"/>
	<g>
		<path fill="#307167" d="M244.013,461.525H65.461V68.456h57.417V85.18c0,7.303,5.942,13.247,13.247,13.247h179.813
			c7.303,0,13.245-5.944,13.245-13.247V68.456h57.419v208.521c0,9.325,14.507,9.325,14.507,0V53.952h-71.926v-4.734
			c0-7.308-5.942-13.25-13.245-13.25h-45.882C263.079,18.005,245.499,6,226.032,6c-19.469,0-37.049,12.005-44.024,29.968h-45.882
			c-7.305,0-13.247,5.942-13.247,13.25v4.734H50.954v422.081h193.059c4.663,0,7.104-3.651,7.104-7.254
			C251.116,465.172,248.675,461.525,244.013,461.525z M226.032,20.507c14.945,0,28.292,10.433,31.752,24.86
			c1.461,5.11,4.834,5.11,8.404,5.11h48.49V83.92H137.385V50.478h49.686c3.491,0,6.458-2.121,7.219-5.162
			C197.739,30.942,211.089,20.507,226.032,20.507z"/>
		<path fill="#307167" d="M351.9,287.705c-60.185,0-109.147,48.963-109.147,109.145c0,60.188,48.963,109.15,109.147,109.15
			c60.183,0,109.146-48.963,109.146-109.15C461.046,336.668,412.083,287.705,351.9,287.705z M351.9,491.493
			c-52.186,0-94.641-42.457-94.641-94.644c0-52.181,42.455-94.638,94.641-94.638c52.184,0,94.639,42.457,94.639,94.638
			C446.539,449.036,404.084,491.493,351.9,491.493z"/>
	</g>
	<path fill="#307167" d="M392.631,367.576l-53.942,65.93c-2.399,2.997-6.595,2.997-8.993,0.601l-29.969-29.969
		c-5.393-5.394,2.997-13.783,8.391-8.39l25.175,25.17l49.745-60.536C388.436,353.792,397.426,361.582,392.631,367.576z"/>
	<g>
		<path fill="#57BC90" d="M118.095,290.431l-14.266,17.361l-6.56-6.56c-1.668-1.668-4.625-0.93-5.506,1.206
			c-0.52,1.255-0.249,2.583,0.73,3.563l9.244,9.241c0.627,0.63,1.498,0.989,2.396,0.989c1.041,0,2.015-0.473,2.667-1.284
			l16.647-20.354c0.832-1.033,0.991-2.347,0.436-3.508C122.853,288.93,119.706,288.463,118.095,290.431z"/>
	</g>
	<g>
		<path fill="#57BC90" d="M139.444,333.868H76.272v-63.175h63.172V333.868z M87.644,322.49h40.425v-40.425H87.644V322.49z"/>
	</g>
	<g>
		<path fill="#57BC90" d="M118.095,217.544l-14.266,17.358l-6.56-6.56c-1.668-1.666-4.625-0.93-5.506,1.206
			c-0.52,1.255-0.249,2.583,0.73,3.565l9.244,9.242c0.627,0.627,1.498,0.989,2.396,0.989c1.041,0,2.015-0.475,2.667-1.287
			l16.647-20.351c0.832-1.033,0.991-2.347,0.436-3.511C122.853,216.043,119.706,215.573,118.095,217.544z"/>
	</g>
	<g>
		<path fill="#57BC90" d="M139.444,260.979H76.272v-63.173h63.172V260.979z M87.644,249.604h40.425v-40.425H87.644V249.604z"/>
	</g>
	<g>
		<path fill="#57BC90" d="M118.095,144.499l-14.266,17.358l-6.56-6.56c-1.668-1.666-4.625-0.93-5.506,1.206
			c-0.52,1.255-0.249,2.583,0.73,3.565l9.244,9.241c0.627,0.627,1.498,0.989,2.396,0.989c1.041,0,2.015-0.475,2.667-1.287
			l16.647-20.35c0.832-1.033,0.991-2.347,0.436-3.511C122.853,142.998,119.706,142.528,118.095,144.499z"/>
	</g>
	<g>
		<path fill="#57BC90" d="M139.444,187.933H76.272v-63.172h63.172V187.933z M87.644,176.558h40.425v-40.425H87.644V176.558z"/>
	</g>
</g>
</svg>
