<?xml version="1.0" encoding="utf-8"?>
<!-- Generator: Adobe Illustrator 16.0.0, SVG Export Plug-In . SVG Version: 6.00 Build 0)  -->
<!DOCTYPE svg PUBLIC "-//W3C//DTD SVG 1.1//EN" "http://www.w3.org/Graphics/SVG/1.1/DTD/svg11.dtd">
<svg version="1.1" id="Layer_1" xmlns="http://www.w3.org/2000/svg" xmlns:xlink="http://www.w3.org/1999/xlink" x="0px" y="0px"
	 width="512px" height="512px" viewBox="0 0 512 512" enable-background="new 0 0 512 512" xml:space="preserve">
<g>
	<path fill="#65696F" d="M506,374.195c0,59.754-48.441,108.196-108.194,108.196c-59.734-0.085-108.111-48.483-108.198-108.196
		c0-59.757,48.441-108.198,108.198-108.198C457.559,265.997,506,314.438,506,374.195z"/>
	<path fill="#307167" d="M455.333,356.326c0,59.755-48.441,108.196-108.198,108.196c-59.734-0.087-108.112-48.482-108.197-108.196
		c0-59.756,48.441-108.198,108.197-108.198C406.892,248.128,455.333,296.57,455.333,356.326z"/>
	<g>
		<path fill="#BDC5D1" d="M361.566,29.609H44.183C23.156,29.635,6.028,46.763,6,67.792v317.383
			c0.028,21.024,17.156,38.154,38.185,38.187h189.663v-18.669H44.185c-10.763,0-19.52-8.757-19.52-19.52V67.792
			c0-10.765,8.757-19.522,19.52-19.522h317.382c10.762,0,19.518,8.757,19.518,19.522v168.022h18.67V67.792
			C399.728,46.763,382.6,29.635,361.566,29.609z"/>
		<rect x="34.856" y="58.463" fill="#BDC5D1" width="18.661" height="18.661"/>
		<rect x="63.705" y="58.463" fill="#BDC5D1" width="18.667" height="18.661"/>
		<rect x="92.559" y="58.463" fill="#BDC5D1" width="18.665" height="18.661"/>
		<rect x="34.856" y="87.313" fill="#BDC5D1" width="336.038" height="18.667"/>
		<path fill="#BDC5D1" d="M111.218,117.402l-18.622,18.624c-5.943-3.563-12.698-5.437-19.641-5.437
			c-11.556,0-22.375,5.127-29.679,14.068C30.786,159.943,31.894,182,45.854,195.96c7.231,7.235,16.851,11.22,27.088,11.22
			c8.8,0,17.399-3.069,24.219-8.638c14.836-12.129,18.395-33.051,8.629-49.32l18.622-18.624L111.218,117.402z M64.942,163.67
			l13.192,13.198L91.73,163.29c0.539,1.779,0.822,3.636,0.829,5.489c0,10.761-8.759,19.518-19.524,19.518
			c-10.763,0-19.518-8.757-19.518-19.518c0-10.765,8.755-19.52,19.518-19.52c1.853,0.006,3.711,0.288,5.491,0.825L64.942,163.67z"/>
		<rect x="128.625" y="145.021" fill="#BDC5D1" width="126.859" height="18.663"/>
		<rect x="128.625" y="173.873" fill="#BDC5D1" width="54.729" height="18.661"/>
		<rect x="193.544" y="173.873" fill="#BDC5D1" width="105.219" height="18.661"/>
		<rect x="265.675" y="145.021" fill="#BDC5D1" width="76.37" height="18.663"/>
		<path fill="#BDC5D1" d="M111.218,203.961l-18.622,18.622c-5.946-3.56-12.7-5.435-19.644-5.435
			c-11.555,0-22.373,5.125-29.677,14.066c-12.49,15.289-11.382,37.347,2.578,51.307c7.231,7.233,16.849,11.216,27.086,11.216
			c0,0,0,0,0.002,0c8.8,0,17.399-3.069,24.219-8.641c14.834-12.124,18.392-33.046,8.629-49.315l18.622-18.622L111.218,203.961z
			 M64.942,250.23l13.194,13.194l13.594-13.579c0.539,1.781,0.822,3.64,0.829,5.489c0,10.765-8.759,19.522-19.524,19.522
			c-10.763,0-19.518-8.757-19.518-19.522c0-10.761,8.755-19.518,19.516-19.52c1.857,0.009,3.716,0.29,5.493,0.829L64.942,250.23z"/>
		<rect x="128.625" y="231.576" fill="#BDC5D1" width="126.859" height="18.665"/>
		<rect x="128.625" y="260.431" fill="#BDC5D1" width="54.729" height="18.662"/>
		<rect x="193.544" y="260.431" fill="#BDC5D1" width="61.94" height="18.662"/>
		<rect x="265.675" y="231.576" fill="#BDC5D1" width="33.088" height="18.665"/>
		<path fill="#BDC5D1" d="M111.218,290.519l-18.622,18.624c-5.943-3.563-12.698-5.437-19.644-5.437
			c-11.555,0-22.373,5.127-29.677,14.067c-12.49,15.287-11.382,37.344,2.578,51.308c7.229,7.23,16.847,11.211,27.084,11.215
			c0.002,0,0.002,0,0.002,0c8.8,0,17.401-3.068,24.221-8.64c14.836-12.127,18.392-33.049,8.629-49.315l18.622-18.626
			L111.218,290.519z M64.942,336.791l13.194,13.192l13.592-13.579c0.541,1.779,0.825,3.641,0.831,5.49
			c0,10.764-8.759,19.519-19.524,19.519c-10.763,0-19.518-8.755-19.518-19.519c0-10.763,8.755-19.52,19.516-19.521
			c1.859,0.006,3.716,0.288,5.495,0.829L64.942,336.791z"/>
		<rect x="128.625" y="318.133" fill="#BDC5D1" width="98.009" height="18.672"/>
		<rect x="128.625" y="346.99" fill="#BDC5D1" width="54.729" height="18.66"/>
		<rect x="193.544" y="346.99" fill="#BDC5D1" width="33.09" height="18.66"/>
	</g>
	<path fill="#FFFFFF" d="M303.139,360.307l-12.912,6.45l14.428,28.852c1.034,2.076,3.008,3.528,5.303,3.898
		c0.372,0.056,0.74,0.091,1.116,0.095c1.913,0,3.749-0.762,5.104-2.116l86.555-86.556l-10.198-10.202l-79.486,79.482
		L303.139,360.307z"/>
</g>
</svg>
