<?xml version="1.0" encoding="utf-8"?>
<!-- Generator: Adobe Illustrator 16.0.0, SVG Export Plug-In . SVG Version: 6.00 Build 0)  -->
<!DOCTYPE svg PUBLIC "-//W3C//DTD SVG 1.1//EN" "http://www.w3.org/Graphics/SVG/1.1/DTD/svg11.dtd">
<svg version="1.1" id="Layer_1" xmlns="http://www.w3.org/2000/svg" xmlns:xlink="http://www.w3.org/1999/xlink" x="0px" y="0px"
	 width="512px" height="512px" viewBox="0 0 512 512" enable-background="new 0 0 512 512" xml:space="preserve">
<g>
	<path fill-rule="evenodd" clip-rule="evenodd" fill="#307167" d="M91.119,190.667c-9.346-0.92-18.608,1.219-25.624,9.53
		c-3.874,4.589-6.105,9.877-6.241,15.918c-0.117,5.26,0.051,10.527-0.127,15.784c-0.106,3.095,1.203,4.254,4.165,4.157
		c3.32-0.109,6.652-0.192,9.968-0.029c3.358,0.167,4.809-1.099,4.673-4.562c-0.176-4.424-0.115-8.864,0.011-13.292
		c0.161-5.675,3.11-8.613,8.81-8.771c4.427-0.121,8.869-0.19,13.292,0.004c3.483,0.154,4.737-1.308,4.569-4.655
		c-0.174-3.455-0.123-6.923-0.089-10.384c0.023-2.551-0.963-3.854-3.697-3.731C97.926,190.766,95.014,190.667,91.119,190.667z"/>
	<path fill-rule="evenodd" clip-rule="evenodd" fill="#307167" d="M68.728,271.161c10.006-0.146,9.096,1.425,9.173-9.052
		c0.074-10.758,1.099-9.726-9.82-9.658c-10.214,0.066-8.759-0.742-8.886,8.921c-0.002,0.138,0,0.275,0,0.416
		C59.195,271.161,59.195,271.161,68.728,271.161z"/>
	<path fill-rule="evenodd" clip-rule="evenodd" fill="#BDC5D1" d="M432.551,431.002c-3.992,13.657-14.535,21.359-30.77,21.267
		c-66.73-0.384-133.463-0.159-200.195-0.161c-56.049,0-112.099,0.033-168.144-0.028c-15.91-0.019-27.255-11.417-27.399-27.273
		c-0.072-8.044-0.039-16.092-0.009-24.139c0.025-7.957,3.419-11.359,11.375-11.501c6.169-0.111,6.173-0.111,6.173-6.518
		c0-67.424-0.004-134.851,0.004-202.275c0-20.167,10.929-31.005,31.217-31.008c26.08-0.004,52.164-0.002,78.243,0.001
		c4.026,0.001,8.048,0.102,12.07,0.029c2.609-0.047,3.844,0.993,3.776,3.676c-0.076,3.049,0.017,6.103,0.026,9.156
		c0.017,5.927-0.017,5.962-6.067,5.958c-29.415-0.009-58.824-0.027-88.234-0.031c-9.805-0.001-12.282,2.488-12.282,12.332
		c-0.004,67.564-0.004,135.129-0.004,202.69c0.004,5.972,0.013,5.982,5.872,5.982c38.294,0.004,76.584-0.004,114.874,0.011
		c8.192,0.002,10.747,2.104,12.566,10.17c1.103,4.885,3.712,7.337,8.646,7.354c23.445,0.082,46.892,0.08,70.339-0.003
		c4.756-0.017,7.403-2.422,8.527-6.991c2.181-8.878,4.29-10.534,13.518-10.537c36.07-0.004,72.142-0.002,108.212-0.002
		c11.617,0,11.617,0,11.653-11.442c0.019-6.103,0.019-6.103,6.249-6.115c12.431-0.025,12.622-0.021,12.396,12.352
		c-0.078,4.364,1.411,5.662,5.508,5.249c5.138-0.518,9.233,1.381,11.859,6.001C432.551,407.138,432.551,419.069,432.551,431.002z
		 M400.074,433.403c2.219,0,4.448,0.04,6.652-0.17c4.037-0.388,7.013-3.218,7.233-7.273c0.27-4.981,0.096-9.985,0.174-14.977
		c0.047-3.12-2.056-3.08-4.247-3.076c-10.267,0.017-20.534,0.011-30.799,0.011c-31.355-0.002-62.709,0.032-94.062-0.063
		c-3.118-0.011-4.922,0.816-6.531,3.725c-5.034,9.097-12.985,13.854-23.454,13.887c-23.585,0.074-47.172-0.007-70.752,0.042
		c-10.887,0.023-18.918-4.881-24.179-14.166c-1.578-2.787-3.419-3.469-6.309-3.464c-41.485,0.055-82.965,0.076-124.445-0.034
		c-3.746-0.011-4.896,1.29-4.65,4.855c0.259,3.729,0.021,7.49,0.089,11.234c0.119,6.517,2.897,9.309,9.436,9.397
		c6.381,0.089,12.762,0.074,19.147,0.077c55.354,0.004,110.708,0.002,166.065,0.002C279.65,433.41,339.862,433.412,400.074,433.403z
		"/>
	<path fill-rule="evenodd" clip-rule="evenodd" fill="#65696F" d="M506,158.256c0-2.542-0.823-4.41-2.605-6.169
		c-20.246-20.18-40.471-40.404-60.712-60.627H255.846c-2.128,1.781-2.584,4.083-2.584,6.777
		c0.042,86.606,0.042,173.193,0.042,259.776c0,8.95,0.021,17.9-0.021,26.871c-0.021,2.736,0.913,4.779,3.67,5.563
		c1.023,0.258,2.13,0.171,3.195,0.171c79.698,0.023,159.379,0.023,239.056,0c0.78,0,1.562,0.045,2.346-0.042
		c2.542-0.348,4.039-1.803,4.345-4.365c0.128-1.152,0.063-2.325,0.063-3.498C505.957,307.902,505.957,233.088,506,158.256z
		 M445.245,108.729c14.336,14.554,28.52,28.935,42.639,43.249c-13.229,0-26.826,0-40.424,0.022c-1.65,0-2.236-0.673-2.236-2.259
		C445.245,136.121,445.245,122.522,445.245,108.729z"/>
	<g>
		<path fill-rule="evenodd" clip-rule="evenodd" fill="#307167" d="M405.08,126.527c0-2.542-0.825-4.41-2.604-6.169
			c-20.246-20.18-40.471-40.404-60.693-60.627H154.927c-2.128,1.781-2.584,4.083-2.584,6.778
			c0.043,86.606,0.043,173.192,0.043,259.776c0,8.95,0.021,17.9-0.022,26.871c-0.021,2.736,0.913,4.779,3.672,5.562
			c1.021,0.259,2.129,0.172,3.193,0.172c79.7,0.023,159.376,0.023,239.053,0c0.783,0,1.565,0.045,2.347-0.042
			c2.541-0.348,4.062-1.803,4.344-4.365c0.132-1.152,0.066-2.325,0.066-3.498C405.038,276.174,405.038,201.36,405.08,126.527z
			 M171.067,198.493V84.343c0-4.541,1.607-6.104,6.19-6.104c39.622-0.022,79.223-0.022,118.821,0c4.605,0,6.19,1.563,6.19,6.082
			c0.044,38.058,0,76.115,0,114.151c-0.021,4.735-1.563,6.277-6.343,6.277c-19.745,0.022-39.491,0-59.236,0v0.022h-59.28
			C172.653,204.771,171.067,203.207,171.067,198.493z M178.04,246.804c-1.608,0.021-2.325-0.63-2.304-2.259
			c0.066-9.254-1.02-7.299,6.931-7.495c3.324-0.064,6.604,0.044,9.904,0c1.587-0.021,2.304,0.63,2.304,2.238
			c-0.087,9.253,0.934,7.298-6.952,7.516c-0.978,0.043-1.911,0.021-2.91,0.021c0-0.021,0-0.043,0-0.043
			C182.688,246.782,180.341,246.738,178.04,246.804z M245.118,284.146c-10.732,0.042-21.419,0.021-32.127,0.021
			c-11.251,0-22.548-0.066-33.844,0.042c-2.67,0.045-3.541-0.804-3.454-3.475c0.217-7.342-0.825-6.301,6.409-6.301
			c21.591-0.063,43.184-0.021,64.774-0.021c3.999,0,4.041,0.021,3.999,4.02C250.831,284.926,251.569,284.122,245.118,284.146z
			 M244.944,302.847c-10.6,0.045-21.2,0-31.779,0c-11.404,0-22.787-0.063-34.17,0.066c-2.563,0.021-3.388-0.825-3.301-3.367
			c0.217-7.494-0.825-6.408,6.277-6.43c21.701-0.065,43.381-0.044,65.059-0.044c3.846,0,3.888,0.023,3.846,3.888
			C250.81,303.695,251.656,302.805,244.944,302.847z M244.532,321.529c-21.701,0.043-43.381-0.045-65.059,0.063
			c-2.955,0.023-3.91-0.825-3.801-3.778c0.238-6.908-0.696-6.018,6.103-6.039c10.513-0.044,21.005,0,31.542,0
			c11.359,0,22.743,0.087,34.146-0.044c2.628-0.021,3.562,0.761,3.475,3.455C250.723,322.571,251.743,321.506,244.532,321.529z
			 M244.836,265.463c-10.622,0.045-21.201,0.021-31.824,0.021c-11.272,0-22.569-0.063-33.865,0.044
			c-2.649,0.021-3.562-0.782-3.454-3.475c0.195-7.344-0.804-6.322,6.388-6.322c21.699-0.043,43.4,0.043,65.08-0.066
			c2.932-0.021,3.889,0.804,3.778,3.782C250.678,266.375,251.656,265.441,244.836,265.463z M244.532,246.804
			c-5.736,0.065-11.449,0.021-17.206,0.021c0-0.021,0-0.021,0-0.021c-6.82,0-13.619-0.087-20.418,0.021
			c-2.412,0.043-3.258-0.738-3.171-3.171c0.195-7.754-0.87-6.56,6.385-6.604c12.448-0.064,24.894,0.044,37.341-0.087
			c2.65-0.021,3.585,0.804,3.475,3.497C250.678,247.824,251.743,246.694,244.532,246.804z M325.49,340.21
			c-33.886,0.044-61.018-27.087-61.018-60.976c0-33.69,27.195-60.887,60.844-60.887c33.931,0,61.083,27.109,61.018,60.974
			C386.313,313.035,359.182,340.188,325.49,340.21z M323.99,180.441c1.5,0.565,3.063,0.543,4.605,0.543
			c18.008,0,35.995,0.065,54.003-0.065c2.889,0,3.931,0.738,3.801,3.758c-0.261,6.951,0.738,6.017-6.103,6.061
			c-8.733,0.043-17.51,0-26.264,0c-9.623,0-19.224,0.065-28.891-0.022c-7.255-0.087-13.271-5.561-13.901-12.468
			c-0.695-7.538,3.889-14.119,11.012-15.641c1.521-0.325,3.108-0.304,4.65-0.304c14.096-0.021,28.194,0,42.313,0
			c1.348,0,2.716-0.021,4.021-0.456c2.04-0.673,3.019-2.063,2.952-4.17c-0.021-1.976-0.999-3.236-2.91-3.866
			c-1.434-0.456-2.889-0.435-4.344-0.435c-17.987,0-35.995-0.064-53.979,0.043c-2.868,0.022-3.933-0.717-3.825-3.735
			c0.285-6.952-0.717-6.04,6.127-6.061c18.269-0.022,36.559-0.066,54.849,0.021c11.404,0.066,18.029,11.947,12.143,21.658
			c-2.716,4.519-6.907,6.733-12.143,6.755c-14.618,0.021-29.217,0-43.793,0c-1.455,0-2.91,0.021-4.323,0.543
			c-1.911,0.695-2.67,2.129-2.649,4.063C321.407,178.509,322.232,179.791,323.99,180.441z M346.54,120.271
			c-1.652,0-2.217-0.673-2.217-2.259V77c14.338,14.554,28.521,28.935,42.641,43.249C373.735,120.249,360.159,120.249,346.54,120.271
			z"/>
		<path fill-rule="evenodd" clip-rule="evenodd" fill="#FFFFFF" d="M386.964,120.249c-13.229,0-26.805,0-40.424,0.022
			c-1.652,0-2.217-0.673-2.217-2.259V77C358.661,91.554,372.845,105.935,386.964,120.249z"/>
		<path fill-rule="evenodd" clip-rule="evenodd" fill="#BDC5D1" d="M296.089,78.233c-39.601-0.022-79.199-0.022-118.821,0
			c-4.584,0-6.192,1.563-6.192,6.104v114.15c0,4.713,1.586,6.278,6.345,6.278h59.259v-0.022c19.746,0,39.512,0.022,59.257,0
			c4.779,0,6.321-1.542,6.343-6.277c0-38.036,0.023-76.094,0-114.151C302.279,79.797,300.694,78.233,296.089,78.233z
			 M184.198,87.921c17.507,0.108,35.015,0.043,52.545,0.043h51.959c3.802,0.021,3.802,0.043,3.802,3.932
			c0,26.849,0.023,53.697,0.023,80.568c0,3.845-0.023,3.845-3.846,3.845c-0.783,0-1.563-0.064-2.325,0.022
			c-2.259,0.239-2.803-0.826-2.803-2.912c0.066-12.251,0.045-24.524,0.045-36.775c-0.021-5.735-1.326-7.039-7.038-7.039
			c-4.867-0.021-9.73-0.021-14.598,0c-5.517,0-6.798,1.303-6.798,6.929c-0.021,12.273,0,24.524-0.021,36.797
			c0,1.173,0.433,2.65-1.5,2.955c-2.28,0.347-2.802-0.783-2.781-2.846c0.066-11.773,0.045-23.548,0.045-35.321
			c0-11.599,0-23.177-0.023-34.755c0-4.952-1.498-6.43-6.43-6.451c-4.864-0.022-9.73-0.043-14.597-0.022
			c-6.256,0-7.429,1.173-7.429,7.559c0,22.874,0.021,45.726,0,68.599c0,1.217,0.653,2.889-1.476,3.237
			c-2.586,0.413-2.781-1.108-2.781-3.129c0.044-16.552,0.023-33.083,0.023-49.635c0-0.87,0.021-1.76-0.023-2.628
			c-0.129-3.585-1.824-5.279-5.497-5.301c-5.842-0.065-11.686-0.065-17.507,0.022c-3.606,0.043-5.344,1.781-5.386,5.431
			c-0.068,5.843-0.044,11.687-0.044,17.508c0,11.404-0.066,22.786,0.087,34.169c0.021,2.759-0.717,3.758-3.585,3.649
			c-6.169-0.26-5.41,0.586-5.41-5.56c-0.021-26.458,0.045-52.938-0.042-79.396C180.766,88.79,181.417,87.899,184.198,87.921z
			 M264.853,142.662c-0.021-2.521,0.63-3.455,3.279-3.368c6.604,0.239,5.626-0.673,5.691,5.822
			c0.043,4.279,0.021,8.559,0.021,12.837c0,5.257-0.065,10.514,0.021,15.771c0.023,1.824-0.543,2.649-2.497,2.607
			c-7.734-0.13-6.366,0.782-6.43-6.234C264.874,160.952,264.982,151.807,264.853,142.662z M241.132,141.771
			c0,10.513-0.044,21.026,0.042,31.541c0.021,2.237-0.609,3.105-2.976,3.041c-6.994-0.195-5.974,0.717-5.974-5.822
			c-0.042-19.94-0.021-39.903-0.021-59.844c0-4.019,0-4.019,3.954-4.04c0.694,0,1.369,0.087,2.041,0
			c2.367-0.305,2.998,0.759,2.976,3.019C241.087,120.375,241.132,131.062,241.132,141.771z M199.488,128.672
			c-0.063-2.498,0.611-3.454,3.258-3.367c6.366,0.239,5.672-0.717,5.694,5.561c0.021,13.902-0.089,27.783,0.042,41.685
			c0.021,2.911-0.717,3.953-3.738,3.801c-5.842-0.282-5.212,0.674-5.233-5.409c-0.023-6.689,0-13.402,0-20.114h0.021
			C199.533,143.444,199.62,136.058,199.488,128.672z M292.135,194.295c-0.369,1.129-1.89,0.673-2.91,0.673
			c-17.531,0.022-35.038,0-52.545,0c-17.422,0-34.845-0.043-52.244,0.066c-2.758,0.021-3.78-0.652-3.67-3.541
			c0.259-6.17-0.609-5.409,5.539-5.409c33.952-0.021,67.904-0.043,101.855,0.022c1.413,0,3.606-0.957,4.128,0.999
			C292.896,189.386,292.918,191.971,292.135,194.295z"/>
		<path fill-rule="evenodd" clip-rule="evenodd" fill="#FFFFFF" d="M292.135,194.295c-0.369,1.129-1.89,0.673-2.91,0.673
			c-17.531,0.022-35.038,0-52.545,0c-17.422,0-34.845-0.043-52.244,0.066c-2.758,0.021-3.78-0.652-3.67-3.541
			c0.259-6.17-0.609-5.409,5.539-5.409c33.952-0.021,67.904-0.043,101.855,0.022c1.413,0,3.606-0.957,4.128,0.999
			C292.896,189.386,292.918,191.971,292.135,194.295z"/>
		<path fill-rule="evenodd" clip-rule="evenodd" fill="#FFFFFF" d="M273.866,173.725c0.023,1.824-0.543,2.649-2.497,2.607
			c-7.734-0.13-6.366,0.782-6.43-6.234c-0.065-9.145,0.043-18.29-0.087-27.435c-0.021-2.521,0.63-3.455,3.279-3.368
			c6.604,0.239,5.626-0.673,5.691,5.822c0.043,4.279,0.021,8.559,0.021,12.837C273.845,163.211,273.779,168.468,273.866,173.725z"/>
		<path fill-rule="evenodd" clip-rule="evenodd" fill="#FFFFFF" d="M241.174,173.312c0.021,2.237-0.609,3.105-2.976,3.041
			c-6.994-0.195-5.974,0.717-5.974-5.822c-0.042-19.94-0.021-39.903-0.021-59.844c0-4.019,0-4.019,3.954-4.04
			c0.694,0,1.369,0.087,2.041,0c2.367-0.305,2.998,0.759,2.976,3.019c-0.087,10.709-0.042,21.396-0.042,32.106
			C241.132,152.284,241.087,162.797,241.174,173.312z"/>
		<path fill-rule="evenodd" clip-rule="evenodd" fill="#FFFFFF" d="M208.483,172.551c0.021,2.911-0.717,3.953-3.738,3.801
			c-5.842-0.282-5.212,0.674-5.233-5.409c-0.023-6.689,0-13.402,0-20.114h0.021c0-7.385,0.087-14.771-0.044-22.157
			c-0.063-2.498,0.611-3.454,3.258-3.367c6.366,0.239,5.672-0.717,5.694,5.561C208.461,144.769,208.351,158.649,208.483,172.551z"/>
		<path fill-rule="evenodd" clip-rule="evenodd" fill="#FFFFFF" d="M292.527,172.464c0,3.845-0.023,3.845-3.846,3.845
			c-0.783,0-1.563-0.064-2.325,0.022c-2.259,0.239-2.803-0.826-2.803-2.912c0.066-12.251,0.045-24.524,0.045-36.775
			c-0.021-5.735-1.326-7.039-7.038-7.039c-4.867-0.021-9.73-0.021-14.598,0c-5.517,0-6.798,1.303-6.798,6.929
			c-0.021,12.273,0,24.524-0.021,36.797c0,1.173,0.433,2.65-1.5,2.955c-2.28,0.347-2.802-0.783-2.781-2.846
			c0.066-11.773,0.045-23.548,0.045-35.321c0-11.599,0-23.177-0.023-34.755c0-4.952-1.498-6.43-6.43-6.451
			c-4.864-0.022-9.73-0.043-14.597-0.022c-6.256,0-7.429,1.173-7.429,7.559c0,22.874,0.021,45.726,0,68.599
			c0,1.217,0.653,2.889-1.476,3.237c-2.586,0.413-2.781-1.108-2.781-3.129c0.044-16.552,0.023-33.083,0.023-49.635
			c0-0.87,0.021-1.76-0.023-2.628c-0.129-3.585-1.824-5.279-5.497-5.301c-5.842-0.065-11.686-0.065-17.507,0.022
			c-3.606,0.043-5.344,1.781-5.386,5.431c-0.068,5.843-0.044,11.687-0.044,17.508c0,11.404-0.066,22.786,0.087,34.169
			c0.021,2.759-0.717,3.758-3.585,3.649c-6.169-0.26-5.41,0.586-5.41-5.56c-0.021-26.458,0.045-52.938-0.042-79.396
			c-0.021-2.628,0.63-3.52,3.411-3.497c17.507,0.108,35.015,0.043,52.545,0.043h51.959c3.802,0.021,3.802,0.043,3.802,3.932
			C292.504,118.745,292.527,145.594,292.527,172.464z"/>
		<path fill-rule="evenodd" clip-rule="evenodd" fill="#BDC5D1" d="M325.327,218.342c-33.648,0-60.844,27.196-60.844,60.888
			c0,33.886,27.13,61.018,61.018,60.975c33.69-0.023,60.822-27.176,60.844-60.888C386.39,245.452,359.236,218.342,325.327,218.342z
			 M330.302,251.533c0-6.604,0.108-13.207-0.045-19.81c-0.063-2.759,0.87-3.237,3.456-2.781
			c22.091,3.997,38.296,20.311,42.074,42.424c0.435,2.455-0.325,3.063-2.629,3.042c-13.315-0.044-26.652-0.065-39.946,0.043
			c-2.412,0.021-2.976-0.87-2.955-3.085C330.367,264.763,330.302,258.159,330.302,251.533z M355.435,320.568
			c-31.041,22.59-75.638,3.583-80.569-34.365c-3.604-27.804,15.142-52.851,42.859-57.369c2.346-0.369,2.868,0.478,2.845,2.606
			c-0.063,7.863-0.021,15.749-0.021,23.634c0,0,0,0-0.021,0c0,7.582,0.066,15.164-0.021,22.743
			c-0.045,2.541,0.824,4.432,2.604,6.192c10.905,10.816,21.723,21.743,32.671,32.539
			C357.584,318.33,357.454,319.113,355.435,320.568z M366.122,310.076c-0.912,1.216-1.5,1.455-2.673,0.282
			c-8.471-8.538-16.987-17.03-26.175-26.198h5.691c10.1,0,20.201,0.023,30.303-0.021c1.824,0,3.04,0.219,2.671,2.542
			C374.529,295.282,371.4,303.104,366.122,310.076z"/>
		<path fill-rule="evenodd" clip-rule="evenodd" fill="#FFFFFF" d="M375.939,286.681c-1.41,8.602-4.539,16.423-9.817,23.396
			c-0.912,1.216-1.5,1.455-2.673,0.282c-8.471-8.538-16.987-17.03-26.175-26.198h5.691c10.1,0,20.201,0.023,30.303-0.021
			C375.093,284.139,376.309,284.357,375.939,286.681z"/>
		<path fill-rule="evenodd" clip-rule="evenodd" fill="#FFFFFF" d="M373.158,274.408c-13.315-0.044-26.652-0.065-39.946,0.043
			c-2.412,0.021-2.976-0.87-2.955-3.085c0.11-6.604,0.045-13.207,0.045-19.833c0-6.604,0.108-13.207-0.045-19.81
			c-0.063-2.759,0.87-3.237,3.456-2.781c22.091,3.997,38.296,20.311,42.074,42.424C376.222,273.821,375.462,274.43,373.158,274.408z
			"/>
		<path fill-rule="evenodd" clip-rule="evenodd" fill="#FFFFFF" d="M355.435,320.568c-31.041,22.59-75.638,3.583-80.569-34.365
			c-3.604-27.804,15.142-52.851,42.859-57.369c2.346-0.369,2.868,0.478,2.845,2.606c-0.063,7.863-0.021,15.749-0.021,23.634
			c0,0,0,0-0.021,0c0,7.582,0.066,15.164-0.021,22.743c-0.045,2.541,0.824,4.432,2.604,6.192
			c10.905,10.816,21.723,21.743,32.671,32.539C357.584,318.33,357.454,319.113,355.435,320.568z"/>
		<path fill-rule="evenodd" clip-rule="evenodd" fill="#FFFFFF" d="M386.41,184.672c-0.261,6.951,0.738,6.017-6.104,6.061
			c-8.753,0.043-17.508,0-26.263,0c-9.622,0-19.244,0.064-28.89-0.022c-7.255-0.087-13.273-5.561-13.903-12.468
			c-0.693-7.538,3.889-14.119,11.014-15.64c1.5-0.326,3.105-0.305,4.648-0.305c14.098-0.021,28.196,0,42.315,0
			c1.348,0,2.716-0.021,4.018-0.456c2.043-0.673,3-2.063,2.955-4.17c-0.042-1.976-0.999-3.236-2.932-3.866
			c-1.412-0.456-2.868-0.435-4.323-0.435c-17.986,0-35.994-0.065-53.98,0.043c-2.888,0.022-3.932-0.717-3.823-3.736
			c0.282-6.952-0.717-6.04,6.127-6.061c18.269-0.022,36.559-0.066,54.849,0.021c11.404,0.066,18.029,11.947,12.143,21.658
			c-2.716,4.519-6.907,6.733-12.164,6.755c-14.599,0.021-29.195,0-43.771,0c-1.455,0-2.91,0.021-4.323,0.543
			c-1.911,0.695-2.691,2.129-2.649,4.063c0.045,1.847,0.892,3.128,2.649,3.779c1.5,0.565,3.063,0.543,4.605,0.543
			c18.008,0,35.995,0.065,54.003-0.065C385.498,180.915,386.54,181.653,386.41,184.672z"/>
		<path fill-rule="evenodd" clip-rule="evenodd" fill="#FFFFFF" d="M250.949,259.44c-0.261,6.931,0.717,5.995-6.124,6.019
			c-10.603,0.042-21.2,0.021-31.803,0.021c-11.294,0-22.569-0.065-33.865,0.043c-2.652,0.023-3.564-0.78-3.475-3.475
			c0.216-7.343-0.783-6.322,6.406-6.322c21.701-0.043,43.381,0.043,65.08-0.066C250.103,255.639,251.058,256.464,250.949,259.44z"/>
		<path fill-rule="evenodd" clip-rule="evenodd" fill="#FFFFFF" d="M245.107,284.139c-10.71,0.045-21.398,0.021-32.106,0.021
			c-11.272,0-22.547-0.063-33.843,0.045c-2.673,0.042-3.541-0.805-3.454-3.478c0.216-7.342-0.827-6.298,6.406-6.298
			c21.593-0.065,43.186-0.021,64.777-0.021c3.997,0,4.02,0.021,3.997,4.019C250.841,284.922,251.58,284.118,245.107,284.139z"/>
		<path fill-rule="evenodd" clip-rule="evenodd" fill="#FFFFFF" d="M244.955,302.843c-10.6,0.042-21.203,0-31.801,0
			c-11.383,0-22.766-0.065-34.149,0.063c-2.563,0.023-3.388-0.825-3.301-3.366c0.216-7.495-0.827-6.409,6.277-6.43
			c21.701-0.063,43.379-0.043,65.059-0.043c3.844,0,3.888,0.021,3.844,3.889C250.82,303.689,251.667,302.798,244.955,302.843z"/>
		<path fill-rule="evenodd" clip-rule="evenodd" fill="#FFFFFF" d="M250.949,315.181c-0.237,7.386,0.804,6.321-6.408,6.343
			c-21.701,0.044-43.379-0.043-65.078,0.065c-2.934,0.021-3.89-0.825-3.801-3.78c0.259-6.907-0.674-6.016,6.125-6.039
			c10.513-0.043,21.005,0,31.521,0c11.381,0,22.764,0.087,34.147-0.043C250.082,311.705,251.037,312.486,250.949,315.181z"/>
		<path fill-rule="evenodd" clip-rule="evenodd" fill="#FFFFFF" d="M250.949,240.455c-0.261,7.364,0.804,6.235-6.408,6.344
			c-5.734,0.065-11.468,0.021-17.204,0.021c0-0.021,0-0.021,0-0.021c-6.82,0-13.619-0.087-20.42,0.021
			c-2.41,0.043-3.258-0.738-3.19-3.171c0.195-7.754-0.848-6.56,6.407-6.604c12.448-0.065,24.894,0.043,37.341-0.087
			C250.124,236.937,251.058,237.762,250.949,240.455z"/>
		<path fill-rule="evenodd" clip-rule="evenodd" fill="#FFFFFF" d="M187.934,246.798c-0.978,0.043-1.933,0.021-2.911,0.021
			c0-0.021,0-0.043,0-0.043c-2.325,0-4.671-0.043-6.994,0.022c-1.587,0.021-2.304-0.63-2.283-2.259
			c0.066-9.254-1.021-7.299,6.93-7.494c3.303-0.065,6.604,0.043,9.905,0c1.586-0.021,2.282,0.63,2.282,2.238
			C194.798,248.536,195.818,246.581,187.934,246.798z"/>
	</g>
</g>
</svg>
