<?xml version="1.0" encoding="utf-8"?>
<!-- Generator: Adobe Illustrator 16.0.0, SVG Export Plug-In . SVG Version: 6.00 Build 0)  -->
<!DOCTYPE svg PUBLIC "-//W3C//DTD SVG 1.1//EN" "http://www.w3.org/Graphics/SVG/1.1/DTD/svg11.dtd">
<svg version="1.1" id="Layer_1" xmlns="http://www.w3.org/2000/svg" xmlns:xlink="http://www.w3.org/1999/xlink" x="0px" y="0px"
	 width="512px" height="512px" viewBox="0 0 512 512" enable-background="new 0 0 512 512" xml:space="preserve">
<g>
	<g>
		<g>
			<g>
				<path fill="#65696F" d="M452.993,105.614v39.851c0,5.514-4.457,9.969-9.969,9.969h-25.107c-1.058,2.953-2.264,5.858-3.617,8.688
					l17.771,17.772c3.89,3.889,3.89,10.189,0,14.104l-28.184,28.159c-3.89,3.889-10.189,3.889-14.079,0l-17.773-17.747
					c-2.829,1.354-5.732,2.56-8.688,3.594v25.131c0,5.489-4.456,9.944-9.968,9.944h-39.853c-5.49,0-9.944-4.456-9.944-9.944v-25.131
					c-2.978-1.059-5.882-2.264-8.713-3.619l-17.771,17.772c-3.889,3.889-10.191,3.889-14.079,0L234.835,196
					c-3.889-3.915-3.889-10.215,0-14.104l17.771-17.772c-1.354-2.83-2.56-5.735-3.618-8.688h-25.107
					c-5.514,0-9.968-4.455-9.968-9.969v-39.851c0-5.489,4.454-9.944,9.968-9.944h25.107c1.058-2.978,2.264-5.858,3.618-8.713
					l-17.771-17.771c-3.889-3.889-3.889-10.191,0-14.08l28.184-28.183c3.888-3.889,10.19-3.889,14.079,0l17.771,17.771
					c2.831-1.353,5.735-2.56,8.713-3.593V15.969c0-5.513,4.454-9.969,9.944-9.969h39.853c5.512,0,9.968,4.456,9.968,9.969V41.1
					c2.955,1.034,5.858,2.24,8.688,3.593l17.773-17.771c3.89-3.889,10.189-3.889,14.079,0l28.184,28.183
					c3.89,3.889,3.89,10.191,0,14.08L414.3,86.957c1.354,2.855,2.56,5.735,3.617,8.713h25.107
					C448.536,95.67,452.993,100.125,452.993,105.614z"/>
			</g>
		</g>
	</g>
	<g>
		<g>
			<path fill="#307167" d="M358.187,115.036h-25.107c-1.061-2.979-2.265-5.858-3.62-8.714l17.773-17.771
				c3.889-3.889,3.889-10.19,0-14.08l-28.185-28.183c-3.889-3.889-10.189-3.889-14.078,0L287.196,64.06
				c-2.829-1.354-5.735-2.56-8.688-3.594V35.334c0-5.513-4.456-9.968-9.971-9.968h-39.85c-5.49,0-9.944,4.455-9.944,9.968v25.131
				c-2.979,1.034-5.882,2.24-8.714,3.594L192.26,46.289c-3.89-3.889-10.192-3.889-14.082,0l-28.182,28.183
				c-3.889,3.89-3.889,10.191,0,14.08l17.771,17.771c-1.354,2.856-2.56,5.735-3.618,8.714h-25.107c-5.514,0-9.968,4.455-9.968,9.944
				v39.851c0,5.514,4.454,9.97,9.968,9.97h25.107c1.058,2.953,2.264,5.858,3.618,8.688l-17.771,17.772
				c-3.889,3.889-3.889,10.189,0,14.104l28.182,28.159c3.889,3.89,10.192,3.89,14.082,0l17.771-17.772
				c2.832,1.354,5.735,2.56,8.714,3.619v25.13c0,5.489,4.454,9.945,9.944,9.945h39.85c5.515,0,9.971-4.456,9.971-9.945v-25.13
				c2.952-1.034,5.858-2.24,8.688-3.593l17.773,17.747c3.889,3.89,10.189,3.89,14.078,0l28.185-28.159
				c3.889-3.915,3.889-10.215,0-14.104l-17.773-17.772c1.355-2.831,2.56-5.735,3.62-8.688h25.107c5.512,0,9.968-4.456,9.968-9.97
				V124.98C368.154,119.491,363.698,115.036,358.187,115.036z M208.776,144.918c0-22.005,17.845-39.851,39.849-39.851
				c22.007,0,39.828,17.846,39.828,39.851c0,22.005-17.821,39.851-39.828,39.851C226.621,184.769,208.776,166.923,208.776,144.918z"
				/>
		</g>
	</g>
	<g>
		<g>
			<path fill="#BDC5D1" d="M248.625,105.067c-22.004,0-39.849,17.846-39.849,39.851c0,22.005,17.845,39.851,39.849,39.851
				c22.007,0,39.828-17.846,39.828-39.851C288.453,122.913,270.632,105.067,248.625,105.067z M248.625,164.831
				c-11.002,0-19.937-8.91-19.937-19.913c0-11.003,8.935-19.938,19.937-19.938c11.005,0,19.913,8.935,19.913,19.938
				C268.538,155.921,259.63,164.831,248.625,164.831z"/>
			<path fill="#FFFFFF" d="M268.538,144.918c0,11.003-8.908,19.913-19.913,19.913c-11.002,0-19.937-8.91-19.937-19.913
				c0-11.003,8.935-19.938,19.937-19.938C259.63,124.98,268.538,133.915,268.538,144.918z"/>
		</g>
	</g>
	<g>
		<g>
			<g>
				<rect x="86.655" y="436.263" fill="#BDC5D1" width="19.92" height="69.737"/>
			</g>
		</g>
	</g>
	<g>
		<g>
			<g>
				<rect x="186.265" y="436.263" fill="#BDC5D1" width="19.927" height="69.737"/>
			</g>
		</g>
	</g>
	<g>
		<path fill="#BDC5D1" d="M196.23,376.495c-0.803,0.053-1.605,0.053-2.409,0c-7.357-0.472-13.428-5.134-16.091-11.501
			c17.192-13.896,28.461-39.103,28.461-68.481v-19.634H186.27v19.634c0,33.162-17.872,60.061-39.85,60.061
			c-21.973,0-39.845-26.898-39.845-60.061v-18.23c4.93-18.076,21.119-30.787,39.85-31.29V227.07
			c-28.285,0.465-52.705,19.924-59.474,47.386c-0.197,0.793-0.298,1.605-0.298,2.423v19.634c0,29.374,11.268,54.58,28.459,68.478
			c-3,7.186-10.294,12.027-18.498,11.505c-27.494,0.034-49.777,22.312-49.811,49.811V506h19.925v-79.694
			c0-16.504,13.379-29.888,29.886-29.888c0.76,0.023,1.52,0.023,2.284,0c14.984-0.441,27.719-9.345,33.784-21.988
			c4.402,1.338,8.996,2.065,13.743,2.065c4.746,0,9.338-0.728,13.739-2.064c6.417,13.388,20.273,22.456,36.067,21.987
			c16.504,0,29.886,13.384,29.886,29.888V506h19.925v-79.694C246.008,398.807,223.725,376.529,196.23,376.495z"/>
		<path fill="#BDC5D1" d="M415.391,376.495c-0.803,0.053-1.605,0.053-2.408,0c-7.356-0.472-13.43-5.133-16.093-11.501
			c17.193-13.896,28.462-39.103,28.462-68.481v-19.634c0-0.817-0.101-1.63-0.3-2.423c-6.771-27.462-31.188-46.922-59.472-47.386
			v19.922c18.726,0.506,34.91,13.208,39.85,31.28v18.24c0,33.162-17.872,60.061-39.85,60.061c-21.975,0-39.847-26.898-39.847-60.061
			v-19.634h-19.925v19.634c0,29.376,11.27,54.583,28.462,68.48c-3.001,7.184-10.294,12.024-18.496,11.502
			c-27.494,0.029-49.777,22.312-49.811,49.806V506h19.925v-79.694c0-16.504,13.377-29.888,29.881-29.888
			c0.765,0.023,1.528,0.023,2.288,0c14.982-0.441,27.716-9.345,33.78-21.988c4.402,1.338,8.996,2.065,13.742,2.065
			s9.339-0.728,13.74-2.064c6.417,13.388,20.272,22.456,36.07,21.987c16.505,0,29.884,13.384,29.884,29.888V506h19.923v-79.694
			C465.168,398.807,442.885,376.529,415.391,376.495z"/>
	</g>
	<g>
		<g>
			<g>
				<rect x="305.809" y="436.263" fill="#BDC5D1" width="19.92" height="69.737"/>
			</g>
		</g>
	</g>
	<g>
		<g>
			<g>
				<rect x="405.43" y="436.263" fill="#BDC5D1" width="19.922" height="69.737"/>
			</g>
		</g>
	</g>
	<g>
		<g>
			<rect x="241.113" y="284.374" fill="#307167" width="19.923" height="19.922"/>
		</g>
	</g>
	<g>
		<g>
			<rect x="241.113" y="324.223" fill="#307167" width="19.923" height="19.923"/>
		</g>
	</g>
	<g>
		<g>
			<rect x="241.113" y="364.072" fill="#307167" width="19.923" height="19.928"/>
		</g>
	</g>
</g>
</svg>
