<?xml version="1.0" encoding="utf-8"?>
<!-- Generator: Adobe Illustrator 16.0.0, SVG Export Plug-In . SVG Version: 6.00 Build 0)  -->
<!DOCTYPE svg PUBLIC "-//W3C//DTD SVG 1.1//EN" "http://www.w3.org/Graphics/SVG/1.1/DTD/svg11.dtd">
<svg version="1.1" id="Layer_1" xmlns="http://www.w3.org/2000/svg" xmlns:xlink="http://www.w3.org/1999/xlink" x="0px" y="0px"
	 width="512px" height="512px" viewBox="0 0 512 512" enable-background="new 0 0 512 512" xml:space="preserve">
<g>
	<g>
		<path fill="#BDC5D1" d="M264.362,138.887H137.203c-6.207,0-9.559,4.995-9.559,9.698c0,4.699,3.352,9.695,9.559,9.695h127.159
			c6.207,0,9.555-4.996,9.555-9.695C273.917,143.882,270.569,138.887,264.362,138.887z"/>
		<path fill="#BDC5D1" d="M264.362,207.568H137.203c-6.207,0-9.559,4.995-9.559,9.698c0,4.699,3.352,9.694,9.559,9.694h127.159
			c6.207,0,9.555-4.995,9.555-9.694C273.917,212.563,270.569,207.568,264.362,207.568z"/>
		<path fill="#BDC5D1" d="M136.663,275.705c-6.207,0-9.555,4.995-9.555,9.698s3.348,9.698,9.555,9.698h68.701
			c6.211,0,9.563-4.995,9.563-9.698s-3.352-9.698-9.563-9.698H136.663z"/>
		<path fill="#BDC5D1" d="M353.448,50.801h-67.245v-2.375c0-7.947-6.467-14.414-14.418-14.414h-41.501
			C223.109,17.198,206.196,6,187.751,6c-18.485,0-35.398,11.198-42.537,28.012h-41.542c-7.947,0-14.414,6.467-14.414,14.414v2.375
			H22.014v398.685h227.575c4.076,0,7.247-2.384,8.223-6.035c0.304-0.808,0.46-1.752,0.46-2.812c0-4.375-2.983-8.807-8.683-8.807
			H39.663V68.454h49.596v13.598c0,7.947,6.467,14.414,14.414,14.414h168.113c7.951,0,14.418-6.467,14.418-14.414V68.454h49.596
			l0.244,227.987c0,5.647,4.443,8.606,8.835,8.606c2.911,0,5.595-1.275,7.167-3.396c1.092-1.432,1.647-3.188,1.647-5.215
			L353.448,50.801z M187.751,23.649c13.054,0,24.684,9.103,27.684,21.744c1.824,6.267,6.451,6.267,9.83,6.267h43.285v27.156H106.908
			V51.661h44.393c4.235,0,7.835-2.631,8.75-6.399C163.067,32.74,174.717,23.649,187.751,23.649z"/>
		<path fill="#BDC5D1" d="M45.682,316.59h63.15V253.44h-63.15V316.59z M94.09,270.554c-1.312-1.063-2.996-1.735-4.843-1.735
			c-2.228,0-4.259,0.911-5.579,2.507l-10.462,12.742l-2.939-2.939c-1.248-1.248-2.979-1.936-4.875-1.936
			c-1.892,0-3.62,0.72-4.963,1.84v-12.89H94.09V270.554z M60.427,291.79l8.223,8.223c0.892,0.892,2.024,1.504,3.235,1.836H60.427
			V291.79z M79.444,299.434l14.646-17.905v20.32H75.717C77.173,301.449,78.484,300.633,79.444,299.434z"/>
		<path fill="#BDC5D1" d="M108.832,185.295h-63.15v63.15h63.15V185.295z M60.427,223.653l8.231,8.234
			c0.88,0.876,1.987,1.476,3.175,1.812H60.427V223.653z M79.444,231.296l14.646-17.901V233.7H75.761
			C77.197,233.296,78.492,232.484,79.444,231.296z M94.09,202.417c-1.316-1.064-3-1.74-4.851-1.74c-2.228,0-4.255,0.916-5.571,2.512
			l-10.462,12.738l-2.939-2.936c-1.248-1.248-2.976-1.936-4.871-1.936c-1.892,0-3.624,0.72-4.967,1.84v-12.858H94.09V202.417z"/>
		<path fill="#BDC5D1" d="M108.832,117.022h-63.15v63.154h63.15V117.022z M60.427,155.372l8.223,8.223
			c0.892,0.892,2.024,1.504,3.235,1.836H60.427V155.372z M79.444,163.007L94.09,145.11v20.321H75.721
			C77.181,165.031,78.492,164.207,79.444,163.007z M94.09,134.136c-1.316-1.068-3-1.74-4.847-1.74c-2.231,0-4.263,0.916-5.575,2.511
			l-10.462,12.738l-2.936-2.936c-1.248-1.252-2.979-1.94-4.875-1.94c-1.892,0-3.624,0.72-4.967,1.84v-12.882H94.09V134.136z"/>
	</g>
	<g>
		<g>
			<path fill="#65696F" d="M443.422,348.573c-0.695-0.284-1.392-0.572-2.128-0.815c-1.436-24.696-13.394-46.605-31.454-61.351
				c-1.924-1.556-3.888-3.031-5.896-4.423c-4.096-2.784-8.438-5.244-13.026-7.331c-3.439-1.556-7.043-2.908-10.77-4.012
				c-3.644-1.067-7.411-1.928-11.303-2.54c-4.259-0.655-8.643-0.983-13.062-0.983c-1.396,0-2.788,0.04-4.18,0.124
				c-4.627,0.204-9.175,0.775-13.554,1.76c-11.634,2.416-22.404,7.251-31.783,13.966c-2.823,1.924-5.526,4.095-8.066,6.431
				c1.023,0,2.048,0.04,3.111,0.08c3.768,0.164,7.455,0.572,11.059,1.228c3.604,0.656,7.167,1.556,10.566,2.704
				c29.199,9.666,50.823,35.998,53.691,67.657c-0.576-0.164-1.148-0.328-1.72-0.452c-1.764-0.408-3.523-0.736-5.327-0.983
				c-1.8-15.194-8.435-28.952-18.266-39.726l-9.542,9.542l-4.831-4.831l9.542-9.543c-9.175-8.354-20.437-14.293-32.927-17.037
				c-3.399-0.735-6.879-1.268-10.402-1.472c-0.492-0.044-1.063-0.084-1.556-0.124v13.514h-6.839v-13.514
				c-0.82,0.04-1.68,0.124-2.5,0.204c-0.407,0.04-0.815,0.084-1.228,0.124c-13.021,15.029-20.929,34.606-20.929,56.023
				c0,20.601,7.331,39.602,19.577,54.387c3.768,4.627,8.066,8.847,12.778,12.574c12.206,9.746,27.071,16.174,43.369,18.057
				c7.906,26.908,30.879,47.425,59.138,51.848c3.728,0.616,7.535,0.904,11.427,0.904c17.732,0,34.07-6.307,46.809-16.833
				c16.301-13.515,26.783-33.951,26.783-56.724C489.986,385.967,470.657,359.348,443.422,348.573z"/>
		</g>
	</g>
	<g>
		<g>
			<path fill="#307167" d="M383.836,368.234c0,0.735-0.04,1.472-0.04,2.251c-0.084,2.048-0.248,4.096-0.452,6.184
				c-1.884-0.86-3.848-1.596-5.855-2.252c-0.248-0.084-0.492-0.164-0.779-0.248c0.164-2.004,0.248-4.011,0.248-5.935
				c0-2.42-0.124-4.792-0.328-7.167c-2.868-31.659-24.492-57.991-53.691-67.657c-3.399-1.148-6.963-2.048-10.566-2.704
				c-3.604-0.655-7.291-1.063-11.059-1.228c-1.063-0.04-2.088-0.08-3.111-0.08h-0.04c-43.453,0-78.795,35.383-78.795,78.836
				c0,39.478,29.2,72.28,67.122,77.932c3.812,0.575,7.702,0.859,11.674,0.859c1.924,0,3.932-0.08,5.939-0.244
				c0.695,2.252,1.556,4.504,2.495,6.635c-2.823,0.288-5.611,0.492-8.435,0.492c-3.359,0-6.675-0.204-9.95-0.615
				c-11.635-1.313-22.568-4.996-32.315-10.566c-4.503-2.58-8.763-5.527-12.694-8.847c-18.757-15.686-30.715-39.314-30.715-65.646
				c0-47.261,38.414-85.675,85.674-85.675c2.743,0,5.447,0.12,8.106,0.408c1.68,0.164,3.32,0.368,5,0.616
				c3.847,0.571,7.614,1.432,11.262,2.495c3.728,1.108,7.331,2.5,10.811,4.016c1.596,0.735,3.195,1.516,4.751,2.376
				c2.823,1.516,5.571,3.151,8.23,4.955c1.392,0.939,2.784,1.963,4.096,2.987c0.616,0.452,1.228,0.943,1.804,1.436
				c18.061,14.741,30.02,36.65,31.491,61.347C383.796,364.835,383.836,366.555,383.836,368.234z"/>
		</g>
		<g>
			<path fill="#307167" d="M369.582,359.632c-1.8-15.194-8.435-28.952-18.266-39.726l-9.542,9.542l-4.831-4.831l9.542-9.543
				c-9.175-8.354-20.437-14.293-32.927-17.037c-3.399-0.735-6.879-1.268-10.402-1.472c-0.492-0.044-1.063-0.084-1.556-0.124v13.514
				h-6.839v-13.514c-0.82,0.04-1.68,0.124-2.5,0.204c-0.407,0.04-0.815,0.084-1.228,0.124c-15.81,1.516-30.059,8.15-41.197,18.305
				l9.543,9.543l-4.792,4.831l-9.586-9.542c-10.891,12.002-17.773,27.643-18.593,44.929h13.474v6.799h-13.474
				c0.82,17.281,7.703,32.883,18.593,44.925l9.586-9.583l4.792,4.831l-9.543,9.583c9.826,8.927,22.112,15.193,35.671,17.609
				c4.095,0.779,8.354,1.147,12.653,1.147c1.432,0,2.868,0,4.384-0.124c-0.576-2.987-0.86-6.019-0.904-9.131
				c-0.04-0.327-0.04-0.655-0.04-0.983c0-2.416,0.164-4.831,0.408-7.127c0.124-1.023,0.288-2.048,0.452-3.027
				c0.287-1.6,0.655-3.195,1.063-4.711c0.492-1.968,1.107-3.852,1.804-5.691c0.983-2.703,2.212-5.243,3.604-7.743
				c9.95-17.853,29.035-29.975,50.903-29.975c3.439,0,6.839,0.368,10.119,0.979c0.12-1.516,0.163-2.987,0.163-4.379
				C370.117,365.326,369.954,362.459,369.582,359.632z M294.762,330.516h6.839v39.11l-18.141,18.141l-4.836-4.831l2.256-2.252
				l13.882-13.886V330.516z"/>
		</g>
		<g>
			<polygon fill="#FFFFFF" points="301.585,330.544 301.585,369.642 283.451,387.779 278.612,382.928 294.738,366.803 
				294.738,330.544 			"/>
		</g>
		<g>
			<path fill="#307167" stroke="#FFFFFF" stroke-width="1.5" stroke-miterlimit="10" d="M385.799,364.015
				c-0.695-0.288-1.392-0.532-2.087-0.819c-2.292-0.82-4.668-1.557-7.083-2.128c-0.576-0.164-1.148-0.328-1.72-0.452
				c-1.764-0.408-3.523-0.736-5.327-0.983c-3.52-0.532-7.123-0.82-10.811-0.82c-31.655,0-58.767,20.192-69.089,48.368
				c-1.268,3.359-2.252,6.839-2.987,10.442c-0.74,3.563-1.188,7.207-1.436,10.935c-0.04,1.271-0.04,2.579-0.04,3.891
				c0,2.212,0.084,4.384,0.288,6.552c0,0.327,0.039,0.695,0.079,1.023v0.044c0.204,2.048,0.532,4.096,0.9,6.1
				c0.452,2.419,1.023,4.791,1.724,7.127C297.178,483.764,325.437,506,358.771,506c17.489,0,33.543-6.104,46.196-16.342l0.612-0.491
				c16.342-13.515,26.783-33.951,26.783-56.72C432.363,401.404,413.035,374.785,385.799,364.015z"/>
		</g>
	</g>
	<g>
		<g>
			<path fill="#FFFFFF" d="M361.631,425.957c-3.939,0-7.146-3.208-7.146-7.151c0-3.939,3.207-7.139,7.146-7.139
				c2.532,0,5.203,1.288,7.73,3.731c2.836,2.744,7.363,2.672,10.103-0.164c2.744-2.836,2.668-7.358-0.168-10.106
				c-3.623-3.507-7.251-5.495-10.522-6.575v-8.326c0-3.943-3.195-7.146-7.143-7.146c-3.943,0-7.146,3.203-7.146,7.146v8.375
				c-8.314,2.951-14.29,10.894-14.29,20.204c0,11.822,9.618,21.437,21.437,21.437c3.943,0,7.143,3.212,7.143,7.151
				s-3.199,7.143-7.143,7.143c-3.051,0-6.347-1.92-9.278-5.403c-2.54-3.023-7.043-3.411-10.066-0.871
				c-3.023,2.539-3.411,7.047-0.872,10.062c3.819,4.552,8.311,7.715,13.07,9.311v8.339c0,3.943,3.203,7.146,7.146,7.146
				c3.947,0,7.143-3.203,7.143-7.146v-8.375c8.319-2.951,14.298-10.894,14.298-20.204
				C383.071,435.571,373.453,425.957,361.631,425.957z"/>
		</g>
	</g>
</g>
</svg>
