<?xml version="1.0" encoding="utf-8"?>
<!-- Generator: Adobe Illustrator 23.0.1, SVG Export Plug-In . SVG Version: 6.00 Build 0)  -->
<svg version="1.1" id="Layer_1" xmlns="http://www.w3.org/2000/svg" xmlns:xlink="http://www.w3.org/1999/xlink" x="0px" y="0px"
	 viewBox="0 0 172.9 172.9" style="enable-background:new 0 0 172.9 172.9;" xml:space="preserve">
<style type="text/css">
	.st0{clip-path:url(#SVGID_2_);}
	.st1{clip-path:url(#SVGID_4_);fill:#307167;stroke:#FFFFFF;stroke-width:6;stroke-miterlimit:10;}
	.st2{clip-path:url(#SVGID_6_);fill:#FFFFFF;}
</style>
<g id="Artwork_1_1_">
	<g>
		<g>
			<defs>
				<rect id="SVGID_1_" x="9.3" y="7" width="157.7" height="157.7"/>
			</defs>
			<clipPath id="SVGID_2_">
				<use xlink:href="#SVGID_1_"  style="overflow:visible;"/>
			</clipPath>
			<g class="st0">
				<g>
					<defs>
						<rect id="SVGID_3_" x="9.3" y="7" width="157.7" height="157.7"/>
					</defs>
					<clipPath id="SVGID_4_">
						<use xlink:href="#SVGID_3_"  style="overflow:visible;"/>
					</clipPath>
					<path class="st1" d="M87.9,15.1c39.4,0,71.4,31.9,71.4,71.4s-31.9,71.4-71.4,71.4s-71.4-32-71.4-71.4S48.5,15.1,87.9,15.1"/>
				</g>
				<g>
					<defs>
						<rect id="SVGID_5_" x="9.3" y="7" width="157.7" height="157.7"/>
					</defs>
					<clipPath id="SVGID_6_">
						<use xlink:href="#SVGID_5_"  style="overflow:visible;"/>
					</clipPath>
					<path class="st2" d="M98.9,84.1c3.4,1,6,2.9,8.4,5.2c2.4,2.6,3.9,5.5,4.7,8.7c0.8,3.1,0.5,6.8-0.5,10.2
						c-1.3,3.7-3.7,6.8-7.1,8.9s-7.1,3.4-11,3.4v8.1c0,0.8-0.3,1.6-0.8,1.8c-0.5,0.3-1,0.8-1.8,0.8h-5.5c-0.8,0-1.6-0.3-1.8-0.8
						c-0.3-0.5-0.8-1-0.8-1.8v-8.1c-5.5,0-10.5-1.6-14.7-5c-0.5-0.5-0.8-1.3-1-2.1c0-0.8,0.3-1.6,0.8-2.1l5.8-5.8
						c0.5-0.3,1-0.5,1.6-0.8c0.5,0,1.3,0,1.8,0.5c1.6,1,3.7,1.6,5.8,1.6h11.3c1.3,0,2.6-0.5,3.4-1.6c1-1.1,1.6-2.1,1.6-3.7
						c0-1-0.3-2.1-1-2.9c-0.8-0.8-1.6-1.6-2.6-1.8l-17.6-4.7c-3.9-1.1-7.1-3.2-9.7-6c-2.6-2.9-4.2-6.3-4.7-10.2
						c-0.3-3.7,0.5-7.1,2.1-10.2c1.6-3.1,3.9-5.5,6.8-7.6c2.9-1.8,6.3-2.9,10-2.9h0.3v-8.1c0-0.8,0.3-1.6,0.8-1.8
						c0.5-0.3,1-0.8,1.8-0.8h5.5c0.8,0,1.6,0.3,1.8,0.8c0.3,0.5,0.8,1.1,0.8,1.8v8.1c5.5,0,10.2,1.6,14.7,5c0.8,0.5,1,1.3,1.3,2.1
						c0,0.8-0.3,1.6-0.8,2.1l-5.8,6c-0.5,0.3-1,0.5-1.6,0.8c-0.5,0-1.3,0-1.8-0.3c-1.6-1.3-3.7-1.8-5.8-1.8H82.1
						c-1.3,0-2.6,0.5-3.4,1.6c-1,1-1.6,2.1-1.6,3.7c0,1,0.3,2.1,1,2.9c0.8,0.8,1.6,1.6,2.6,1.8L98.9,84.1z"/>
				</g>
			</g>
		</g>
	</g>
</g>
</svg>
