<?xml version="1.0" encoding="utf-8"?>
<!-- Generator: Adobe Illustrator 23.0.1, SVG Export Plug-In . SVG Version: 6.00 Build 0)  -->
<svg version="1.1" id="Layer_1" xmlns="http://www.w3.org/2000/svg" xmlns:xlink="http://www.w3.org/1999/xlink" x="0px" y="0px"
	 viewBox="0 0 512 512" style="enable-background:new 0 0 512 512;" xml:space="preserve">
<style type="text/css">
	.st0{fill:#BDC5D1;}
	.st1{fill:#FFFFFF;}
	.st2{clip-path:url(#SVGID_2_);}
	.st3{clip-path:url(#SVGID_4_);fill:#307167;}
	.st4{clip-path:url(#SVGID_4_);fill:#FFFFFF;}
</style>
<g>
	<path class="st0" d="M469.9,304l-37.5-71.5v-29.2c0-76.2-44.7-146.2-113.9-178.4C292.2,12.3,263.8,6,234.4,6
		C125.8,6,37.4,94.3,37.3,202.9c0,53.5,22.2,105.4,60.9,142.4l0.3,0.3v152c0,4.6,3.8,8.4,8.4,8.4h223c4.6,0,8.4-3.8,8.4-8.4
		l0.1-45.1l45,6.8c0.1,0,0.5,0.1,1,0.1c26.5,0,48-21.5,48-48V350h9.7c13,0,23.5-5.1,28.8-13.9C476.3,327.2,475.9,315.5,469.9,304z
		 M456.5,327.2c-2.2,3.8-7.4,5.9-14.5,5.9h-18c-4.7,0-8.4,3.8-8.4,8.4v69.8c0,16.9-13.9,30.9-31,31.2l-53.5-8
		c-2.4-0.4-4.8,0.3-6.6,1.9c-1.9,1.8-2.9,4.1-2.9,6.5l-0.1,46.5H115.3V342c0-2.5-1-4.7-2.7-6.2c-37.1-34.1-58.4-82.6-58.4-133
		c0-99.4,80.8-180.2,180.2-180.2c26.8,0,52.7,5.8,77,17.3c63.3,29.4,104.2,93.5,104.2,163.2v31.4c0,1.5,0.3,2.7,0.9,3.9l38.4,73.3
		C458.1,317.8,458.7,323.4,456.5,327.2z"/>
	<g>
		<path class="st1" d="M231.4,152.7c-4.4-1.3-8.1-2.5-11.2-3.6v-0.1C223.2,150.2,227,151.3,231.4,152.7L231.4,152.7z"/>
		<path class="st1" d="M236.8,154.2c4.2,1.3,7.8,2.8,10.8,4.5C244.6,157,241,155.6,236.8,154.2L236.8,154.2z"/>
		<path class="st1" d="M247.6,158.6c0.2,0.1,0.3,0.1,0.4,0.2v0C247.8,158.8,247.7,158.7,247.6,158.6z"/>
		<path class="st1" d="M239.1,186c3.3,0,6.2-0.6,8.9-1.8v10c-3.4,0.7-6.9,1.1-10.7,1.1h-0.5c-1.7,0-3.5-0.1-5.4-0.2
			c-3.5-0.2-7.2-0.7-11.2-1.4c-1.4-0.2-2.9-0.5-4.4-0.8c-8.7-1.8-11.4-2.2-12.2-2.3c-0.2,0.2-0.9,1-1.8,3l-0.8,1.8H194l-1.8-44h7.7
			l0.8,1.6c4.5,8.9,10.4,16.9,17.4,23.5c0.7,0.7,1.5,1.4,2.2,2c3.6,3,7.4,5.2,11.2,6.4c1.8,0.6,3.6,1,5.4,1.1
			C237.5,186,238.3,186,239.1,186z"/>
		<path class="st1" d="M272.7,114.1h-7.4l-0.9-1.5c-4.9-8.9-10.2-16.2-15.6-21.6c-0.3-0.3-0.6-0.6-0.9-0.9
			c-3.6-3.4-7.3-5.4-11.2-6.3c-1.3-0.3-2.6-0.4-4-0.4c-0.5,0-1,0-1.4,0c-4.7,0.2-8.4,1.3-11.2,3.3V75.8c3.4-0.9,7.2-1.5,11.2-1.6
			c0.7,0,1.5-0.1,2.3-0.1c1,0,2.1,0,3.2,0.1c3.6,0.2,7.4,0.7,11.2,1.5c1.3,0.3,2.7,0.6,4.1,1c8,2.1,10.1,2.4,10.7,2.4
			c0.1,0,0.6-0.3,1.4-1.7l0.9-1.5h6.4L272.7,114.1z"/>
		<g>
			<path class="st1" d="M231.4,152.6v52.6c0,2.9-2.5,5.2-5.6,5.2s-5.6-2.3-5.6-5.2h0v-56.1C223.2,150.2,227,151.3,231.4,152.6z"/>
			<path class="st1" d="M248,158.9v46.3c0,2.9-2.5,5.2-5.6,5.2s-5.6-2.3-5.6-5.2v-51c4.2,1.3,7.8,2.8,10.8,4.5
				C247.7,158.7,247.8,158.8,248,158.9z"/>
		</g>
		<g>
			<path class="st1" d="M231.3,64.1v47.2c-4.3-1.4-8-3.2-11.2-5.1V64.1c0-2.9,2.5-5.2,5.6-5.2C228.8,58.9,231.3,61.3,231.3,64.1z"/>
			<path class="st1" d="M248,64.2v52c-0.1,0-0.1,0-0.2-0.1c-0.7-0.2-1.7-0.5-2.9-0.9c-0.8-0.2-1.7-0.5-2.7-0.8c-1-0.3-2.2-0.6-3.4-1
				c0,0-0.1,0-0.1,0c-0.6-0.2-1.2-0.3-1.8-0.5V64.1c0-2.9,2.5-5.2,5.6-5.2C245.4,58.9,248,61.3,248,64.2z"/>
		</g>
	</g>
</g>
<g id="Artwork_1_1_">
	<g>
		<defs>
			<rect id="SVGID_1_" x="139.2" y="47.1" width="184.2" height="184.2"/>
		</defs>
		<clipPath id="SVGID_2_">
			<use xlink:href="#SVGID_1_"  style="overflow:visible;"/>
		</clipPath>
		<g class="st2">
			<defs>
				<rect id="SVGID_3_" x="139.2" y="47.1" width="184.2" height="184.2"/>
			</defs>
			<clipPath id="SVGID_4_">
				<use xlink:href="#SVGID_3_"  style="overflow:visible;"/>
			</clipPath>
			<path class="st3" d="M231.3,47.1c50.9,0,92.1,41.2,92.1,92.1c0,50.9-41.2,92.1-92.1,92.1s-92.1-41.2-92.1-92.1
				C139.2,88.4,180.5,47.1,231.3,47.1"/>
			<path class="st4" d="M245.6,136.2c4.4,1.4,7.8,3.7,10.8,6.8c3.1,3.4,5.1,7.1,6.1,11.2c1,4.1,0.7,8.8-0.7,13.2
				c-1.7,4.7-4.7,8.8-9.1,11.5c-4.4,2.7-9.1,4.4-14.2,4.4v10.5c0,1-0.3,2-1,2.4c-0.7,0.3-1.4,1-2.4,1H228c-1,0-2-0.3-2.4-1
				c-0.3-0.7-1-1.4-1-2.4v-10.5c-7.1,0-13.5-2-19-6.4c-0.7-0.7-1-1.7-1.4-2.7c0-1,0.3-2,1-2.7l7.5-7.5c0.7-0.3,1.4-0.7,2-1
				c0.7,0,1.7,0,2.4,0.7c2,1.4,4.7,2,7.5,2h14.6c1.7,0,3.4-0.7,4.4-2c1.4-1.4,2-2.7,2-4.7c0-1.4-0.3-2.7-1.4-3.7c-1-1-2-2-3.4-2.4
				l-22.7-6.1c-5.1-1.4-9.1-4.1-12.5-7.8c-3.4-3.7-5.4-8.1-6.1-13.2c-0.3-4.7,0.7-9.1,2.7-13.2c2-4.1,5.1-7.1,8.8-9.8
				c3.7-2.4,8.1-3.7,12.9-3.7h0.3V88.4c0-1,0.3-2,1-2.4c0.7-0.3,1.4-1,2.4-1h7.1c1,0,2,0.3,2.4,1c0.3,0.7,1,1.4,1,2.4v10.5
				c7.1,0,13.2,2,19,6.4c1,0.7,1.4,1.7,1.7,2.7c0,1-0.3,2-1,2.7l-7.5,7.8c-0.7,0.3-1.4,0.7-2,1c-0.7,0-1.7,0-2.4-0.3
				c-2-1.7-4.7-2.4-7.5-2.4h-14.6c-1.7,0-3.4,0.7-4.4,2c-1.4,1.4-2,2.7-2,4.7c0,1.4,0.3,2.7,1.4,3.7c1,1,2,2,3.4,2.4L245.6,136.2z"
				/>
		</g>
	</g>
</g>
</svg>
