<?xml version="1.0" encoding="utf-8"?>
<!-- Generator: Adobe Illustrator 16.0.0, SVG Export Plug-In . SVG Version: 6.00 Build 0)  -->
<!DOCTYPE svg PUBLIC "-//W3C//DTD SVG 1.1//EN" "http://www.w3.org/Graphics/SVG/1.1/DTD/svg11.dtd">
<svg version="1.1" id="Layer_1" xmlns="http://www.w3.org/2000/svg" xmlns:xlink="http://www.w3.org/1999/xlink" x="0px" y="0px"
	 width="512px" height="512px" viewBox="0 0 512 512" enable-background="new 0 0 512 512" xml:space="preserve">
<g>
	<path fill="#65696F" d="M340.206,182.54c-28.813,0-52.256-23.446-52.256-52.258s23.443-52.258,52.256-52.258
		s52.261,23.446,52.261,52.258S369.019,182.54,340.206,182.54z"/>
	<g>
		<g>
			<path fill="#BDC5D1" d="M453.113,30.039H58.882C29.724,30.039,6,53.764,6,82.923v216.347v33.651
				c0,29.162,23.724,52.886,52.882,52.886h127.696l-15.383,76.922h-49.811c-5.311,0-9.616,4.305-9.616,9.615
				c0,5.312,4.305,9.616,9.616,9.616h269.228c5.311,0,9.615-4.305,9.615-9.616c0-5.311-4.305-9.615-9.615-9.615h-49.807
				l-15.388-76.922h127.695c29.158,0,52.887-23.724,52.887-52.886v-33.651V82.923C506,53.764,482.271,30.039,453.113,30.039z
				 M190.802,462.729l15.387-76.922h99.617l15.384,76.922H190.802L190.802,462.729z M486.769,332.922
				c0,18.559-15.1,33.658-33.655,33.658H58.882c-18.555,0-33.655-15.1-33.655-33.658v-24.035h461.537v24.035H486.769z
				 M486.769,289.655H25.228v-19.231h57.694c5.311,0,9.615-4.305,9.615-9.616c0-5.309-4.305-9.613-9.615-9.613H25.228V82.923
				c0-18.557,15.1-33.655,33.655-33.655h394.231c18.556,0,33.655,15.098,33.655,33.655V289.655z"/>
		</g>
	</g>
	<g>
		<g>
			<path fill="#BDC5D1" d="M255.996,318.502c-10.603,0-19.228,8.625-19.228,19.231c0,10.599,8.625,19.231,19.228,19.231
				c10.606,0,19.231-8.633,19.231-19.231C275.228,327.127,266.603,318.502,255.996,318.502z"/>
		</g>
	</g>
	<g>
		<g>
			<path fill="#BDC5D1" d="M121.192,258.932c-0.115-0.614-0.307-1.219-0.549-1.807c-0.238-0.578-0.538-1.133-0.887-1.655
				c-0.342-0.528-0.749-1.018-1.19-1.461c-0.441-0.443-0.933-0.847-1.459-1.192c-0.522-0.344-1.079-0.643-1.667-0.883
				c-0.576-0.242-1.183-0.434-1.797-0.549c-1.24-0.251-2.508-0.251-3.748,0c-0.618,0.115-1.221,0.307-1.797,0.549
				c-0.588,0.24-1.145,0.538-1.667,0.883c-0.53,0.346-1.018,0.749-1.459,1.192c-0.445,0.444-0.849,0.933-1.194,1.461
				c-0.346,0.522-0.645,1.077-0.883,1.655c-0.242,0.588-0.434,1.192-0.549,1.807c-0.123,0.615-0.192,1.25-0.192,1.876
				c0,0.622,0.069,1.26,0.192,1.874c0.115,0.614,0.308,1.222,0.549,1.797c0.238,0.592,0.538,1.145,0.883,1.667
				c0.346,0.526,0.749,1.018,1.194,1.459c0.441,0.442,0.929,0.845,1.459,1.19c0.522,0.35,1.079,0.646,1.667,0.888
				c0.576,0.241,1.179,0.434,1.797,0.557c0.615,0.127,1.248,0.185,1.874,0.185s1.26-0.058,1.874-0.185
				c0.614-0.123,1.221-0.315,1.797-0.557c0.587-0.242,1.148-0.538,1.667-0.888c0.526-0.346,1.018-0.748,1.459-1.19
				c0.442-0.441,0.845-0.933,1.19-1.459c0.346-0.522,0.649-1.075,0.887-1.667c0.242-0.575,0.434-1.183,0.549-1.797
				c0.123-0.614,0.192-1.252,0.192-1.874C121.384,260.182,121.315,259.547,121.192,258.932z"/>
		</g>
	</g>
	<g>
		<g>
			<g>
				<path fill="#307167" d="M449.063,240.371l-12.949-12.949l10.791-10.789c1.57-1.57,2.162-3.865,1.552-6
					c-0.611-2.131-2.331-3.765-4.493-4.265l-56.112-12.949c-2.055-0.471-4.201,0.142-5.69,1.632
					c-1.486,1.488-2.104,3.637-1.633,5.688l12.949,56.114c0.503,2.162,2.131,3.882,4.267,4.493c2.135,0.614,4.428,0.019,5.998-1.55
					l10.791-10.792l12.948,12.949c1.194,1.194,2.754,1.79,4.316,1.79c1.563,0,3.126-0.596,4.316-1.79l12.949-12.949
					C451.447,246.621,451.447,242.757,449.063,240.371z M431.797,249.003l-12.948-12.947c-1.19-1.192-2.754-1.788-4.316-1.788
					c-1.56,0-3.122,0.595-4.316,1.788l-7.319,7.319l-8.275-35.865l35.862,8.277l-7.318,7.319c-2.381,2.383-2.381,6.248,0,8.631
					l12.948,12.951L431.797,249.003z"/>
			</g>
		</g>
		<g>
			<g>
				<path fill="#307167" d="M373.961,178.218l-6.102-6.104c-2.385-2.385-6.252-2.385-8.637,0c-2.381,2.383-2.381,6.248,0,8.633
					l6.105,6.104c1.19,1.192,2.754,1.788,4.316,1.788c1.563,0,3.126-0.596,4.316-1.788
					C376.346,184.468,376.346,180.603,373.961,178.218z"/>
			</g>
		</g>
		<g>
			<g>
				<path fill="#307167" d="M362.061,194.744h-8.633c-3.371,0-6.105,2.734-6.105,6.104c0,3.372,2.734,6.104,6.105,6.104h8.633
					c3.371,0,6.102-2.732,6.102-6.104C368.162,197.479,365.432,194.744,362.061,194.744z"/>
			</g>
		</g>
		<g>
			<g>
				<path fill="#307167" d="M373.961,214.843c-2.385-2.383-6.248-2.383-8.633,0l-6.105,6.104c-2.381,2.385-2.381,6.25,0,8.633
					c1.194,1.192,2.757,1.79,4.316,1.79c1.563,0,3.126-0.597,4.32-1.79l6.102-6.104
					C376.346,221.093,376.346,217.228,373.961,214.843z"/>
			</g>
		</g>
		<g>
			<g>
				<path fill="#307167" d="M416.69,172.114c-2.381-2.385-6.248-2.385-8.633,0l-6.102,6.104c-2.385,2.385-2.385,6.25,0,8.632
					c1.19,1.192,2.753,1.788,4.315,1.788c1.563,0,3.122-0.596,4.316-1.788l6.103-6.104
					C419.075,178.366,419.075,174.499,416.69,172.114z"/>
			</g>
		</g>
		<g>
			<g>
				<path fill="#307167" d="M387.958,160.214c-3.371,0-6.102,2.732-6.102,6.104v8.633c0,3.37,2.73,6.104,6.102,6.104
					c3.372,0,6.106-2.734,6.106-6.104v-8.633C394.064,162.946,391.33,160.214,387.958,160.214z"/>
			</g>
		</g>
	</g>
	<path fill="#BDC5D1" d="M315.311,164.787l-6.32,1.678c1.682,6.315,2.53,12.818,2.53,19.339c0,41.427-33.697,75.123-75.125,75.123
		c-41.423,0-75.121-33.695-75.121-75.123c0-41.425,33.697-75.121,75.121-75.121c6.521,0,13.026,0.849,19.339,2.525l1.682-6.317
		c-6.858-1.818-13.932-2.74-21.021-2.74c-45.021,0-81.652,36.629-81.652,81.652c0,45.026,36.631,81.655,81.652,81.655
		c45.026,0,81.657-36.629,81.657-81.655C318.053,178.717,317.131,171.648,315.311,164.787z"/>
	<path fill="#BDC5D1" d="M167.808,185.804c0,37.82,30.771,68.591,68.588,68.591c37.822,0,68.592-30.771,68.592-68.591
		c0-7.135-1.121-14.224-3.329-21.071l-6.217,2.005c1.662,5.149,2.6,10.451,2.884,15.8h-6.401v6.532h6.366
		c-0.771,14.646-6.616,27.937-15.833,38.175l-4.492-4.491l-4.616,4.62l4.489,4.491c-10.238,9.224-23.528,15.063-38.175,15.831
		v-6.367h-6.532v6.367c-14.646-0.768-27.937-6.611-38.174-15.831l4.489-4.491l-4.616-4.62l-4.493,4.491
		c-9.22-10.238-15.061-23.528-15.829-38.175h6.363v-6.532h-6.363c0.768-14.644,6.609-27.935,15.829-38.174l4.493,4.491l4.616-4.618
		l-4.489-4.491c10.238-9.224,23.528-15.063,38.174-15.831v6.365h6.532v-6.403c5.349,0.282,10.652,1.225,15.802,2.886l2.004-6.219
		c-6.847-2.208-13.936-3.328-21.075-3.328C198.579,117.216,167.808,147.987,167.808,185.804z"/>
	<path fill="#307167" d="M233.132,136.814v39.793c-3.79,1.352-6.532,4.946-6.532,9.197c0,5.403,4.397,9.8,9.796,9.8
		c1.509,0,2.922-0.369,4.201-0.983l22.887,22.889l4.62-4.62l-22.892-22.889c0.615-1.275,0.983-2.688,0.983-4.197
		c0-4.251-2.738-7.845-6.532-9.197v-39.793H233.132z M233.132,185.804c0-1.803,1.463-3.266,3.264-3.266
		c1.805,0,3.268,1.463,3.268,3.266c0,1.803-1.463,3.266-3.268,3.266C234.595,189.07,233.132,187.607,233.132,185.804z"/>
	<path fill="#307167" d="M344.181,185.804c0-5.401-4.396-9.798-9.796-9.798c-5.403,0-9.8,4.397-9.8,9.798
		c0,4.088,2.515,7.592,6.079,9.059c-2.047,21.503-11.429,41.744-26.624,57.245l4.666,4.574c16.328-16.651,26.37-38.42,28.493-61.542
		C341.224,193.92,344.181,190.225,344.181,185.804z M334.385,189.07c-1.805,0-3.268-1.463-3.268-3.266
		c0-1.803,1.463-3.266,3.268-3.266c1.801,0,3.264,1.463,3.264,3.266C337.648,187.607,336.186,189.07,334.385,189.07z"/>
	<path fill="#307167" d="M172.001,116.344c15.211-14.113,34.788-22.792,55.355-24.755c1.482,3.537,4.977,6.029,9.04,6.029
		c5.403,0,9.8-4.395,9.8-9.796c0-5.403-4.397-9.8-9.8-9.8c-4.412,0-8.114,2.957-9.332,6.981
		c-22.115,2.037-43.159,11.394-59.506,26.553L172.001,116.344z M236.396,84.554c1.805,0,3.268,1.465,3.268,3.268
		c0,1.801-1.463,3.264-3.268,3.264c-1.801,0-3.264-1.463-3.264-3.264C233.132,86.019,234.595,84.554,236.396,84.554z"/>
	<path fill="#307167" d="M304.988,169.474c-28.813,0-52.26-23.446-52.26-52.258s23.448-52.258,52.26-52.258
		s52.257,23.446,52.257,52.258S333.801,169.474,304.988,169.474z"/>
	<path fill="#FFFFFF" d="M301.721,140.078h-29.396v-7.759l20.845-23.82c1.302-1.49,2.02-3.397,2.02-5.376v-0.603
		c0-4.506-3.659-8.166-8.164-8.166s-8.168,3.66-8.168,8.166v4.898h-6.532v-4.898c0-8.104,6.598-14.698,14.7-14.698
		s14.696,6.593,14.696,14.698v0.603c0,3.563-1.294,7.002-3.637,9.681l-18.148,20.742h21.785V140.078z"/>
	<path fill="#FFFFFF" d="M334.385,140.078h-6.536v-9.798h-19.596v-7.302l17.58-35.156h8.552v35.926h6.532v6.532h-6.532V140.078z
		 M315.173,123.748h12.676V98.39L315.173,123.748z"/>
</g>
</svg>
