<?xml version="1.0" encoding="utf-8"?>
<!-- Generator: Adobe Illustrator 23.0.1, SVG Export Plug-In . SVG Version: 6.00 Build 0)  -->
<svg version="1.1" xmlns="http://www.w3.org/2000/svg" xmlns:xlink="http://www.w3.org/1999/xlink" x="0px" y="0px"
	 viewBox="0 0 1084.2 758.6" style="enable-background:new 0 0 1084.2 758.6;" xml:space="preserve">
<style type="text/css">
	.st0{fill:#3ACC6C;}
	.st1{opacity:0.1;fill:#307167;enable-background:new    ;}
	.st2{fill:#AAABB0;}
	.st3{fill:#33323D;}
	.st4{fill:#444053;}
	.st5{fill:#4C4981;}
	.st6{fill:#FFB9B9;}
	.st7{fill:#504F60;}
	.st8{opacity:0.1;enable-background:new    ;}
	.st9{fill:#AE6E79;}
	.st10{fill:#767D9F;}
	.st11{fill:#FFFFFF;}
	.st12{fill:#307167;}
	.st13{fill:#B96B6B;}
	.st14{opacity:0.1;}
	.st15{fill:#464A5F;}
	.st16{fill:#9C9CA1;}
	.st17{fill:#939498;}
	.st18{fill:none;stroke:#3AD29F;stroke-width:2;stroke-miterlimit:10;stroke-dasharray:12;}
	.st19{fill:url(#SVGID_1_);}
	.st20{fill:#E0E0E0;}
	.st21{fill:url(#SVGID_2_);}
	.st22{fill:url(#SVGID_3_);}
</style>
<g id="Layer_3">
	<path class="st0" d="M1054.8,593.3l-17-16.1c-3.5-3.4-9.2-3.4-12.8-0.1c0,0,0,0-0.1,0.1L918,676.9L872.9,634
		c-3.5-3.3-9.2-3.4-12.7-0.1l-17.2,16c-3.5,3.3-3.6,8.7-0.1,12.1l68.6,65.1c3.5,3.3,9.3,3.4,12.8,0.1l130.4-121.9
		C1058.2,602.1,1058.3,596.7,1054.8,593.3C1054.8,593.4,1054.8,593.3,1054.8,593.3z"/>
</g>
<g id="Layer_1">
	<title>interview</title>
	<path class="st1" d="M488.9,140.6c-28.4-10.8-58.5-19.8-89.2-18.7c-45.1,1.7-88.4,27-109.6,64.3c-18,31.6-20.2,68.6-28,103.6
		c-9.5,43.2-27.8,84.2-47.4,124.3c-10.5,21.6-21.6,43.6-23.3,67.2c-2.4,32.8,14.4,65.5,40.6,87.3c26.3,21.8,61.2,33.3,96.2,35.8
		c18.6,1.3,38.1,0.1,54.7-8c17.5-8.6,30.3-24.1,47.9-32.6c16.3-7.8,35.4-8.9,53.7-7.9c23.9,1.3,47.5,6,70.1,13.9
		c25.6,9,49.4,22,74.8,31.1s54,14.2,80.1,6.6c24.5-7.1,43.9-24.5,61.3-42c28.5-28.7,54.7-59.6,78.2-92.5
		c15.8-22.1,30.4-45.4,37.4-71.1c13.3-49.2-5-104.7-45.6-138.3c-33.7-27.8-78.9-39.9-123.1-47.2c-40.3-6.7-87-7.1-124.1-24.5
		C558.2,175.3,526,154.8,488.9,140.6z"/>
	<polygon class="st2" points="594.2,513.8 594.2,535.4 600.3,535.4 599.1,512.2 	"/>
	<polygon class="st2" points="502.1,509.5 502.1,531 508.2,531 507.1,507.9 	"/>
	<path class="st2" d="M605.2,473.9L605.2,473.9c2.2,0,4,1.8,4,4v30.5c0,2.2-1.8,4-4,4h0c-2.2,0-4-1.8-4-4v-30.5
		C601.3,475.6,603.1,473.9,605.2,473.9z"/>
	<path class="st2" d="M503.8,465.4L503.8,465.4c2.2,0,4,1.8,4,4v39c0,2.2-1.8,4-4,4l0,0c-2.2,0-4-1.8-4-4v-39
		C499.8,467.1,501.6,465.4,503.8,465.4z"/>
	<path class="st2" d="M619.3,244.3c0,0,7.9-3.4,9.1,0c1.2,3.4,1.8,32.4,1.8,32.4h-7.5L619.3,244.3z"/>
	<path class="st2" d="M532.7,244.3c0,0-7.9-3.4-9.1,0c-1.2,3.4-1.8,32.4-1.8,32.4h7.5L532.7,244.3z"/>
	<polygon class="st2" points="533.9,215.4 532.7,239.5 538,239.5 538,214.8 	"/>
	<path class="st3" d="M529.3,276.7l1.6-34.8c0,0-0.6-7.7,18.2-5.3s73.8,7.1,73.8,7.1v33H529.3z"/>
	<path class="st3" d="M604.5,460l-3,53.2c0,0-43.5,24.1-96.3,1.2l4.7-56L604.5,460z"/>
	<polygon class="st4" points="563.1,250.6 564.1,285 625.4,285 621.9,239.5 	"/>
	<rect x="511.6" y="437.3" class="st5" width="57.8" height="73.2"/>
	<path class="st6" d="M548.1,467.1c0,0,8.3-6.5,9.7-4.6c1.4,2-4.9,10.5-7.5,9.5C547.7,471.1,548.1,467.1,548.1,467.1z"/>
	<rect x="399.5" y="274.7" class="st7" width="379.1" height="189.9"/>
	<path class="st3" d="M529.5,214c0,0-3-27.7,0-31s52.8-35.2,98.9,2.2c0,0,4.3,0.2,3.6,10.1c-0.5,6.3-0.4,12.5,0.1,18.8
		C632,214,532.9,221.1,529.5,214z"/>
	<path class="st8" d="M529.5,214c0,0-3-27.7,0-31s52.8-35.2,98.9,2.2c0,0,4.3,0.2,3.6,10.1c-0.5,6.3-0.4,12.5,0.1,18.8
		C632,214,532.9,221.1,529.5,214z"/>
	<path class="st3" d="M529.5,217.6c0,0-3-27.7,0-31s52.8-35.2,98.9,2.2c0,0,4.3,0.2,3.6,10.1c-0.5,6.3-0.4,12.5,0.1,18.8
		C632,217.6,532.9,224.7,529.5,217.6z"/>
	<path class="st5" d="M633.7,204.9c0,0,3.2,11.9,2.2,13.8c-1,2-0.8,7.5-0.8,7.5s0.2,3.6-1.4,4c-1.6,0.4-3,0.6-1.7,1.8
		c1.3,1.2,0,3,0,3s-0.7,2.8,0,4.6s-4.1,2.5-3.7,4.7c0.4,2.2,1.7,8.5,0,8.7c-1.7,0.2,0.6,7.9-1,7.9s-2.7,13.8-2.7,13.8
		s-11-9.3-18.3-6.7c0,0,0.6-7.7,3-10.5c2.4-2.8,1.7-9.9,1.7-9.9l11.8-35.4L633.7,204.9z"/>
	<path class="st9" d="M575,368.5c-2.6,2.8-5.3-12.3-5.3-12.3s-7.3,10.1-12.1,3.4c-3.3-4.7-0.7-17.9,1.2-25.5
		c0.8-3.4,1.6-5.7,1.6-5.7l10.7-1.8c0,0,0,2.3,0.3,5.1c0.3,3.8,1,8.5,2.5,9.7C576.4,343.3,577.6,365.7,575,368.5z"/>
	<path class="st8" d="M569.5,190.9c0,0-18.6-0.2-23.1,9.7s-4.7,13.3-6.5,14.8c-1.8,1.6,19.4,9.9,19.4,9.9l1,34c0,0,4.2-4.2,10.9-2.3
		c6.7,1.9,15.2,0,15.2,0s-0.4-0.7,5.1,0s23.1-8.6,23.1-8.6s0.3-14.9-0.1-18c-0.4-3.2,12.6-26.4,12.6-26.4s10.1-9.7-0.4-13.1
		c0,0-3.7-5.6-13.2-5.5S569.5,190.9,569.5,190.9z"/>
	<path class="st5" d="M569.5,190.3c0,0-18.6-0.2-23.1,9.7s-4.7,13.3-6.5,14.8c-1.8,1.6,19.4,9.9,19.4,9.9l1,34c0,0,4.2-4.2,10.9-2.3
		c6.7,1.9,15.2,0,15.2,0s-0.4-0.7,5.1,0s23.1-8.6,23.1-8.6s6.9-11.3,6.5-14.4c-0.4-3.2,13.8-27.1,13.8-27.1s2.2-12.7-8.3-16
		c0,0-3.7-5.6-13.2-5.5C603.8,184.8,569.5,190.3,569.5,190.3z"/>
	<path class="st8" d="M571.3,331.7c-4.1-1.3-10.5,1.5-12.5,2.4c0.8-3.4,1.6-5.7,1.6-5.7l10.7-1.8
		C571.1,326.6,571.1,328.9,571.3,331.7z"/>
	<path class="st5" d="M545.5,214.8h-5.7c0,0-1.2,12.1,0,15.6c1.2,3.6,1.8,3,1.4,5.7c-0.4,2.6,2.8,6.7,2.8,6.7s0.4,9.9,2.4,13.6
		s-2.2,20.3-2.2,20.3c1.1,2.9,2.8,5.5,4.9,7.7c3.4,3.4,5.1,15.8,4.2,20.6s2.8,6.5,2.8,6.5s1.6,22.2,2.2,22.2
		c0.6,0,12.1-5.9,15.6-0.8l-2.8-20.4l0.2-39.4c0,0-3.8-4.9-1.8-9.3s-1.6-14.6-1.6-14.6l-5.1-22.9L545.5,214.8z"/>
	<path class="st3" d="M509.9,527.5c0,0-8.3-1.8-8.5,0c-0.2,1.8-9.9,20,2.2,25.3s44.3,16.8,96.7,2c0,0,3.4,1.2,2.6-6.1
		s-0.8-15.4-0.8-15.4s-7.9-2.2-13.8-1.4C582.3,532.6,530.7,543.1,509.9,527.5z"/>
	<path class="st8" d="M509.9,527.5c0,0-8.3-1.8-8.5,0c-0.2,1.8-9.9,20,2.2,25.3s44.3,16.8,96.7,2c0,0,3.4,1.2,2.6-6.1
		s-0.8-15.4-0.8-15.4s-7.9-2.2-13.8-1.4C582.3,532.6,530.7,543.1,509.9,527.5z"/>
	<path class="st3" d="M509.9,525.1c0,0-8.3-1.8-8.5,0c-0.2,1.8-9.9,20,2.2,25.3s44.3,16.8,96.7,2c0,0,3.4,1.2,2.6-6.1
		s-0.8-15.4-0.8-15.4s-7.9-2.2-13.8-1.4C582.3,530.2,530.7,540.7,509.9,525.1z"/>
	<path class="st4" d="M558.4,221.9c-0.5,2.9-1.7,5.7-1.8,8.6s1,6.3,3.7,7.4c0.8,0.2,1.5,0.5,2.2,0.9c1,0.7,1.5,2,1.7,3.3
		c0.3,1.6,0.4,3.2,0.2,4.9c-0.1,1.6-0.5,3.4,0.3,4.8c1.4,2.5,5.1,2.2,7.9,1.4l-1,7.5c-0.1,0.6-0.1,1.3,0.3,1.7
		c0.4,0.3,0.9,0.4,1.4,0.3c2.4-0.2,5-0.5,7.1-1.8c2.1-1.3,3.7-3.7,3.3-6.1c-0.5-2.8-3.4-5-3-7.8c0.3-2.2,2.4-3.6,3.8-5.2
		c2.5-3.1,2.7-7.7,0.7-11.2c-2-3.5-5.8-5.6-9.8-6c-2.2-0.2-4.5,0-6.5-0.7c-1.5-0.5-2.6-1.7-3-3.2"/>
	<path class="st10" d="M489.4,485.7l2.1-4.5c0,0,11.2-10.4,13.7-11.1c2.6-0.7,13.1-3.9,14.6-3.9c1.6,0,30.5-1.6,30.5-1.6l3.4,7.9
		l-36.2,8l-12.2,8.9L489.4,485.7z"/>
	<path class="st6" d="M576.4,364.3l-1.9,14.6l-0.7,5.6l-8.5,1.2c0,0-0.9-2-2.2-5c-3.9-9.2-11.4-28.1-7.1-31.4
		c5.7-4.4,7.1,10.1,7.1,10.1l6.5-3.2L576.4,364.3z"/>
	<rect x="532.1" y="391.4" class="st11" width="42.9" height="64.9"/>
	<rect x="532.1" y="391.4" class="st8" width="42.9" height="64.9"/>
	
		<rect x="535.9" y="402.4" transform="matrix(0.1463 -0.9892 0.9892 0.1463 65.9079 924.0781)" class="st11" width="64.9" height="42.9"/>
	
		<rect x="547.6" y="401.8" transform="matrix(0.1463 -0.9892 0.9892 0.1463 73.3449 910.7456)" class="st12" width="33.4" height="22.1"/>
	
		<rect x="557.7" y="429.3" transform="matrix(0.1463 -0.9892 0.9892 0.1463 41.2627 933.2501)" class="st12" width="7.3" height="26.8"/>
	<circle class="st8" cx="586.3" cy="202.9" r="24.8"/>
	<circle class="st9" cx="586.3" cy="202.3" r="24.8"/>
	<path class="st4" d="M565.8,220.7c-0.2-0.6-0.1-1.3,0.2-1.9c0.9-2,3.6-2.1,5.8-2c5.1,0.2,10.7,0.3,14.7-3c1.7-1.3,3.5-4.7,5.9-4
		c2.1,0.6,3,3.5,5.3,4.1c1.6,0.5,3.3-0.3,4.9-0.6c2.4-0.5,4.8-0.1,7.2-0.1c2.4,0,5-0.4,6.7-2.2c2.2-2.4,1.9-6.1,1.7-9.3
		c-0.2-4.2,0-8.4,0.8-12.5c0.8-4.1,2-8.7-0.2-12.2c-2.2-3.4-6.6-4.3-9.7-6.8c-2.9-2.4-4.4-6.2-7.4-8.4c-3.8-2.8-9-2.4-13.6-1.9
		l-10.1,1.1c-2.6,0.3-5.3,0.6-7.5,2.2c-3.9,2.8-4.4,8.7-8.1,11.7c-1.6,1.4-3.7,2-5.6,3.1c-1.9,1-3.7,2.6-3.9,4.7
		c-0.2,1.8,0.8,3.4,1.3,5.1c1.1,4.1-0.6,8.3-1.7,12.4c-1.1,4.1-1.3,9.1,1.9,11.9c0.7,0.6,1.4,1,2,1.6c2.2,2,2.5,5.3,2,8.2"/>
	<ellipse class="st4" cx="588.3" cy="231.8" rx="0.6" ry="1.5"/>
	<ellipse class="st4" cx="588.3" cy="238" rx="0.6" ry="1.5"/>
	<path class="st9" d="M575.1,368.5c0.6-0.7,1.1-2.6,1.3-5.1l-7.1-8.8C569.4,354.6,572.4,371.7,575.1,368.5z"/>
	<path class="st8" d="M583.1,514.2c0,0-11.6,17.9-47.9,16c-34.2-1.8-50.8-18.6-50-24.5c0.8-5.9-2.2-20.4,5.1-24.5
		c4.2-2.4,9.8-1,13.8,0.6c2.8,1.1,6,0.6,8.2-1.5c3.6-3.2,10.3-6.9,20.9-4c1.4,0.4,2.8,0.3,4.2-0.1c4.4-1.3,14.9-3.7,22.5,1.5
		c2.5,1.7,5.7,1.8,8.3,0.3l0.1-0.1c3.6-2.2,20.2,18.4,20.2,18.4S589.2,512.2,583.1,514.2z"/>
	<path class="st10" d="M583.1,514.8c0,0-11.6,17.9-47.9,16c-34.2-1.8-50.8-18.6-50-24.5c0.8-5.9-2.2-20.4,5.1-24.5
		c4.2-2.4,9.8-1,13.8,0.6c2.8,1.1,6,0.6,8.2-1.5c3.6-3.2,10.3-6.9,20.9-4c1.4,0.4,2.8,0.3,4.2-0.1c4.4-1.3,14.9-3.7,22.5,1.5
		c2.5,1.7,5.7,1.8,8.3,0.3l0.1-0.1c3.6-2.2,20.2,18.4,20.2,18.4S589.2,512.8,583.1,514.8z"/>
	<circle class="st8" cx="535.2" cy="498.2" r="23.6"/>
	<circle class="st6" cx="535.2" cy="498.8" r="23.6"/>
	<path class="st13" d="M528.5,478.4c-2.5,0.7-4.9,2-6.1,4.1c-0.7,1.3-1,2.8-2,3.9c-1.5,1.5-4,1.5-6,2.4c-2,0.8-3.4,3.8-1.4,4.7
		c-2.1,0.1-3.6,2-3.9,3.9c-0.3,1.9,0.5,3.8,1.2,5.6c2.3,5.8,4.7,11.9,9.7,16.1c8.1,6.8,20.4,6.5,31.3,5.7c0.9,0,1.8-0.2,2.6-0.6
		c1.2-0.8,1.3-2.3,1.5-3.6c0.8-5.6,3.9-10.7,5.9-16.1s2.8-11.7-0.5-16.4C555.7,480.9,536.8,476.1,528.5,478.4z"/>
	<path class="st8" d="M574.5,378.9l-0.7,5.6l-8.5,1.2c0,0-0.9-2-2.2-5l11.3-2.1L574.5,378.9z"/>
	<path class="st10" d="M583.5,502.7l4.9-5.7l-1-31.6c0.5-2.3,0.8-4.6,1-6.9c0.2-3.4-2.5-10.9-2.5-10.9c0.4-1.5,1-3,1.7-4.4
		c1.2-2.4-1.7-7.7-1.7-7.7s-4.3-13.8-2.5-20.8c1.8-6.9-0.4-10.9-0.4-10.9s-1.7-7.7-1.5-10.9s-4-6.1-4-6.1l-3.2-7.7l-12.7,2.4v26.7
		c0,0,0.8,25.5,0,30.5c-0.8,4.9,1.6,9.7,1.6,9.7s-1.4,7.3-0.2,10.1c1.2,2.8,3.6,9.5,3.6,9.5c-0.4,2.4-0.3,4.9,0.4,7.2
		c1.2,3.5,0,5.4,0,5.4L583.5,502.7z"/>
	<g class="st14">
		<path d="M619.1,187.2c-0.7,3.5-1,7-0.9,10.5c0.1-2.9,0.4-5.9,0.9-8.8c0.5-2.6,1.2-5.5,1-8.1C619.9,183,619.6,185.1,619.1,187.2z"
			/>
		<path d="M556.4,211.7c-0.6-0.6-1.4-1-2-1.6c-1.7-1.5-2.5-3.6-2.6-5.9c-0.2,3,0.4,5.8,2.6,7.7c0.7,0.6,1.4,1,2,1.6
			c1.3,1.3,2.1,3.1,2.1,5C558.7,215.9,558.2,213.4,556.4,211.7z"/>
		<path d="M554.5,189.6c0.1-1.3,0-2.5-0.3-3.7c-0.3-1.3-1-2.5-1.2-3.8c0,0.1,0,0.3-0.1,0.4c-0.2,1.8,0.8,3.4,1.3,5.1
			C554.3,188.2,554.5,188.9,554.5,189.6z"/>
		<path d="M616.6,209.1c-1.6,1.8-4.3,2.2-6.7,2.2c-2.4,0-4.8-0.4-7.2,0.1c-1.6,0.3-3.3,1.1-4.9,0.6c-2.2-0.6-3.1-3.6-5.3-4.1
			c-2.4-0.6-4.3,2.7-5.9,4c-4,3.2-9.6,3.2-14.7,3c-2.2-0.1-4.9,0.1-5.8,2c-0.3,0.6-0.3,1.3-0.2,1.9l-7.3,1.1c0,0.6-0.1,1.2-0.2,1.8
			l7.4-1.2c-0.2-0.6-0.1-1.3,0.2-1.9c0.9-2,3.6-2.1,5.8-2c5.1,0.2,10.7,0.3,14.7-3c1.7-1.3,3.5-4.7,5.9-4c2.1,0.6,3,3.5,5.3,4.1
			c1.6,0.5,3.3-0.3,4.9-0.6c2.4-0.5,4.8-0.1,7.2-0.1c2.4,0,5-0.4,6.7-2.2c1.6-1.8,1.9-4.4,1.8-7
			C618.3,205.9,617.9,207.7,616.6,209.1z"/>
	</g>
	<g class="st14">
		<path d="M561.7,237.6c-0.7-0.4-1.4-0.7-2.2-0.9c-1.3-0.6-2.3-1.6-2.9-2.9c0.4,2,1.6,3.9,3.5,4.7c0.8,0.2,1.5,0.5,2.2,0.9
			c0.4,0.3,0.8,0.7,1.1,1.2C563.1,239.4,562.6,238.2,561.7,237.6z"/>
		<path d="M571.8,252c-2.7,0.7-6.3,1.1-7.8-1.3c0,0.6,0.2,1.1,0.5,1.6c1.3,2.3,4.4,2.2,7.1,1.6L571.8,252z"/>
		<path d="M582.9,253.6c0.4,2.4-1.2,4.8-3.3,6.1c-2.1,1.3-4.6,1.6-7.1,1.8c-0.4,0.1-0.8,0-1.2-0.1c-0.3,0.7,0,1.5,0.7,1.9
			c0.3,0.1,0.7,0.2,1,0c2.4-0.2,5-0.5,7.1-1.8c2.1-1.3,3.7-3.7,3.3-6.1C583.4,254.8,583.2,254.2,582.9,253.6z"/>
		<path d="M585.5,232.2c0.7,2.9,0.1,6-1.8,8.4c-1.4,1.7-3.5,3.1-3.8,5.2c-0.1,1,0.1,2,0.6,2.9c-0.1-0.4-0.1-0.7,0-1.1
			c0.3-2.2,2.4-3.6,3.8-5.2C586.6,239.6,587,235.5,585.5,232.2z"/>
	</g>
	<g class="st14">
		<path d="M514.3,489.5c2-0.8,4.5-0.9,6-2.4c1.1-1.1,1.3-2.6,2-3.8c1.2-2.1,3.6-3.4,6.1-4.1c8.3-2.3,27.2,2.6,32.2,9.5
			c1.4,2.1,2.2,4.6,2.3,7.2c0.2-3-0.6-5.9-2.3-8.3c-4.9-7-23.9-11.8-32.2-9.5c-2.5,0.7-4.9,1.9-6.1,4.1c-0.7,1.3-1,2.8-2,3.8
			c-1.5,1.5-4,1.5-6,2.4c-1.5,0.6-2.7,2.5-2.3,3.8C512.3,491,513.2,490,514.3,489.5z"/>
		<path d="M509,498.2c0.2-1.9,1.8-3.8,3.9-3.9c-0.4-0.2-0.8-0.6-0.9-1c-1.6,0.6-2.7,2-3,3.7c-0.1,0.5-0.1,1,0,1.5
			C509,498.3,509,498.3,509,498.2z"/>
	</g>
	<rect x="580.7" y="283.2" class="st11" width="54" height="70.4"/>
	<rect x="580.7" y="283.2" class="st8" width="54" height="70.4"/>
	
		<rect x="607.7" y="291.4" transform="matrix(0.9855 -0.1695 0.1695 0.9855 -46.1733 112.3225)" class="st11" width="54" height="70.4"/>
	
		<rect x="616.3" y="342.6" transform="matrix(0.9855 -0.1695 0.1695 0.9855 -50.4598 110.6353)" class="st12" width="12.7" height="16.5"/>
	
		<rect x="633.6" y="339.6" transform="matrix(0.9855 -0.1695 0.1695 0.9855 -49.7045 113.5247)" class="st12" width="12.7" height="16.5"/>
	
		<rect x="614.3" y="318.4" transform="matrix(0.9856 -0.1692 0.1692 0.9856 -46.1065 112.4402)" class="st12" width="44.5" height="16.6"/>
	
		<rect x="609.5" y="298.9" transform="matrix(0.9856 -0.1692 0.1692 0.9856 -41.7907 111.2632)" class="st12" width="44.5" height="3.7"/>
	
		<rect x="611" y="305.6" transform="matrix(0.9856 -0.1692 0.1692 0.9856 -42.9073 111.6035)" class="st12" width="44.5" height="3.7"/>
	<path class="st9" d="M611.1,264c0,0-24.8,24.9-12.4,31.2c12.5,6.3,20.6-21.1,20.6-21.1l2-6.2L611.1,264z"/>
	<path class="st8" d="M608.9,261.8l-3.1,6.8c0,0,15.1,2.1,18.3,6.7l-1.9-12l-2.2-5.1L608.9,261.8z"/>
	<path class="st5" d="M609.5,261.2l-3.1,6.8c0,0,15.1,2.1,18.3,6.7l-1.9-12l-2.2-5.1L609.5,261.2z"/>
	<polygon class="st15" points="701.1,385.8 700.8,386 701.2,386.2 701.7,386.2 701.8,385.9 	"/>
	<polygon class="st8" points="701.1,385.8 700.8,386 701.2,386.2 701.7,386.2 701.8,385.9 	"/>
	<polygon class="st16" points="701.1,385.8 700.8,386 700.5,385.7 700.7,385.4 700.8,385.4 	"/>
	<polygon class="st8" points="701.1,385.8 700.8,386 700.5,385.7 700.7,385.4 700.8,385.4 	"/>
	<path class="st16" d="M759.5,344.8l-24.3-35.1c-0.9-1.3-2.7-1.6-4-0.7c0,0,0,0,0,0L677,346.2c-1.3,0.9-1.7,2.7-0.8,4l24.2,35.5
		L759.5,344.8z"/>
	<path class="st8" d="M759.5,344.8l-24.3-35.1c-0.9-1.3-2.7-1.6-4-0.7c0,0,0,0,0,0L677,346.2c-1.3,0.9-1.7,2.7-0.8,4l24.2,35.5
		L759.5,344.8z"/>
	<path class="st16" d="M760.1,344.9l-24.3-35.1c-0.9-1.3-2.7-1.6-4-0.7c0,0,0,0,0,0l-54.1,37.2c-1.3,0.9-1.7,2.7-0.8,4l24.2,35.5
		L760.1,344.9z"/>
	<path class="st15" d="M780.4,351.8l-20.2-6.5l-59,40.9l20.5,6.7c0.9,0.3,1.9,0.1,2.7-0.4l56.1-39.6c0.3-0.2,0.4-0.5,0.2-0.8
		C780.7,352,780.5,351.9,780.4,351.8z"/>
	<path class="st8" d="M780.4,351.8l-20.2-6.5l-59,40.9l20.5,6.7c0.9,0.3,1.9,0.1,2.7-0.4l56.1-39.6c0.3-0.2,0.4-0.5,0.2-0.8
		C780.7,352,780.5,351.9,780.4,351.8z"/>
	<path class="st15" d="M780.3,351.4l-20.2-6.5l-59,40.9l20.5,6.7c0.9,0.3,1.9,0.2,2.7-0.4l56.1-39.6c0.3-0.2,0.4-0.5,0.2-0.8
		C780.5,351.6,780.4,351.5,780.3,351.4z"/>
	<g class="st14">
		<path d="M750.5,343.3l-1.5-2.1c-0.2-0.3-0.5-0.3-0.8-0.1l-2.2,1.5c-0.3,0.2-0.3,0.5-0.2,0.8l1.4,2.1c0.2,0.3,0.5,0.3,0.8,0.2
			l2.3-1.5C750.6,344,750.7,343.6,750.5,343.3z"/>
		<path d="M746.6,346.1l-1.5-2.1c-0.2-0.3-0.5-0.3-0.8-0.1l-2.2,1.5c-0.3,0.2-0.3,0.5-0.2,0.8l1.4,2.1c0.2,0.3,0.5,0.3,0.8,0.2
			l2.3-1.5C746.7,346.7,746.8,346.4,746.6,346.1C746.6,346.1,746.6,346.1,746.6,346.1z"/>
		<path d="M742.4,349l-1.5-2.1c-0.2-0.3-0.5-0.3-0.8-0.1l-2.2,1.5c-0.3,0.2-0.3,0.5-0.2,0.8l1.4,2.1c0.2,0.3,0.5,0.3,0.8,0.2
			l2.3-1.5C742.5,349.6,742.6,349.3,742.4,349C742.4,349,742.4,349,742.4,349z"/>
		<path d="M738.2,351.9l-1.5-2.1c-0.2-0.3-0.5-0.3-0.8-0.1l-2.2,1.5c-0.3,0.2-0.3,0.5-0.2,0.8l1.4,2.1c0.2,0.3,0.5,0.3,0.8,0.2
			l2.3-1.5C738.3,352.5,738.3,352.2,738.2,351.9C738.2,351.9,738.2,351.9,738.2,351.9z"/>
		<path d="M733.9,354.8l-1.5-2.1c-0.2-0.3-0.5-0.3-0.8-0.1l-2.2,1.5c-0.3,0.2-0.3,0.5-0.2,0.8l1.4,2.1c0.2,0.3,0.5,0.3,0.8,0.2
			l2.3-1.5C734,355.5,734.1,355.1,733.9,354.8C733.9,354.8,733.9,354.8,733.9,354.8z"/>
		<path d="M729.9,358l-1.9-2.6c-0.1-0.1-0.2-0.2-0.4-0.1c0,0,0,0,0,0l-2.7,1.8c-0.1,0.1-0.2,0.2-0.1,0.4c0,0,0,0,0,0l1.7,2.6
			c0.1,0.1,0.2,0.2,0.4,0.1l2.9-1.8C730,358.4,730,358.2,729.9,358C729.9,358,729.9,358,729.9,358z"/>
		<path d="M725.7,360.9l-1.9-2.6c-0.1-0.1-0.3-0.2-0.4-0.1c0,0,0,0,0,0l-2.7,1.8c-0.1,0.1-0.2,0.3-0.1,0.4l1.7,2.6
			c0.1,0.1,0.2,0.2,0.4,0.1c0,0,0,0,0,0l2.9-1.8C725.7,361.3,725.8,361.1,725.7,360.9C725.7,361,725.7,361,725.7,360.9z"/>
		<path d="M721.9,363.5l-1.9-2.6c-0.1-0.1-0.3-0.1-0.4-0.1l-2.7,1.8c-0.1,0.1-0.2,0.3-0.1,0.4l1.7,2.6c0.1,0.1,0.2,0.2,0.4,0.1
			l2.9-1.8C722,363.9,722.1,363.7,721.9,363.5C722,363.6,722,363.6,721.9,363.5z"/>
		<path d="M717.7,366.4l-1.9-2.6c-0.1-0.1-0.3-0.1-0.4-0.1l-2.7,1.8c-0.1,0.1-0.2,0.3-0.1,0.4c0,0,0,0,0,0l1.7,2.6
			c0.1,0.1,0.2,0.2,0.4,0.1l2.9-1.8C717.8,366.8,717.8,366.6,717.7,366.4C717.8,366.5,717.8,366.4,717.7,366.4z"/>
		<path d="M713.7,369.2l-1.9-2.6c-0.1-0.1-0.2-0.2-0.4-0.1c0,0,0,0,0,0l-2.7,1.8c-0.1,0.1-0.2,0.2-0.1,0.4c0,0,0,0,0,0l1.7,2.6
			c0.1,0.1,0.2,0.2,0.4,0.1l2.9-1.8C713.7,369.6,713.8,369.4,713.7,369.2C713.7,369.2,713.7,369.2,713.7,369.2z"/>
		<path d="M709.6,372.1l-1.8-2.7c-0.1-0.1-0.3-0.1-0.4-0.1l-2.7,1.8c-0.1,0.1-0.2,0.3-0.1,0.4c0,0,0,0,0,0l1.7,2.6
			c0.1,0.1,0.2,0.2,0.4,0.1l2.9-1.8C709.7,372.4,709.7,372.2,709.6,372.1C709.6,372.1,709.6,372.1,709.6,372.1z"/>
		<path d="M705.6,374.9l-1.9-2.6c-0.1-0.1-0.2-0.2-0.4-0.1c0,0,0,0,0,0l-2.7,1.8c-0.1,0.1-0.2,0.2-0.1,0.4c0,0,0,0,0,0l1.7,2.6
			c0.1,0.1,0.2,0.2,0.4,0.1l2.9-1.8C705.6,375.2,705.7,375,705.6,374.9C705.6,374.9,705.6,374.9,705.6,374.9z"/>
		<path d="M747.9,339.5l-1.5-2.1c-0.2-0.3-0.5-0.3-0.8-0.1l-2.2,1.5c-0.3,0.2-0.3,0.5-0.2,0.8l1.4,2.1c0.2,0.3,0.5,0.3,0.8,0.2
			l2.3-1.5C748,340.1,748.1,339.7,747.9,339.5z"/>
		<path d="M742,331l-1.5-2.1c-0.2-0.3-0.5-0.3-0.8-0.1l-2.2,1.5c-0.3,0.2-0.3,0.5-0.2,0.8l1.4,2.1c0.2,0.3,0.5,0.3,0.8,0.2l2.3-1.5
			C742.1,331.7,742.2,331.3,742,331z"/>
		<path d="M743.9,342.2l-1.5-2.1c-0.2-0.3-0.5-0.3-0.8-0.1l-2.2,1.5c-0.3,0.2-0.3,0.5-0.2,0.8l1.4,2.1c0.2,0.3,0.5,0.3,0.8,0.2
			l2.3-1.5C744,342.9,744.1,342.5,743.9,342.2C743.9,342.2,743.9,342.2,743.9,342.2z"/>
		<path d="M739.7,345.1l-1.5-2.1c-0.2-0.3-0.5-0.3-0.8-0.1l-2.2,1.5c-0.3,0.2-0.3,0.5-0.2,0.8l1.4,2.1c0.2,0.3,0.5,0.3,0.8,0.2
			l2.3-1.5C739.8,345.7,739.9,345.4,739.7,345.1z"/>
		<path d="M735.5,348l-1.5-2.1c-0.2-0.3-0.5-0.3-0.8-0.1l-2.2,1.5c-0.3,0.2-0.3,0.5-0.2,0.8l1.4,2.1c0.2,0.3,0.5,0.3,0.8,0.2
			l2.3-1.5C735.6,348.7,735.7,348.3,735.5,348C735.5,348.1,735.5,348,735.5,348z"/>
		<path d="M738.1,333.9l-1.5-2.1c-0.2-0.3-0.5-0.3-0.8-0.1l-2.2,1.5c-0.3,0.2-0.3,0.5-0.2,0.8l1.4,2.1c0.2,0.3,0.5,0.3,0.8,0.2
			l2.3-1.5C738.3,334.6,738.3,334.2,738.1,333.9C738.2,333.9,738.1,333.9,738.1,333.9z"/>
		<path d="M734,336.8l-1.5-2.1c-0.2-0.3-0.5-0.3-0.8-0.1l-2.2,1.5c-0.3,0.2-0.3,0.5-0.2,0.8l1.4,2.1c0.2,0.3,0.5,0.3,0.8,0.2
			l2.3-1.5C734.1,337.4,734.1,337.1,734,336.8z"/>
		<path d="M729.7,339.7l-1.5-2.1c-0.2-0.3-0.5-0.3-0.8-0.2l-2.2,1.5c-0.3,0.2-0.3,0.5-0.2,0.8l1.4,2.1c0.2,0.3,0.5,0.3,0.8,0.2
			l2.3-1.5C729.9,340.4,729.9,340,729.7,339.7C729.8,339.7,729.7,339.7,729.7,339.7z"/>
		<path d="M731.3,351l-1.5-2.1c-0.2-0.3-0.5-0.3-0.8-0.2l-2.2,1.5c-0.3,0.2-0.3,0.5-0.2,0.8l1.3,2.1c0.2,0.3,0.5,0.3,0.8,0.2
			l2.3-1.5C731.4,351.6,731.4,351.2,731.3,351C731.3,351,731.3,351,731.3,351z"/>
		<path d="M727,353.9l-1.5-2.1c-0.2-0.3-0.5-0.3-0.8-0.1l-2.2,1.5c-0.3,0.2-0.3,0.5-0.2,0.8l1.4,2.1c0.2,0.3,0.5,0.3,0.8,0.2
			l2.3-1.5C727.1,354.5,727.2,354.2,727,353.9C727,353.9,727,353.9,727,353.9z"/>
		<path d="M723,357.1l-1.9-2.6c-0.1-0.1-0.2-0.2-0.4-0.1c0,0,0,0,0,0l-2.7,1.8c-0.1,0.1-0.2,0.2-0.1,0.4c0,0,0,0,0,0l1.7,2.6
			c0.1,0.1,0.2,0.2,0.4,0.1c0,0,0,0,0,0l2.9-1.8C723.1,357.4,723.1,357.3,723,357.1C723,357.1,723,357.1,723,357.1z"/>
		<path d="M719.3,359.7l-1.9-2.7c-0.1-0.1-0.3-0.1-0.4-0.1l-2.7,1.8c-0.1,0.1-0.2,0.3-0.1,0.4l1.7,2.6c0.1,0.1,0.2,0.2,0.4,0.1
			l2.9-1.8C719.3,360,719.4,359.9,719.3,359.7C719.3,359.7,719.3,359.7,719.3,359.7z"/>
		<path d="M715.1,362.6l-1.9-2.6c-0.1-0.1-0.3-0.1-0.4-0.1l-2.7,1.8c-0.1,0.1-0.2,0.2-0.1,0.4c0,0,0,0,0,0l1.7,2.6
			c0.1,0.1,0.2,0.2,0.4,0.1l2.9-1.8C715.1,362.9,715.2,362.7,715.1,362.6C715.1,362.6,715.1,362.6,715.1,362.6z"/>
		<path d="M711,365.4l-1.9-2.6c-0.1-0.1-0.2-0.2-0.4-0.1c0,0,0,0,0,0l-2.7,1.8c-0.1,0.1-0.2,0.2-0.1,0.4c0,0,0,0,0,0l1.7,2.6
			c0.1,0.1,0.2,0.2,0.4,0.1l2.9-1.8C711.1,365.7,711.1,365.5,711,365.4C711,365.4,711,365.4,711,365.4z"/>
		<path d="M736.9,341.1l-1.5-2.1c-0.2-0.3-0.5-0.3-0.8-0.1l-2.2,1.5c-0.3,0.2-0.3,0.5-0.2,0.8l1.4,2.1c0.2,0.3,0.5,0.3,0.8,0.2
			l2.3-1.5C737,341.7,737.1,341.4,736.9,341.1C736.9,341.1,736.9,341.1,736.9,341.1z"/>
		<path d="M732.7,344l-1.5-2.1c-0.2-0.3-0.5-0.3-0.8-0.1l-2.2,1.5c-0.3,0.2-0.3,0.5-0.2,0.8l1.4,2.1c0.2,0.3,0.5,0.3,0.8,0.2
			l2.3-1.5C732.8,344.7,732.9,344.3,732.7,344C732.7,344,732.7,344,732.7,344z"/>
		<path d="M728.5,346.9l-1.5-2.1c-0.2-0.3-0.5-0.3-0.8-0.1l-2.2,1.5c-0.3,0.2-0.3,0.5-0.2,0.8l1.4,2.1c0.2,0.3,0.5,0.3,0.8,0.2
			l2.3-1.5C728.6,347.6,728.7,347.2,728.5,346.9C728.5,347,728.5,347,728.5,346.9z"/>
		<path d="M724.3,349.9l-1.5-2.1c-0.2-0.3-0.5-0.3-0.8-0.1l-2.2,1.5c-0.3,0.2-0.3,0.5-0.2,0.8l1.4,2.1c0.2,0.3,0.5,0.3,0.8,0.2
			l2.3-1.5C724.4,350.6,724.5,350.2,724.3,349.9C724.3,349.9,724.3,349.9,724.3,349.9z"/>
		<path d="M720.2,353.1l-1.9-2.6c-0.1-0.1-0.2-0.2-0.4-0.1c0,0,0,0,0,0l-2.7,1.8c-0.1,0.1-0.2,0.2-0.1,0.4l1.7,2.6
			c0.1,0.1,0.2,0.2,0.4,0.1c0,0,0,0,0,0l2.9-1.8C720.3,353.4,720.3,353.2,720.2,353.1C720.3,353.1,720.3,353.1,720.2,353.1z"/>
		<path d="M716.5,355.7l-1.9-2.7c-0.1-0.1-0.3-0.1-0.4-0.1l-2.7,1.8c-0.1,0.1-0.2,0.3-0.1,0.4l1.7,2.6c0.1,0.1,0.2,0.2,0.4,0.1
			l2.9-1.8C716.5,356,716.6,355.8,716.5,355.7C716.5,355.7,716.5,355.7,716.5,355.7z"/>
		<path d="M712.3,358.5l-1.9-2.7c-0.1-0.1-0.3-0.1-0.4-0.1l-2.7,1.8c-0.1,0.1-0.2,0.3-0.1,0.4l1.7,2.6c0.1,0.1,0.2,0.2,0.4,0.1
			l2.9-1.8C712.3,358.9,712.4,358.7,712.3,358.5C712.3,358.6,712.3,358.6,712.3,358.5z"/>
		<path d="M708.2,361.4l-1.9-2.6c-0.1-0.1-0.3-0.2-0.4-0.1c0,0,0,0,0,0l-2.7,1.8c-0.1,0.1-0.2,0.3-0.1,0.4l1.7,2.6
			c0.1,0.1,0.2,0.2,0.4,0.1c0,0,0,0,0,0l2.9-1.8C708.3,361.7,708.3,361.5,708.2,361.4C708.3,361.4,708.2,361.4,708.2,361.4z"/>
		<path d="M707,368.2l-1.9-2.6c-0.1-0.1-0.3-0.1-0.4-0.1l-2.7,1.8c-0.1,0.1-0.2,0.2-0.1,0.4c0,0,0,0,0,0l1.7,2.6
			c0.1,0.1,0.2,0.2,0.4,0.1l2.9-1.8C707,368.5,707.1,368.4,707,368.2C707,368.2,707,368.2,707,368.2z"/>
		<path d="M702.9,371l-1.9-2.6c-0.1-0.1-0.2-0.2-0.4-0.1c0,0,0,0,0,0l-2.7,1.8c-0.1,0.1-0.2,0.2-0.1,0.4c0,0,0,0,0,0l1.7,2.6
			c0.1,0.1,0.2,0.2,0.4,0.1l2.9-1.8C702.9,371.3,703,371.2,702.9,371C702.9,371,702.9,371,702.9,371z"/>
		<path d="M709.3,354.2l-1.8-2.5c-0.1-0.2-0.3-0.2-0.5-0.1l-2.6,1.7c-0.2,0.1-0.2,0.3-0.1,0.5c0,0,0,0,0,0l1.6,2.5
			c0.1,0.2,0.3,0.2,0.5,0.1c0,0,0,0,0,0l2.7-1.7C709.3,354.6,709.4,354.4,709.3,354.2C709.3,354.2,709.3,354.2,709.3,354.2z"/>
		<path d="M705.2,357l-1.8-2.5c-0.1-0.2-0.3-0.2-0.5-0.1c0,0,0,0,0,0l-2.6,1.8c-0.2,0.1-0.2,0.3-0.1,0.5c0,0,0,0,0,0l1.6,2.5
			c0.1,0.2,0.3,0.2,0.5,0.1l2.7-1.7C705.3,357.4,705.3,357.2,705.2,357C705.2,357,705.2,357,705.2,357z"/>
		<path d="M701.1,359.8l-1.8-2.5c-0.1-0.2-0.3-0.2-0.5-0.1l-2.6,1.7c-0.2,0.1-0.2,0.3-0.1,0.5c0,0,0,0,0,0l1.6,2.5
			c0.1,0.2,0.3,0.2,0.5,0.1c0,0,0,0,0,0l2.7-1.7C701.2,360.2,701.3,360,701.1,359.8C701.2,359.8,701.2,359.8,701.1,359.8z"/>
		<path d="M697.1,362.7l-1.9-2.7c-0.1-0.1-0.3-0.1-0.4-0.1l-2.7,1.8c-0.1,0.1-0.2,0.3-0.1,0.4l1.7,2.6c0.1,0.1,0.2,0.2,0.4,0.1
			l2.9-1.8C697.2,363,697.2,362.9,697.1,362.7C697.2,362.7,697.2,362.7,697.1,362.7z"/>
		<path d="M745.2,335.3l-1.6-2.3c-0.2-0.3-0.5-0.3-0.8-0.1l-6.3,4.4c-0.3,0.2-0.3,0.5-0.2,0.8l1.5,2.3c0.2,0.3,0.6,0.3,0.8,0.2
			c0,0,0,0,0,0l6.4-4.5C745.3,335.9,745.3,335.6,745.2,335.3z"/>
		<path d="M704.2,364.1l-2-2.8c-0.1-0.1-0.2-0.2-0.4-0.1c0,0,0,0,0,0L695,366c-0.1,0.1-0.2,0.2-0.1,0.4l1.9,2.9
			c0.1,0.1,0.2,0.2,0.4,0.1c0,0,0,0,0,0l6.9-4.8C704.2,364.4,704.2,364.2,704.2,364.1z"/>
		<path d="M725.7,342.8l-1.8-2.7c-0.1-0.1-0.3-0.2-0.4-0.1l-15,10.2c-0.1,0.1-0.2,0.2-0.1,0.4l1.9,2.8c0.1,0.1,0.2,0.2,0.4,0.1
			c0,0,0,0,0,0l15-10.3C725.8,343.1,725.8,342.9,725.7,342.8C725.7,342.8,725.7,342.8,725.7,342.8z"/>
	</g>
	<path class="st15" d="M750.9,343.4l-1.5-2.1c-0.2-0.3-0.5-0.3-0.8-0.1l-2.2,1.5c-0.3,0.2-0.3,0.5-0.2,0.8l1.4,2.1
		c0.2,0.3,0.5,0.3,0.8,0.2l2.3-1.5C751.1,344,751.1,343.7,750.9,343.4C750.9,343.4,750.9,343.4,750.9,343.4z"/>
	<path class="st15" d="M746.9,346.2l-1.5-2.1c-0.2-0.3-0.5-0.3-0.8-0.1l-2.2,1.5c-0.3,0.2-0.3,0.5-0.2,0.8l1.4,2.1
		c0.2,0.3,0.5,0.3,0.8,0.2l2.3-1.5C747.1,346.8,747.1,346.4,746.9,346.2C747,346.2,746.9,346.2,746.9,346.2z"/>
	<path class="st15" d="M742.8,349l-1.5-2.1c-0.2-0.3-0.5-0.3-0.8-0.1l-2.2,1.5c-0.3,0.2-0.3,0.5-0.2,0.8l1.4,2.1
		c0.2,0.3,0.5,0.3,0.8,0.2l2.3-1.5C742.9,349.7,743,349.3,742.8,349C742.8,349.1,742.8,349.1,742.8,349z"/>
	<path class="st15" d="M738.6,352l-1.5-2.1c-0.2-0.3-0.5-0.3-0.8-0.1l-2.2,1.5c-0.3,0.2-0.3,0.6-0.2,0.8c0,0,0,0,0,0l1.4,2.1
		c0.2,0.3,0.5,0.3,0.8,0.2l2.3-1.5C738.7,352.7,738.8,352.3,738.6,352C738.6,352,738.6,352,738.6,352z"/>
	<path class="st15" d="M734.3,354.9l-1.5-2.1c-0.2-0.3-0.5-0.3-0.8-0.1l-2.2,1.5c-0.3,0.2-0.3,0.5-0.2,0.8l1.4,2.1
		c0.2,0.3,0.5,0.3,0.8,0.2l2.3-1.5C734.4,355.5,734.5,355.2,734.3,354.9C734.3,354.9,734.3,354.9,734.3,354.9z"/>
	<path class="st15" d="M730.3,358.1l-1.9-2.6c-0.1-0.1-0.2-0.2-0.4-0.1c0,0,0,0,0,0l-2.7,1.8c-0.1,0.1-0.2,0.2-0.1,0.4c0,0,0,0,0,0
		l1.7,2.6c0.1,0.1,0.2,0.2,0.4,0.1l2.9-1.8C730.3,358.4,730.4,358.3,730.3,358.1C730.3,358.1,730.3,358.1,730.3,358.1z"/>
	<path class="st15" d="M726.1,361l-1.9-2.6c-0.1-0.1-0.3-0.2-0.4-0.1c0,0,0,0,0,0l-2.7,1.8c-0.1,0.1-0.2,0.2-0.1,0.4c0,0,0,0,0,0
		l1.7,2.6c0.1,0.1,0.2,0.2,0.4,0.1c0,0,0,0,0,0l2.9-1.8C726.1,361.3,726.2,361.2,726.1,361C726.1,361,726.1,361,726.1,361z"/>
	<path class="st15" d="M722.3,363.6l-1.9-2.7c-0.1-0.1-0.3-0.1-0.4-0.1l-2.7,1.8c-0.1,0.1-0.2,0.3-0.1,0.4l1.7,2.6
		c0.1,0.1,0.2,0.2,0.4,0.1l2.9-1.8C722.4,363.9,722.4,363.7,722.3,363.6C722.3,363.6,722.3,363.6,722.3,363.6z"/>
	<path class="st15" d="M718.1,366.5l-1.9-2.6c-0.1-0.1-0.3-0.1-0.4-0.1l-2.7,1.8c-0.1,0.1-0.2,0.3-0.1,0.4c0,0,0,0,0,0l1.7,2.6
		c0.1,0.1,0.2,0.2,0.4,0.1l2.9-1.8C718.2,366.9,718.2,366.7,718.1,366.5C718.2,366.6,718.2,366.5,718.1,366.5z"/>
	<path class="st15" d="M714.1,369.3l-1.9-2.6c-0.1-0.1-0.2-0.2-0.4-0.1c0,0,0,0,0,0l-2.7,1.8c-0.1,0.1-0.2,0.2-0.1,0.4c0,0,0,0,0,0
		l1.7,2.6c0.1,0.1,0.2,0.2,0.4,0.1c0,0,0,0,0,0l2.9-1.8C714.1,369.7,714.2,369.5,714.1,369.3C714.1,369.3,714.1,369.3,714.1,369.3z"
		/>
	<path class="st15" d="M710,372.1l-1.9-2.7c-0.1-0.1-0.3-0.1-0.4-0.1l-2.7,1.8c-0.1,0.1-0.2,0.3-0.1,0.4l1.7,2.6
		c0.1,0.1,0.2,0.2,0.4,0.1l2.9-1.8C710.1,372.5,710.1,372.3,710,372.1C710,372.2,710,372.1,710,372.1z"/>
	<path class="st15" d="M706,374.9l-1.9-2.6c-0.1-0.1-0.2-0.2-0.4-0.1c0,0,0,0,0,0l-2.7,1.8c-0.1,0.1-0.2,0.2-0.1,0.4c0,0,0,0,0,0
		l1.7,2.6c0.1,0.1,0.2,0.2,0.4,0.1c0,0,0,0,0,0l2.9-1.8C706,375.3,706.1,375.1,706,374.9C706,375,706,374.9,706,374.9z"/>
	<path class="st15" d="M748.3,339.6l-1.5-2.1c-0.2-0.3-0.5-0.3-0.8-0.1l-2.2,1.5c-0.3,0.2-0.3,0.5-0.2,0.8l1.4,2.1
		c0.2,0.3,0.5,0.3,0.8,0.2l2.3-1.5C748.4,340.2,748.5,339.8,748.3,339.6C748.3,339.6,748.3,339.6,748.3,339.6z"/>
	<path class="st15" d="M742.4,331.1l-1.5-2.1c-0.2-0.3-0.5-0.3-0.8-0.1l-2.2,1.5c-0.3,0.2-0.3,0.5-0.2,0.8l1.4,2.1
		c0.2,0.3,0.5,0.3,0.8,0.2l2.3-1.5C742.5,331.7,742.6,331.4,742.4,331.1C742.4,331.1,742.4,331.1,742.4,331.1z"/>
	<path class="st15" d="M744.3,342.3l-1.5-2.1c-0.2-0.3-0.5-0.3-0.8-0.1l-2.2,1.5c-0.3,0.2-0.3,0.5-0.2,0.8l1.4,2.1
		c0.2,0.3,0.5,0.3,0.8,0.2l2.3-1.5C744.4,342.9,744.5,342.6,744.3,342.3z"/>
	<path class="st15" d="M740.1,345.2l-1.5-2.1c-0.2-0.3-0.5-0.3-0.8-0.1l-2.2,1.5c-0.3,0.2-0.3,0.5-0.2,0.8l1.4,2.1
		c0.2,0.3,0.5,0.3,0.8,0.2l2.3-1.5C740.2,345.8,740.3,345.5,740.1,345.2C740.1,345.2,740.1,345.2,740.1,345.2z"/>
	<path class="st15" d="M735.9,348.1l-1.5-2.1c-0.2-0.3-0.5-0.3-0.8-0.1l-2.2,1.5c-0.3,0.2-0.3,0.5-0.2,0.8l1.4,2.1
		c0.2,0.3,0.5,0.3,0.8,0.2l2.3-1.5C736,348.8,736.1,348.4,735.9,348.1C735.9,348.1,735.9,348.1,735.9,348.1z"/>
	<path class="st15" d="M738.5,334l-1.5-2.1c-0.2-0.3-0.5-0.3-0.8-0.1l-2.2,1.5c-0.3,0.2-0.3,0.5-0.2,0.8l1.4,2.1
		c0.2,0.3,0.5,0.3,0.8,0.2l2.3-1.5C738.6,334.6,738.7,334.3,738.5,334z"/>
	<path class="st15" d="M734.4,336.9l-1.5-2.1c-0.2-0.3-0.5-0.3-0.8-0.1l-2.2,1.5c-0.3,0.2-0.3,0.5-0.2,0.8l1.4,2.1
		c0.2,0.3,0.5,0.3,0.8,0.2l2.3-1.5C734.5,337.5,734.5,337.2,734.4,336.9C734.4,336.9,734.4,336.9,734.4,336.9z"/>
	<path class="st15" d="M730.1,339.8l-1.5-2.1c-0.2-0.3-0.5-0.3-0.8-0.1l-2.2,1.5c-0.3,0.2-0.3,0.5-0.2,0.8l1.4,2.1
		c0.2,0.3,0.5,0.3,0.8,0.2l2.3-1.5C730.2,340.5,730.3,340.1,730.1,339.8C730.1,339.8,730.1,339.8,730.1,339.8z"/>
	<path class="st15" d="M731.7,351l-1.5-2.1c-0.2-0.3-0.5-0.3-0.8-0.1l-2.2,1.5c-0.3,0.2-0.3,0.5-0.2,0.8l1.4,2.1
		c0.2,0.3,0.5,0.3,0.8,0.2l2.3-1.5C731.8,351.7,731.8,351.3,731.7,351z"/>
	<path class="st15" d="M727.4,354l-1.5-2.1c-0.2-0.3-0.5-0.3-0.8-0.1l-2.2,1.5c-0.3,0.2-0.3,0.5-0.2,0.8l1.4,2.1
		c0.2,0.3,0.5,0.3,0.8,0.2l2.3-1.5C727.5,354.7,727.6,354.3,727.4,354C727.5,354,727.4,354,727.4,354z"/>
	<path class="st15" d="M723.4,357.2l-1.9-2.6c-0.1-0.1-0.2-0.2-0.4-0.1c0,0,0,0,0,0l-2.7,1.8c-0.1,0.1-0.2,0.2-0.1,0.4c0,0,0,0,0,0
		l1.7,2.6c0.1,0.1,0.2,0.2,0.4,0.1c0,0,0,0,0,0l2.9-1.8C723.5,357.5,723.5,357.3,723.4,357.2C723.4,357.2,723.4,357.2,723.4,357.2z"
		/>
	<path class="st15" d="M719.7,359.7l-1.9-2.7c-0.1-0.1-0.3-0.1-0.4-0.1l-2.7,1.8c-0.1,0.1-0.2,0.3-0.1,0.4l1.7,2.6
		c0.1,0.1,0.2,0.2,0.4,0.1l2.9-1.8C719.7,360.1,719.8,359.9,719.7,359.7C719.7,359.8,719.7,359.7,719.7,359.7z"/>
	<path class="st15" d="M715.5,362.6l-1.9-2.7c-0.1-0.1-0.3-0.1-0.4-0.1l-2.7,1.8c-0.1,0.1-0.2,0.3-0.1,0.4l1.7,2.6
		c0.1,0.1,0.2,0.2,0.4,0.1l2.9-1.8C715.5,363,715.6,362.8,715.5,362.6C715.5,362.7,715.5,362.7,715.5,362.6z"/>
	<path class="st15" d="M711.4,365.5l-1.8-2.6c-0.1-0.1-0.2-0.2-0.4-0.1c0,0,0,0,0,0l-2.7,1.8c-0.1,0.1-0.2,0.2-0.1,0.4l1.7,2.6
		c0.1,0.1,0.2,0.2,0.4,0.1l2.9-1.8C711.5,365.8,711.5,365.6,711.4,365.5C711.4,365.5,711.4,365.5,711.4,365.5z"/>
	<path class="st15" d="M737.3,341.2l-1.5-2.1c-0.2-0.3-0.5-0.3-0.8-0.1l-2.2,1.5c-0.3,0.2-0.3,0.5-0.2,0.8l1.4,2.1
		c0.2,0.3,0.5,0.3,0.8,0.2l2.3-1.5C737.4,341.8,737.5,341.4,737.3,341.2C737.3,341.2,737.3,341.2,737.3,341.2z"/>
	<path class="st15" d="M733.1,344.1l-1.5-2.1c-0.2-0.3-0.5-0.3-0.8-0.2l-2.2,1.5c-0.3,0.2-0.3,0.5-0.2,0.8l1.4,2.1
		c0.2,0.3,0.5,0.3,0.8,0.2l2.3-1.5C733.2,344.7,733.3,344.4,733.1,344.1C733.1,344.1,733.1,344.1,733.1,344.1z"/>
	<path class="st15" d="M728.9,347l-1.5-2.1c-0.2-0.3-0.5-0.3-0.8-0.1l-2.2,1.5c-0.3,0.2-0.3,0.5-0.2,0.8l1.4,2.1
		c0.2,0.3,0.5,0.3,0.8,0.2l2.3-1.5C729,347.7,729.1,347.3,728.9,347C728.9,347,728.9,347,728.9,347z"/>
	<path class="st15" d="M724.7,349.9l-1.5-2.1c-0.2-0.3-0.5-0.3-0.8-0.1l-2.2,1.5c-0.3,0.2-0.3,0.5-0.2,0.8l1.4,2.1
		c0.2,0.3,0.5,0.3,0.8,0.2l2.3-1.5C724.8,350.6,724.8,350.2,724.7,349.9C724.7,350,724.7,349.9,724.7,349.9z"/>
	<path class="st15" d="M720.6,353.1l-1.9-2.6c-0.1-0.1-0.3-0.2-0.4-0.1c0,0,0,0,0,0l-2.7,1.8c-0.1,0.1-0.2,0.2-0.1,0.4l1.7,2.6
		c0.1,0.1,0.3,0.2,0.4,0.1c0,0,0,0,0,0l2.9-1.8C720.7,353.5,720.7,353.3,720.6,353.1C720.6,353.2,720.6,353.1,720.6,353.1z"/>
	<path class="st15" d="M716.9,355.7l-1.9-2.6c-0.1-0.1-0.2-0.2-0.4-0.1c0,0,0,0,0,0l-2.7,1.8c-0.1,0.1-0.2,0.3-0.1,0.4l1.7,2.6
		c0.1,0.1,0.2,0.2,0.4,0.1l2.9-1.8C716.9,356.1,717,355.9,716.9,355.7C716.9,355.8,716.9,355.7,716.9,355.7z"/>
	<path class="st15" d="M712.7,358.6l-1.9-2.7c-0.1-0.1-0.3-0.1-0.4-0.1l-2.7,1.8c-0.1,0.1-0.2,0.3-0.1,0.4l1.7,2.6
		c0.1,0.1,0.2,0.2,0.4,0.1l2.9-1.8C712.7,359,712.8,358.8,712.7,358.6C712.7,358.7,712.7,358.6,712.7,358.6z"/>
	<path class="st15" d="M708.6,361.4l-1.9-2.6c-0.1-0.1-0.3-0.2-0.4-0.1c0,0,0,0,0,0l-2.7,1.8c-0.1,0.1-0.2,0.2-0.1,0.4c0,0,0,0,0,0
		l1.7,2.6c0.1,0.1,0.2,0.2,0.4,0.1c0,0,0,0,0,0l2.9-1.8C708.7,361.8,708.7,361.6,708.6,361.4C708.6,361.5,708.6,361.4,708.6,361.4z"
		/>
	<path class="st15" d="M707.3,368.3l-1.9-2.7c-0.1-0.1-0.3-0.1-0.4-0.1l-2.7,1.8c-0.1,0.1-0.2,0.3-0.1,0.4l1.7,2.6
		c0.1,0.1,0.2,0.2,0.4,0.1l2.9-1.8C707.4,368.6,707.4,368.4,707.3,368.3C707.4,368.3,707.4,368.3,707.3,368.3z"/>
	<path class="st15" d="M703.3,371.1l-1.9-2.6c-0.1-0.1-0.3-0.2-0.4-0.1c0,0,0,0,0,0l-2.7,1.8c-0.1,0.1-0.2,0.2-0.1,0.4l1.7,2.6
		c0.1,0.1,0.2,0.2,0.4,0.1c0,0,0,0,0,0l2.9-1.8C703.3,371.4,703.4,371.3,703.3,371.1C703.3,371.1,703.3,371.1,703.3,371.1z"/>
	<path class="st15" d="M709.7,354.3l-1.8-2.5c-0.1-0.2-0.3-0.2-0.5-0.1l-2.6,1.7c-0.2,0.1-0.2,0.3-0.1,0.5l1.6,2.5
		c0.1,0.2,0.3,0.2,0.5,0.1l2.7-1.7C709.7,354.7,709.8,354.5,709.7,354.3C709.7,354.3,709.7,354.3,709.7,354.3z"/>
	<path class="st15" d="M705.6,357.1l-1.8-2.5c-0.1-0.2-0.3-0.2-0.5-0.1c0,0,0,0,0,0l-2.6,1.7c-0.2,0.1-0.2,0.3-0.1,0.5l1.6,2.5
		c0.1,0.2,0.3,0.2,0.5,0.1l2.7-1.7C705.7,357.5,705.7,357.2,705.6,357.1C705.6,357.1,705.6,357.1,705.6,357.1z"/>
	<path class="st15" d="M701.5,359.9l-1.8-2.5c-0.1-0.2-0.3-0.2-0.5-0.1l-2.6,1.7c-0.2,0.1-0.2,0.3-0.1,0.5l1.6,2.5
		c0.1,0.2,0.3,0.2,0.5,0.1l2.7-1.7C701.6,360.3,701.7,360.1,701.5,359.9C701.6,359.9,701.5,359.9,701.5,359.9z"/>
	<path class="st15" d="M697.5,362.8l-1.9-2.7c-0.1-0.1-0.3-0.1-0.4-0.1l-2.7,1.8c-0.1,0.1-0.2,0.3-0.1,0.4l1.7,2.6
		c0.1,0.1,0.2,0.2,0.4,0.1l2.9-1.8C697.6,363.1,697.6,362.9,697.5,362.8C697.6,362.8,697.6,362.8,697.5,362.8z"/>
	<path class="st15" d="M745.6,335.4l-1.6-2.3c-0.2-0.3-0.5-0.3-0.8-0.1l-6.3,4.4c-0.3,0.2-0.3,0.5-0.2,0.8l1.5,2.3
		c0.2,0.3,0.6,0.3,0.8,0.2c0,0,0,0,0,0l6.4-4.5C745.7,336,745.7,335.7,745.6,335.4z"/>
	<path class="st15" d="M704.6,364.2l-2-2.8c-0.1-0.1-0.2-0.2-0.4-0.1c0,0,0,0,0,0l-6.8,4.7c-0.1,0.1-0.2,0.3-0.1,0.4l1.9,2.9
		c0.1,0.1,0.2,0.2,0.4,0.1c0,0,0,0,0,0l6.9-4.8C704.6,364.5,704.6,364.3,704.6,364.2z"/>
	<path class="st15" d="M726.1,342.9l-1.8-2.6c-0.1-0.1-0.3-0.2-0.4-0.1l-15,10.1c-0.1,0.1-0.2,0.2-0.1,0.4c0,0,0,0,0,0l1.9,2.8
		c0.1,0.1,0.2,0.2,0.4,0.1c0,0,0,0,0,0l15-10.3C726.2,343.2,726.2,343,726.1,342.9z"/>
	<path class="st8" d="M726.2,333.8l-8-11.6c-0.5-0.7-1.4-0.8-2.1-0.4l-22,14.8c-0.7,0.5-0.9,1.4-0.4,2.1c0,0,0,0,0,0l8.2,12
		c0.5,0.7,1.4,0.9,2.1,0.4c0,0,0,0,0,0l21.9-15.1C726.5,335.4,726.6,334.5,726.2,333.8C726.2,333.8,726.2,333.8,726.2,333.8z"/>
	<path class="st17" d="M726.5,333.9l-8-11.6c-0.5-0.7-1.4-0.8-2.1-0.4l-22,14.8c-0.7,0.5-0.9,1.4-0.4,2.1c0,0,0,0,0,0l8.1,11.9
		c0.5,0.7,1.4,0.9,2.1,0.4c0,0,0,0,0,0l21.9-15.1C726.9,335.5,727,334.6,726.5,333.9C726.5,333.9,726.5,333.9,726.5,333.9z"/>
	<path class="st12" d="M776.1,352.7l-17-5.7l-54.4,37.8l16.8,5.5c0.9,0.3,1.9,0.2,2.7-0.4l52-36.1c0.3-0.2,0.4-0.5,0.2-0.8
		C776.4,352.8,776.3,352.7,776.1,352.7z"/>
</g>
<g id="Layer_4">
	<polyline class="st18" points="809.6,716.4 568.7,716.3 568.8,626.3 	"/>
	<polyline class="st18" points="777.4,695.4 536.5,694.1 537.6,604.1 	"/>
	<polyline class="st18" points="327.6,22.5 568.5,26.4 567,116.4 	"/>
	<polyline class="st18" points="358.8,45.9 599.7,47.2 598.6,137.2 	"/>
</g>
<g id="Layer_5">
	<title>filter</title>
	
		<linearGradient id="SVGID_1_" gradientUnits="userSpaceOnUse" x1="63.9177" y1="671.4094" x2="63.9177" y2="742.7653" gradientTransform="matrix(1 0 0 -1 0 760)">
		<stop  offset="0" style="stop-color:#808080;stop-opacity:0.25"/>
		<stop  offset="0.54" style="stop-color:#808080;stop-opacity:0.12"/>
		<stop  offset="1" style="stop-color:#808080;stop-opacity:0.1"/>
	</linearGradient>
	<rect x="27.5" y="17.2" class="st19" width="72.8" height="71.4"/>
	<rect x="27.9" y="17.8" class="st11" width="72.1" height="70.3"/>
	<rect x="35.2" y="23.6" class="st12" width="57.5" height="44.6"/>
	<rect x="38.7" y="73" class="st20" width="50.7" height="2.3"/>
	<rect x="46.8" y="77.7" class="st20" width="34.5" height="2.3"/>
	<ellipse transform="matrix(1 -9.075607e-03 9.075607e-03 1 -0.3821 0.5783)" class="st11" cx="63.5" cy="42.4" rx="7.7" ry="7.7"/>
	<ellipse transform="matrix(1 -9.075597e-03 9.075597e-03 1 -0.4053 0.5786)" class="st11" cx="63.5" cy="44.9" rx="7" ry="7"/>
	<rect x="62" y="49.1" transform="matrix(1 -9.075588e-03 9.075588e-03 1 -0.4684 0.5795)" class="st11" width="3.2" height="5.6"/>
	<path class="st11" d="M63.7,53.1l0.5,0c4.3,0,7.8,3.4,7.8,7.7c0,0,0,0,0,0l0.1,7.5l0,0l-16,0.1l0,0L56,60.9
		C56,56.6,59.4,53.1,63.7,53.1C63.7,53.1,63.7,53.1,63.7,53.1z"/>
	<path class="st11" d="M58.2,36.9c0,0,4.6-2.8,5.5-5.8c0,0,2.1,4.4,5.4,7.4L58.2,36.9z"/>
	
		<linearGradient id="SVGID_2_" gradientUnits="userSpaceOnUse" x1="254.3732" y1="672.423" x2="254.3732" y2="743.779" gradientTransform="matrix(1 0 0 -1 0 760)">
		<stop  offset="0" style="stop-color:#808080;stop-opacity:0.25"/>
		<stop  offset="0.54" style="stop-color:#808080;stop-opacity:0.12"/>
		<stop  offset="1" style="stop-color:#808080;stop-opacity:0.1"/>
	</linearGradient>
	<rect x="218" y="16.2" class="st21" width="72.8" height="71.4"/>
	<rect x="218.3" y="16.8" class="st11" width="72.1" height="70.3"/>
	<rect x="225.6" y="22.6" class="st12" width="57.5" height="44.6"/>
	<rect x="229.7" y="73.5" class="st20" width="50.7" height="2.3"/>
	<rect x="237.8" y="78.1" class="st20" width="34.5" height="2.3"/>
	
		<linearGradient id="SVGID_3_" gradientUnits="userSpaceOnUse" x1="158.909" y1="672.1466" x2="158.909" y2="744.0186" gradientTransform="matrix(1 0 0 -1 0 760)">
		<stop  offset="0" style="stop-color:#808080;stop-opacity:0.25"/>
		<stop  offset="0.54" style="stop-color:#808080;stop-opacity:0.12"/>
		<stop  offset="1" style="stop-color:#808080;stop-opacity:0.1"/>
	</linearGradient>
	<rect x="122.2" y="16" class="st22" width="73.3" height="71.9"/>
	<rect x="122.6" y="16.5" class="st11" width="72.6" height="70.8"/>
	<rect x="130" y="22.4" class="st12" width="57.9" height="44.9"/>
	<rect x="132.1" y="72.7" class="st20" width="51.1" height="2.4"/>
	<rect x="140.3" y="77.4" class="st20" width="34.8" height="2.4"/>
	<circle class="st11" cx="157.9" cy="42.9" r="7.3"/>
	<circle class="st11" cx="157.9" cy="45.3" r="6.6"/>
	
		<rect x="156.4" y="49.3" transform="matrix(1 -9.075588e-03 9.075588e-03 1 -0.465 1.4357)" class="st11" width="3.1" height="5.3"/>
	<path class="st11" d="M158.3,53.1L158.3,53.1c4.2,0,7.6,3.3,7.7,7.5l0.1,6.9l0,0l-15.2,0.1l0,0l-0.1-6.9
		C150.7,56.5,154.1,53.1,158.3,53.1z"/>
	<circle class="st11" cx="158" cy="35.5" r="2.6"/>
	<path class="st11" d="M158.7,31.4c1.4-0.3,2.8,0.2,4.1,0.7c1.1,0.4,2.3,0.9,3.2,1.7c1.7,1.6,2.1,4.1,2.1,6.4c0.1,2.3-0.1,4.7,1,6.8
		c1.2,2.3,3.6,3.7,6.2,3.6c-1.5,1-3.5,0.9-5.1,0.2c-1.5-0.7-2.7-1.8-3.5-3.1c-0.5-0.9-0.9-1.9-1.2-2.9c-1.1-3-2.6-5.9-4.4-8.5
		c-0.3-0.4-0.6-0.8-1-1.2c-0.5-0.4-1.2-0.7-1.9-0.8c-0.6-0.1-1.5,0.2-1.9-0.4C155.6,32.8,157.8,31.5,158.7,31.4z"/>
	<circle class="st11" cx="256" cy="43.6" r="7"/>
	<rect x="254.4" y="47.8" class="st11" width="3.3" height="5.6"/>
	<path class="st11" d="M256,51.8h0.7c4.3,0,7.8,3.5,7.8,7.8v7.7l0,0h-16.2l0,0v-7.7C248.2,55.3,251.7,51.8,256,51.8
		C256,51.8,256,51.8,256,51.8z"/>
	<path class="st11" d="M263.9,50.7c-0.3,0.3-14.7,0.9-15.7,0c0.6-3.1,0-10.6,0-10.6c0-4.3,3.5-7.8,7.8-7.8l0,0l0,0
		c4.3,0,7.8,3.5,7.8,7.8l0,0C263.9,40.1,263,49.5,263.9,50.7z"/>
</g>
</svg>
