<?xml version="1.0" encoding="utf-8"?>
<!-- Generator: Adobe Illustrator 23.0.1, SVG Export Plug-In . SVG Version: 6.00 Build 0)  -->
<svg version="1.1" id="Layer_1" xmlns="http://www.w3.org/2000/svg" xmlns:xlink="http://www.w3.org/1999/xlink" x="0px" y="0px"
	 viewBox="0 0 512 512" style="enable-background:new 0 0 512 512;" xml:space="preserve">
<style type="text/css">
	.st0{fill:none;}
	.st1{fill:#57BC90;stroke:#57BC90;stroke-width:2;stroke-miterlimit:10;}
	.st2{fill:#FFFFFF;stroke:#FFFFFF;stroke-width:7;stroke-miterlimit:10;}
	.st3{fill:#FFFFFF;}
	.st4{fill:#57BC90;stroke:#57BC90;stroke-width:7;stroke-miterlimit:10;}
	.st5{fill:#57BC90;}
</style>
<path class="st0" d="M136.5,288.3l-2-0.7v9.2l7.5,7.5l13.1-4.4c0.1,0,0.3-0.1,0.5-0.1h0.8c0.1,0,0.1,0,0.1,0l0.3,0.1
	c0.2,0,0.3,0.1,0.5,0.1l13,4.3l7.5-7.5v-9.2l-2,0.7C163.2,292.8,149.1,292.8,136.5,288.3z"/>
<path class="st0" d="M201.4,301.7h-18.7l-8.9,8.9l-0.2,0.2c-0.1,0.1-0.3,0.3-0.4,0.4l-0.2,0.1c-0.1,0.1-0.2,0.1-0.4,0.2
	c-0.1,0-0.1,0.1-0.2,0.1c-0.1,0-0.3,0.1-0.4,0.1h-0.2c-0.4,0.1-0.9,0.1-1.1,0l-14.6-4.8l-14.5,4.8c-0.4,0.1-0.8,0.1-1.2,0l-0.2-0.1
	c-0.1,0-0.3-0.1-0.4-0.1c-0.1,0-0.2-0.1-0.2-0.1c-0.1-0.1-0.2-0.1-0.4-0.2l-0.2-0.1c-0.2-0.1-0.3-0.3-0.5-0.4l-9-9h-18.7
	c-13,0-23.9,9.4-26.2,21.7h142.9C225.2,311.1,214.4,301.7,201.4,301.7z"/>
<path class="st0" d="M113.6,195.1c0.1-0.1,0.2-0.2,0.3-0.3c0.1-0.1,0.1-0.1,0.2-0.1c0.1-0.1,0.2-0.1,0.4-0.2c0.1,0,0.2-0.1,0.2-0.1
	c0.1,0,0.3-0.1,0.4-0.1s0.1,0,0.2,0s0.3,0,0.4,0h0.2h0.1c0.1,0,0.2,0,0.4,0c0.1,0,0.2,0,0.3,0.1s0.2,0.1,0.3,0.1
	c0.1,0,0.2,0.1,0.3,0.1c0.1,0,0.2,0.1,0.2,0.1c0.2,0.1,18.2,9.6,38.6,9.6c20.5,0,38.4-9.6,38.5-9.6l0.2-0.1c0.1-0.1,0.2-0.1,0.3-0.1
	s0.2-0.1,0.3-0.1s0.2,0,0.3-0.1c0.1,0,0.2,0,0.5,0h0.2c0.1,0,0.2,0,0.3,0s0.2,0,0.4,0.1c0.1,0,0.2,0.1,0.3,0.1s0.2,0.1,0.4,0.1
	c0.1,0,0.2,0.1,0.3,0.1c0.1,0.1,0.2,0.1,0.3,0.2c0.1,0.1,0.2,0.1,0.2,0.2l9.4,9.3l-0.2-3.9c-1.2-27.8-23.9-49.6-51.7-49.6
	s-50.6,21.8-51.7,49.6l-0.2,3.9l9.2-9.1L113.6,195.1z"/>
<path class="st0" d="M207.9,232.9v-18.7l-12.3-12.3l-1,0.4c-5.8,2.7-21.3,8.9-38.6,8.9c-16.6,0-31.3-5.6-38.6-8.9l-1-0.4l-12.3,12.3
	v18.7c0,28.6,23.2,51.8,51.8,51.8S207.9,261.4,207.9,232.9z M153,233.4h4.9v17.5H153V233.4z M134,261.5l2.8-4.1
	c0.8,0.5,18.8,12.5,37.8-1.1l2.9,4c-7.7,5.5-15.3,7.3-22,7.3C143.2,267.6,134.1,261.6,134,261.5z"/>
<path class="st0" d="M110.7,460.3c0,5.2,4.2,9.5,9.5,9.5H348c5.2,0,9.5-4.3,9.5-9.5s-4.2-9.5-9.5-9.5H120.2
	C115,450.8,110.7,455,110.7,460.3z"/>
<polygon class="st0" points="295.7,393.9 172.5,393.9 159.3,437.2 309,437.2 "/>
<path class="st0" d="M466.2,38.7H341c-15.6,0-28.4,12-29.7,27.2c-0.1,0.8-0.1,1.7-0.1,2.6v11v22.6v13.6v45.9
	c0,16.4,13.4,29.8,29.8,29.8h3.8c2.8,0,5,2.3,5,5v18.9l22.5-22.4c0.9-1,2.2-1.5,3.5-1.5h36.8h13.6h22.6h13.6h4
	c16.4,0,29.8-13.4,29.8-29.8v-93C496,52.1,482.6,38.7,466.2,38.7z M349.6,71c0.9-0.9,2.3-1.5,3.5-1.5c1.3,0,2.6,0.6,3.6,1.5
	c0.9,0.9,1.5,2.3,1.5,3.6c0,1.3-0.5,2.6-1.5,3.5c-0.9,0.9-2.1,1.3-3.3,1.4h-0.5c-1.2,0-2.4-0.5-3.3-1.4s-1.5-2.2-1.5-3.5
	C348.2,73.3,348.7,72,349.6,71z M454,156.1h-5.4H426h-13.6H353c-2.7,0-5-2.3-5-5c0-2.8,2.3-5,5-5h59.4H426h22.6h5.4c2.8,0,5,2.2,5,5
	C459.1,153.9,456.8,156.1,454,156.1z M454,117.9h-5.4H426h-13.6H353c-1.7,0-3.2-0.9-4.1-2.2c-0.5-0.8-0.9-1.8-0.9-2.8
	c0-2.8,2.3-5,5-5h73h22.7h5.4c2.8,0,5,2.2,5,5C459.1,115.6,456.8,117.9,454,117.9z M454,79.6h-3.6h-29.3h-32.3c-0.3,0-0.7,0-1-0.1
	c-2.3-0.5-4-2.5-4-4.9c0-2.8,2.3-5,5-5h47.3H454c2.8,0,5,2.3,5,5C459.1,77.3,456.8,79.6,454,79.6z"/>
<path class="st1" d="M110.9,301.7h18.7l9,9c0.2,0.2,0.3,0.3,0.5,0.4l0.2,0.1c0.1,0.1,0.3,0.1,0.4,0.2c0.1,0,0.1,0.1,0.2,0.1
	c0.1,0.1,0.3,0.1,0.4,0.1l0.2,0.1c0.4,0.1,0.8,0.1,1.2,0l14.5-4.8l14.6,4.8c0.2,0,0.7,0.1,1.1,0h0.2c0.1,0,0.3-0.1,0.4-0.1
	c0.1,0,0.1-0.1,0.2-0.1c0.1-0.1,0.2-0.1,0.4-0.2l0.2-0.1c0.1-0.1,0.3-0.2,0.4-0.4l0.2-0.2l8.9-8.9h18.7c13,0,23.9,9.4,26.2,21.7h7.1
	c-2.4-16.2-16.4-28.7-33.3-28.7h-16.6v-10.5l0.8-0.4c18.1-10.5,29.4-30,29.4-50.9v-30.2c0-32.4-26.4-58.8-58.8-58.8
	s-58.8,26.4-58.8,58.8v30.2c0,20.9,11.3,40.4,29.4,50.9l0.8,0.4v10.5h-16.6c-16.9,0-30.9,12.5-33.3,28.7h7.1
	C87,311.1,97.9,301.7,110.9,301.7z M177.8,296.8l-7.5,7.5l-13-4.3c-0.2-0.1-0.4-0.1-0.5-0.1l-0.3-0.1h-0.1h-0.8
	c-0.2,0-0.3,0.1-0.5,0.1l-13.1,4.4l-7.5-7.5v-9.2l2,0.7c12.6,4.5,26.6,4.5,39.2,0l2-0.7v9.2H177.8z M104.4,200.5
	c1.2-27.8,23.9-49.6,51.7-49.6s50.6,21.8,51.7,49.6l0.2,3.9l-9.4-9.3c-0.1,0-0.1-0.1-0.2-0.2c-0.1-0.1-0.2-0.1-0.3-0.2
	c-0.1-0.1-0.2-0.1-0.3-0.1c-0.1-0.1-0.2-0.1-0.4-0.1c-0.1,0-0.2-0.1-0.3-0.1s-0.2-0.1-0.4-0.1c-0.1,0-0.2,0-0.3,0h-0.2
	c-0.2,0-0.4,0-0.5,0s-0.2,0-0.3,0.1c-0.1,0-0.2,0.1-0.3,0.1s-0.2,0.1-0.3,0.1l-0.2,0.1c-0.1,0.1-18.1,9.6-38.5,9.6
	s-38.4-9.6-38.6-9.6c0,0-0.1,0-0.2-0.1c-0.1,0-0.2-0.1-0.3-0.1c-0.1,0-0.2-0.1-0.3-0.1s-0.2,0-0.3-0.1c-0.1,0-0.2,0-0.4,0h-0.1h-0.2
	c-0.1,0-0.3,0-0.4,0s-0.1,0-0.2,0c-0.2,0-0.3,0.1-0.4,0.1s-0.2,0.1-0.2,0.1c-0.1,0.1-0.2,0.1-0.4,0.2c-0.1,0-0.1,0.1-0.2,0.1
	c-0.1,0.1-0.2,0.2-0.3,0.3l-0.2,0.1l-9.2,9.1L104.4,200.5z M104.3,232.9v-18.7l12.3-12.3l1,0.4c7.3,3.3,22,8.9,38.6,8.9
	c17.3,0,32.7-6.2,38.6-8.9l1-0.4l12.3,12.3v18.7c0,28.6-23.2,51.8-51.8,51.8C127.6,284.6,104.3,261.4,104.3,232.9z"/>
<path class="st2" d="M301.3,65.9H118.5c-3.7,0-6.8,3-6.8,6.8s3,6.8,6.8,6.8h182.7v-11C301.2,67.6,301.2,66.8,301.3,65.9z"/>
<path class="st2" d="M448.7,350.5c0,16.5-13.4,29.9-29.8,29.9H49.4c-16.5,0-29.9-13.4-29.9-29.9V109.4c0-16.5,13.4-29.9,29.9-29.9
	h42c3.7,0,6.8-3,6.8-6.8c0-3.7-3-6.8-6.8-6.8h-42C25.5,65.9,6,85.4,6,109.4v241.1c0,23.9,19.5,43.4,43.4,43.4h108.9L145,437.3h-24.9
	c-12.7,0-23,10.3-23,23s10.3,23,23,23H348c12.7,0,23-10.3,23-23s-10.3-23-23-23h-24.9l-13.3-43.4h109c23.9,0,43.4-19.5,43.4-43.4
	V201.3h-13.6v149.2H448.7z M172.5,393.9h123.2l13.3,43.4H159.3L172.5,393.9z M348,450.8c5.2,0,9.5,4.2,9.5,9.5
	c0,5.2-4.2,9.5-9.5,9.5H120.2c-5.2,0-9.5-4.3-9.5-9.5s4.2-9.5,9.5-9.5H348z"/>
<path class="st2" d="M412.5,279.7c0,3.7,3,6.8,6.8,6.8c3.7,0,6.8-3,6.8-6.8v-78.4h-13.6L412.5,279.7L412.5,279.7z"/>
<path class="st2" d="M49.4,102.1c-4,0-7.3,3.3-7.3,7.3v220.8c0,3.7,3,6.8,6.8,6.8h370.4c3.7,0,6.8-3,6.8-6.8v-23.4
	c0-3.8-3-6.8-6.8-6.8s-6.8,3-6.8,6.8v16.6H234.7h-7.1H84.7h-7.1H55.7V115.6h245.5V102L49.4,102.1L49.4,102.1z"/>
<path class="st3" d="M238.8,362.3c2.3-2.3,2.7-5.9,0.9-8.6c-1.5-2.3-4.3-3.4-7-2.9c-2.9,0.6-5.1,3.1-5.4,6
	C226.8,362.9,234.4,366.6,238.8,362.3z"/>
<path class="st4" d="M454,69.6h-17.9h-47.3c-2.8,0-5,2.3-5,5c0,2.4,1.7,4.4,4,4.9c0.3,0.1,0.7,0.1,1,0.1h32.3h29.3h3.6
	c2.8,0,5-2.3,5-5C459.1,71.8,456.8,69.6,454,69.6z"/>
<path class="st4" d="M352.9,79.5h0.5c1.2,0,2.4-0.5,3.3-1.4c1-0.9,1.5-2.2,1.5-3.5s-0.6-2.6-1.5-3.6c-0.9-0.9-2.3-1.5-3.6-1.5
	c-1.3,0-2.6,0.6-3.5,1.5s-1.5,2.2-1.5,3.6c0,1.3,0.5,2.6,1.5,3.5C350.5,79,351.7,79.5,352.9,79.5z"/>
<path class="st4" d="M454,107.8h-5.4H426h-72.8c-2.7,0-5,2.2-5,5c0,1,0.3,2,0.9,2.8c0.9,1.3,2.4,2.2,4.1,2.2h59.4h13.6h22.6h5.4
	c2.8,0,5-2.3,5-5C459.1,110.1,456.8,107.8,454,107.8z"/>
<path class="st4" d="M454,146.1h-5.4H426h-13.6H353c-2.7,0-5,2.2-5,5c0,2.7,2.3,5,5,5h59.4H426h22.6h5.4c2.8,0,5-2.3,5-5
	C459.1,148.3,456.8,146.1,454,146.1z"/>
<path class="st2" d="M466.2,28.7H341c-21.1,0-38.4,16.5-39.7,37.2c-0.1,0.8-0.1,1.7-0.1,2.6v11v22.6v13.6v45.9
	c0,20.3,15.2,37.2,35.3,39.5l3.3,0.4v25.9c0,2,1.2,3.9,3.1,4.6c1.8,0.8,4.1,0.3,5.5-1.1l29.5-29.5h34.7h13.6h22.6h13.6h4
	c22,0,39.8-17.9,39.8-39.8v-93C506,46.6,488.2,28.7,466.2,28.7z M496,161.5c0,16.4-13.4,29.8-29.8,29.8h-4h-13.6H426h-13.6h-36.8
	c-1.3,0-2.6,0.5-3.5,1.5l-22.5,22.4v-18.9c0-2.7-2.2-5-5-5H341c-16.4,0-29.8-13.4-29.8-29.8v-45.9V102V79.5v-11c0-0.9,0-1.7,0.1-2.6
	c1.3-15.2,14.1-27.2,29.7-27.2h125.2c16.4,0,29.8,13.4,29.8,29.8V161.5L496,161.5z"/>
<path class="st5" d="M174.6,256.4c-19,13.5-37,1.6-37.8,1.1l-2.8,4.1c0.1,0.1,9.2,6.1,21.5,6.1c6.7,0,14.3-1.8,22-7.3L174.6,256.4z"
	/>
<rect x="153" y="233.4" class="st5" width="4.9" height="17.5"/>
</svg>
