<?xml version="1.0" encoding="utf-8"?>
<!-- Generator: Adobe Illustrator 23.0.1, SVG Export Plug-In . SVG Version: 6.00 Build 0)  -->
<svg version="1.1" id="Layer_1" xmlns="http://www.w3.org/2000/svg" xmlns:xlink="http://www.w3.org/1999/xlink" x="0px" y="0px"
	 viewBox="0 0 990 758.2" style="enable-background:new 0 0 990 758.2;" xml:space="preserve">
<style type="text/css">
	.st0{opacity:0.2;fill:#307167;enable-background:new    ;}
	.st1{fill:none;stroke:#535461;stroke-width:2;stroke-miterlimit:10;}
	.st2{fill:#307167;}
	.st3{opacity:0.25;enable-background:new    ;}
	.st4{opacity:0.5;fill:#FFFFFF;enable-background:new    ;}
	.st5{opacity:0.7;}
	.st6{opacity:0.6;fill:#307167;enable-background:new    ;}
	.st7{fill:url(#SVGID_1_);}
	.st8{fill:#FDB797;}
	.st9{fill:#3AD29F;}
	.st10{opacity:0.1;enable-background:new    ;}
	.st11{fill:#252A62;}
	.st12{fill:url(#SVGID_2_);}
	.st13{fill:#E0E0E0;}
	.st14{fill:#535461;}
	.st15{fill:url(#SVGID_3_);}
	.st16{fill:#3E3F49;}
</style>
<title>co-workers</title>
<path class="st0" d="M818,668h-71v-40h71V668z M750,665h65v-34h-65V665z"/>
<path class="st0" d="M889,666h-71v-40h71V666z M821,663h65v-34h-65V663z"/>
<path class="st0" d="M960,666h-71v-40h71V666z M892,663h65v-34h-65V663z"/>
<path class="st0" d="M960,626h-71v-40h71V626z M892,623h65v-34h-65V623z"/>
<path class="st0" d="M889,626h-71v-40h71V626z M821,623h65v-34h-65V623z"/>
<path class="st0" d="M89,666H18v-40h71V666z M21,663h65v-34H21V663z"/>
<path class="st0" d="M160,666H89v-40h71V666z M92,663h65v-34H92V663z"/>
<path class="st0" d="M231,666h-71v-40h71V666z M163,663h65v-34h-65V663z"/>
<path class="st0" d="M302,668h-71v-40h71V668z M234,665h65v-34h-65V665z"/>
<path class="st0" d="M231,626h-71v-40h71V626z M163,623h65v-34h-65V623z"/>
<path class="st0" d="M160,626H89v-40h71V626z M92,623h65v-34H92V623z"/>
<path class="st1" d="M890.3,542.4c0,0-13.1-44.6,2.5-77.5c6.6-13.7,8.6-29.3,5.7-44.2c-1.4-7.1-3.5-14-6.3-20.8"/>
<path class="st2" d="M901.9,379.1c0,5.5-9.9,21.3-9.9,21.3s-9.9-15.9-9.9-21.3c0-5.5,4.4-9.9,9.9-9.9
	C897.5,369.2,901.9,373.6,901.9,379.1L901.9,379.1z"/>
<path class="st2" d="M918.3,409.4c-3,4.6-19.9,12.5-19.9,12.5s0.3-18.7,3.3-23.3c3-4.6,9.1-5.9,13.7-2.9
	C919.9,398.7,921.2,404.8,918.3,409.4L918.3,409.4z"/>
<path class="st2" d="M917.5,461.2c-4.9,2.5-23.5,0.8-23.5,0.8s9.7-16,14.6-18.5c4.9-2.5,10.8-0.5,13.3,4.4
	C924.4,452.8,922.4,458.8,917.5,461.2L917.5,461.2z"/>
<path class="st2" d="M908.2,500.3c-4.4,3.2-23,4.7-23,4.7s6.9-17.4,11.3-20.7c4.4-3.3,10.6-2.3,13.8,2.1
	C913.6,490.8,912.6,497,908.2,500.3L908.2,500.3z"/>
<path class="st2" d="M877.6,423c3.9,3.8,22.2,7.8,22.2,7.8s-4.5-18.2-8.4-22c-3.9-3.8-10.2-3.7-14,0.2
	C873.6,412.9,873.6,419.2,877.6,423L877.6,423L877.6,423z"/>
<path class="st2" d="M867.2,468.8c4.9,2.5,23.5,0.8,23.5,0.8s-9.7-16-14.6-18.5c-4.9-2.5-10.8-0.5-13.3,4.4S862.3,466.4,867.2,468.8
	L867.2,468.8z"/>
<path class="st2" d="M863.2,514.7c4.4,3.2,23,4.7,23,4.7s-6.8-17.3-11.2-20.6c-4.4-3.3-10.6-2.3-13.8,2.1
	C857.9,505.3,858.8,511.5,863.2,514.7L863.2,514.7L863.2,514.7z"/>
<path class="st3" d="M901.9,379.1c0,5.5-9.9,21.3-9.9,21.3s-9.9-15.9-9.9-21.3c0-5.5,4.4-9.9,9.9-9.9
	C897.5,369.2,901.9,373.6,901.9,379.1L901.9,379.1z"/>
<path class="st3" d="M918.3,409.4c-3,4.6-19.9,12.5-19.9,12.5s0.3-18.7,3.3-23.3c3-4.6,9.1-5.9,13.7-2.9
	C919.9,398.7,921.2,404.8,918.3,409.4L918.3,409.4z"/>
<path class="st3" d="M917.5,461.2c-4.9,2.5-23.5,0.8-23.5,0.8s9.7-16,14.6-18.5c4.9-2.5,10.8-0.5,13.3,4.4
	C924.4,452.8,922.4,458.8,917.5,461.2L917.5,461.2z"/>
<path class="st3" d="M908.2,500.3c-4.4,3.2-23,4.7-23,4.7s6.9-17.4,11.3-20.7c4.4-3.3,10.6-2.3,13.8,2.1
	C913.6,490.8,912.6,497,908.2,500.3L908.2,500.3z"/>
<path class="st3" d="M877.6,423c3.9,3.8,22.2,7.8,22.2,7.8s-4.5-18.2-8.4-22c-3.9-3.8-10.2-3.7-14,0.2
	C873.6,412.9,873.6,419.2,877.6,423L877.6,423L877.6,423z"/>
<path class="st3" d="M867.2,468.8c4.9,2.5,23.5,0.8,23.5,0.8s-9.7-16-14.6-18.5c-4.9-2.5-10.8-0.5-13.3,4.4S862.3,466.4,867.2,468.8
	L867.2,468.8z"/>
<path class="st3" d="M863.2,514.7c4.4,3.2,23,4.7,23,4.7s-6.8-17.3-11.2-20.6c-4.4-3.3-10.6-2.3-13.8,2.1
	C857.9,505.3,858.8,511.5,863.2,514.7L863.2,514.7L863.2,514.7z"/>
<path class="st1" d="M168.8,542.7c0,0-13.3-45.3,2.5-78.6c6.7-13.9,8.8-29.7,5.8-44.9c-1.5-7.2-3.6-14.3-6.4-21.1"/>
<path class="st2" d="M180.6,377.1c0,5.5-10,21.7-10,21.7s-10.1-16.2-10.1-21.7c0-5.6,4.5-10,10.1-10
	C176.1,367.1,180.6,371.6,180.6,377.1L180.6,377.1z"/>
<path class="st2" d="M197.2,407.8c-3,4.7-20.2,12.7-20.2,12.7s0.3-19,3.3-23.6c2.9-4.7,9.1-6.2,13.8-3.3c4.7,2.9,6.2,9.1,3.3,13.8
	C197.3,407.6,197.3,407.7,197.2,407.8z"/>
<path class="st2" d="M196.5,460.3c-5,2.5-23.9,0.8-23.9,0.8s9.9-16.2,14.8-18.7c5-2.5,11-0.5,13.5,4.5S201.4,457.9,196.5,460.3
	L196.5,460.3z"/>
<path class="st2" d="M187,500c-4.5,3.3-23.4,4.8-23.4,4.8s7-17.7,11.4-21c4.5-3.3,10.8-2.4,14.1,2.1
	C192.4,490.3,191.5,496.6,187,500L187,500z"/>
<path class="st2" d="M155.9,421.6c4,3.9,22.5,7.9,22.5,7.9s-4.5-18.4-8.5-22.3c-3.9-3.9-10.3-3.9-14.2,0c-3.9,3.9-3.9,10.3,0,14.2
	C155.8,421.5,155.8,421.5,155.9,421.6L155.9,421.6z"/>
<path class="st2" d="M145.4,468.1c5,2.5,23.9,0.8,23.9,0.8s-9.9-16.2-14.8-18.7c-5-2.5-11-0.5-13.5,4.4
	C138.4,459.6,140.4,465.6,145.4,468.1L145.4,468.1z"/>
<path class="st2" d="M141.3,514.7c4.5,3.3,23.4,4.8,23.4,4.8s-7-17.7-11.4-21c-4.5-3.3-10.8-2.4-14.1,2.1
	C135.9,505,136.8,511.3,141.3,514.7L141.3,514.7L141.3,514.7z"/>
<path class="st4" d="M180.6,377.1c0,5.5-10,21.7-10,21.7s-10.1-16.2-10.1-21.7c0-5.6,4.5-10,10.1-10
	C176.1,367.1,180.6,371.6,180.6,377.1L180.6,377.1z"/>
<path class="st4" d="M197.2,407.8c-3,4.7-20.2,12.7-20.2,12.7s0.3-19,3.3-23.6c2.9-4.7,9.1-6.2,13.8-3.3c4.7,2.9,6.2,9.1,3.3,13.8
	C197.3,407.6,197.3,407.7,197.2,407.8z"/>
<path class="st4" d="M196.5,460.3c-5,2.5-23.9,0.8-23.9,0.8s9.9-16.2,14.8-18.7c5-2.5,11-0.5,13.5,4.5S201.4,457.9,196.5,460.3
	L196.5,460.3z"/>
<path class="st4" d="M187,500c-4.5,3.3-23.4,4.8-23.4,4.8s7-17.7,11.4-21c4.5-3.3,10.8-2.4,14.1,2.1
	C192.4,490.3,191.5,496.6,187,500L187,500z"/>
<path class="st4" d="M155.9,421.6c4,3.9,22.5,7.9,22.5,7.9s-4.5-18.4-8.5-22.3c-3.9-3.9-10.3-3.9-14.2,0c-3.9,3.9-3.9,10.3,0,14.2
	C155.8,421.5,155.8,421.5,155.9,421.6L155.9,421.6z"/>
<path class="st4" d="M145.4,468.1c5,2.5,23.9,0.8,23.9,0.8s-9.9-16.2-14.8-18.7c-5-2.5-11-0.5-13.5,4.4
	C138.4,459.6,140.4,465.6,145.4,468.1L145.4,468.1z"/>
<path class="st4" d="M141.3,514.7c4.5,3.3,23.4,4.8,23.4,4.8s-7-17.7-11.4-21c-4.5-3.3-10.8-2.4-14.1,2.1
	C135.9,505,136.8,511.3,141.3,514.7L141.3,514.7L141.3,514.7z"/>
<path class="st1" d="M92.7,541.6c0,0-10.2-34.5,1.9-59.9c5.1-10.6,6.7-22.6,4.4-34.2c-1.1-5.5-2.7-10.9-4.8-16"/>
<path class="st2" d="M101.7,415.3c0,4.2-7.7,16.5-7.7,16.5s-7.7-12.3-7.7-16.5c0-4.2,3.4-7.7,7.7-7.7S101.7,411.1,101.7,415.3z"/>
<path class="st2" d="M114.3,438.8c-2.3,3.5-15.4,9.7-15.4,9.7s0.2-14.5,2.5-18c2.3-3.6,7-4.6,10.6-2.3
	C115.6,430.5,116.6,435.2,114.3,438.8L114.3,438.8L114.3,438.8z"/>
<path class="st2" d="M113.8,478.8c-3.8,1.9-18.2,0.6-18.2,0.6s7.5-12.4,11.3-14.3c3.8-1.9,8.4-0.4,10.3,3.4
	C119.1,472.3,117.6,476.9,113.8,478.8L113.8,478.8L113.8,478.8z"/>
<path class="st2" d="M106.6,509c-3.4,2.5-17.8,3.7-17.8,3.7s5.3-13.5,8.7-16c3.4-2.5,8.2-1.8,10.7,1.6
	C110.7,501.7,110,506.5,106.6,509L106.6,509z"/>
<path class="st2" d="M82.9,449.3c3,3,17.2,6,17.2,6s-3.5-14-6.5-17c-3-2.9-7.9-2.9-10.8,0.2C79.7,441.5,79.8,446.3,82.9,449.3z"/>
<path class="st2" d="M74.8,484.7c3.8,1.9,18.2,0.6,18.2,0.6S85.5,473,81.7,471c-3.8-1.9-8.4-0.4-10.3,3.4
	C69.5,478.2,71.1,482.8,74.8,484.7L74.8,484.7z"/>
<path class="st2" d="M71.8,520.2c3.4,2.5,17.8,3.7,17.8,3.7s-5.3-13.5-8.7-16c-3.4-2.5-8.2-1.8-10.7,1.6
	C67.6,512.9,68.4,517.7,71.8,520.2L71.8,520.2L71.8,520.2z"/>
<path class="st3" d="M101.7,415.3c0,4.2-7.7,16.5-7.7,16.5s-7.7-12.3-7.7-16.5c0-4.2,3.4-7.7,7.7-7.7S101.7,411.1,101.7,415.3z"/>
<path class="st3" d="M114.3,438.8c-2.3,3.5-15.4,9.7-15.4,9.7s0.2-14.5,2.5-18c2.3-3.6,7-4.6,10.6-2.3
	C115.6,430.5,116.6,435.2,114.3,438.8L114.3,438.8L114.3,438.8z"/>
<path class="st3" d="M113.8,478.8c-3.8,1.9-18.2,0.6-18.2,0.6s7.5-12.4,11.3-14.3c3.8-1.9,8.4-0.4,10.3,3.4
	C119.1,472.3,117.6,476.9,113.8,478.8L113.8,478.8L113.8,478.8z"/>
<path class="st3" d="M106.6,509c-3.4,2.5-17.8,3.7-17.8,3.7s5.3-13.5,8.7-16c3.4-2.5,8.2-1.8,10.7,1.6
	C110.7,501.7,110,506.5,106.6,509L106.6,509z"/>
<path class="st3" d="M82.9,449.3c3,3,17.2,6,17.2,6s-3.5-14-6.5-17c-3-2.9-7.9-2.9-10.8,0.2C79.7,441.5,79.8,446.3,82.9,449.3z"/>
<path class="st3" d="M74.8,484.7c3.8,1.9,18.2,0.6,18.2,0.6S85.5,473,81.7,471c-3.8-1.9-8.4-0.4-10.3,3.4
	C69.5,478.2,71.1,482.8,74.8,484.7L74.8,484.7z"/>
<path class="st3" d="M71.8,520.2c3.4,2.5,17.8,3.7,17.8,3.7s-5.3-13.5-8.7-16c-3.4-2.5-8.2-1.8-10.7,1.6
	C67.6,512.9,68.4,517.7,71.8,520.2L71.8,520.2L71.8,520.2z"/>
<g class="st5">
	<rect y="80" class="st6" width="990" height="505"/>
	<path class="st3" d="M0,80v506h990V80L0,80z M44,124h429v187H44V124z M44,355h429v187H44V355z M946,542H517V355h429V542z M946,311
		H517V124h429V311z"/>
</g>
<linearGradient id="SVGID_1_" gradientUnits="userSpaceOnUse" x1="765.6225" y1="82.2309" x2="765.6225" y2="490.306" gradientTransform="matrix(1 0 0 -1 -105 689.11)">
	<stop  offset="0" style="stop-color:#808080;stop-opacity:0.25"/>
	<stop  offset="0.54" style="stop-color:#808080;stop-opacity:0.12"/>
	<stop  offset="1" style="stop-color:#808080;stop-opacity:0.1"/>
</linearGradient>
<path class="st7" d="M808,600.1c0,0-20.6-20.6-28.2-48h1.8l-0.8-2.4h0.8l-2.7-7.6c7.6-7.5,13.2-14.7,14.1-18.8
	c1.5-6.9,3.1-44.4,4-70.4l0.8,0.2c2-3.4,2.4-7.7,2.3-11.6c0.1-4.4-0.5-8.8-1.7-13l-3.7-37.1c-0.7-6.9-4.2-13.2-9.8-17.5l-37.6-29.2
	c2-2.7,4.5-4.9,7.4-6.5c2.2-1.1,4.7-1.9,6.1-3.9c2.6-3.5,0.4-8.8,2.2-12.8c1.3-3,4.6-4.7,6.6-7.4c4-5.5,1.1-13.1-1.9-19.2
	l-17.1-35.4c-4.8-9.8-9.5-19.7-16.2-28.3c-20.3-26.5-59.5-39.6-91.3-28.2c-9.1,3.3-17.5,9.5-21.3,18.4c-1.3,3.1-2.2,6.4-4.1,9.2
	c-4.4,6.1-12.9,7.2-19,11.6c-7.8,5.6-10.7,16.2-9.6,25.8s5.5,18.4,9.8,27c4.5,9,9.2,18.3,16.7,25.1c3.5,3.2,7.7,6.1,8.8,10.7
	c1,3.9-0.7,8-0.4,12.1c0.1,1.7,0.6,3.3,1.5,4.8c-16.8,2.1-28.8,16.1-34.1,36.9c-0.3,1.3-0.5,2-0.5,2l-2.4,21.5c0,0.9,0,1.8,0,2.7
	c-0.2,4.8,0.8,9.7,3,14v75.6l-72,45.6c-10.8,4.8-8.4,43.2,13.2,50.4s40.8-38.3,40.8-38.3c13.2-0.9,35.3-18.4,47.2-32
	c1.6,2.6,3.7,4.8,6.3,6.5c-8.6,19.3-25.5,59.3-22.8,67.5c1.6,4.9,43.8,5.3,89.3,4.4c1.2,0.6,2.4,1.2,3.7,1.6c4.9,1.6,9.6,0.6,14-2
	C760.4,602.6,808,600.1,808,600.1z M747.2,453.5c1-2.8,4.3-4.3,8.7-5v29.2L747.2,453.5z M743,351L743,351l0.1-0.2L743,351z"/>
<path class="st8" d="M634.9,417c0,0-2.3,80.9-4.6,91.2s-35.3,41-52.4,42.1c0,0-18.2,43.3-38.7,36.5s-22.8-43.3-12.5-47.8l68.4-43.3
	V409L634.9,417z"/>
<path class="st9" d="M633.2,516.1c0,0-29.6,63.8-26.2,74.1s193.7,0,193.7,0s-35.3-35.3-28.5-74.1H633.2z"/>
<path class="st8" d="M655.9,327c0,0,4.6,44.4-3.4,54.7s31.9,16,35.3,16s39.9-12.5,46.7-16c6.8-3.5,12.5-28.5,12.5-28.5
	s-34.2,6.8-44.4-33L655.9,327z"/>
<path class="st2" d="M644,213c-8.6,3.1-16.6,9.1-20.3,17.5c-1.3,2.9-2,6.1-3.9,8.7c-4.2,5.8-12.2,6.9-18,11
	c-7.4,5.4-10.1,15.4-9.1,24.5c1,9.1,5.2,17.5,9.3,25.6c4.3,8.6,8.8,17.4,15.8,23.8c3.3,3,7.3,5.8,8.4,10.2c0.9,3.7-0.7,7.6-0.4,11.5
	c0.8,9.5,12.1,13.9,21.6,14.9c4.1,0.5,8.8,0.5,11.7-2.5c1.5-1.5,2.2-3.6,3.2-5.5c6.4-13,22.2-18.3,35.2-11.9
	c5,2.5,9.1,6.5,11.7,11.4c2.2,4.3,3.5,9.4,7.5,12c6.2,4,14.4-0.7,19-6.5c4.6-5.8,7.8-13,14.3-16.5c2-1.1,4.4-1.8,5.8-3.7
	c2.5-3.4,0.4-8.4,2.1-12.2c1.3-2.9,4.4-4.4,6.2-7c3.8-5.2,1-12.5-1.8-18.2l-16.3-33.6c-4.5-9.3-9.1-18.7-15.4-26.9
	C711.4,214.6,674.3,202.1,644,213z"/>
<path class="st10" d="M685.6,389.7c0,0,44.4,0,55.8-41l37.4,29c5.2,4,8.5,10.1,9.2,16.6l3.5,35.3c0,0,4,13.1-0.6,21.1
	c0,0-47.3-12-48.4,1.7l33,92.3c0,0-51.3,1.1-64.9-8c0,0-55.8,11.4-69.5-1.1s-27.3-11.4-16-39.9c0,0-22.8-22.8-12.5-54.7
	s0.6,0.6,0.6,0.6s-22.1-10.8-21-31.4l2.3-20.5c0,0,0.1-0.7,0.4-1.9c7-27,25.6-42,51.8-32.4c7.7,2.8,15.5-0.4,15.5-0.4
	S653.7,391.9,685.6,389.7z"/>
<path class="st11" d="M685.6,387.4c0,0,44.4,0,55.8-41l37.4,29c5.2,4,8.5,10.1,9.2,16.6l3.5,35.3c0,0,4,13.1-0.6,21.1
	c0,0-47.3-12-48.4,1.7l33,92.3c0,0-51.3,1.1-64.9-8c0,0-55.8,11.4-69.5-1.1s-27.3-11.4-16-39.9c0,0-22.8-22.8-12.5-54.7
	s0.6,0.6,0.6,0.6s-22.1-10.8-21-31.3l2.3-20.5c0,0,0.1-0.7,0.4-1.9c7-27,25.6-42,51.8-32.4c7.7,2.8,15.5-0.4,15.5-0.4
	S653.7,389.7,685.6,387.4z"/>
<path class="st8" d="M791,426.1c0,0-2.3,80.9-4.6,91.2s-35.3,41-52.4,42.2c0,0-18.2,43.3-38.7,36.5s-22.8-43.3-12.5-47.8l68.4-43.3
	v-86.6L791,426.1z"/>
<path class="st10" d="M742,429c0,0,26.2,17.8,49,16.3c0,0,2.3-30.5-4.6-32.2C779.6,411.3,749.9,413,742,429z"/>
<path class="st11" d="M742,427.8c0,0,26.2,17.8,49,16.3c0,0,2.3-30.5-4.6-32.2C779.6,410.2,749.9,411.9,742,427.8z"/>
<path class="st10" d="M704.9,322.4l-46.7,6.8c0,0,1,10.3,1.3,22.1c18.5,7.8,39.9,4.3,55-8.9C710.5,337.6,707.2,331.1,704.9,322.4z"
	/>
<circle class="st8" cx="677.6" cy="300.8" r="52.4"/>
<path class="st10" d="M691.4,290.7c-2.2,0.8-4.6,1.2-7,1c-9.3-0.1-18.5-0.4-27.8-1c-7-0.5-14.5-1.3-19.9-5.8c-7.3-6-8.4-17.4-4.7-26
	c3.8-8.7,11.4-15.1,19.5-20c4.6-2.9,9.5-5.1,14.7-6.6c15-4.1,31.6,0.9,43.6,10.9s19.5,24.4,23.6,39.5c1.4,5.2,3.2,11.4,8.3,13
	c-3.4,5.7-11.8,6.6-17.8,3.8c-8.9-4.2-13.4-20.3-21.3-22.9C693.7,273.7,698.9,287.3,691.4,290.7z"/>
<path class="st2" d="M691.4,289.6c-2.2,0.8-4.6,1.2-7,1c-9.3-0.1-18.5-0.4-27.8-1c-7-0.5-14.5-1.3-19.9-5.8c-7.3-6-8.4-17.4-4.7-26
	c3.8-8.7,11.4-15.1,19.5-20c4.6-2.9,9.5-5.1,14.7-6.6c15-4.1,31.6,0.9,43.6,10.9s19.5,24.4,23.6,39.5c1.4,5.2,3.2,11.4,8.3,13
	c-3.4,5.7-11.8,6.6-17.8,3.8c-8.9-4.2-13.4-20.3-21.3-22.9C693.7,272.5,698.9,286.1,691.4,289.6z"/>
<path class="st10" d="M624.6,492.8c17.1-4.6,34.7-6.9,52.4-6.8"/>
<path class="st10" d="M742,431.2c0,0-17.1,12.5-12.5,19.4"/>
<g class="st5">
	
		<linearGradient id="SVGID_2_" gradientUnits="userSpaceOnUse" x1="579.605" y1="1.78" x2="579.605" y2="204.58" gradientTransform="matrix(1 0 0 -1 0 760)">
		<stop  offset="0" style="stop-color:#808080;stop-opacity:0.25"/>
		<stop  offset="0.54" style="stop-color:#808080;stop-opacity:0.12"/>
		<stop  offset="1" style="stop-color:#808080;stop-opacity:0.1"/>
	</linearGradient>
	<polygon class="st12" points="859.3,555.4 299.9,555.4 299.9,604.3 332.5,604.3 332.5,613.9 332.5,758.2 827.9,758.2 827.9,613.9 
		827.9,604.3 859.3,604.3 	"/>
</g>
<rect x="337.5" y="583.9" class="st13" width="485.3" height="174.3"/>
<rect x="337.5" y="593" class="st10" width="485.3" height="27.3"/>
<rect x="305.6" y="564.5" class="st13" width="548" height="46.7"/>
<path class="st14" d="M627,553h91.8c3.6,0,6.5,2.9,6.5,6.5v1.8c0,3.6-2.9,6.5-6.5,6.5H627c-3.6,0-6.5-2.9-6.5-6.5v-1.8
	C620.5,556,623.4,553,627,553z"/>
<g class="st5">
	
		<linearGradient id="SVGID_3_" gradientUnits="userSpaceOnUse" x1="574.02" y1="188.1497" x2="574.02" y2="368.2798" gradientTransform="matrix(1 0 0 -1 0 760)">
		<stop  offset="0" style="stop-color:#808080;stop-opacity:0.25"/>
		<stop  offset="0.54" style="stop-color:#808080;stop-opacity:0.12"/>
		<stop  offset="1" style="stop-color:#808080;stop-opacity:0.1"/>
	</linearGradient>
	<path class="st15" d="M472,391.7h204.1c15.6,0,28.2,12.6,28.2,28.2v123.7c0,15.6-12.6,28.2-28.2,28.2H472
		c-15.6,0-28.2-12.6-28.2-28.2V419.9C443.8,404.4,456.4,391.7,472,391.7z"/>
</g>
<path class="st16" d="M481.2,391.2h193.1c14.8,0,26.8,12,26.8,26.8v123.1c0,14.8-12,26.8-26.8,26.8H481.2c-14.8,0-26.8-12-26.8-26.8
	V418.1C454.4,403.2,466.4,391.2,481.2,391.2z"/>
<path class="st14" d="M481.2,389.6h193.1c14.8,0,26.8,12,26.8,26.8v123.1c0,14.8-12,26.8-26.8,26.8H481.2c-14.8,0-26.8-12-26.8-26.8
	V416.4C454.4,401.6,466.4,389.6,481.2,389.6z"/>
<circle class="st13" cx="582" cy="486.5" r="8"/>
<path class="st0" d="M443,80h-71V40h71V80z M375,77h65V43h-65V77z"/>
<path class="st0" d="M514,80h-71V40h71V80z M446,77h65V43h-65V77z"/>
<path class="st0" d="M585,80h-71V40h71V80z M517,77h65V43h-65V77z"/>
<path class="st0" d="M656,80h-71V40h71V80z M588,77h65V43h-65V77z"/>
<path class="st0" d="M585,40h-71V0h71V40z M517,37h65V3h-65V37z"/>
<path class="st0" d="M514,40h-71V0h71V40z M446,37h65V3h-65V37z"/>
<path class="st0" d="M180,80h-71V40h71V80z M112,77h65V43h-65V77z"/>
<path class="st0" d="M251,80h-71V40h71V80z M183,77h65V43h-65V77z"/>
<path class="st0" d="M251,40h-71V0h71V40z M183,37h65V3h-65V37z"/>
<path class="st0" d="M800,80h-71V40h71V80z M732,77h65V43h-65V77z"/>
<path class="st0" d="M871,80h-71V40h71V80z M803,77h65V43h-65V77z"/>
<path class="st0" d="M871,40h-71V0h71V40z M803,37h65V3h-65V37z"/>
</svg>
