<?xml version="1.0" encoding="utf-8"?>
<!-- Generator: Adobe Illustrator 16.0.0, SVG Export Plug-In . SVG Version: 6.00 Build 0)  -->
<!DOCTYPE svg PUBLIC "-//W3C//DTD SVG 1.1//EN" "http://www.w3.org/Graphics/SVG/1.1/DTD/svg11.dtd">
<svg version="1.1" id="Layer_1" xmlns="http://www.w3.org/2000/svg" xmlns:xlink="http://www.w3.org/1999/xlink" x="0px" y="0px"
	 width="512px" height="512px" viewBox="0 0 512 512" enable-background="new 0 0 512 512" xml:space="preserve">
<g>
	<path fill="none" d="M136.536,288.302l-2.019-0.717v9.182l7.484,7.481l13.085-4.353c0.141-0.045,0.292-0.071,0.453-0.101
		l0.782-0.05c0.063,0,0.122,0,0.129-0.003l0.281,0.051c0.165,0.028,0.331,0.06,0.52,0.112l13.021,4.341l7.486-7.479v-9.182
		l-2.021,0.717C163.187,292.755,149.087,292.753,136.536,288.302z"/>
	<path fill="none" d="M201.38,301.728l-18.653,0.008l-8.851,8.869l-0.196,0.163c-0.146,0.148-0.307,0.276-0.441,0.369l-0.237,0.142
		c-0.113,0.067-0.228,0.127-0.36,0.188c-0.072,0.033-0.146,0.064-0.218,0.091c-0.129,0.048-0.261,0.079-0.4,0.115l-0.194,0.048
		c-0.398,0.072-0.885,0.056-1.125,0.021l-14.562-4.798l-14.481,4.776c-0.4,0.069-0.796,0.069-1.173,0.007l-0.245-0.057
		c-0.129-0.031-0.259-0.065-0.396-0.118c-0.082-0.028-0.156-0.06-0.213-0.084c-0.125-0.058-0.247-0.122-0.381-0.203l-0.177-0.102
		c-0.175-0.119-0.343-0.251-0.506-0.409l-9.021-9.019l-18.656-0.008c-13.004,0-23.855,9.363-26.184,21.699h142.855
		C225.236,311.091,214.384,301.728,201.38,301.728z"/>
	<path fill="none" d="M113.555,195.091c0.108-0.101,0.216-0.189,0.331-0.271c0.077-0.053,0.146-0.101,0.218-0.144
		c0.12-0.074,0.242-0.139,0.367-0.194c0.084-0.038,0.168-0.074,0.24-0.101c0.129-0.045,0.257-0.086,0.439-0.127
		c0.074-0.019,0.148-0.034,0.221-0.045c0.132-0.022,0.266-0.034,0.388-0.039l0.192-0.002l0.103,0.002
		c0.123,0.005,0.247,0.014,0.372,0.036c0.108,0.017,0.208,0.036,0.319,0.063s0.218,0.058,0.333,0.101
		c0.118,0.039,0.226,0.086,0.319,0.13c0.086,0.043,0.166,0.069,0.168,0.064c0.175,0.096,18.157,9.647,38.573,9.647
		c20.468,0,38.419-9.561,38.527-9.623l0.211-0.086c0.103-0.05,0.204-0.094,0.305-0.13c0.122-0.043,0.24-0.077,0.348-0.103
		c0.103-0.024,0.201-0.045,0.321-0.063c0.118-0.017,0.23-0.028,0.467-0.036l0.216,0.005c0.108,0.004,0.216,0.014,0.302,0.026
		c0.125,0.019,0.245,0.043,0.372,0.074c0.099,0.026,0.197,0.053,0.297,0.089c0.118,0.038,0.223,0.083,0.355,0.146
		c0.086,0.039,0.17,0.084,0.271,0.144c0.098,0.058,0.192,0.12,0.292,0.194c0.099,0.069,0.187,0.146,0.242,0.194l9.369,9.326
		l-0.161-3.873c-1.17-27.806-23.895-49.588-51.734-49.588c-27.84,0-50.562,21.782-51.732,49.588l-0.161,3.877l9.15-9.148
		L113.555,195.091z"/>
	<path fill="none" d="M207.924,232.858v-18.651l-12.268-12.27l-0.955,0.437c-5.848,2.664-21.31,8.863-38.565,8.863
		c-16.613,0-31.295-5.551-38.568-8.863l-0.957-0.434l-12.263,12.265v18.653c0,28.554,23.231,51.788,51.788,51.788
		C184.693,284.646,207.924,261.412,207.924,232.858z M152.969,233.414h4.911v17.534h-4.911V233.414z M133.982,261.488l2.772-4.055
		c0.76,0.514,18.831,12.475,37.795-1.064l2.854,3.997c-7.671,5.479-15.293,7.259-21.96,7.259
		C143.162,267.625,134.122,261.582,133.982,261.488z"/>
	<path fill="none" d="M110.725,460.267c0,5.232,4.247,9.503,9.477,9.503h227.816c5.231,0,9.48-4.271,9.48-9.503
		c0-5.229-4.249-9.477-9.48-9.477H120.202C114.972,450.79,110.725,455.037,110.725,460.267z"/>
	<polygon fill="none" points="295.69,393.871 172.528,393.871 159.268,437.235 308.975,437.235 	"/>
	<path fill="none" d="M466.224,38.717H341.02c-15.566,0-28.386,11.982-29.661,27.23c-0.097,0.834-0.125,1.695-0.125,2.554v11.001
		v22.591v13.553v45.894c0,16.401,13.361,29.758,29.786,29.758h3.756c2.776,0,5.012,2.261,5.012,5.009v18.908l22.468-22.442
		c0.931-0.959,2.206-1.475,3.534-1.475h36.76h13.553h22.564h13.553h4.005c16.401,0,29.758-13.356,29.758-29.758V68.501
		C495.981,52.076,482.625,38.717,466.224,38.717z M349.638,71.031c0.936-0.909,2.259-1.472,3.535-1.472
		c1.304,0,2.628,0.563,3.563,1.472c0.907,0.933,1.473,2.259,1.473,3.561c0,1.3-0.542,2.602-1.496,3.535
		c-0.888,0.885-2.063,1.35-3.29,1.376h-0.494c-1.228-0.026-2.407-0.491-3.29-1.376c-0.93-0.933-1.472-2.235-1.472-3.535
		C348.166,73.266,348.708,71.964,349.638,71.031z M454.042,156.113h-5.376h-22.564h-13.553h-59.376
		c-2.748,0-5.007-2.261-5.007-5.009c0-2.777,2.259-5.009,5.007-5.009h59.376h13.553h22.564h5.376c2.777,0,5.012,2.232,5.012,5.009
		C459.054,153.852,456.819,156.113,454.042,156.113z M454.042,117.857h-5.376h-22.564h-13.553h-59.376
		c-1.717,0-3.237-0.885-4.148-2.211c-0.542-0.811-0.858-1.767-0.858-2.798c0-2.774,2.259-5.009,5.007-5.009h72.78h22.665h5.424
		c2.777,0,5.012,2.235,5.012,5.009C459.054,115.599,456.819,117.857,454.042,117.857z M454.042,79.602h-3.63h-29.298h-32.285
		c-0.345,0-0.69-0.026-1.007-0.099c-2.283-0.467-4.005-2.505-4.005-4.911c0-2.774,2.259-5.033,5.012-5.033h47.315h17.897
		c2.777,0,5.012,2.259,5.012,5.033C459.054,77.343,456.819,79.602,454.042,79.602z"/>
	<path fill="#57BC90" d="M110.893,301.728l18.656,0.008l9.021,9.019c0.163,0.158,0.331,0.29,0.506,0.409l0.177,0.102
		c0.134,0.081,0.257,0.146,0.381,0.203c0.058,0.024,0.132,0.056,0.213,0.084c0.137,0.053,0.266,0.087,0.396,0.118l0.245,0.057
		c0.376,0.063,0.772,0.063,1.173-0.007l14.481-4.776l14.562,4.798c0.24,0.034,0.727,0.051,1.125-0.021l0.194-0.048
		c0.139-0.036,0.271-0.067,0.4-0.115c0.072-0.026,0.146-0.058,0.218-0.091c0.132-0.061,0.247-0.12,0.36-0.188l0.237-0.142
		c0.134-0.093,0.295-0.221,0.441-0.369l0.196-0.163l8.851-8.869l18.653-0.008c13.004,0,23.856,9.363,26.185,21.699h7.129
		c-2.402-16.23-16.424-28.728-33.313-28.728l-16.593,0.005v-10.507l0.758-0.437c18.138-10.52,29.405-30.02,29.408-50.889v-30.175
		c0-32.432-26.384-58.818-58.815-58.818c-32.432,0-58.815,26.386-58.815,58.818v30.17c0.002,20.874,11.272,40.375,29.41,50.895
		l0.755,0.437v10.505l-16.588-0.005c-16.892,0-30.916,12.497-33.318,28.728h7.129C87.038,311.091,97.889,301.728,110.893,301.728z
		 M177.758,296.767l-7.486,7.479l-13.021-4.341c-0.189-0.053-0.355-0.084-0.52-0.112l-0.281-0.051
		c-0.007,0.003-0.067,0.003-0.129,0.003l-0.782,0.05c-0.161,0.029-0.312,0.056-0.453,0.101l-13.085,4.353l-7.484-7.481v-9.182
		l2.019,0.717c12.551,4.451,26.65,4.453,39.201,0l2.021-0.717V296.767z M104.404,200.496c1.17-27.806,23.893-49.588,51.732-49.588
		c27.839,0,50.564,21.782,51.734,49.588l0.161,3.873l-9.369-9.326c-0.055-0.048-0.144-0.125-0.242-0.194
		c-0.101-0.075-0.194-0.137-0.292-0.194c-0.101-0.06-0.185-0.105-0.271-0.144c-0.132-0.063-0.237-0.108-0.355-0.146
		c-0.101-0.036-0.199-0.063-0.297-0.089c-0.127-0.031-0.247-0.055-0.372-0.074c-0.086-0.012-0.194-0.022-0.302-0.026l-0.216-0.005
		c-0.237,0.007-0.35,0.019-0.467,0.036c-0.12,0.017-0.218,0.039-0.321,0.063c-0.108,0.026-0.226,0.06-0.348,0.103
		c-0.101,0.036-0.202,0.08-0.305,0.13l-0.211,0.086c-0.108,0.063-18.059,9.623-38.527,9.623c-20.416,0-38.397-9.551-38.573-9.647
		c-0.002,0.005-0.082-0.021-0.168-0.064c-0.093-0.043-0.201-0.091-0.319-0.13c-0.115-0.043-0.223-0.074-0.333-0.101
		s-0.211-0.045-0.319-0.063c-0.125-0.021-0.25-0.031-0.372-0.036l-0.103-0.002l-0.192,0.002c-0.122,0.005-0.256,0.017-0.388,0.039
		c-0.072,0.012-0.146,0.026-0.221,0.045c-0.182,0.041-0.31,0.082-0.439,0.127c-0.072,0.026-0.156,0.063-0.24,0.101
		c-0.125,0.055-0.247,0.12-0.367,0.194c-0.072,0.043-0.142,0.091-0.218,0.144c-0.115,0.082-0.223,0.17-0.331,0.271l-0.161,0.134
		l-9.15,9.148L104.404,200.496z M104.349,232.858v-18.653l12.263-12.265l0.957,0.434c7.273,3.312,21.955,8.863,38.568,8.863
		c17.255,0,32.717-6.199,38.565-8.863l0.955-0.437l12.268,12.27v18.651c0,28.554-23.231,51.788-51.787,51.788
		C127.58,284.646,104.349,261.412,104.349,232.858z"/>
	<path fill="#307167" d="M301.315,65.948H118.482c-3.731,0-6.776,3.045-6.776,6.776c0,3.758,3.045,6.779,6.776,6.779h182.732V68.501
		C301.215,67.643,301.244,66.782,301.315,65.948z"/>
	<path fill="#307167" d="M448.666,350.46c0,16.477-13.38,29.858-29.834,29.858H49.411c-16.476,0-29.858-13.382-29.858-29.858
		V109.362c0-16.452,13.382-29.859,29.858-29.859h41.963c3.733,0,6.779-3.021,6.779-6.779c0-3.731-3.045-6.776-6.779-6.776H49.411
		C25.471,65.948,6,85.421,6,109.362V350.46c0,23.94,19.471,43.411,43.411,43.411h108.948l-13.284,43.364h-24.874
		c-12.694,0-23.032,10.337-23.032,23.031c0,12.719,10.337,23.034,23.032,23.034h227.816c12.694,0,23.033-10.315,23.033-23.034
		c0-12.694-10.339-23.031-23.033-23.031h-24.871l-13.285-43.364h108.971c23.916,0,43.387-19.471,43.387-43.411V201.316h-13.553
		V350.46z M172.528,393.871H295.69l13.284,43.364H159.268L172.528,393.871z M348.018,450.79c5.231,0,9.48,4.247,9.48,9.477
		c0,5.232-4.249,9.503-9.48,9.503H120.202c-5.229,0-9.477-4.271-9.477-9.503c0-5.229,4.247-9.477,9.477-9.477H348.018z"/>
	<path fill="#307167" d="M412.549,279.744c0,3.73,3.017,6.776,6.776,6.776c3.731,0,6.776-3.046,6.776-6.776v-78.428h-13.553V279.744
		z"/>
	<path fill="#307167" d="M49.411,102.094c-4.002,0-7.268,3.264-7.268,7.268v220.841c0,3.733,3.021,6.752,6.776,6.752h370.406
		c3.731,0,6.776-3.019,6.776-6.752v-23.351c0-3.758-3.045-6.777-6.776-6.777c-3.76,0-6.776,3.02-6.776,6.777v16.574H234.693h-7.129
		H84.709H77.58H55.698v-207.78h245.517v-13.553H49.411z"/>
	<path fill="#307167" d="M238.811,362.322c2.345-2.256,2.719-5.941,0.935-8.648c-1.482-2.26-4.316-3.413-6.958-2.885
		c-2.887,0.577-5.134,3.052-5.412,5.987C226.791,362.902,234.365,366.588,238.811,362.322z"/>
	<path fill="#57BC90" d="M454.042,69.559h-17.897h-47.315c-2.753,0-5.012,2.259-5.012,5.033c0,2.405,1.722,4.443,4.005,4.911
		c0.316,0.072,0.662,0.099,1.007,0.099h32.285h29.298h3.63c2.777,0,5.012-2.259,5.012-5.009
		C459.054,71.818,456.819,69.559,454.042,69.559z"/>
	<path fill="#57BC90" d="M352.928,79.503h0.494c1.228-0.026,2.402-0.491,3.29-1.376c0.954-0.933,1.496-2.235,1.496-3.535
		c0-1.302-0.565-2.628-1.473-3.561c-0.935-0.909-2.259-1.472-3.563-1.472c-1.276,0-2.6,0.563-3.535,1.472
		c-0.93,0.933-1.472,2.235-1.472,3.561c0,1.3,0.542,2.602,1.472,3.535C350.521,79.012,351.7,79.477,352.928,79.503z"/>
	<path fill="#57BC90" d="M454.042,107.839h-5.424h-22.665h-72.78c-2.748,0-5.007,2.235-5.007,5.009c0,1.031,0.316,1.988,0.858,2.798
		c0.911,1.326,2.432,2.211,4.148,2.211h59.376h13.553h22.564h5.376c2.777,0,5.012-2.259,5.012-5.009
		C459.054,110.074,456.819,107.839,454.042,107.839z"/>
	<path fill="#57BC90" d="M454.042,146.095h-5.376h-22.564h-13.553h-59.376c-2.748,0-5.007,2.232-5.007,5.009
		c0,2.748,2.259,5.009,5.007,5.009h59.376h13.553h22.564h5.376c2.777,0,5.012-2.261,5.012-5.009
		C459.054,148.328,456.819,146.095,454.042,146.095z"/>
	<path fill="#307167" d="M466.224,28.699H341.02c-21.092,0-38.404,16.476-39.704,37.249c-0.071,0.834-0.101,1.695-0.101,2.554
		v11.001v22.591v13.553v45.894c0,20.257,15.179,37.249,35.287,39.531l3.267,0.37v25.88c0,2.036,1.203,3.854,3.093,4.64
		c1.842,0.76,4.053,0.319,5.477-1.105l29.538-29.54h34.673h13.553h22.564h13.553h4.005c21.95,0,39.776-17.85,39.776-39.776V68.501
		C506,46.551,488.174,28.699,466.224,28.699z M495.981,161.54c0,16.401-13.356,29.758-29.758,29.758h-4.005h-13.553h-22.564h-13.553
		h-36.76c-1.328,0-2.604,0.516-3.534,1.475l-22.468,22.442v-18.908c0-2.748-2.235-5.009-5.012-5.009h-3.756
		c-16.425,0-29.786-13.356-29.786-29.758v-45.894v-13.553V79.503V68.501c0-0.858,0.028-1.719,0.125-2.554
		c1.275-15.248,14.095-27.23,29.661-27.23h125.204c16.401,0,29.758,13.359,29.758,29.784V161.54z"/>
	<path fill="#57BC90" d="M174.55,256.369c-18.965,13.539-37.035,1.578-37.795,1.064l-2.772,4.055
		c0.139,0.094,9.179,6.137,21.461,6.137c6.667,0,14.289-1.779,21.96-7.259L174.55,256.369z"/>
	<rect x="152.969" y="233.414" fill="#57BC90" width="4.911" height="17.534"/>
</g>
</svg>
