<?xml version="1.0" encoding="utf-8"?>
<!-- Generator: Adobe Illustrator 16.0.0, SVG Export Plug-In . SVG Version: 6.00 Build 0)  -->
<!DOCTYPE svg PUBLIC "-//W3C//DTD SVG 1.1//EN" "http://www.w3.org/Graphics/SVG/1.1/DTD/svg11.dtd">
<svg version="1.1" id="Layer_1" xmlns="http://www.w3.org/2000/svg" xmlns:xlink="http://www.w3.org/1999/xlink" x="0px" y="0px"
	 width="512px" height="512px" viewBox="0 0 512 512" enable-background="new 0 0 512 512" xml:space="preserve">
<g>
	<path fill="#57BC90" d="M256.56,183.715c25.587,0,46.402-20.821,46.402-46.411c0-25.583-20.815-46.401-46.402-46.401
		c-25.588,0-46.406,20.818-46.406,46.401C210.154,162.895,230.972,183.715,256.56,183.715z M256.56,107.189
		c16.607,0,30.116,13.511,30.116,30.115c0,16.612-13.509,30.125-30.116,30.125c-16.609,0-30.12-13.513-30.12-30.125
		C226.439,120.7,239.95,107.189,256.56,107.189z"/>
	<path fill="#57BC90" d="M256.56,312.186c25.587,0,46.402-20.821,46.402-46.408c0-25.584-20.815-46.402-46.402-46.402
		c-25.588,0-46.406,20.818-46.406,46.402C210.154,291.364,230.972,312.186,256.56,312.186z M256.56,235.661
		c16.607,0,30.116,13.511,30.116,30.117c0,16.608-13.509,30.122-30.116,30.122c-16.609,0-30.12-13.514-30.12-30.122
		C226.439,249.172,239.95,235.661,256.56,235.661z"/>
	<path fill="#57BC90" d="M145.404,236.024c25.586,0,46.403-20.821,46.403-46.411c0-25.583-20.817-46.401-46.403-46.401
		c-25.588,0-46.406,20.818-46.406,46.401C98.998,215.204,119.816,236.024,145.404,236.024z M145.404,159.499
		c16.607,0,30.117,13.511,30.117,30.115c0,16.612-13.51,30.125-30.117,30.125c-16.609,0-30.12-13.513-30.12-30.125
		C115.284,173.009,128.795,159.499,145.404,159.499z"/>
	<path fill="#57BC90" d="M367.714,236.024c25.588,0,46.403-20.821,46.403-46.411c0-25.583-20.815-46.401-46.403-46.401
		s-46.406,20.818-46.406,46.401C321.308,215.204,342.126,236.024,367.714,236.024z M367.714,159.499
		c16.608,0,30.117,13.511,30.117,30.115c0,16.612-13.509,30.125-30.117,30.125c-16.609,0-30.12-13.513-30.12-30.125
		C337.594,173.009,351.104,159.499,367.714,159.499z"/>
	<path fill="#57BC90" d="M235.37,319.452c-0.342,0.07-32.348,7.11-45.716,42.768c-5.644-13.226-16.431-28.335-37.05-36.764
		l-0.282-0.105c-0.958-0.328-23.762-8.01-50.919-8.01c-5.402,0-10.677,0.304-15.724,0.909c1.387-15.205,8.37-44.959,41.019-56.059
		l2.448-0.833l-4.007-11.791l-2.448,0.833c-51.261,17.426-49.775,74.792-49.755,75.363l0.258,7.246l7.12-1.348
		c6.459-1.218,13.467-1.839,20.831-1.839c24.699,0,46.181,6.989,46.91,7.222c34.367,14.124,35.927,49.751,35.892,56.7l-0.061,3.505
		l9.831,0.277l2.589,0.025l0.077-2.949c0.995-53.655,39.884-62.613,41.539-62.967l2.527-0.541l-2.549-12.17L235.37,319.452z"/>
	<path fill="#57BC90" d="M389.181,250.401l-2.446-0.833l-4.008,11.791l2.449,0.833c32.646,11.095,39.629,40.854,41.021,56.059
		c-5.05-0.605-10.324-0.909-15.726-0.909c-27.16,0-49.963,7.682-51.014,8.04l-0.247,0.096c-20.571,8.413-31.35,23.518-36.993,36.738
		c-13.364-35.652-45.373-42.692-45.717-42.763l-2.527-0.525l-2.545,12.17l2.518,0.541c1.656,0.354,40.548,9.276,41.543,62.941
		l0.007,3.025l12.481-0.369l-0.043-3.101c-0.023-4.322,0.795-42.661,35.715-57.028c0.894-0.298,22.18-7.287,47.029-7.287
		c7.378,0,14.402,0.621,20.882,1.844l7.12,1.348l0.258-7.241C438.957,325.193,440.444,267.827,389.181,250.401z"/>
	<path fill="#57BC90" d="M160.713,249.518l41.05,29.318l-2.631-14.968c-0.083-0.51-2-12.641,1.766-26.347
		c5.062-18.417,17.693-30.812,37.546-36.839l2.475-0.752l-3.618-11.913l-2.475,0.75c-40.696,12.352-47.839,45.585-48.572,63.687
		l-18.306-13.074L160.713,249.518z"/>
	<path fill="#57BC90" d="M274.707,188.018l-3.615,11.913l2.475,0.752c47.128,14.304,39.656,61.186,39.318,63.165l-2.636,14.988
		l41.05-29.318l-7.233-10.138l-18.306,13.074c-0.735-18.102-7.878-51.334-48.578-63.687L274.707,188.018z"/>
	<path fill="#307167" d="M500.758,260.601c-1.616-1.677-4-2.643-6.545-2.643c-4.454,0-9.077,2.996-9.302,8.728
		c-4.853,123.339-105.502,220.686-229.125,221.609l-1.673,0.005c-120.813,0-222.841-99.608-227.438-222.048
		c-3.064-81.65,39.295-159.593,110.547-203.408c34.735-21.361,75.199-32.652,117.017-32.652c46.438,0,92.984,14.246,131.561,40.189
		h-38.063c-5.161,0-9.357,4.199-9.357,9.357c0,5.148,4.196,9.334,9.357,9.334l63.558-0.005c0.632,0.061,1.336,0.055,1.677,0.005
		h8.479V15.36c0-5.161-4.196-9.36-9.357-9.36c-5.148,0-9.334,4.199-9.334,9.36v44.8c-42.523-31.1-93.077-47.535-146.225-47.535
		c-71.996,0-140.258,30.64-187.283,84.065c-76.906,87.366-80.642,222.418-8.689,314.145c46.74,59.583,120.185,95.16,196.464,95.165
		h0.018c26.52,0,52.706-4.212,77.834-12.529c96.485-31.925,164.053-122.979,168.128-226.583
		C503.101,264.408,502.326,262.232,500.758,260.601z"/>
</g>
</svg>
