<?xml version="1.0" encoding="utf-8"?>
<!-- Generator: Adobe Illustrator 23.0.1, SVG Export Plug-In . SVG Version: 6.00 Build 0)  -->
<svg version="1.1" id="Layer_1" xmlns="http://www.w3.org/2000/svg" xmlns:xlink="http://www.w3.org/1999/xlink" x="0px" y="0px"
	 viewBox="0 0 120 120" style="enable-background:new 0 0 120 120;" xml:space="preserve">
<style type="text/css">
	.st0{fill:none;stroke:#BDC5D1;stroke-width:3;stroke-linecap:round;stroke-linejoin:round;stroke-miterlimit:10;}
	.st1{fill:none;stroke:#307167;stroke-width:3;stroke-linecap:round;stroke-linejoin:round;stroke-miterlimit:10;}
	
		.st2{opacity:0.5;fill:none;stroke:#BDC5D1;stroke-width:3;stroke-linecap:round;stroke-linejoin:round;stroke-miterlimit:10;enable-background:new    ;}
	.st3{opacity:0.5;}
	.st4{fill:#307167;}
	.st5{fill:none;stroke:#FFFFFF;stroke-width:3;stroke-linecap:round;stroke-linejoin:round;stroke-miterlimit:10;}
</style>
<polyline class="st0" points="85.3,109.2 85.3,91.3 103.1,91.3 103.1,109.2 "/>
<line class="st0" x1="94.2" y1="91.3" x2="94.2" y2="109.2"/>
<g>
	<rect x="85.3" y="36.9" class="st1" width="6" height="6"/>
	<rect x="97.2" y="36.9" class="st2" width="6" height="6"/>
</g>
<g class="st3">
	<rect x="85.3" y="49.8" class="st0" width="6" height="6"/>
	<rect x="97.2" y="49.8" class="st0" width="6" height="6"/>
</g>
<g class="st3">
	<rect x="85.3" y="62.6" class="st0" width="6" height="6"/>
	<rect x="97.2" y="62.6" class="st0" width="6" height="6"/>
</g>
<g class="st3">
	<rect x="85.3" y="75.4" class="st0" width="6" height="6"/>
	<rect x="97.2" y="75.4" class="st0" width="6" height="6"/>
</g>
<g class="st3">
	<rect x="17.3" y="69.4" class="st0" width="5.7" height="11.3"/>
	<rect x="28.6" y="69.4" class="st0" width="5.7" height="11.3"/>
</g>
<g class="st3">
	<rect x="17.3" y="86.7" class="st0" width="5.7" height="11.3"/>
	<rect x="28.6" y="86.7" class="st0" width="5.7" height="11.3"/>
</g>
<g>
	<rect x="17.3" y="52.1" class="st1" width="5.7" height="11.3"/>
	<rect x="28.6" y="52.1" class="st2" width="5.7" height="11.3"/>
</g>
<line class="st0" x1="71.7" y1="63.8" x2="77.9" y2="67.3"/>
<polyline class="st0" points="9.5,109.2 9.5,42.8 54.7,21.4 54.7,40.1 "/>
<polyline class="st0" points="77.9,109.2 77.9,4.9 110.5,19.9 110.5,109.2 "/>
<line class="st0" x1="101.5" y1="23" x2="104.4" y2="24.3"/>
<line class="st0" x1="84.3" y1="15" x2="97.2" y2="20.9"/>
<polyline class="st4" points="39.2,109.2 39.2,40.1 71.7,40.1 71.7,109.2 "/>
<g>
	<line class="st5" x1="63.9" y1="50.3" x2="46.9" y2="50.3"/>
	<line class="st5" x1="63.9" y1="60" x2="46.9" y2="60"/>
	<line class="st5" x1="63.9" y1="69.7" x2="46.9" y2="69.7"/>
	<line class="st5" x1="63.9" y1="79.5" x2="46.9" y2="79.5"/>
	<line class="st5" x1="63.9" y1="89.2" x2="46.9" y2="89.2"/>
	<line class="st5" x1="63.9" y1="98.9" x2="46.9" y2="98.9"/>
</g>
<line class="st1" x1="118.5" y1="109.2" x2="1.5" y2="109.2"/>
</svg>
