<?xml version="1.0" encoding="utf-8"?>
<!-- Generator: Adobe Illustrator 16.0.0, SVG Export Plug-In . SVG Version: 6.00 Build 0)  -->
<!DOCTYPE svg PUBLIC "-//W3C//DTD SVG 1.1//EN" "http://www.w3.org/Graphics/SVG/1.1/DTD/svg11.dtd">
<svg version="1.1" id="Layer_1" xmlns="http://www.w3.org/2000/svg" xmlns:xlink="http://www.w3.org/1999/xlink" x="0px" y="0px"
	 width="512px" height="512px" viewBox="0 0 512 512" enable-background="new 0 0 512 512" xml:space="preserve">
<g>
	<path fill="#BDC5D1" d="M60.567,140.649c-1.521-1.812-3.755-2.852-6.123-2.852c-1.875,0-3.7,0.665-5.139,1.876
		c-1.635,1.372-2.637,3.3-2.823,5.426c-0.183,2.126,0.473,4.199,1.848,5.833c5.15,6.129,11.299,10.518,17.779,12.694l1.557,0.524
		v13.635c0,4.409,3.588,7.995,7.997,7.995c4.404,0,7.988-3.586,7.988-7.995v-13.66l1.522-0.54
		c11.388-4.039,19.042-14.854,19.042-26.911c0-15.744-12.808-28.551-28.551-28.551c-6.93,0-12.566-5.636-12.566-12.564
		c0-6.926,5.636-12.562,12.566-12.562c4.248,0,8.64,2.08,12.705,6.016c3.066,2.968,8.336,2.883,11.304-0.188
		c3.061-3.166,2.981-8.238-0.188-11.301c-4.382-4.244-9.179-7.25-14.267-8.934l-1.566-0.518V54.449c0-4.409-3.583-7.995-7.988-7.995
		c-4.409,0-7.997,3.585-7.997,7.995v13.658l-1.521,0.54C54.762,72.686,47.113,83.502,47.113,95.56
		c0,15.742,12.808,28.549,28.551,28.549c6.926,0,12.558,5.636,12.558,12.567c0,6.923-5.632,12.557-12.558,12.557
		C70.581,149.233,65.222,146.185,60.567,140.649z"/>
	<path fill="#BDC5D1" d="M342.895,85.602l-69.133-71.536c-2.713-2.82-6.132-5.121-9.97-6.685c-0.08-0.027-0.231-0.091-0.553-0.243
		c-3.019-1.165-6.478-1.781-10.003-1.781H34.54C18.803,5.357,6,18.16,6,33.897v399.819c0,15.735,12.803,28.533,28.54,28.533h230.994
		v-15.984H34.54c-6.926,0-12.562-5.632-12.562-12.549V33.897c0-6.926,5.636-12.56,12.562-12.56h218.148v74.209
		c0,15.762,12.801,28.584,28.545,28.584h53.656v106.364h15.977V105.429C350.865,97.938,348.036,90.897,342.895,85.602z
		 M281.232,108.109c-6.927,0-12.567-5.636-12.567-12.562V31.766l62.717,64.945c2.267,2.316,3.507,5.413,3.507,8.717v2.477
		l-2.284,0.203H281.232z"/>
	<path fill="#BDC5D1" d="M227.55,136.676c0-4.409-3.587-7.997-7.997-7.997h-82.222c-4.414,0-8.001,3.588-8.001,7.997
		c0,4.404,3.588,7.988,8.001,7.988h82.222C223.962,144.664,227.55,141.08,227.55,136.676z"/>
	<path fill="#BDC5D1" d="M219.553,87.568h-82.222c-4.414,0-8.001,3.585-8.001,7.992c0,4.409,3.588,7.995,8.001,7.995h82.222
		c4.409,0,7.997-3.585,7.997-7.995C227.55,91.153,223.962,87.568,219.553,87.568z"/>
	<path fill="#BDC5D1" d="M137.332,213.991H55.105c-4.407,0-7.993,3.583-7.993,7.99c0,4.409,3.585,7.997,7.993,7.997h82.226
		c4.409,0,7.992-3.588,7.992-7.997C145.324,217.574,141.74,213.991,137.332,213.991z"/>
	<path fill="#BDC5D1" d="M75.664,255.1H55.105c-4.407,0-7.993,3.588-7.993,7.996c0,4.409,3.585,7.993,7.993,7.993h20.559
		c4.404,0,7.988-3.584,7.988-7.993C83.652,258.688,80.068,255.1,75.664,255.1z"/>
	<path fill="#BDC5D1" d="M137.332,255.1h-20.55c-4.409,0-7.997,3.588-7.997,7.996c0,4.409,3.588,7.993,7.997,7.993h20.55
		c4.409,0,7.992-3.584,7.992-7.993C145.324,258.688,141.74,255.1,137.332,255.1z"/>
	<path fill="#BDC5D1" d="M75.664,302.384H55.105c-4.407,0-7.993,3.584-7.993,7.993c0,4.404,3.585,7.992,7.993,7.992h20.559
		c4.404,0,7.988-3.588,7.988-7.992C83.652,305.968,80.068,302.384,75.664,302.384z"/>
	<path fill="#BDC5D1" d="M137.332,302.384h-20.55c-4.409,0-7.997,3.584-7.997,7.993c0,4.404,3.588,7.992,7.997,7.992h20.55
		c4.409,0,7.992-3.588,7.992-7.992C145.324,305.968,141.74,302.384,137.332,302.384z"/>
	<path fill="#BDC5D1" d="M75.664,343.493H55.105c-4.407,0-7.993,3.588-7.993,7.997c0,4.408,3.585,7.992,7.993,7.992h20.559
		c4.404,0,7.988-3.584,7.988-7.992C83.652,347.081,80.068,343.493,75.664,343.493z"/>
	<path fill="#BDC5D1" d="M137.332,343.493h-20.55c-4.409,0-7.997,3.588-7.997,7.997c0,4.408,3.588,7.992,7.997,7.992h20.55
		c4.409,0,7.992-3.584,7.992-7.992C145.324,347.081,141.74,343.493,137.332,343.493z"/>
	<path fill="#BDC5D1" d="M75.664,384.61H55.105c-4.407,0-7.993,3.588-7.993,7.997c0,4.4,3.585,7.988,7.993,7.988h20.559
		c4.404,0,7.988-3.588,7.988-7.988C83.652,388.198,80.068,384.61,75.664,384.61z"/>
	<path fill="#BDC5D1" d="M137.332,384.61h-20.55c-4.409,0-7.997,3.588-7.997,7.997c0,4.4,3.588,7.988,7.997,7.988h20.55
		c4.409,0,7.992-3.588,7.992-7.988C145.324,388.198,141.74,384.61,137.332,384.61z"/>
	<path fill="#65696F" d="M506,379.764c0,69.964-56.915,126.879-126.888,126.879c-43.839,0-82.592-22.357-105.378-56.246
		l-10.585-19.144c-7.003-15.744-10.926-33.166-10.926-51.489c0-69.972,56.926-126.891,126.889-126.891
		c20.938,0,40.752,5.096,58.2,14.137l19.108,12.2C486.561,302.451,506,338.861,506,379.764z"/>
	<path fill="#307167" d="M452.227,350.624c0,69.972-56.924,126.896-126.887,126.896c-43.85,0-82.59-22.365-105.376-56.245
		l-10.594-19.153c-6.998-15.743-10.92-33.165-10.92-51.497c0-69.964,56.924-126.885,126.89-126.885
		c20.938,0,40.751,5.098,58.19,14.144l19.118,12.194C432.788,273.32,452.227,309.729,452.227,350.624z"/>
	<path fill="#FFFFFF" d="M355.952,328.878l-23.518,22.63l-35.155-35.455c-3.73-3.73-9.791-3.73-13.521,0.005
		c-3.73,3.73-3.73,9.79,0,13.521l41.921,42.215c3.739,3.739,9.781,3.73,13.521,0l30.273-29.395c3.73-3.73,3.739-9.777,0-13.517
		C365.734,325.143,359.683,325.152,355.952,328.878z"/>
	<path fill="#FFFFFF" d="M325.33,256.682c-51.801,0-93.942,42.146-93.942,93.942c0,51.801,42.142,93.944,93.942,93.944
		s93.937-42.144,93.937-93.944C419.267,298.828,377.122,256.682,325.33,256.682z M333.89,424.925
		c0.634-1.285,0.999-2.713,0.999-4.239v-11.647c0-5.274-4.283-9.567-9.559-9.567c-5.283,0-9.567,4.293-9.567,9.567v11.647
		c0,1.526,0.366,2.954,1,4.239c-34.415-3.927-61.795-31.317-65.74-65.732c1.276,0.634,2.713,0.99,4.249,0.99h11.636
		c5.283,0,9.559-4.275,9.559-9.559c0-5.288-4.275-9.567-9.559-9.567h-11.636c-1.535,0-2.972,0.37-4.249,1.008
		c3.945-34.428,31.325-61.806,65.74-65.746c-0.634,1.281-1,2.714-1,4.235v11.656c0,5.283,4.284,9.563,9.567,9.563
		c5.275,0,9.559-4.279,9.559-9.563v-11.656c0-1.521-0.365-2.954-0.999-4.235c34.424,3.94,61.806,31.318,65.741,65.746
		c-1.275-0.638-2.713-1.008-4.239-1.008h-11.646c-5.284,0-9.568,4.279-9.568,9.567c0,5.283,4.284,9.559,9.568,9.559h11.646
		c1.526,0,2.964-0.356,4.239-0.99C395.687,393.607,368.313,420.998,333.89,424.925z"/>
</g>
</svg>
