<?xml version="1.0" encoding="utf-8"?>
<!-- Generator: Adobe Illustrator 16.0.0, SVG Export Plug-In . SVG Version: 6.00 Build 0)  -->
<!DOCTYPE svg PUBLIC "-//W3C//DTD SVG 1.1//EN" "http://www.w3.org/Graphics/SVG/1.1/DTD/svg11.dtd">
<svg version="1.1" id="Layer_1" xmlns="http://www.w3.org/2000/svg" xmlns:xlink="http://www.w3.org/1999/xlink" x="0px" y="0px"
	 width="512px" height="512px" viewBox="0 0 512 512" enable-background="new 0 0 512 512" xml:space="preserve">
<g>
	<g>
		<g>
			<path fill="#BDC5D1" d="M378.883,300.049H163.316c-4.959,0-8.983,4.02-8.983,8.979c0,4.96,4.024,8.983,8.983,8.983h215.566
				c4.952,0,8.976-4.023,8.976-8.983C387.858,304.068,383.835,300.049,378.883,300.049z"/>
		</g>
	</g>
	<g>
		<g>
			<path fill="#BDC5D1" d="M375.857,328.732H268.087c-4.959,0-8.98,4.02-8.98,8.979s4.021,8.983,8.98,8.983h107.771
				c4.952,0,8.976-4.024,8.976-8.983S380.81,328.732,375.857,328.732z"/>
		</g>
	</g>
	<g>
		<g>
			<g>
				<path fill="#BDC5D1" d="M479.004,135.328h-36.797c-4.748,0-8.601,3.856-8.601,8.608c0,4.753,3.853,8.609,8.601,8.609h36.797
					c5.396,0,9.786,4.39,9.786,9.786v257.556c0,5.403-4.39,9.793-9.786,9.793H74.271c-5.399,0-9.792-4.39-9.792-9.793v-91.981
					c0-4.756-3.854-8.608-8.607-8.608c-4.752,0-8.606,3.853-8.606,8.608v91.981c0,14.893,12.116,27.003,27.005,27.003h4.472
					l-12.17,24.336c-1.333,2.675-1.191,5.841,0.376,8.375c1.569,2.542,4.339,4.086,7.322,4.086h27.592
					c2.285,0,4.476-0.913,6.09-2.526l34.271-34.271h268.825l34.27,34.271c1.614,1.613,3.806,2.526,6.09,2.526h27.596
					c2.979,0,5.747-1.544,7.314-4.086c1.575-2.534,1.716-5.7,0.383-8.375l-12.173-24.336h4.476c14.887,0,26.996-12.11,26.996-27.003
					V162.331C506.008,147.446,493.891,135.328,479.004,135.328z M98.3,466.469H88.194l9.794-19.579h19.892L98.3,466.469z
					 M454.973,466.469l-19.58-19.579h19.892l9.794,19.579H454.973z"/>
			</g>
		</g>
		<g>
			<g>
				<path fill="#65696F" d="M457.881,56.12v127.315c0,15.35-12.461,27.81-27.807,27.81H104.749c-15.346,0-27.806-12.46-27.806-27.81
					V56.12c0-15.346,12.46-27.806,27.806-27.806h325.326C445.42,28.314,457.881,40.774,457.881,56.12z"/>
			</g>
		</g>
		<g>
			<g>
				<path fill="#BDC5D1" d="M460.602,392.883H92.67c-4.756,0-8.608,3.853-8.608,8.608c0,4.749,3.852,8.609,8.608,8.609h367.932
					c4.757,0,8.609-3.86,8.609-8.609C469.211,396.735,465.358,392.883,460.602,392.883z"/>
			</g>
		</g>
		<g>
			<g>
				<path fill="#307167" d="M386.946,127.063v127.315c0,15.35-12.469,27.811-27.814,27.811H33.808
					C18.462,282.188,6,269.728,6,254.378V127.063c0-15.346,12.462-27.806,27.808-27.806h325.324
					C374.478,99.256,386.946,111.717,386.946,127.063z"/>
			</g>
		</g>
		<g>
			<g>
				<path fill="#FFFFFF" d="M125.751,219.464H89.933v-64.1c0-3.653-2.963-6.616-6.612-6.616c-3.657,0-6.62,2.963-6.62,6.616v70.72
					c0,3.649,2.963,6.616,6.62,6.616h42.431c3.653,0,6.616-2.967,6.616-6.616C132.368,222.427,129.405,219.464,125.751,219.464z"/>
			</g>
		</g>
		<g>
			<g>
				<path fill="#FFFFFF" d="M152.86,148.748c-3.657,0-6.616,2.963-6.616,6.616v70.72c0,3.649,2.959,6.616,6.616,6.616
					s6.616-2.967,6.616-6.616v-70.72C159.476,151.711,156.517,148.748,152.86,148.748z"/>
			</g>
		</g>
		<g>
			<g>
				<path fill="#FFFFFF" d="M244.563,149.329c-3.333-1.505-7.251-0.016-8.753,3.318l-25.787,57.309l-25.787-57.309
					c-1.501-3.33-5.419-4.819-8.753-3.318c-3.333,1.501-4.815,5.416-3.317,8.749l31.822,70.716c1.068,2.375,3.431,3.903,6.035,3.903
					c2.604,0,4.967-1.528,6.036-3.903l31.822-70.716C249.378,154.744,247.897,150.83,244.563,149.329z"/>
			</g>
		</g>
		<g>
			<g>
				<path fill="#FFFFFF" d="M316.689,219.464h-42.887v-22.125h35.814c3.657,0,6.62-2.963,6.62-6.617c0-3.653-2.963-6.616-6.62-6.616
					h-35.814V161.98h42.887l0,0c3.657,0,6.62-2.963,6.62-6.616c0-3.653-2.963-6.616-6.62-6.616H267.19
					c-3.657,0-6.62,2.963-6.62,6.616v70.72c0,3.649,2.963,6.616,6.62,6.616h49.499c3.657,0,6.62-2.967,6.62-6.616
					C323.31,222.427,320.347,219.464,316.689,219.464z"/>
			</g>
		</g>
	</g>
</g>
</svg>
