<?xml version="1.0" encoding="utf-8"?>
<!-- Generator: Adobe Illustrator 23.0.1, SVG Export Plug-In . SVG Version: 6.00 Build 0)  -->
<svg version="1.1" id="Layer_1" xmlns="http://www.w3.org/2000/svg" xmlns:xlink="http://www.w3.org/1999/xlink" x="0px" y="0px"
	 viewBox="0 0 512 512" style="enable-background:new 0 0 512 512;" xml:space="preserve">
<style type="text/css">
	.st0{fill:#307167;stroke:#FFFFFF;stroke-width:9;stroke-miterlimit:10;}
	.st1{fill:#FFCA28;stroke:#FFFFFF;stroke-width:9;stroke-miterlimit:10;}
</style>
<g>
	<g>
		<path class="st0" d="M40.9,415.4c-12.1,0-21.9,9.8-21.9,21.9s9.8,21.9,21.9,21.9c12.1,0,21.9-9.8,21.9-21.9
			C62.7,425.2,52.9,415.4,40.9,415.4z"/>
		<path class="st0" d="M88.7,358c-17.3,0-31.4,14.1-31.4,31.4c0,17.3,14.1,31.4,31.4,31.4s31.4-14.1,31.4-31.4
			C120.1,372.1,106,358,88.7,358z M88.7,403.9c-8,0-14.5-6.5-14.5-14.5c0-8,6.5-14.4,14.5-14.4s14.5,6.5,14.5,14.4
			C103.1,397.4,96.6,403.9,88.7,403.9z"/>
		<path class="st0" d="M397.4,109.5c-3.7,0-7.5,0.2-11.8,0.8l-2.1,0.3l-0.8-2C365.4,63.3,321.4,33,273.2,33
			c-32.5,0-63.9,13.8-86.1,37.8l-0.9,1l-1.4-0.1c-2.3-0.2-4.7-0.4-7.2-0.4c-50.8,0-93.7,39.8-97.7,90.7l-0.1,1.3l-1.1,0.7
			C55.1,180.7,41,207.8,41,236.5c0,38.9,26.2,73.8,63.8,84.8l1.2,0.4l0.5,1.2c15.5,36.3,50.9,59.7,90.2,59.7
			c28.1,0,54.9-12.1,73.5-33.2l1.4-1.7l1.9,1.1c17.3,9.6,37,14.7,56.9,14.7c33.5,0,65.6-14.5,87.9-39.8l0.6-0.7l0.9-0.2
			c49.5-10.5,85.4-54.9,85.4-105.5C505.3,157.9,456.9,109.5,397.4,109.5z M397.4,300.7c-10.6,0-20.9-2-30.7-5.8
			c-6.1-2.5-13.6,0.8-16,6.9c-2.5,6.3,0.6,13.5,6.9,16c5.1,2,10.5,3.6,16.4,4.8l7.4,1.5l-6.6,3.6c-13.7,7.5-28.6,11.3-44.4,11.3
			c-27.8,0-53.9-12.3-71.6-33.8c-3.9-4.7-12.6-5.6-17.3-1.7c-2.6,2.1-4.1,5.1-4.4,8.3c-0.3,3.3,0.7,6.5,2.8,9
			c2.9,3.5,6.2,6.9,10,10.5l2,1.9l-1.9,2c-14,14.7-33,22.8-53.3,22.8c-23.9,0-46.4-11.8-60.2-31.4l-1.5-2.2l2.2-1.6
			c3.2-2.3,5-5.9,5-9.8c0-6.8-5.5-12.3-12.3-12.3c-35.4,0-64.2-28.8-64.2-64.2c0-35.4,28.8-64.2,64.2-64.2c6.8,0,12.3-5.5,12.3-12.3
			c0-6.8-5.5-12.3-12.3-12.3c-6.2,0-12.3,0.8-18.9,2.3l-4.8,1.1l1.5-4.7c10-30.3,38.1-50.6,69.9-50.6c14.6,0,28.7,4.2,40.8,12.3
			c5.5,3.6,13.4,2,17-3.4c1.8-2.7,2.5-6,1.8-9.3c-0.7-3.2-2.5-6-5.3-7.8c-4.1-2.7-8.4-5.1-13.2-7.2l-4.3-1.9l3.8-2.8
			c16-11.8,35-18.1,54.9-18.1c51.2,0,92.8,41.7,92.8,92.8c0,6.8,5.5,12.3,12.3,12.3c6.8,0,12.3-5.5,12.3-12.3
			c0-4.2-0.3-8.4-0.8-13.1l-0.4-2.9l2.9-0.2c1.8-0.1,3.5-0.2,5.1-0.2c45.9,0,83.3,37.4,83.3,83.3
			C480.7,263.3,443.4,300.7,397.4,300.7z"/>
	</g>
	<path class="st1" d="M244.3,316.5c-0.8-1-1.8-1.8-2.9-2.3c1.4,1.4,2.8,2.6,4.3,3.9C245.3,317.5,244.8,317,244.3,316.5z"/>
</g>
</svg>
