<?xml version="1.0" encoding="utf-8"?>
<!-- Generator: Adobe Illustrator 16.0.0, SVG Export Plug-In . SVG Version: 6.00 Build 0)  -->
<!DOCTYPE svg PUBLIC "-//W3C//DTD SVG 1.1//EN" "http://www.w3.org/Graphics/SVG/1.1/DTD/svg11.dtd">
<svg version="1.1" id="Layer_1" xmlns="http://www.w3.org/2000/svg" xmlns:xlink="http://www.w3.org/1999/xlink" x="0px" y="0px"
	 width="512px" height="512px" viewBox="0 0 512 512" enable-background="new 0 0 512 512" xml:space="preserve">
<g>
	<path fill="#BDC5D1" d="M469.895,304.011l-37.505-71.53v-29.194c0-76.206-44.714-146.241-113.864-178.427
		C292.159,12.331,263.847,6,234.388,6C125.808,6,37.396,94.307,37.313,202.858c0,53.528,22.198,105.425,60.876,142.424l0.292,0.266
		V497.56c0,4.647,3.792,8.44,8.441,8.44h222.955c4.644,0,8.436-3.793,8.436-8.44l0.11-45.09l44.954,6.761
		c0.136,0.026,0.479,0.052,1.012,0.052c26.471,0,48.001-21.53,48.001-48.001v-61.324h9.698c12.954,0,23.477-5.076,28.845-13.945
		C476.274,327.195,475.904,315.524,469.895,304.011z M456.456,327.195c-2.218,3.793-7.372,5.879-14.478,5.879h-18.029
		c-4.675,0-8.441,3.767-8.441,8.441v69.766c0,16.908-13.888,30.905-30.957,31.172l-53.474-7.961c-2.379-0.371-4.784,0.349-6.6,1.872
		c-1.867,1.79-2.937,4.138-2.937,6.49l-0.104,46.478H115.254V342.021c0-2.457-0.96-4.674-2.697-6.224
		c-37.098-34.108-58.362-82.617-58.362-133.02c0-99.362,80.826-180.216,180.193-180.216c26.788,0,52.695,5.822,77.006,17.31
		c63.303,29.434,104.198,93.514,104.198,163.201v31.359c0,1.468,0.317,2.749,0.934,3.899l38.407,73.349
		C458.141,317.768,458.699,323.402,456.456,327.195z"/>
	<g>
		<path fill="#307167" d="M143.128,204.983c-4.951,0-8.979,4.027-8.979,8.978c0,4.951,4.028,8.98,8.979,8.98
			c4.956,0,8.981-4.029,8.981-8.98C152.109,209.011,148.084,204.983,143.128,204.983z"/>
		<path fill="#307167" d="M162.759,181.429c-7.116,0-12.907,5.79-12.907,12.905c0,7.116,5.791,12.905,12.907,12.905
			s12.904-5.789,12.904-12.905C175.663,187.218,169.875,181.429,162.759,181.429z M162.759,200.272
			c-3.271,0-5.937-2.666-5.937-5.939c0-3.272,2.666-5.933,5.937-5.933s5.937,2.661,5.937,5.933
			C168.696,197.606,166.03,200.272,162.759,200.272z"/>
		<path fill="#307167" d="M289.545,79.367c-1.516,0-3.094,0.102-4.839,0.312l-0.874,0.106l-0.313-0.822
			c-7.113-18.541-25.199-30.999-45.005-30.999c-13.35,0-26.236,5.659-35.345,15.525l-0.381,0.413l-0.563-0.056
			c-0.932-0.093-1.936-0.18-2.969-0.18c-20.868,0-38.482,16.362-40.11,37.25l-0.042,0.528l-0.433,0.307
			c-9.704,6.842-15.497,17.975-15.497,29.777c0,15.963,10.765,30.29,26.179,34.84l0.511,0.15l0.208,0.488
			c6.362,14.903,20.896,24.533,37.041,24.533c11.54,0,22.547-4.973,30.201-13.644l0.595-0.679l0.798,0.439
			c7.121,3.947,15.202,6.031,23.36,6.031c13.775,0,26.93-5.953,36.094-16.331l0.245-0.279l0.365-0.08
			c20.327-4.322,35.084-22.541,35.084-43.319C333.855,99.244,313.976,79.367,289.545,79.367z M289.545,157.875
			c-4.34,0-8.574-0.803-12.588-2.383c-2.522-1.007-5.588,0.338-6.563,2.833c-1.022,2.595,0.253,5.535,2.844,6.559
			c2.107,0.836,4.309,1.476,6.742,1.959l3.044,0.601l-2.718,1.493c-5.618,3.078-11.751,4.642-18.238,4.642
			c-11.418,0-22.139-5.056-29.417-13.867c-1.609-1.95-5.183-2.298-7.105-0.686c-1.048,0.865-1.695,2.079-1.826,3.423
			c-0.123,1.346,0.274,2.661,1.134,3.698c1.195,1.442,2.533,2.847,4.093,4.295l0.837,0.777l-0.785,0.827
			c-5.759,6.052-13.533,9.381-21.885,9.381c-9.818,0-19.065-4.826-24.734-12.908l-0.636-0.908l0.9-0.651
			c1.296-0.945,2.045-2.414,2.045-4.03c0-2.787-2.267-5.057-5.058-5.057c-14.529,0-26.348-11.819-26.348-26.348
			c0-14.532,11.819-26.352,26.348-26.352c2.791,0,5.058-2.267,5.058-5.052c0-2.787-2.267-5.054-5.058-5.054
			c-2.536,0-5.071,0.311-7.752,0.951l-1.961,0.47l0.626-1.92c4.095-12.438,15.638-20.797,28.714-20.797
			c5.989,0,11.774,1.744,16.747,5.043c2.241,1.482,5.517,0.819,6.996-1.41c0.751-1.129,1.015-2.478,0.751-3.802
			c-0.271-1.324-1.036-2.464-2.16-3.211c-1.675-1.114-3.446-2.079-5.405-2.953l-1.764-0.789l1.555-1.149
			c6.584-4.861,14.378-7.43,22.537-7.43c21.021,0,38.126,17.103,38.126,38.126c0,2.787,2.265,5.054,5.053,5.054
			c2.786,0,5.053-2.267,5.053-5.055c0-1.705-0.112-3.468-0.344-5.388l-0.144-1.18l1.187-0.081c0.723-0.048,1.419-0.071,2.1-0.071
			c18.859,0,34.2,15.341,34.2,34.201C323.745,142.534,308.404,157.875,289.545,157.875z"/>
	</g>
	<path fill="#FFCA28" d="M226.682,164.356c-0.339-0.408-0.746-0.728-1.189-0.961c0.566,0.557,1.169,1.064,1.764,1.583
		C227.074,164.763,226.862,164.575,226.682,164.356z"/>
</g>
</svg>
