<?xml version="1.0" encoding="utf-8"?>
<!-- Generator: Adobe Illustrator 23.0.1, SVG Export Plug-In . SVG Version: 6.00 Build 0)  -->
<svg version="1.1" id="Layer_1" xmlns="http://www.w3.org/2000/svg" xmlns:xlink="http://www.w3.org/1999/xlink" x="0px" y="0px"
	 viewBox="0 0 104.2 51.8" style="enable-background:new 0 0 104.2 51.8;" xml:space="preserve">





<style type="text/css">
	.st0{fill:none;stroke:#307167;stroke-width:1;stroke-miterlimit:10;}
</style>

<defs>
<style>

	.st0 {
	stroke-dasharray: 3000;
	stroke-dashoffset:0;
	-webkit-animation: dash 10s linear forwards;
	-o-animation: dash 10s linear forwards;
	-moz-animation: dash 10s linear forwards;
	animation: dash 10s linear forwards;
	}


	.st0 {
	fill: transparent;
	}


	@-webkit-keyframes dash {
		from {
			stroke-dashoffset: 3000;
		}
		to{
			stroke-dashoffset: 0;
			}
	}
	


</style>
</defs>


<g>
	<path class="st0" d="M37.2,50.6H24.1c-0.3-1.9-0.6-3.7-1-5.3l-8.3-36l-2.5,28.2c-0.2,3-0.4,7.4-0.7,13.2H1.4
		C3.2,39.4,4.7,22.9,5.7,1.2h17.1c0.5,2.8,0.9,4.5,1,4.9l7.7,34L42.6,7.5c0.5-1.6,1.2-3.7,1.9-6.3h16.4c-0.3,4.9-0.4,8.3-0.4,10.2
		l-1,28.2c0,0.8-0.1,1.9-0.1,3.1c0,2.1,0.1,4.8,0.2,7.9H49.2c0.5-3.4,0.6-6.2,0.7-8.5L50.4,22c0-1,0-2.4,0-4.1c0-2.2,0-4.7-0.1-7.5
		L39,44.7C38.3,46.6,37.7,48.5,37.2,50.6z"/>
	<path class="st0" d="M67.3,1.2h19c0.5,0,0.9,0,1.3,0c3.7,0,6.7,0.1,9,1.2c4,2,6.1,5.9,6.1,11.5c0,9.8-6.4,16.3-17,16.3
		c-1.5,0-3-0.2-4.8-0.6l-2-8.1c1.9,0.5,3.7,0.8,5.5,0.8c5.4,0,8.4-3.1,8.4-7.5c0-4.3-2.7-5.6-8.5-5.6H78c-0.4,3.9-0.6,6.3-0.6,7.2
		l-0.7,19.2c-0.1,1.2-0.2,6.2-0.4,15.1H64.8C66,39.2,67,22.7,67.3,1.2z"/>
</g>
</svg>
