<?xml version="1.0" encoding="utf-8"?>
<!-- Generator: Adobe Illustrator 23.0.1, SVG Export Plug-In . SVG Version: 6.00 Build 0)  -->
<svg version="1.1" id="Layer_1" xmlns="http://www.w3.org/2000/svg" xmlns:xlink="http://www.w3.org/1999/xlink" x="0px" y="0px"
	 viewBox="0 0 3423.8 513.6" style="enable-background:new 0 0 3423.8 513.6;" xml:space="preserve">
<style type="text/css">
	.st0{fill:none;stroke:#000000;stroke-width:7;stroke-miterlimit:10;}
</style>
<g>
	<path class="st0" d="M1185.7,224.1c-0.8-6.4-2.2-13.4-4.2-21.4l-15.2-58.8c-2-7.8-3.6-17-5.6-30.2c-1.2,8.2-3.6,20.8-6,30.2
		l-14.8,59c-2.6,10-3.8,15.8-4.4,21.2h-39.8c-1-5.8-2-10-5-21.6l-32-120c-2.8-10.2-5.6-19.4-7.6-24.8h45.6c0.2,7.2,1.2,13.6,2.8,22
		l12.8,60.8c0.6,3,2,12.4,4.4,28.2c3-16.8,4.4-24,5.6-28.2l16-62c2.4-9,3.6-15.2,4.4-20.8h35.6c0.8,5.2,2,10.8,4.6,20.2l16.2,61.6
		c1.6,6.4,3,13,5.6,29.2c0.4-3.8,0.4-3.8,1.6-12.2c0.6-4.4,2-14,2.8-17.2l12.6-59.6c2-9.2,2.8-15,3-22h45.4
		c-2,5.4-4.8,14.8-7.4,24.8l-32,119.8c-2.6,9.4-4.4,17-5,21.8H1185.7z"/>
	<path class="st0" d="M1313.9,174.3c2,16.2,11.4,24.8,27.2,24.8c8,0,15-2.6,20.2-7.4c3-2.8,4.4-5,6-10.2l34.8,9.8
		c-4.6,10.4-7.6,15-13.2,20.6c-11.4,11.2-27.4,17-47.2,17c-19.6,0-35-5.6-46.4-17c-11.8-12-18.2-29-18.2-48.8
		c0-39.6,25.4-65.8,63.6-65.8c31.2,0,53,17,60,46.8c1.6,6.4,2.4,14.8,3,26.2c0,0.8,0,2,0.2,4H1313.9z M1365.9,146.7
		c-2.8-12.8-11.4-19.6-25.2-19.6c-14.2,0-22.8,6.4-26.2,19.6H1365.9z"/>
	<path class="st0" d="M1517.9,224.1c-15.2,0-21,0.2-29.6,0.6c1.2-8.6,1.6-15.4,1.6-29.4V85.9c0-10.6-0.4-19.2-1.6-28.8
		c10.2,0.6,13,0.6,29.4,0.6h52.4c32.4,0,51.4,15.6,51.4,42c0,12.2-4,21.8-11.6,28.6c-4.4,3.8-8,5.8-16.2,8.8
		c9.8,2.2,15,4.6,20.8,9.6c8.6,7.6,13,18.4,13,31.6c0,28.8-20.4,45.8-55.2,45.8H1517.9z M1564.3,121.9c10.6,0,17.2-6.2,17.2-16
		c0-9.8-6.2-15.4-17.6-15.4h-34.8v31.4H1564.3z M1529.1,191.1h36.8c12.6,0,20.2-7,20.2-18.8c0-11.6-7.6-18.4-20.4-18.4h-36.6V191.1z
		"/>
	<path class="st0" d="M1677.5,174.3c2,16.2,11.4,24.8,27.2,24.8c8,0,15-2.6,20.2-7.4c3-2.8,4.4-5,6-10.2l34.8,9.8
		c-4.6,10.4-7.6,15-13.2,20.6c-11.4,11.2-27.4,17-47.2,17c-19.6,0-35-5.6-46.4-17c-11.8-12-18.2-29-18.2-48.8
		c0-39.6,25.4-65.8,63.6-65.8c31.2,0,53,17,60,46.8c1.6,6.4,2.4,14.8,3,26.2c0,0.8,0,2,0.2,4H1677.5z M1729.5,146.7
		c-2.8-12.8-11.4-19.6-25.2-19.6c-14.2,0-22.8,6.4-26.2,19.6H1729.5z"/>
	<path class="st0" d="M1825.3,57.7c-1.2,8.4-1.6,16.6-1.6,30.2v106c0,12,0.4,19.6,1.6,30.2h-41.8c1.2-9,1.6-15.8,1.6-30.2v-106
		c0-14.2-0.4-22.6-1.6-30.2H1825.3z"/>
	<path class="st0" d="M1888.1,102.1c-1.2,8.2-1.6,16.2-1.6,30.2v61.6c0,10.8,0.6,21.6,1.6,30.2h-41.8c1.2-9.8,1.6-17.4,1.6-30.2
		v-61.6c0-13-0.4-21.2-1.6-30.2H1888.1z M1887.5,57.7v30h-40.6v-30H1887.5z"/>
	<path class="st0" d="M1940.9,174.3c2,16.2,11.4,24.8,27.2,24.8c8,0,15-2.6,20.2-7.4c3-2.8,4.4-5,6-10.2l34.8,9.8
		c-4.6,10.4-7.6,15-13.2,20.6c-11.4,11.2-27.4,17-47.2,17c-19.6,0-35-5.6-46.4-17c-11.8-12-18.2-29-18.2-48.8
		c0-39.6,25.4-65.8,63.6-65.8c31.2,0,53,17,60,46.8c1.6,6.4,2.4,14.8,3,26.2c0,0.8,0,2,0.2,4H1940.9z M1992.9,146.7
		c-2.8-12.8-11.4-19.6-25.2-19.6c-14.2,0-22.8,6.4-26.2,19.6H1992.9z"/>
	<path class="st0" d="M2082.1,102.1c0.4,4.8,1.4,9,3.8,17.2l18.6,62.2c0.2,0.4,0.4,1.2,0.8,2.2c0.6,2,0.6,2.2,1.6,5.6
		c0.6-1.8,0.8-2.8,1-3.6c0.2-0.4,0.4-1,0.6-2c0.4-1,0.6-1.8,0.8-2.4l18.6-62c2.2-7.4,3.4-12.8,3.8-17.2h44.4c-4,9-5.6,12.8-8.2,19.4
		l-33.6,85.8c-3.4,8.6-4.4,11.8-5.4,16.8h-43.8c-1-5-2-8.2-5.4-16.8l-33.6-85.8c-1.2-2.8-4-9.2-8.4-19.4H2082.1z"/>
	<path class="st0" d="M2219.5,174.3c2,16.2,11.4,24.8,27.2,24.8c8,0,15-2.6,20.2-7.4c3-2.8,4.4-5,6-10.2l34.8,9.8
		c-4.6,10.4-7.6,15-13.2,20.6c-11.4,11.2-27.4,17-47.2,17c-19.6,0-35-5.6-46.4-17c-11.8-12-18.2-29-18.2-48.8
		c0-39.6,25.4-65.8,63.6-65.8c31.2,0,53,17,60,46.8c1.6,6.4,2.4,14.8,3,26.2c0,0.8,0,2,0.2,4H2219.5z M2271.5,146.7
		c-2.8-12.8-11.4-19.6-25.2-19.6c-14.2,0-22.8,6.4-26.2,19.6H2271.5z"/>
	<path class="st0" d="M37.5,464.1c1.2-8.8,1.6-17.8,1.6-29.6V326.3c0-10.8-0.4-19.8-1.6-29.2c9.4,0.4,16.6,0.6,29.4,0.6h43.8
		c39.6,0,61.4,19,61.4,53.8c0,35.6-22.8,56.8-61.6,56.8H78.9v25.6c0,11.8,0.6,21.6,1.6,30.2H37.5z M108.7,374.3
		c14,0,22.2-7.8,22.2-21.6s-7.8-21-22.2-21H78.9v42.6H108.7z"/>
	<path class="st0" d="M219.9,414.3c2,16.2,11.4,24.8,27.2,24.8c8,0,15-2.6,20.2-7.4c3-2.8,4.4-5,6-10.2l34.8,9.8
		c-4.6,10.4-7.6,15-13.2,20.6c-11.4,11.2-27.4,17-47.2,17c-19.6,0-35-5.6-46.4-17c-11.8-12-18.2-29-18.2-48.8
		c0-39.6,25.4-65.8,63.6-65.8c31.2,0,53,17,60,46.8c1.6,6.4,2.4,14.8,3,26.2c0,0.8,0,2,0.2,4H219.9z M271.9,386.7
		c-2.8-12.8-11.4-19.6-25.2-19.6c-14.2,0-22.8,6.4-26.2,19.6H271.9z"/>
	<path class="st0" d="M320.7,402.9c0-40,25.6-65.4,66-65.4s66,25.4,66,65c0,39.8-26.4,66.2-66.2,66.2
		C346.3,468.7,320.7,443.1,320.7,402.9z M358.9,402.7c0,22.2,10.4,35.6,27.8,35.6s27.4-13,27.4-35.2c0-22.4-10.2-35.6-27.2-35.6
		C369.3,367.5,358.9,380.7,358.9,402.7z"/>
	<path class="st0" d="M468.9,500.3c1-8.6,1.6-18.6,1.6-29.2v-97.6c0-13-0.4-21.2-1.6-31.4h39.4v6.8c0,1.2-0.2,2.8-0.2,3.8
		c12-10,24.4-14.2,41-14.2c17.6,0,32,5.2,42.4,15.4c10.6,10.6,16,26.4,16,46.6c0,20.4-6,37-17.4,48.4
		c-10.2,10.2-24.8,15.8-41.2,15.8c-9.4,0-19.6-2-27-5.2c-5.2-2.2-8.2-4.4-13.8-9.2c0,1.8,0,4.4,0.2,7.2v13.8c0,11.2,0.4,20.4,1.6,29
		H468.9z M559.7,426.9c5.6-5.4,8.8-14.6,8.8-26c0-20.4-10.8-32.2-29.6-32.2c-16.6,0-30.2,14.6-30.2,32.8c0,18.8,13.4,33,31.4,33
		C547.7,434.5,554.5,431.9,559.7,426.9z"/>
	<path class="st0" d="M665.3,297.7c-1.2,8.4-1.6,16.6-1.6,30.2v106c0,12,0.4,19.6,1.6,30.2h-41.8c1.2-9,1.6-15.8,1.6-30.2v-106
		c0-14.2-0.4-22.6-1.6-30.2H665.3z"/>
	<path class="st0" d="M717.9,414.3c2,16.2,11.4,24.8,27.2,24.8c8,0,15-2.6,20.2-7.4c3-2.8,4.4-5,6-10.2l34.8,9.8
		c-4.6,10.4-7.6,15-13.2,20.6c-11.4,11.2-27.4,17-47.2,17c-19.6,0-35-5.6-46.4-17c-11.8-12-18.2-29-18.2-48.8
		c0-39.6,25.4-65.8,63.6-65.8c31.2,0,53,17,60,46.8c1.6,6.4,2.4,14.8,3,26.2c0,0.8,0,2,0.2,4H717.9z M769.9,386.7
		c-2.8-12.8-11.4-19.6-25.2-19.6c-14.2,0-22.8,6.4-26.2,19.6H769.9z"/>
	<path class="st0" d="M965,464.1c-1-7-3.2-14.4-8.6-29.6L938,381.3c-0.2-1-6.2-19.6-6.8-21.2c-2.2-7.2-2.2-7.2-3.2-10
		c1.2,12.6,2,29,2,39.6v43.4c0,13.8,0.4,22.6,1.6,31h-39.4c1.2-9,1.6-17.4,1.6-31V328.9c0-12-0.6-22.6-1.6-31.2H945
		c1.4,8.6,3,15,7.6,28.2l30,86.2l29.8-86.2c4.6-13.4,6.2-19.8,7.4-28.2h53c-1.2,9.6-1.6,17.8-1.6,31.2v104.2c0,15.2,0.4,23,1.6,31
		h-39.4c1.2-9.2,1.6-16.8,1.6-31v-43.6c0-4.8,0.6-19.8,1-26c0.6-10.6,0.6-10.6,0.8-13.6c-4.4,15.6-6.4,22.8-9,30l-19.4,54.8
		c-5,14.2-7.6,23-8.6,29.4H965z"/>
	<path class="st0" d="M1176.2,380.5c0-9.6-5.8-14-19-14c-12.8,0-19.6,4.2-22.6,14l-38.2-6.2c4-11.8,8.4-18.2,16.8-24.2
		c10.8-7.6,25.6-11.4,45-11.4c14.8,0,29.2,2.8,37,7c12.8,7,18.4,18,18.4,36v54c0,12.2,0.4,19.4,1.4,28.4h-38.8v-9.2
		c-11.2,8.6-22.4,12-38.8,12c-15.2,0-26.6-3.6-34.6-11c-7.2-6.6-11-16.2-11-27.2c0-12.6,5-22.6,14.6-29.2
		c10.2-7.2,23.6-11.4,41.6-13c7.8-0.8,13.8-1,28.2-1.4V380.5z M1176.2,410.7c-17.8,0.4-26.4,1.4-34.6,4c-7.2,2.4-11.6,7.4-11.6,13.2
		c0,7.2,6,11.4,16.4,11.4c8.2,0,17.2-3,22.6-7.6c4.6-4,7.2-9.4,7.2-15.4V410.7z"/>
	<path class="st0" d="M1276.8,297.7c-1.2,8.2-1.6,16.8-1.6,30.2v56.2l22-21.8c9.2-9.2,13.6-14.4,17.4-20.2h53.2
		c-7.8,6.8-10.2,9-21,19.6l-29,28l33.4,48.8c12.2,17.6,13,18.8,18.6,25.6h-51c-3-8.4-7.4-17.2-13.2-26.8l-15.2-24.8l-15,14.4v8
		c0,16.4,0.2,21.2,1.6,29.2h-40.8c1.2-9,1.6-17,1.6-30.2v-106c0-13.6-0.6-22.8-1.6-30.2H1276.8z"/>
	<path class="st0" d="M1414.2,414.3c2,16.2,11.4,24.8,27.2,24.8c8,0,15-2.6,20.2-7.4c3-2.8,4.4-5,6-10.2l34.8,9.8
		c-4.6,10.4-7.6,15-13.2,20.6c-11.4,11.2-27.4,17-47.2,17c-19.6,0-35-5.6-46.4-17c-11.8-12-18.2-29-18.2-48.8
		c0-39.6,25.4-65.8,63.6-65.8c31.2,0,53,17,60,46.8c1.6,6.4,2.4,14.8,3,26.2c0,0.8,0,2,0.2,4H1414.2z M1466.2,386.7
		c-2.8-12.8-11.4-19.6-25.2-19.6c-14.2,0-22.8,6.4-26.2,19.6H1466.2z"/>
	<path class="st0" d="M1674,433.9c0,12,0.4,20.8,1.6,30.2h-44.2c1.2-9.4,1.6-17.6,1.6-30.2V333.1h-23.6c-12.6,0-16,0.2-30.2,1.4
		v-38.2c6.6,0.8,17.6,1.4,29.8,1.4h87.6c14,0,22-0.4,31.2-1.4v38.2c-9-1-16.8-1.4-31.2-1.4H1674V433.9z"/>
	<path class="st0" d="M1741.4,464.1c1.2-9.4,1.6-17.8,1.6-30.2v-106c0-13.8-0.4-22.4-1.6-30.2h41.4c-1.2,8.8-1.6,16-1.6,30.2v21.2
		c0,1.6-0.2,4.8-0.2,6.6c12-11.6,24.6-16.6,41.6-16.6c13.6,0,24.4,3.8,31.8,11.2c8,8,11.4,17.8,11.4,33.6v50.2
		c0,11.6,0.6,21.6,1.6,30h-41.6c1.2-9.6,1.6-18,1.6-30.2v-41c0-8-0.8-11.6-3.2-15c-2.8-3.6-7.2-5.4-12.8-5.4
		c-11.4,0-22.2,7.6-30.2,20.8v40.6c0,11.4,0.4,19.8,1.6,30.2H1741.4z"/>
	<path class="st0" d="M1919.8,414.3c2,16.2,11.4,24.8,27.2,24.8c8,0,15-2.6,20.2-7.4c3-2.8,4.4-5,6-10.2l34.8,9.8
		c-4.6,10.4-7.6,15-13.2,20.6c-11.4,11.2-27.4,17-47.2,17c-19.6,0-35-5.6-46.4-17c-11.8-12-18.2-29-18.2-48.8
		c0-39.6,25.4-65.8,63.6-65.8c31.2,0,53,17,60,46.8c1.6,6.4,2.4,14.8,3,26.2c0,0.8,0,2,0.2,4H1919.8z M1971.8,386.7
		c-2.8-12.8-11.4-19.6-25.2-19.6c-14.2,0-22.8,6.4-26.2,19.6H1971.8z"/>
	<path class="st0" d="M2096,326.5c0-13.6-0.4-20.2-1.8-29.4c8,0.4,13,0.6,29.6,0.6h41.8c24.6,0,44.4,6.8,57.8,19.8
		c14.6,14.4,22,35.4,22,62c0,27.4-8,49.4-23.2,64.6c-13.4,13.2-32.4,20-56.2,20h-42.2c-15.4,0-21,0.2-29.4,0.6
		c1.2-8.8,1.6-15.4,1.6-29.2V326.5z M2162.4,429.1c13,0,22.2-3.4,29.4-10.6c8.2-8.4,12.6-21.8,12.6-38.4c0-17-3.8-29.4-11.6-37.2
		c-7-7-16.6-10.2-31-10.2h-26.2v96.4H2162.4z"/>
	<path class="st0" d="M2305.4,342.1c-1.2,8.2-1.6,16.2-1.6,30.2v61.6c0,10.8,0.6,21.6,1.6,30.2h-41.8c1.2-9.8,1.6-17.4,1.6-30.2
		v-61.6c0-13-0.4-21.2-1.6-30.2H2305.4z M2304.8,297.7v30h-40.6v-30H2304.8z"/>
	<path class="st0" d="M2340,372.9c-9.4,0-15.6,0.4-22.4,1.4v-33.6c5.6,0.8,14.8,1.4,22.4,1.4h5.4v-9.4c0-26.4,15-38.6,47.6-38.6
		c11.2,0,19.4,1.2,30.4,4.2l-6.2,29.4c-6.2-3.4-12.2-5-19.8-5c-9.8,0-13.6,4-13.6,14.4v5h5.8c8.4,0,19.2-0.6,26.6-1.4v33.6
		c-8.4-1-15-1.4-26.2-1.4h-6.2v61c0,13.8,0.4,20.4,1.6,30.2h-41.6c1.2-9.8,1.6-17.2,1.6-30.2v-61H2340z"/>
	<path class="st0" d="M2448.8,372.9c-9.4,0-15.6,0.4-22.4,1.4v-33.6c5.6,0.8,14.8,1.4,22.4,1.4h5.4v-9.4c0-26.4,15-38.6,47.6-38.6
		c11.2,0,19.4,1.2,30.4,4.2l-6.2,29.4c-6.2-3.4-12.2-5-19.8-5c-9.8,0-13.6,4-13.6,14.4v5h5.8c8.4,0,19.2-0.6,26.6-1.4v33.6
		c-8.4-1-15-1.4-26.2-1.4h-6.2v61c0,13.8,0.4,20.4,1.6,30.2h-41.6c1.2-9.8,1.6-17.2,1.6-30.2v-61H2448.8z"/>
	<path class="st0" d="M2575.8,414.3c2,16.2,11.4,24.8,27.2,24.8c8,0,15-2.6,20.2-7.4c3-2.8,4.4-5,6-10.2l34.8,9.8
		c-4.6,10.4-7.6,15-13.2,20.6c-11.4,11.2-27.4,17-47.2,17c-19.6,0-35-5.6-46.4-17c-11.8-12-18.2-29-18.2-48.8
		c0-39.6,25.4-65.8,63.6-65.8c31.2,0,53,17,60,46.8c1.6,6.4,2.4,14.8,3,26.2c0,0.8,0,2,0.2,4H2575.8z M2627.8,386.7
		c-2.8-12.8-11.4-19.6-25.2-19.6c-14.2,0-22.8,6.4-26.2,19.6H2627.8z"/>
	<path class="st0" d="M2771.8,378.1c-9.2-2.8-14.2-3.8-20.4-3.8c-10.2,0-18,3.6-23.8,10.8c-3.8,4.8-5.2,9-6,17.8v31.2
		c0,12.8,0.4,20.4,1.6,30h-41.4c1.2-10,1.6-17.2,1.6-30.2v-61.6c0-14.6-0.4-21.6-1.6-30.2h39.8v15.8c9.8-12.8,21.8-18.2,40-18.2
		c6.4,0,10.4,0.4,19.8,2.4L2771.8,378.1z"/>
	<path class="st0" d="M2825,414.3c2,16.2,11.4,24.8,27.2,24.8c8,0,15-2.6,20.2-7.4c3-2.8,4.4-5,6-10.2l34.8,9.8
		c-4.6,10.4-7.6,15-13.2,20.6c-11.4,11.2-27.4,17-47.2,17c-19.6,0-35-5.6-46.4-17c-11.8-12-18.2-29-18.2-48.8
		c0-39.6,25.4-65.8,63.6-65.8c31.2,0,53,17,60,46.8c1.6,6.4,2.4,14.8,3,26.2c0,0.8,0,2,0.2,4H2825z M2877,386.7
		c-2.8-12.8-11.4-19.6-25.2-19.6c-14.2,0-22.8,6.4-26.2,19.6H2877z"/>
	<path class="st0" d="M2931,464.1c1.2-9.4,1.6-17.8,1.6-30.2v-61.6c0-13.8-0.4-22.2-1.6-30.2h39.8v8.4c0,1.2-0.2,4.2-0.2,5.6
		c12.6-12,24.8-17,41.2-17c13.8,0,24.8,3.8,32.2,11.2c8,8,11.4,17.8,11.4,33.6v50.2c0,11.6,0.6,21.6,1.6,30h-41.6
		c1.2-9.6,1.6-18,1.6-30.2v-41c0-8-0.8-11.4-3.2-14.8c-2.6-3.6-7.2-5.6-13.2-5.6c-11.2,0-21.2,7-29.8,21v40.4
		c0,11.4,0.4,19.8,1.6,30.2H2931z"/>
	<path class="st0" d="M3159.6,386.5c-1.8-6-3-8.8-5.6-11.8c-4-4.6-9.6-7-16.8-7c-16.2,0-25.8,12.8-25.8,34.8
		c0,21.6,10.2,35.6,26.2,35.6c7.8,0,15-3.2,19-8.8c1.8-2.6,2.8-4.6,3.6-9.2l36.8,5.8c-2.2,8.6-4.6,14-8.4,19.8
		c-10,14.8-28.2,23-51.4,23c-19.2,0-35.6-6-46.6-17.2c-11.6-11.4-18-29-18-48.6c0-40,25.2-65.6,64.2-65.6
		c30.8,0,52.2,15.2,58.8,41.8L3159.6,386.5z"/>
	<path class="st0" d="M3244.2,414.3c2,16.2,11.4,24.8,27.2,24.8c8,0,15-2.6,20.2-7.4c3-2.8,4.4-5,6-10.2l34.8,9.8
		c-4.6,10.4-7.6,15-13.2,20.6c-11.4,11.2-27.4,17-47.2,17c-19.6,0-35-5.6-46.4-17c-11.8-12-18.2-29-18.2-48.8
		c0-39.6,25.4-65.8,63.6-65.8c31.2,0,53,17,60,46.8c1.6,6.4,2.4,14.8,3,26.2c0,0.8,0,2,0.2,4H3244.2z M3296.2,386.7
		c-2.8-12.8-11.4-19.6-25.2-19.6c-14.2,0-22.8,6.4-26.2,19.6H3296.2z"/>
</g>
</svg>
