<?xml version="1.0" encoding="utf-8"?>
<!-- Generator: Adobe Illustrator 23.0.1, SVG Export Plug-In . SVG Version: 6.00 Build 0)  -->
<svg version="1.1" id="Layer_1" xmlns="http://www.w3.org/2000/svg" xmlns:xlink="http://www.w3.org/1999/xlink" x="0px" y="0px"
	 viewBox="0 0 440 512" style="enable-background:new 0 0 440 512;" xml:space="preserve">
<style type="text/css">
	.st0{fill:#57BC90;}
	.st1{fill:#307167;}
</style>
<g>
	<g>
		<path class="st0" d="M164.1,176.5l-1.3-0.5v-37.7l2.1,0.2c7.7,0.6,11.6,2.4,19.6,6.4c3.4,1.7,7.2,0.5,9.5-3.4
			c0.8-1.4,4.7-8.7-0.5-13.1c-8.6-7.1-24.1-7.7-28.6-7.7h-1.9v-7c0-1.5-2.3-3-4.7-3c-2.2,0-4.7,1.3-4.7,2.9v7.1l-1.7,0.2
			c-23.3,3.1-36.1,15.9-36.1,36c0,23.4,18.6,30.5,36.5,37.3l1.2,0.5v42.2l-2.1-0.3c-10.4-1.2-15.8-5.3-23.9-11.5l-1.9-1.5
			c-1.5-1.1-2.9-1.6-4.3-1.6c-5.2,0-9,7.7-9,11.7c0,2.3,0.9,4.7,2.7,7.1c7.6,10.3,24.3,14.9,36.6,14.9h1.9v7.4c0,1.4,2,3,4.7,3
			c2.3,0,4.7-1.5,4.7-2.9v-7.7l1.6-0.2c22.3-3.5,35.2-17.8,35.2-39.4C199.7,193.9,185.5,184.2,164.1,176.5z M155,173.2l-2.6-1.1
			c-12.5-5-16.8-9.4-16.8-17.5c0-5.8,3-13.3,17.2-15.5l2.2-0.4L155,173.2L155,173.2z M163.6,236.7l-2.3,0.5V198l2.7,1.2
			c13.9,6.1,15.7,13.3,15.7,19.7C179.8,228.1,174,234.5,163.6,236.7z"/>
	</g>
	<path class="st1" d="M274.6,453c-1.8,0-3.5,0.7-4.7,2c-1.2,1.2-2,3-2,4.7s0.7,3.5,2,4.7c1.2,1.2,2.9,1.9,4.7,1.9
		c1.8,0,3.5-0.7,4.7-1.9c1.2-1.2,2-3,2-4.7c0-1.8-0.7-3.5-2-4.7C278.1,453.8,276.4,453,274.6,453z"/>
	<path class="st0" d="M196.9,30.9h-62.1c-3.7,0-6.7,3-6.7,6.7s3,6.7,6.7,6.7h62.1c3.7,0,6.7-3,6.7-6.7S200.6,30.9,196.9,30.9z"/>
	<path class="st1" d="M221.2,436.2h-164c-10.7,0-19.1-8.3-19.1-18.9v-31.7l167.4,0l-9.7-13.3l-157.7,0V296c0-3.7-3-6.7-6.7-6.7
		s-6.7,3-6.7,6.7v121.4c0,17.8,14.6,32.3,32.5,32.3h164.1L221.2,436.2z"/>
	<path class="st1" d="M228.6,408.9l3.8,2.5l-3.7,2.7c-4.3,3.2-6.7,8-6.7,13.3l0,11.1v0.1l0,15.2h0l0,45.4c0,3.7,3,6.7,6.7,6.7
		c3.7,0,6.7-3,6.7-6.7l0.1-75.1H402l0,75.1c0,3.7,3,6.7,6.7,6.7c3.7,0,6.7-3,6.7-6.7l0-71.9c0-9.1-7.4-16.6-16.6-16.6h-12.1V304.2
		c0-37.9-8.8-75.9-25.4-110c-15.9-32.5-23.8-61.7-52-84.6l-1.2-1V38.9c0-18.1-14.6-32.9-32.6-32.9H58.1C40.2,6,25.6,20.7,25.6,38.9
		v177.9c0,3.7,3,6.7,6.7,6.7s6.7-3,6.7-6.7V75.1h255.6V316c0,9.1-7.4,16.4-16.5,16.4c-3.5,0-7-1.2-9.8-3.2l-62.5-46.5
		c-5.4-4-12-6.2-18.7-6.2c-11.8,0-22.4,6.5-27.8,17c-5.4,10.4-4.5,22.9,2.3,32.5l34.3,48.3l0.1,0.2l11.2,15.4
		C213.4,397.2,220.6,403.7,228.6,408.9z M39,61.7V38.9c0-10.6,8.6-19.2,19.2-19.2h217.3c10.6,0,19.2,8.6,19.2,19.2v22.9L39,61.7
		L39,61.7z M171.3,299.5c3.1-6.1,9.1-9.7,15.9-9.7c3.8,0,7.6,1.3,10.7,3.6l62.5,46.5c5.1,3.8,11.4,5.9,17.8,5.9
		c16.5,0,29.9-13.4,29.9-29.8V126l5.4,5c30.4,58.3,63.1,103.9,59.9,173.2v106.6H280c-26,0-50.6-12.7-65.6-33.9l-41.7-58.8
		C168.6,312.5,168.1,305.6,171.3,299.5z"/>
	<path class="st0" d="M165.8,403.6c-1.8,0-3.5,0.7-4.7,2c-1.2,1.2-2,3-2,4.7c0,1.8,0.7,3.5,2,4.7c1.2,1.2,2.9,1.9,4.7,1.9
		c1.8,0,3.6-0.7,4.7-1.9c1.2-1.2,2-3,2-4.7c0-1.8-0.7-3.5-2-4.7C169.3,404.3,167.6,403.6,165.8,403.6z"/>
	<path class="st1" d="M31.3,259.9c1.8,0,3.5-0.7,4.7-1.9c1.2-1.2,2-3,2-4.7s-0.7-3.5-2-4.7c-1.2-1.2-3-2-4.7-2c-1.8,0-3.5,0.7-4.7,2
		s-2,3-2,4.7c0,1.8,0.7,3.5,2,4.7C27.8,259.3,29.5,259.9,31.3,259.9z"/>
</g>
</svg>
