<?xml version="1.0" encoding="utf-8"?>
<!-- Generator: Adobe Illustrator 23.0.1, SVG Export Plug-In . SVG Version: 6.00 Build 0)  -->
<svg version="1.1" id="Layer_1" xmlns="http://www.w3.org/2000/svg" xmlns:xlink="http://www.w3.org/1999/xlink" x="0px" y="0px"
	 viewBox="0 0 512 512" style="enable-background:new 0 0 512 512;" xml:space="preserve">
<style type="text/css">
	.st0{fill:#FFFFFF;}
	.st1{fill:#307167;}
</style>
<g>
	<path class="st0" d="M469.9,304l-37.5-71.5v-29.2c0-76.2-44.7-146.2-113.9-178.4C292.2,12.3,263.8,6,234.4,6
		C125.8,6,37.4,94.3,37.3,202.9c0,53.5,22.2,105.4,60.9,142.4l0.3,0.3v152c0,4.6,3.8,8.4,8.4,8.4h223c4.6,0,8.4-3.8,8.4-8.4
		l0.1-45.1l45,6.8c0.1,0,0.5,0.1,1,0.1c26.5,0,48-21.5,48-48V350h9.7c13,0,23.5-5.1,28.8-13.9C476.3,327.2,475.9,315.5,469.9,304z
		 M456.5,327.2c-2.2,3.8-7.4,5.9-14.5,5.9h-18c-4.7,0-8.4,3.8-8.4,8.4v69.8c0,16.9-13.9,30.9-31,31.2l-53.5-8
		c-2.4-0.4-4.8,0.4-6.6,1.9c-1.9,1.8-2.9,4.1-2.9,6.5l-0.1,46.5H115.3V342c0-2.5-1-4.7-2.7-6.2c-37.1-34.1-58.4-82.6-58.4-133
		c0-99.4,80.8-180.2,180.2-180.2c26.8,0,52.7,5.8,77,17.3c63.3,29.4,104.2,93.5,104.2,163.2v31.4c0,1.5,0.3,2.8,0.9,3.9l38.4,73.3
		C458.1,317.8,458.7,323.4,456.5,327.2z"/>
	<path class="st1" d="M322.7,128.2c-2,8.5-5.3,16.6-9.9,24.1c-2,3.3-4.3,6.4-6.7,9.5L306,162l0,0c-0.5,0.6-1,1.2-1.5,1.8
		c-2.4,2.8-5,5.5-7.7,7.9L230.2,231l-65.3-59.3c-2.3-2.1-4.5-4.3-6.6-6.6c-3.8-4.2-7.1-8.7-10-13.5c-4.3-7.3-7.6-15.1-9.5-23.4
		c-2.7-11.7-1.8-18.9-1.6-20.2c2.8-30.4,24.6-52.7,51.8-52.7c16.5,0,31.4,8,41,22.1c0.1,0.2,0.2,0.2,0.2,0.2c0.1,0,0.2,0,0.3-0.2
		c9.7-13.8,25.4-22.1,42-22.1c27.2,0,49.1,22.2,51.8,52.8C324.5,109.3,325.5,116.5,322.7,128.2z"/>
	<path class="st0" d="M306.1,161.7l-0.1,0.2l0,0c-0.5,0.6-1,1.2-1.5,1.8h-37c-2.8,0-5.2-2-5.7-4.9l-5.4-34.4l-7.3,34.8
		c-0.5,2.3-2.3,4.1-4.7,4.5c-2.2,0.4-4.7-0.7-5.9-2.7l-5.2-8.7L221,174.5c-1,1.8-2.9,3-5,3h-0.2c-2.3-0.1-4.3-1.5-5.1-3.6l-15.6-39
		l-11.6,25.5c-0.9,2-3,3.4-5.2,3.4l-19.9,1.3c-3.8-4.2-7.1-8.7-10-13.5l26.2,0.7l15.6-34.4c0.9-2,3-3.4,5.1-3.4h0.4
		c2.2,0,4.2,1.5,5.1,3.6l16.1,40.3l11.3-20.3c1-1.8,2.9-2.9,4.9-3c2.2,0.1,4,1.1,5,2.8l2.8,4.6l10.7-51c0.6-2.8,3-4.7,5.8-4.6
		c2.7,0,5,2.1,5.4,4.8l9.5,60.4h40.5C310.8,155.5,308.5,158.7,306.1,161.7z"/>
</g>
</svg>
