<?xml version="1.0" encoding="utf-8"?>
<!-- Generator: Adobe Illustrator 23.0.1, SVG Export Plug-In . SVG Version: 6.00 Build 0)  -->
<svg version="1.1" id="Layer_1" xmlns="http://www.w3.org/2000/svg" xmlns:xlink="http://www.w3.org/1999/xlink" x="0px" y="0px"
	 viewBox="0 0 512 512" style="enable-background:new 0 0 512 512;" xml:space="preserve">
<style type="text/css">
	.st0{fill:#307167;stroke:#FFFFFF;stroke-width:19;stroke-miterlimit:10;}
	.st1{fill:#FFFFFF;}
</style>
<g>
	<path class="st0" d="M459.6,206.2c-4.6,19.4-12.1,37.8-22.6,54.9c-4.6,7.5-9.8,14.6-15.3,21.7l-0.2,0.5l0,0
		c-1.1,1.4-2.3,2.7-3.4,4.1c-5.5,6.4-11.4,12.5-17.5,18L248.8,440.5L99.9,305.3c-5.2-4.8-10.3-9.8-15-15
		c-8.7-9.6-16.2-19.8-22.8-30.8c-9.8-16.6-17.3-34.4-21.7-53.3c-6.2-26.7-4.1-43.1-3.6-46C43.2,90.9,92.9,40,154.9,40
		c37.6,0,71.6,18.2,93.4,50.4c0.2,0.5,0.5,0.5,0.5,0.5c0.2,0,0.5,0,0.7-0.5C271.6,59,307.3,40,345.2,40c62,0,111.9,50.6,118.1,120.3
		C463.7,163.1,466,179.5,459.6,206.2z"/>
	<path class="st1" d="M421.8,282.5l-0.2,0.5l0,0c-1.1,1.4-2.3,2.7-3.4,4.1h-84.3c-6.4,0-11.9-4.6-13-11.2l-12.3-78.4l-16.6,79.3
		c-1.1,5.2-5.2,9.3-10.7,10.3c-5,0.9-10.7-1.6-13.4-6.2l-11.9-19.8l-28,50.6c-2.3,4.1-6.6,6.8-11.4,6.8h-0.5
		c-5.2-0.2-9.8-3.4-11.6-8.2l-35.6-88.9l-26.4,58.1c-2.1,4.6-6.8,7.7-11.9,7.7l-45.4,3c-8.7-9.6-16.2-19.8-22.8-30.8l59.7,1.6
		l35.6-78.4c2.1-4.6,6.8-7.7,11.6-7.7h0.9c5,0,9.6,3.4,11.6,8.2l36.7,91.8l25.8-46.3c2.3-4.1,6.6-6.6,11.2-6.8
		c5,0.2,9.1,2.5,11.4,6.4l6.4,10.5l24.4-116.2c1.4-6.4,6.8-10.7,13.2-10.5c6.2,0,11.4,4.8,12.3,10.9l21.7,137.7H437
		C432.5,268.4,427.2,275.7,421.8,282.5z"/>
</g>
</svg>
