<?xml version="1.0" encoding="utf-8"?>
<!-- Generator: Adobe Illustrator 16.0.0, SVG Export Plug-In . SVG Version: 6.00 Build 0)  -->
<!DOCTYPE svg PUBLIC "-//W3C//DTD SVG 1.1//EN" "http://www.w3.org/Graphics/SVG/1.1/DTD/svg11.dtd">
<svg version="1.1" id="Layer_1" xmlns="http://www.w3.org/2000/svg" xmlns:xlink="http://www.w3.org/1999/xlink" x="0px" y="0px"
	 width="512px" height="512px" viewBox="0 0 512 512" enable-background="new 0 0 512 512" xml:space="preserve">
<g>
	<g>
		<g>
			<path fill="#BDC5D1" d="M292.678,104.088H39.906C21.212,104.088,6,119.298,6,137.995v138.716v21.576
				c0,18.7,15.212,33.907,33.906,33.907h81.877l-9.866,49.321H79.979c-3.402,0-6.164,2.762-6.164,6.167s2.761,6.163,6.164,6.163
				h172.623c3.405,0,6.167-2.758,6.167-6.163s-2.762-6.167-6.167-6.167h-31.935l-9.865-49.321h81.875
				c18.696,0,33.909-15.207,33.909-33.907v-21.576V137.995C326.587,119.298,311.374,104.088,292.678,104.088z M124.492,381.516
				l9.863-49.321h63.876l9.863,49.321H124.492L124.492,381.516z M314.26,298.287c0,11.902-9.684,21.579-21.582,21.579H39.906
				c-11.898,0-21.579-9.677-21.579-21.579v-15.412h295.927v15.412H314.26z M314.26,270.545H18.327v-12.328h36.991
				c3.408,0,6.167-2.761,6.167-6.167c0-3.405-2.759-6.164-6.167-6.164H18.327V137.995c0-11.898,9.681-21.579,21.579-21.579h252.771
				c11.898,0,21.582,9.681,21.582,21.579V270.545z"/>
		</g>
	</g>
	<g>
		<g>
			<path fill="#BDC5D1" d="M166.292,289.042c-6.798,0-12.331,5.529-12.331,12.33c0,6.799,5.532,12.331,12.331,12.331
				s12.331-5.532,12.331-12.331C178.623,294.571,173.091,289.042,166.292,289.042z"/>
		</g>
	</g>
	<path fill="#307167" d="M384.91,213.317v1.269h44.687v-0.056L384.91,213.317z M384.91,213.317v1.269h44.687v-0.056L384.91,213.317z
		"/>
	<path fill="#65696F" d="M489.054,205.828h-10.518V150.73c0-3.064-2.485-5.576-5.576-5.576h-55.896
		c-3.091,0-5.576,2.512-5.576,5.576v55.098h-10.519c-9.354,0-16.945,7.618-16.945,16.946v168.187
		c0,9.331,7.592,16.952,16.945,16.952h88.085c9.354,0,16.946-7.621,16.946-16.952V222.774
		C506,213.446,498.408,205.828,489.054,205.828z"/>
	<rect x="384.91" y="143.509" fill="#307167" width="44.687" height="71.077"/>
	<rect x="379.581" y="225.985" fill="#307167" width="55.345" height="37.458"/>
	<g>
		<path fill="#307167" d="M451.296,192.998h-10.518v-55.095c0-3.064-2.485-5.576-5.576-5.576h-55.897
			c-3.091,0-5.576,2.512-5.576,5.576v55.095h-10.518c-9.354,0-16.946,7.621-16.946,16.949v168.187
			c0,9.331,7.592,16.949,16.946,16.949h88.085c9.354,0,16.945-7.618,16.945-16.949V209.947
			C468.241,200.619,460.65,192.998,451.296,192.998z"/>
		<polygon fill="#FFFFFF" points="429.597,143.509 429.597,214.53 384.91,213.317 384.91,143.509 		"/>
		<rect x="379.581" y="225.985" fill="#FFFFFF" width="55.345" height="37.458"/>
		<path fill="#FFFFFF" d="M398.912,291.859h-25.048c-3.079,0-5.588,2.503-5.588,5.591c0,3.085,2.509,5.588,5.588,5.588h25.048
			c3.085,0,5.589-2.503,5.589-5.588C404.501,294.362,401.997,291.859,398.912,291.859z"/>
		<path fill="#FFFFFF" d="M440.648,291.859h-25.043c-3.09,0-5.588,2.503-5.588,5.591c0,3.085,2.498,5.588,5.588,5.588h25.043
			c3.085,0,5.582-2.503,5.582-5.588C446.23,294.362,443.733,291.859,440.648,291.859z"/>
		<path fill="#FFFFFF" d="M398.912,320.836h-25.048c-3.079,0-5.588,2.503-5.588,5.588c0,3.088,2.509,5.585,5.588,5.585h25.048
			c3.085,0,5.589-2.497,5.589-5.585C404.501,323.339,401.997,320.836,398.912,320.836z"/>
		<path fill="#FFFFFF" d="M440.648,320.836h-25.043c-3.09,0-5.588,2.503-5.588,5.588c0,3.088,2.498,5.585,5.588,5.585h25.043
			c3.085,0,5.582-2.497,5.582-5.585C446.23,323.339,443.733,320.836,440.648,320.836z"/>
		<path fill="#FFFFFF" d="M398.912,350.377h-25.048c-3.079,0-5.588,2.503-5.588,5.588c0,3.091,2.509,5.591,5.588,5.591h25.048
			c3.085,0,5.589-2.5,5.589-5.591C404.501,352.88,401.997,350.377,398.912,350.377z"/>
		<path fill="#FFFFFF" d="M440.648,350.377h-25.043c-3.09,0-5.588,2.503-5.588,5.588c0,3.091,2.498,5.591,5.588,5.591h25.043
			c3.085,0,5.582-2.5,5.582-5.591C446.23,352.88,443.733,350.377,440.648,350.377z"/>
	</g>
</g>
</svg>
