<?xml version="1.0" encoding="utf-8"?>
<!-- Generator: Adobe Illustrator 16.0.0, SVG Export Plug-In . SVG Version: 6.00 Build 0)  -->
<!DOCTYPE svg PUBLIC "-//W3C//DTD SVG 1.1//EN" "http://www.w3.org/Graphics/SVG/1.1/DTD/svg11.dtd">
<svg version="1.1" id="Layer_1" xmlns="http://www.w3.org/2000/svg" xmlns:xlink="http://www.w3.org/1999/xlink" x="0px" y="0px"
	 width="512px" height="512px" viewBox="0 0 512 512" enable-background="new 0 0 512 512" xml:space="preserve">
<g>
	<g>
		<g>
			<path fill="#BDC5D1" d="M432.846,116.956h-53.054v17.685h53.054c9.758,0,17.675,7.917,17.675,17.682v247.576
				c0,9.767-7.917,17.68-17.675,17.68H79.163c-9.767,0-17.684-7.913-17.684-17.68V152.327c0-9.769,7.917-17.687,17.684-17.687
				h53.054v-17.685H79.163c-19.534,0-35.369,15.835-35.369,35.371v247.571c0,19.538,15.835,35.368,35.369,35.368h353.683
				c19.524,0,35.359-15.83,35.359-35.368V152.327C468.205,132.791,452.37,116.956,432.846,116.956z"/>
		</g>
	</g>
	<g>
		<g>
			<path fill="#65696F" d="M458.237,85.569c0,1.686-1.485,166.242-130.224,203.025c-0.756,0.232-1.566,0.346-2.404,0.346
				c-0.803,0-1.649-0.113-2.415-0.346C194.472,251.811,192.973,87.254,192.973,85.569c0-3.79,2.456-7.198,6.05-8.384
				c35.137-10.487,67.064-29.779,92.674-56.001c16.729-18.718,45.474-20.363,64.188-3.635c1.303,1.148,2.487,2.335,3.635,3.635
				c25.647,26.222,57.536,45.514,92.678,56.001C455.796,78.371,458.237,81.779,458.237,85.569z"/>
		</g>
	</g>
	<g>
		<g>
			<path fill="#BDC5D1" d="M379.792,452.947H132.217c-14.655,0-26.531,11.876-26.531,26.526S117.562,506,132.217,506h247.575
				c14.642,0,26.522-11.876,26.522-26.526S394.434,452.947,379.792,452.947z M379.792,488.315H132.217
				c-4.888,0-8.847-3.954-8.847-8.842c0-4.879,3.958-8.843,8.847-8.843h247.575c4.884,0,8.838,3.964,8.838,8.843
				C388.63,484.361,384.676,488.315,379.792,488.315z"/>
		</g>
	</g>
	<g>
		<g>
			<path fill="#BDC5D1" d="M309.055,417.583H202.95c-4.883,0-8.837,3.958-8.837,8.842v35.369c0,4.883,3.954,8.842,8.837,8.842
				h106.105c4.874,0,8.837-3.959,8.837-8.842v-35.369C317.892,421.541,313.929,417.583,309.055,417.583z M300.207,452.947h-88.415
				v-17.681h88.425v17.681H300.207z"/>
		</g>
	</g>
	<g>
		<g>
			<path fill="#BDC5D1" d="M335.576,364.534c-2.342,0-4.592,0.929-6.25,2.587l-15.088,15.098H197.766l-15.088-15.098
				c-1.658-1.658-3.908-2.587-6.254-2.587H43.794v17.685h128.966l15.092,15.087c1.658,1.658,3.909,2.593,6.259,2.593h123.779
				c2.351-0.005,4.592-0.935,6.25-2.593l15.098-15.087h128.966v-17.685H335.576z"/>
		</g>
	</g>
	<g>
		<g>
			<path fill="#307167" d="M388.63,161.163c0,1.686-1.494,166.239-130.226,203.024c-0.766,0.232-1.567,0.347-2.415,0.347
				c-0.797,0-1.645-0.114-2.405-0.347c-128.733-36.785-130.223-201.339-130.223-203.024c0-3.791,2.446-7.198,6.049-8.385
				c35.137-10.486,67.062-29.779,92.668-56c16.728-18.719,45.476-20.363,64.189-3.638c1.303,1.15,2.496,2.337,3.645,3.638
				c25.639,26.221,57.526,45.514,92.668,56C386.179,153.965,388.63,157.373,388.63,161.163z"/>
		</g>
	</g>
	<g>
		<g>
			<path fill="#FFFFFF" d="M346.063,176.731c-31.132-12.624-59.193-31.768-82.299-56.149l-13.068,11.91
				c23.208,24.623,51.188,44.271,82.229,57.746c-5.849,37.553-23.497,96.369-76.926,118.691
				c-56.588-23.657-73.056-88.327-77.803-125.215l-17.539,2.262c5.343,41.505,24.422,114.895,92.194,140.737
				c1.007,0.383,2.073,0.583,3.148,0.583c1.084,0,2.155-0.195,3.162-0.583c67.779-25.784,86.902-99.259,92.205-140.728
				C351.876,182.059,349.707,178.28,346.063,176.731z"/>
		</g>
	</g>
	<g>
		<g>
			<rect x="114.528" y="329.16" fill="#BDC5D1" width="36.827" height="17.689"/>
		</g>
	</g>
	<g>
		<g>
			<rect x="79.163" y="293.796" fill="#BDC5D1" width="71.271" height="17.685"/>
		</g>
	</g>
	<g>
		<g>
			<rect x="415.151" y="329.16" fill="#BDC5D1" width="17.694" height="17.689"/>
		</g>
	</g>
	<g>
		<g>
			<rect x="79.87" y="329.16" fill="#BDC5D1" width="17.689" height="17.689"/>
		</g>
	</g>
	<g>
		<g>
			<rect x="372.139" y="329.16" fill="#BDC5D1" width="25.328" height="17.689"/>
		</g>
	</g>
	<g>
		<g>
			<rect x="369.223" y="293.796" fill="#BDC5D1" width="63.623" height="17.685"/>
		</g>
	</g>
</g>
</svg>
