<?xml version="1.0" encoding="utf-8"?>
<!-- Generator: Adobe Illustrator 16.0.0, SVG Export Plug-In . SVG Version: 6.00 Build 0)  -->
<!DOCTYPE svg PUBLIC "-//W3C//DTD SVG 1.1//EN" "http://www.w3.org/Graphics/SVG/1.1/DTD/svg11.dtd">
<svg version="1.1" id="Layer_1" xmlns="http://www.w3.org/2000/svg" xmlns:xlink="http://www.w3.org/1999/xlink" x="0px" y="0px"
	 width="512px" height="512px" viewBox="0 0 512 512" enable-background="new 0 0 512 512" xml:space="preserve">
<g>
	<g>
		<path fill="#BDC5D1" d="M14.287,257.622h0.012c4.486,0,8.121-3.515,8.273-8c1.361-38.966,14.833-75.754,38.955-106.385
			c34.78-44.174,87.017-69.51,143.309-69.51c39.544,0,76.992,12.433,108.629,36.008l-29.923,0.001c-4.564,0-8.278,3.717-8.278,8.285
			s3.714,8.284,8.282,8.284l52.756-0.023c0.72-0.045,1.433-0.188,1.805-0.35c0.354-0.052,0.7-0.13,1.041-0.224l0.433-0.184
			c0.241-0.146,0.472-0.302,0.455-0.32c0.717-0.358,1.373-0.82,1.855-1.282l0.361-0.365c0.215-0.29,0.405-0.591,0.396-0.64
			c0.438-0.529,0.807-1.115,1.162-1.905c0.211-0.613,0.349-1.25,0.405-1.896c0.07-0.285,0.127-0.573,0.164-0.862l0.017-52.794
			c0-4.568-3.717-8.283-8.285-8.283c-4.571,0-8.289,3.715-8.289,8.283v34.477C294.78,73.862,253.629,58.747,211.53,57.29
			C100.777,53.403,9.808,139.137,6.005,249.065C5.853,253.625,9.439,257.463,14.287,257.622z M14.298,255.906L14.298,255.906v0.001
			V255.906z"/>
		<path fill="#BDC5D1" d="M360.664,365.595c-3.521-2.646-8.966-1.849-11.588,1.641c-3.804,4.937-7.93,9.752-12.264,14.307
			c-1.523,1.604-2.334,3.704-2.28,5.921c0.057,2.21,0.968,4.273,2.571,5.797c1.548,1.471,3.577,2.281,5.71,2.281
			c2.294,0,4.428-0.911,6.009-2.576c4.695-4.946,9.192-10.193,13.502-15.773c1.33-1.771,1.89-3.955,1.574-6.145
			C363.584,368.856,362.436,366.921,360.664,365.595z"/>
		<path fill="#BDC5D1" d="M323.173,394.522c-4.772,4.069-9.813,7.943-14.977,11.511c-3.765,2.602-4.709,7.786-2.104,11.55
			c1.551,2.24,4.103,3.577,6.832,3.577c1.691,0,3.322-0.51,4.719-1.474c5.616-3.896,11.099-8.125,16.296-12.572
			c3.47-2.967,3.881-8.208,0.911-11.681C331.997,392.095,326.512,391.659,323.173,394.522z"/>
		<path fill="#BDC5D1" d="M292.191,415.908c-5.499,3.015-11.205,5.768-17.126,8.259c-2.029,0.881-3.597,2.498-4.407,4.558
			c-0.813,2.061-0.777,4.311,0.104,6.34c1.316,3.031,4.297,4.99,7.603,4.99c1.139,0,2.247-0.234,3.278-0.684
			c6.31-2.652,12.538-5.656,18.513-8.932c4.006-2.193,5.479-7.236,3.285-11.249C301.317,415.329,296.09,413.775,292.191,415.908z"/>
		<path fill="#BDC5D1" d="M379.859,331.204c-4.038-1.854-9.139,0.051-10.978,4.025c-2.723,5.63-5.773,11.186-9.086,16.541
			c-2.294,3.854-1.135,8.777,2.636,11.205c1.34,0.864,2.891,1.319,4.478,1.319c2.837,0,5.442-1.423,6.986-3.827
			c3.597-5.811,6.925-11.872,10.017-18.266c0.928-2.006,1.018-4.256,0.254-6.333C383.399,333.79,381.872,332.136,379.859,331.204z"
			/>
		<path fill="#BDC5D1" d="M391.806,293.928c-4.334-1.162-8.989,1.544-10.147,5.904c-1.41,5.696-3.108,11.379-5.057,16.901
			l-0.419,1.133c-0.75,2.083-0.646,4.333,0.298,6.336s2.609,3.52,4.692,4.27c0.907,0.328,1.852,0.492,2.81,0.492
			c3.479,0,6.614-2.2,7.796-5.479c2.321-6.446,4.327-13.064,5.968-19.698C398.751,299.413,396.143,295.08,391.806,293.928z"/>
		<path fill="#BDC5D1" d="M58.208,368.608c0.357-2.184-0.159-4.38-1.452-6.175c-3.654-5.081-7.09-10.412-10.216-15.844
			c-2.197-3.814-7.481-5.252-11.313-3.051c-1.919,1.102-3.294,2.883-3.87,5.02c-0.578,2.137-0.29,4.37,0.814,6.289
			c3.404,5.918,7.148,11.725,11.13,17.264c1.554,2.157,4.07,3.446,6.733,3.446c1.743,0,3.416-0.539,4.834-1.561
			C56.666,372.708,57.851,370.792,58.208,368.608z"/>
		<path fill="#BDC5D1" d="M38.032,329.774c-2.534-5.703-4.799-11.614-6.733-17.568c-1.375-4.253-6.125-6.725-10.432-5.335
			c-4.313,1.406-6.703,6.065-5.325,10.398c2.11,6.518,4.578,12.984,7.336,19.22c1.326,2.994,4.301,4.933,7.58,4.933
			c1.159,0,2.286-0.241,3.351-0.713C37.985,338.863,39.881,333.957,38.032,329.774z"/>
		<path fill="#BDC5D1" d="M260.049,430.092c-0.881,0-1.755,0.144-2.556,0.404c-5.981,1.803-12.133,3.316-18.288,4.491
			c-3.885,0.747-6.711,4.163-6.721,8.121c-0.01,4.568,3.701,8.292,8.258,8.299h0.063c0.502,0,1.005-0.047,1.514-0.141
			c6.728-1.286,13.443-2.94,19.946-4.903l0.379-0.117c4.333-1.43,6.701-6.125,5.271-10.462
			C266.79,432.379,263.629,430.092,260.049,430.092z M240.806,449.686L240.806,449.686v0.007V449.686z"/>
		<path fill="#BDC5D1" d="M81.779,390.53c-3.98-3.633-7.83-7.481-11.474-11.46l-1.731-1.952c-2.92-3.292-8.419-3.634-11.714-0.707
			c-3.424,3.034-3.743,8.292-0.705,11.715c4.543,5.104,9.402,10.026,14.44,14.635c1.531,1.4,3.515,2.17,5.589,2.17c0,0,0,0,0.002,0
			c2.321,0,4.549-0.978,6.113-2.692c1.495-1.634,2.264-3.751,2.165-5.961S83.412,392.024,81.779,390.53z"/>
		<path fill="#BDC5D1" d="M18.324,304.015c0.578,0,1.157-0.061,1.721-0.181c2.165-0.459,4.022-1.735,5.228-3.59
			c1.206-1.853,1.618-4.066,1.159-6.229c-1.296-6.139-2.288-12.401-2.949-18.61c-0.481-4.514-4.53-7.862-9.107-7.357
			c-4.542,0.476-7.847,4.562-7.37,9.103c0.713,6.755,1.798,13.583,3.222,20.295c0.801,3.801,4.203,6.563,8.093,6.57H18.324z"/>
		<path fill="#BDC5D1" d="M221.362,437.55c-0.271,0-0.546,0.017-0.79,0.04c-5.385,0.436-10.723,0.652-15.867,0.652l-4.708,0.027
			v0.154c-3.741,0.74-6.618,4.035-6.691,7.974c-0.043,2.217,0.78,4.313,2.317,5.907c1.534,1.594,3.6,2.492,5.814,2.532h0.03h3.245
			c5.764-0.007,11.571-0.255,17.267-0.74c4.548-0.392,7.934-4.411,7.522-9.18C229.078,440.718,225.578,437.55,221.362,437.55z"/>
		<path fill="#BDC5D1" d="M146.216,428.654c-5.919-2.002-11.809-4.347-17.433-6.922c-0.157-0.084-0.315-0.157-0.454-0.211
			c-4.112-1.762-9.124,0.285-10.867,4.374c-0.868,2.036-0.891,4.286-0.067,6.339c0.826,2.053,2.403,3.661,4.394,4.512
			c6.229,2.863,12.659,5.425,19.116,7.608c0.86,0.291,1.755,0.438,2.656,0.438c0,0,0,0,0.001,0c3.558,0,6.713-2.264,7.848-5.633
			C152.873,434.83,150.542,430.121,146.216,428.654z"/>
		<path fill="#BDC5D1" d="M182.91,436.953c-6.215-0.736-12.461-1.812-18.563-3.188c-4.438-1.005-8.915,1.852-9.91,6.256
			c-1.001,4.453,1.805,8.9,6.259,9.905c6.665,1.504,13.479,2.673,20.254,3.479c0.332,0.041,0.66,0.061,0.998,0.061h0.006
			c4.183-0.014,7.709-3.154,8.202-7.308c0.261-2.2-0.348-4.366-1.718-6.104C187.072,438.313,185.106,437.215,182.91,436.953z"/>
		<path fill="#BDC5D1" d="M112.023,412.938c-5.325-3.158-10.545-6.614-15.517-10.274l-0.563-0.422
			c-3.641-2.519-9.025-1.527-11.532,2.093c-1.259,1.815-1.736,4.019-1.341,6.195c0.396,2.177,1.616,4.069,3.389,5.298
			c5.469,4.053,11.228,7.877,17.118,11.366c1.279,0.757,2.739,1.159,4.22,1.159c2.917,0,5.651-1.558,7.135-4.065
			c1.128-1.902,1.447-4.133,0.897-6.276S113.929,414.066,112.023,412.938z"/>
		<path fill="#BDC5D1" d="M204.705,116.304c-77.025,0.002-139.688,62.665-139.688,139.688c0,77.024,62.663,139.689,139.688,139.689
			h0.003c76.935-0.088,139.6-62.752,139.687-139.689C344.395,178.969,281.729,116.306,204.705,116.304z M301.545,255.993
			c0,4.57,3.714,8.287,8.282,8.287h17.562c-4.183,61.483-52.913,110.21-114.399,114.39v-17.556c0-4.564-3.717-8.281-8.285-8.281
			s-8.282,3.717-8.282,8.281v17.556c-61.479-4.183-110.208-52.91-114.393-114.39h17.552c4.568,0,8.285-3.717,8.285-8.287
			c0-2.212-0.862-4.293-2.426-5.857c-1.564-1.564-3.646-2.427-5.859-2.427l-17.545-0.001
			c4.183-61.476,52.908-110.205,114.386-114.391v17.555c0,4.566,3.717,8.282,8.285,8.282c2.21,0,4.29-0.861,5.857-2.426
			c1.564-1.565,2.428-3.646,2.425-5.855v-17.554c61.486,4.18,110.216,52.906,114.399,114.389h-17.562
			C305.259,247.708,301.545,251.425,301.545,255.993z"/>
		<path fill="#307167" d="M257.266,247.708h-32.879c-2.18-5.15-6.25-9.218-11.396-11.39v-59.164
			c0.003-2.214-0.861-4.295-2.428-5.861c-1.563-1.565-3.644-2.426-5.857-2.428c-4.568,0.001-8.282,3.719-8.282,8.287l0.003,59.159
			c-5.599,2.331-9.916,6.88-11.942,12.646c-1.892,5.389-1.574,11.191,0.894,16.338c2.472,5.146,6.802,9.024,12.19,10.917
			c2.294,0.807,4.678,1.216,7.09,1.216c8.647,0,16.426-5.234,19.729-13.148h32.879c4.568,0,8.285-3.717,8.285-8.287
			C265.551,251.427,261.834,247.709,257.266,247.708z M204.705,260.851c-2.676,0-4.853-2.179-4.853-4.858
			c0-2.677,2.177-4.856,4.853-4.856c2.676,0.002,4.856,2.18,4.859,4.856C209.564,258.672,207.384,260.851,204.705,260.851z"/>
	</g>
	<path fill="#65696F" d="M506,212.962c0,41.135-33.345,74.482-74.483,74.482c-41.121-0.058-74.43-33.377-74.486-74.483
		c0-41.138,33.352-74.487,74.486-74.487C472.655,138.473,506,171.823,506,212.962z"/>
	<path fill="#307167" d="M471.121,200.659c0,41.138-33.352,74.485-74.486,74.485c-41.122-0.061-74.43-33.374-74.487-74.485
		c0-41.135,33.349-74.485,74.487-74.487C437.77,126.174,471.121,159.524,471.121,200.659z"/>
	<path fill="#FFFFFF" d="M366.344,203.401l-8.889,4.439l9.934,19.862c0.72,1.43,2.072,2.428,3.653,2.684
		c0.251,0.039,0.506,0.061,0.771,0.064c1.315,0,2.578-0.522,3.513-1.454l59.584-59.591l-7.022-7.024l-54.722,54.72L366.344,203.401z
		"/>
</g>
</svg>
