<?xml version="1.0" encoding="utf-8"?>
<!-- Generator: Adobe Illustrator 23.0.1, SVG Export Plug-In . SVG Version: 6.00 Build 0)  -->
<svg version="1.1" id="Layer_1" xmlns="http://www.w3.org/2000/svg" xmlns:xlink="http://www.w3.org/1999/xlink" x="0px" y="0px"
	 viewBox="0 0 512 512" style="enable-background:new 0 0 512 512;" xml:space="preserve">
<style type="text/css">
	.st0{fill:#307167;stroke:#FFFFFF;stroke-width:7;stroke-miterlimit:10;}
	.st1{fill:#FFFFFF;stroke:#FFFFFF;stroke-width:7;stroke-miterlimit:10;}
	.st2{fill:none;stroke:#FFFFFF;stroke-width:7;stroke-miterlimit:10;}
</style>
<g>
	<g>
		<path class="st0" d="M480.4,174.4c0-3.6-1.4-7.1-4-9.6l-1.6-1.6l-12-12l-17.3-17.3c-0.6-0.6-1.4-1.2-2.2-1.6l-17.9-17.9
			c-0.4-0.9-1-1.7-1.8-2.4l-5.7-5.6c-2.4-2.5-5.9-3.9-9.6-3.9c-3.7,0-7.2,1.4-9.6,3.9l-14.2,14.1c-2.3-1.8-5.2-2.7-8.3-2.7
			c-3.7,0-7.2,1.4-9.7,3.9l-14.2,14.2c-2.6,2.6-4,6-4,9.6c0,3,1,5.9,2.8,8.3l-0.9,0.9c-0.2,0.1-0.9,0.5-1,0.5H202.3c0,0,0-0.1,0-0.1
			c-0.1-0.3-0.3-0.7-0.5-1c-0.6-1.2-1.5-2.4-2.5-3.4l-8.1-8.1l0.1-0.1c2.6-2.6,4-6,4-9.6c0-3.6-1.4-7.1-4-9.7l-35.4-35.4
			c-2.4-2.5-6-3.9-9.6-3.9c-3.7,0-7.2,1.4-9.6,3.9l-101,101c-2.6,2.6-4,6-4,9.6c0,3.6,1.5,7.1,4,9.6L71,243.4c2.5,2.4,6,3.8,9.7,3.8
			c0.3,0,0.6,0,1,0c3.3-0.2,6.4-1.6,8.6-3.8l0.1-0.1l8.1,8.1c2.5,2.5,6,3.9,9.7,3.9c2.8,0,5.5-0.8,7.8-2.4l1.2,1.2l7.4,7.4
			c-0.1,0.1-0.2,0.3-0.3,0.4c-4.4,4.9-6.8,11.2-6.8,17.9c0,3.4,0.6,6.7,1.8,9.8c1.3,3.4,3.3,6.5,5.9,9.1l1.6,1.6
			c4.5,4.5,10.5,7.3,16.9,7.7c0.5,6.4,3.2,12.4,7.7,16.9l1.6,1.6c4.1,4.1,9.4,6.8,15.1,7.5c0.6,0.1,1.2,0.2,1.8,0.2
			c0.2,3.1,1,6.1,2.2,8.9c1.3,3,3.2,5.7,5.5,8.1l1.6,1.6c4,4,9.5,6.7,15.1,7.5c2.6,0.4,5.3,0.4,7.9,0c1.2,4.5,3.6,8.6,6.9,11.9
			l1.6,1.6c5,5.1,11.8,7.8,18.9,7.8c3.9,0,7.8-0.9,11.3-2.6c0.3-0.1,0.7-0.3,1-0.5c2.8,2.1,6,3.7,9.3,4.5c0,0,0.1,0,0.1,0
			c0.8,0.3,1.6,0.4,2.4,0.6c1.5,0.2,2.9,0.3,4.4,0.3c7.2,0,13.9-2.8,18.9-7.8l3.5-3.5c2.3-2.4,4.2-5.2,5.6-8.2
			c3.6,1.7,7.5,2.6,11.5,2.6c7.1,0,13.9-2.8,18.9-7.8l3.5-3.5c4.5-4.5,7.3-10.5,7.7-16.9c6.4-0.5,12.4-3.2,16.9-7.7l3.4-3.4
			c4.5-4.5,7.3-10.6,7.7-16.9c6.4-0.5,12.4-3.2,16.9-7.7l3.5-3.5c5.9-5.9,8.7-14.4,7.5-22.8l45.5-45.5c2.1,1.2,4.5,1.9,7,1.9
			c3.7,0,7.2-1.4,9.7-3.9l14.2-14.2c4.5-4.4,5.3-11.4,2-16.7l14.4-14.3C479,181.5,480.4,178,480.4,174.4z M108.2,234.8l-4.6-4.6
			l51-51c0.8-0.8,1.4-1.7,1.9-2.7l17.2-17.6c1.2-0.4,2.3-1.1,3.2-2l1.2-1.2l4.6,4.6L108.2,234.8z M150.3,288
			c-0.2,0.1-0.4,0.3-0.6,0.3c-0.3,0.2-0.5,0.3-0.8,0.4c0,0-0.1,0-0.1,0c-0.5,0.2-1,0.3-1.5,0.4c-0.5,0.1-1.1,0.2-1.6,0.2
			c-2.2,0-4.4-0.8-5.8-2.3l-1.6-1.6c-1.5-1.5-2.4-3.6-2.4-5.8c0-0.6,0-1.1,0.2-1.6c0-0.4,0.2-0.8,0.3-1.1c0.1-0.2,0.2-0.4,0.3-0.6
			c0.1-0.3,0.3-0.7,0.6-1c0.3-0.5,0.6-1,1.1-1.4l11.9-11.9c1.5-1.5,3.6-2.4,5.8-2.4c2.2,0,4.2,0.9,5.8,2.4l1.6,1.6
			c1.5,1.5,2.4,3.6,2.4,5.8c0,2.2-0.8,4.2-2.4,5.8l-11.9,11.9C151,287.5,150.6,287.8,150.3,288z M171.8,315.7c-0.5,0-1,0-1.5-0.2
			c-1.6-0.3-3.1-1-4.2-2.1l-1.6-1.6c-1.5-1.5-2.4-3.6-2.4-5.8c0-1.2,0.3-2.4,0.8-3.5c0.3-0.9,0.9-1.6,1.6-2.3l11.9-11.9
			c1.5-1.5,3.6-2.4,5.8-2.4c2.2,0,4.2,0.8,5.8,2.4l1.6,1.6c1.5,1.5,2.4,3.6,2.4,5.8c0,2.2-0.9,4.3-2.4,5.8l-11.9,11.9
			C176.2,314.8,174.1,315.7,171.8,315.7z M215.8,327.8l-11.9,11.9c-0.1,0.1-0.3,0.3-0.4,0.3c-0.3,0.2-0.6,0.5-1,0.7
			c-0.3,0.2-0.5,0.3-0.8,0.4c-0.6,0.3-1.3,0.6-2,0.7c-0.6,0.1-1.1,0.2-1.6,0.2c-2.2,0-4.3-0.9-5.8-2.3l-1.6-1.6
			c-3.2-3.2-3.2-8.3,0-11.6l11.9-11.9c0.3-0.3,0.6-0.6,1-0.9c0.2-0.2,0.4-0.3,0.6-0.4c0.2-0.1,0.5-0.3,0.7-0.3
			c0.1-0.1,0.3-0.2,0.4-0.2c0.4-0.2,0.9-0.3,1.3-0.4c0,0,0,0,0,0c0.6-0.1,1.1-0.2,1.6-0.2c2.2,0,4.3,0.8,5.8,2.4l1.5,1.6
			C218.9,319.4,218.9,324.6,215.8,327.8z M236.8,359.3l-1.4,1.4c-1.5,1.5-3.6,2.3-5.8,2.3c-0.4,0-0.8,0-1.2-0.1
			c-0.3,0-0.6-0.1-0.9-0.2c-0.3,0-0.7-0.2-1-0.3c-0.1,0-0.2,0-0.3-0.1c-0.3,0-0.5-0.2-0.8-0.3c-0.3-0.1-0.5-0.3-0.7-0.4
			c-0.3-0.3-0.7-0.5-1-0.8l-1.6-1.6c-0.3-0.3-0.5-0.6-0.7-0.9c-0.2-0.2-0.3-0.4-0.5-0.7c-0.4-0.6-0.7-1.4-0.9-2.1
			c-0.1-0.3-0.2-0.7-0.2-1c-0.4-2.5,0.4-5.1,2.3-6.9l1.4-1.3c1.5-1.5,3.6-2.4,5.8-2.4c2.2,0,4.3,0.9,5.8,2.4l1.6,1.5
			c1.5,1.5,2.4,3.6,2.4,5.8C239.1,355.7,238.3,357.8,236.8,359.3z M374.2,259.9l-9.4-9.4c-1.7-1.7-4.1-2.7-6.6-2.7
			c-2.5,0-4.9,1-6.6,2.7c-3.6,3.6-3.6,9.5,0,13.1l11.3,11.3c3.2,3.2,3.2,8.4,0,11.6l-3.4,3.4c-1.5,1.5-3.6,2.3-5.8,2.3
			c-2.2,0-4.3-0.8-5.8-2.3l-39.8-39.8c-1.7-1.7-4.1-2.6-6.5-2.6c-2.5,0-4.9,0.9-6.6,2.6c-3.6,3.6-3.6,9.5,0,13.1l39.8,39.8
			c3.2,3.2,3.2,8.4,0,11.6l-3.5,3.5c-1.5,1.5-3.5,2.3-5.8,2.3c-2.2,0-4.3-0.9-5.8-2.3l-40.2-40.2c-1.7-1.7-4.1-2.7-6.5-2.7
			c-2.5,0-4.9,0.9-6.5,2.7c-1.8,1.7-2.7,4.1-2.7,6.5c0,2.5,1,4.8,2.7,6.5l40.2,40.2c1.5,1.5,2.4,3.6,2.4,5.8c0,2.2-0.9,4.2-2.4,5.8
			l-3.4,3.4c-1.5,1.5-3.6,2.3-5.8,2.3c-2.2,0-4.4-0.9-5.8-2.3l-39.3-39.3c-1.7-1.7-4.1-2.7-6.6-2.7c-1.8,0-3.6,0.5-5.1,1.5
			c-0.5,0.4-1,0.8-1.4,1.2c-1.8,1.8-2.7,4.1-2.7,6.5c0,2.1,0.7,4.2,2.1,5.9c0.2,0.3,0.4,0.5,0.6,0.7l28.1,28.1
			c1.5,1.5,2.4,3.6,2.4,5.8c0,2.2-0.9,4.2-2.4,5.8l-3.4,3.5c-1.5,1.5-3.6,2.4-5.9,2.4c-1,0-2-0.2-2.9-0.5c1.6-3.5,2.5-7.4,2.5-11.4
			c0-7.1-2.8-13.9-7.8-18.9l-1.6-1.6c-3.3-3.3-7.4-5.7-11.9-6.9c1.3-8.4-1.5-17-7.5-23l-1.6-1.6c-4.5-4.6-10.5-7.3-16.9-7.7
			c-0.5-6.4-3.2-12.4-7.7-17l-1.6-1.6c-4.5-4.5-10.5-7.3-16.9-7.7c-0.5-6.4-3.2-12.4-7.7-16.9l-1.6-1.6c-5-5-11.7-7.8-18.9-7.8
			c-6.8,0-13.3,2.5-18.3,7.1l-8.3-8.3l66.3-66.3H244l-0.4,0.4l-25.7,25.7c-5,5.1-7.8,11.8-7.8,18.9c0,7.1,2.8,13.9,7.8,18.9l1.6,1.6
			c5,5,11.8,7.8,18.9,7.8c7.1,0,13.9-2.8,18.9-7.8l29.2-29.2c1.5-1.5,3.6-2.3,5.8-2.3s4.3,0.8,5.8,2.3l29.9,29.8
			c1.7,1.7,4.1,2.7,6.5,2.7c2.5,0,4.9-1,6.6-2.7c1.7-1.8,2.7-4.1,2.7-6.5c0-2.5-1-4.8-2.7-6.5l-23.6-23.5l-6.3-6.3
			c-5-5-11.8-7.8-18.9-7.8c-1.1,0-2.1,0-3.2,0.2c-0.6,0-1.1,0.1-1.7,0.2c-1.7,0.3-3.4,0.8-5,1.4c-0.4,0.1-0.8,0.3-1.2,0.5
			c-0.3,0.1-0.6,0.3-0.9,0.4c-0.5,0.3-0.9,0.5-1.4,0.8c0,0-0.1,0-0.1,0.1c-0.5,0.3-1.1,0.6-1.6,1c-1.3,0.9-2.6,1.9-3.8,3.1l-6.3,6.3
			l-22.9,22.9c-1.5,1.5-3.6,2.3-5.8,2.3c-2.2,0-4.3-0.9-5.8-2.3l-1.6-1.6c-1.5-1.5-2.4-3.6-2.4-5.8c0-2.2,0.9-4.2,2.4-5.8l16.3-16.4
			l13.3-13.3c4.7-4.7,14.6-9,21.7-9.5c0.5,0,1-0.1,1.5-0.1h65.4c4.9,0,10.5-2.3,14-5.8l1-1l35.9,35.9h0l15.7,15.7L374.2,259.9z
			 M436.2,212.7l-31.3-31.4l-35.9-35.9l7.2-7.2l67.3,67.3L436.2,212.7z"/>
		<path class="st1" d="M239.1,353.5c0,2.2-0.9,4.2-2.4,5.8l-1.4,1.4c-1.5,1.5-3.6,2.3-5.8,2.3s-4.3-0.8-5.8-2.3l-1.6-1.6
			c-3.2-3.2-3.2-8.4,0-11.6l1.4-1.3c1.5-1.5,3.6-2.4,5.8-2.4c2.2,0,4.3,0.9,5.8,2.4l1.6,1.5C238.3,349.3,239.1,351.3,239.1,353.5z"
			/>
		<path class="st1" d="M215.8,327.8l-11.9,11.9c-1.5,1.4-3.6,2.3-5.8,2.3c-2.2,0-4.3-0.9-5.8-2.3l-1.6-1.6c-3.2-3.2-3.2-8.3,0-11.6
			l11.9-11.9c1.5-1.5,3.6-2.4,5.8-2.4c2.2,0,4.3,0.8,5.8,2.4l1.5,1.6C218.9,319.4,218.9,324.6,215.8,327.8z"/>
		<path class="st1" d="M191.9,295.7c0,2.2-0.9,4.3-2.4,5.8l-11.9,11.9c-1.5,1.5-3.6,2.3-5.8,2.3c-2.2,0-4.3-0.8-5.8-2.3l-1.6-1.6
			c-1.5-1.5-2.4-3.6-2.4-5.8c0-2.2,0.9-4.2,2.4-5.8l11.9-11.9c1.5-1.5,3.6-2.4,5.8-2.4c2.2,0,4.2,0.8,5.8,2.4l1.6,1.6
			C191,291.5,191.9,293.5,191.9,295.7z"/>
		<path class="st1" d="M165.6,269.5c0,2.2-0.8,4.2-2.4,5.8l-11.9,11.9c-1.5,1.5-3.6,2.3-5.8,2.3c-2.2,0-4.4-0.8-5.8-2.3l-1.6-1.6
			c-1.5-1.5-2.4-3.6-2.4-5.8c0-2.2,0.9-4.3,2.4-5.8l11.9-11.9c1.5-1.5,3.6-2.4,5.8-2.4c2.2,0,4.2,0.9,5.8,2.4l1.6,1.6
			C164.8,265.2,165.6,267.3,165.6,269.5z"/>
		<polygon class="st1" points="443.4,205.5 436.2,212.7 368.9,145.4 376.2,138.2 		"/>
		<path class="st1" d="M351.7,250.5c-3.6,3.6-3.6,9.5,0,13.1l11.3,11.3c3.2,3.2,3.2,8.4,0,11.6l-3.4,3.4c-1.5,1.5-3.6,2.3-5.8,2.3
			c-2.2,0-4.3-0.8-5.8-2.3l-39.8-39.8c-1.7-1.7-4.1-2.6-6.5-2.6c-2.5,0-4.9,0.9-6.6,2.6c-3.6,3.6-3.6,9.5,0,13.1l39.8,39.8
			c3.2,3.2,3.2,8.4,0,11.6l-3.5,3.5c-1.5,1.5-3.5,2.3-5.8,2.3c-2.2,0-4.3-0.9-5.8-2.3l-40.2-40.2c-1.7-1.7-4.1-2.7-6.5-2.7
			c-2.5,0-4.9,0.9-6.5,2.7c-1.8,1.7-2.7,4.1-2.7,6.5c0,2.5,1,4.8,2.7,6.5l40.2,40.2c1.5,1.5,2.4,3.6,2.4,5.8c0,2.2-0.9,4.2-2.4,5.8
			l-3.4,3.4c-1.5,1.5-3.6,2.3-5.8,2.3c-2.2,0-4.4-0.9-5.8-2.3l-39.3-39.3c-1.7-1.7-4.1-2.7-6.6-2.7c-1.8,0-3.6,0.5-5.1,1.5
			c-0.5,0.4-1,0.8-1.4,1.2c-1.8,1.8-2.7,4.1-2.7,6.5c0,2.1,0.7,4.2,2.1,5.9c0.2,0.3,0.4,0.5,0.6,0.7l28.1,28.1
			c1.5,1.5,2.4,3.6,2.4,5.8c0,2.2-0.9,4.2-2.4,5.8l-3.4,3.5c-1.5,1.5-3.6,2.4-5.9,2.4c-1,0-2-0.2-2.9-0.5c1.6-3.5,2.5-7.4,2.5-11.4
			c0-7.1-2.8-13.9-7.8-18.9l-1.6-1.6c-3.3-3.3-7.4-5.7-11.9-6.9c1.3-8.4-1.5-17-7.5-23l-1.6-1.6c-4.5-4.6-10.5-7.3-16.9-7.7
			c-0.5-6.4-3.2-12.4-7.7-17l-1.6-1.6c-4.5-4.5-10.5-7.3-16.9-7.7c-0.5-6.4-3.2-12.4-7.7-16.9l-1.6-1.6c-5-5-11.7-7.8-18.9-7.8
			c-6.8,0-13.3,2.5-18.3,7.1l-8.3-8.3l66.3-66.3H244l-26.1,26.1c-5,5.1-7.8,11.8-7.8,18.9c0,7.1,2.8,13.9,7.8,18.9l1.6,1.6
			c5,5,11.8,7.8,18.9,7.8c7.1,0,13.9-2.8,18.9-7.8l29.2-29.2c1.5-1.5,3.6-2.3,5.8-2.3s4.3,0.8,5.8,2.3l29.9,29.8
			c1.7,1.7,4.1,2.7,6.5,2.7c2.5,0,4.9-1,6.6-2.7c1.7-1.8,2.7-4.1,2.7-6.5c0-2.5-1-4.8-2.7-6.5l-29.9-29.8c-5-5-11.8-7.8-18.9-7.8
			c-7.1,0-13.9,2.8-18.9,7.8l-29.2,29.2c-1.5,1.5-3.6,2.3-5.8,2.3c-2.2,0-4.3-0.9-5.8-2.3l-1.6-1.6c-1.5-1.5-2.4-3.6-2.4-5.8
			c0-2.2,0.9-4.2,2.4-5.8l29.6-29.6c5.1-5,16.1-9.6,23.2-9.6h65.4c4.9,0,10.5-2.3,14-5.8l1-1l51.6,51.5l-41.5,41.5l-9.4-9.4
			c-1.7-1.7-4.1-2.7-6.6-2.7C355.8,247.9,353.4,248.9,351.7,250.5z"/>
		<path class="st1" d="M182.7,160.3l-74.5,74.5l-4.6-4.6l51-51c0.8-0.8,1.4-1.7,1.9-2.7l17.2-17.6c1.2-0.4,2.3-1.1,3.2-2l1.2-1.2
			L182.7,160.3z"/>
		<line class="st2" x1="443.4" y1="132.4" x2="443.2" y2="132.2"/>
		<line class="st2" x1="425.3" y1="114.4" x2="424.5" y2="113.5"/>
		<line class="st2" x1="156.5" y1="176.5" x2="156.3" y2="176.6"/>
		<line class="st2" x1="173.8" y1="158.8" x2="173.7" y2="158.9"/>
	</g>
</g>
</svg>
