<?xml version="1.0" encoding="utf-8"?>
<!-- Generator: Adobe Illustrator 16.0.0, SVG Export Plug-In . SVG Version: 6.00 Build 0)  -->
<!DOCTYPE svg PUBLIC "-//W3C//DTD SVG 1.1//EN" "http://www.w3.org/Graphics/SVG/1.1/DTD/svg11.dtd">
<svg version="1.1" id="Layer_1" xmlns="http://www.w3.org/2000/svg" xmlns:xlink="http://www.w3.org/1999/xlink" x="0px" y="0px"
	 width="512px" height="512px" viewBox="0 0 512 512" enable-background="new 0 0 512 512" xml:space="preserve">
<g>
	<path fill="#BDC5D1" d="M469.895,304.011l-37.502-71.53v-29.194c0-76.206-44.715-146.241-113.868-178.427
		C292.161,12.331,263.846,6,234.385,6C125.805,6,37.394,94.307,37.313,202.858c0,53.528,22.195,105.425,60.874,142.424l0.292,0.266
		V497.56c0,4.647,3.795,8.44,8.441,8.44h222.958c4.646,0,8.438-3.793,8.438-8.44l0.106-45.09l44.955,6.761
		c0.135,0.026,0.482,0.052,1.015,0.052c26.471,0,48.001-21.53,48.001-48.001v-61.324h9.695c12.954,0,23.479-5.076,28.847-13.945
		C476.277,327.195,475.904,315.524,469.895,304.011z M456.458,327.195c-2.218,3.793-7.372,5.879-14.478,5.879h-18.029
		c-4.675,0-8.441,3.767-8.441,8.441v69.766c0,16.908-13.89,30.905-30.957,31.172l-53.476-7.961
		c-2.377-0.371-4.781,0.349-6.598,1.872c-1.87,1.79-2.937,4.138-2.937,6.49l-0.107,46.478H115.253V342.021
		c0-2.457-0.96-4.674-2.697-6.224c-37.1-34.108-58.362-82.617-58.362-133.02c0-99.362,80.826-180.216,180.19-180.216
		c26.79,0,52.7,5.822,77.009,17.31c63.302,29.434,104.197,93.514,104.197,163.201v31.359c0,1.468,0.321,2.749,0.934,3.899
		l38.41,73.349C458.141,317.768,458.701,323.402,456.458,327.195z"/>
	<g>
		<path fill="#307167" d="M360.876,117.518c0-2.129-0.827-4.132-2.329-5.634l-0.952-0.952l-7.015-7.014L340.436,93.77
			c-0.378-0.375-0.826-0.702-1.304-0.926l-10.497-10.473c-0.25-0.501-0.603-0.976-1.027-1.403l-3.308-3.307
			c-1.427-1.454-3.479-2.281-5.637-2.281c-2.154,0-4.207,0.827-5.637,2.281l-8.29,8.268c-1.354-1.027-3.057-1.581-4.836-1.581
			c-2.154,0-4.233,0.83-5.687,2.259l-8.292,8.316c-1.503,1.502-2.33,3.508-2.33,5.637c0,1.776,0.577,3.482,1.654,4.883l-0.551,0.529
			c-0.102,0.073-0.553,0.271-0.603,0.297h-85.979c0-0.026-0.026-0.047-0.026-0.073c-0.074-0.201-0.175-0.402-0.275-0.6
			c-0.376-0.73-0.876-1.406-1.453-1.982l-4.736-4.758l0.051-0.052c1.502-1.502,2.329-3.506,2.329-5.634
			c0-2.131-0.827-4.132-2.329-5.666l-20.743-20.715c-1.428-1.454-3.484-2.255-5.637-2.255c-2.154,0-4.208,0.801-5.637,2.255
			l-59.124,59.123c-1.502,1.502-2.354,3.505-2.354,5.634c0,2.134,0.852,4.137,2.354,5.639l20.719,20.745
			c1.453,1.427,3.507,2.251,5.662,2.251c0.2,0,0.375,0,0.577-0.026c1.929-0.12,3.757-0.923,5.06-2.225l0.05-0.052l4.734,4.734
			c1.479,1.477,3.533,2.306,5.663,2.306c1.627,0,3.206-0.475,4.558-1.429l0.677,0.678l4.309,4.33
			c-0.076,0.079-0.125,0.151-0.201,0.227c-2.604,2.856-4.008,6.565-4.008,10.473c0,1.979,0.351,3.934,1.077,5.712
			c0.751,1.977,1.929,3.809,3.481,5.337l0.927,0.926c2.656,2.652,6.163,4.259,9.921,4.533c0.275,3.759,1.878,7.265,4.534,9.92
			l0.927,0.929c2.405,2.405,5.512,3.957,8.869,4.408c0.35,0.052,0.702,0.099,1.053,0.125c0.124,1.805,0.576,3.558,1.303,5.186
			c0.75,1.753,1.854,3.354,3.232,4.737l0.927,0.924c2.354,2.358,5.535,3.91,8.843,4.385c1.527,0.227,3.105,0.227,4.634,0
			c0.702,2.632,2.081,5.037,4.034,6.988l0.926,0.929c2.955,2.958,6.89,4.585,11.073,4.585c2.281,0,4.56-0.527,6.615-1.502
			c0.199-0.078,0.399-0.177,0.6-0.276c1.628,1.252,3.507,2.155,5.462,2.655c0.024,0.026,0.049,0,0.049,0
			c0.45,0.151,0.927,0.225,1.377,0.326c0.853,0.125,1.705,0.201,2.556,0.201c4.209,0,8.118-1.627,11.073-4.56l2.029-2.029
			c1.353-1.377,2.48-3.031,3.256-4.81c2.079,1.002,4.385,1.502,6.713,1.502c4.185,0,8.119-1.627,11.051-4.56l2.029-2.029
			c2.655-2.655,4.257-6.161,4.534-9.92c3.759-0.274,7.265-1.854,9.92-4.536l2.003-2.003c2.655-2.655,4.26-6.187,4.536-9.92
			c3.756-0.276,7.265-1.88,9.92-4.534l2.029-2.032c3.482-3.479,5.11-8.438,4.408-13.327l26.63-26.627
			c1.203,0.723,2.606,1.101,4.085,1.101c2.154,0,4.233-0.827,5.687-2.303l8.292-8.295c2.606-2.604,3.081-6.665,1.177-9.769
			l8.418-8.394C360.049,121.678,360.876,119.646,360.876,117.518z M143,152.894l-2.707-2.708l29.862-29.861
			c0.476-0.475,0.827-0.999,1.102-1.576l10.097-10.298c0.701-0.25,1.327-0.652,1.852-1.179l0.728-0.726l2.705,2.708L143,152.894z
			 M167.626,184.033c-0.126,0.073-0.227,0.151-0.353,0.201c-0.15,0.096-0.3,0.174-0.475,0.227c-0.026,0.023-0.051,0.023-0.077,0.023
			c-0.275,0.123-0.575,0.201-0.876,0.248c-0.3,0.078-0.626,0.102-0.952,0.102c-1.303,0-2.555-0.477-3.407-1.328l-0.927-0.926
			c-0.876-0.903-1.377-2.105-1.377-3.383c0-0.324,0.025-0.652,0.101-0.952c0.025-0.225,0.101-0.451,0.175-0.649
			c0.051-0.128,0.1-0.25,0.15-0.376c0.076-0.203,0.201-0.401,0.326-0.605c0.176-0.297,0.375-0.574,0.626-0.824l6.94-6.938
			c0.901-0.876,2.104-1.382,3.406-1.382c1.278,0,2.481,0.506,3.382,1.382l0.928,0.926c0.901,0.903,1.377,2.105,1.377,3.41
			c0,1.275-0.476,2.478-1.377,3.38l-6.94,6.938C168.076,183.705,167.851,183.882,167.626,184.033z M180.251,200.216
			c-0.3,0-0.602-0.026-0.903-0.102c-0.951-0.148-1.829-0.576-2.479-1.226l-0.928-0.926c-0.901-0.902-1.403-2.105-1.403-3.407
			c0-0.73,0.151-1.403,0.476-2.029c0.201-0.501,0.527-0.952,0.927-1.354l6.94-6.938c0.901-0.905,2.104-1.38,3.407-1.38
			c1.278,0,2.48,0.475,3.382,1.38l0.927,0.926c0.901,0.902,1.403,2.103,1.403,3.38c0,1.304-0.502,2.507-1.403,3.407l-6.938,6.941
			C182.806,199.741,181.553,200.216,180.251,200.216z M205.979,207.306l-6.938,6.964c-0.074,0.076-0.175,0.149-0.25,0.178
			c-0.176,0.146-0.375,0.297-0.575,0.422c-0.151,0.102-0.301,0.175-0.451,0.227c-0.375,0.201-0.751,0.326-1.179,0.399
			c-0.325,0.078-0.626,0.102-0.951,0.102c-1.303,0-2.53-0.5-3.383-1.328l-0.926-0.952c-1.878-1.854-1.878-4.886,0-6.764l6.94-6.938
			c0.175-0.177,0.375-0.354,0.601-0.501c0.125-0.102,0.225-0.151,0.351-0.227c0.124-0.076,0.275-0.151,0.425-0.201
			c0.075-0.052,0.151-0.099,0.25-0.125c0.252-0.099,0.501-0.175,0.777-0.225c0.025,0,0.025,0,0.025,0
			c0.325-0.075,0.626-0.102,0.952-0.102c1.302,0,2.504,0.478,3.407,1.38l0.902,0.926
			C207.833,202.423,207.833,205.454,205.979,207.306z M218.28,225.769l-0.801,0.804c-0.853,0.85-2.081,1.328-3.383,1.328
			c-0.25,0-0.475-0.029-0.7-0.052c-0.176-0.023-0.326-0.049-0.502-0.102c-0.2-0.021-0.4-0.099-0.575-0.175
			c-0.051,0-0.1-0.023-0.151-0.073c-0.15-0.023-0.3-0.102-0.451-0.201c-0.15-0.076-0.3-0.151-0.425-0.25
			c-0.201-0.151-0.4-0.3-0.576-0.475l-0.927-0.929c-0.149-0.148-0.3-0.323-0.425-0.501c-0.101-0.125-0.201-0.25-0.275-0.401
			c-0.251-0.376-0.426-0.798-0.527-1.226c-0.049-0.201-0.1-0.402-0.125-0.6c-0.226-1.456,0.226-2.958,1.328-4.059l0.802-0.777
			c0.902-0.903,2.105-1.403,3.382-1.403c1.303,0,2.505,0.5,3.407,1.403l0.927,0.902c0.876,0.902,1.378,2.103,1.378,3.407
			C219.659,223.667,219.157,224.869,218.28,225.769z M298.747,167.6l-5.485-5.515c-0.979-0.976-2.382-1.552-3.857-1.552
			c-1.453,0-2.856,0.576-3.835,1.552c-2.103,2.134-2.103,5.562,0,7.667l6.592,6.592c1.878,1.878,1.878,4.906,0,6.787l-2.006,2.003
			c-0.877,0.877-2.105,1.354-3.407,1.354c-1.277,0-2.53-0.477-3.383-1.354l-23.272-23.272c-0.976-0.976-2.381-1.528-3.833-1.528
			c-1.479,0-2.881,0.553-3.858,1.528c-2.104,2.131-2.104,5.561,0,7.69l23.298,23.275c1.854,1.852,1.854,4.912,0,6.764l-2.029,2.029
			c-0.851,0.85-2.077,1.351-3.381,1.351c-1.302,0-2.53-0.501-3.381-1.351l-23.55-23.526c-0.977-0.999-2.38-1.552-3.833-1.552
			c-1.455,0-2.856,0.553-3.833,1.552c-1.027,1.004-1.604,2.382-1.604,3.832c0,1.456,0.577,2.807,1.604,3.834l23.524,23.523
			c0.902,0.902,1.403,2.105,1.403,3.409c0,1.275-0.501,2.481-1.403,3.381l-2.004,2.006c-0.852,0.85-2.105,1.351-3.384,1.351
			c-1.301,0-2.555-0.501-3.406-1.351l-23.022-23.022c-0.977-1.004-2.405-1.555-3.858-1.555c-1.078,0-2.104,0.303-2.981,0.851
			c-0.3,0.224-0.577,0.454-0.827,0.704c-1.028,1.028-1.603,2.405-1.603,3.832c0,1.254,0.425,2.48,1.227,3.433
			c0.101,0.148,0.226,0.274,0.375,0.425l16.435,16.433c0.901,0.902,1.403,2.105,1.403,3.381c0,1.28-0.502,2.483-1.403,3.386
			l-2.004,2.026c-0.876,0.879-2.128,1.38-3.432,1.38c-0.603,0-1.178-0.099-1.678-0.302c0.952-2.077,1.478-4.356,1.478-6.662
			c0-4.184-1.627-8.118-4.584-11.073l-0.927-0.926c-1.954-1.93-4.359-3.333-6.989-4.038c0.776-4.933-0.852-9.967-4.385-13.476
			l-0.926-0.929c-2.655-2.676-6.164-4.283-9.921-4.533c-0.275-3.756-1.879-7.265-4.533-9.923l-0.927-0.923
			c-2.656-2.658-6.163-4.26-9.92-4.536c-0.276-3.759-1.879-7.265-4.535-9.92l-0.927-0.929c-2.931-2.953-6.863-4.557-11.048-4.557
			c-4.008,0-7.792,1.479-10.697,4.184l-4.884-4.886l38.805-38.806h28.359l-0.226,0.225l-15.056,15.056
			c-2.931,2.958-4.558,6.889-4.558,11.076c0,4.182,1.627,8.115,4.558,11.073l0.927,0.926c2.956,2.932,6.889,4.562,11.073,4.562
			s8.116-1.63,11.073-4.562l17.084-17.085c0.853-0.876,2.08-1.354,3.383-1.354c1.303,0,2.53,0.477,3.407,1.354l17.488,17.438
			c0.976,0.976,2.379,1.552,3.832,1.552s2.856-0.577,3.858-1.552c1.001-1.027,1.578-2.384,1.578-3.834
			c0-1.456-0.577-2.828-1.604-3.832l-13.802-13.781l-3.683-3.683c-2.956-2.955-6.892-4.585-11.075-4.585
			c-0.626,0-1.253,0.026-1.853,0.13c-0.328,0.021-0.652,0.073-0.977,0.146c-1.003,0.151-2.004,0.454-2.932,0.83
			c-0.226,0.073-0.476,0.172-0.702,0.3c-0.174,0.073-0.375,0.151-0.55,0.248c-0.275,0.151-0.552,0.302-0.827,0.451
			c-0.026,0-0.051,0.028-0.074,0.052c-0.301,0.175-0.627,0.373-0.928,0.603c-0.777,0.524-1.53,1.126-2.23,1.826l-3.683,3.683
			l-13.402,13.402c-0.853,0.853-2.079,1.354-3.382,1.354c-1.303,0-2.532-0.501-3.382-1.354l-0.927-0.926
			c-0.901-0.903-1.403-2.105-1.403-3.381c0-1.281,0.502-2.48,1.403-3.383l9.544-9.573l7.767-7.763
			c2.756-2.731,8.567-5.261,12.701-5.587c0.301-0.026,0.603-0.05,0.902-0.05h38.28c2.88,0,6.161-1.351,8.19-3.383l0.577-0.574
			l20.993,20.993h0.025l9.169,9.171L298.747,167.6z M334.997,139.94l-18.337-18.364l-21.02-21.017l4.233-4.233l39.383,39.38
			L334.997,139.94z"/>
		<path fill="#FFFFFF" d="M219.659,222.388c0,1.278-0.502,2.48-1.378,3.38l-0.801,0.804c-0.853,0.85-2.081,1.328-3.383,1.328
			c-1.302,0-2.53-0.478-3.382-1.328l-0.927-0.929c-1.878-1.878-1.878-4.909-0.025-6.787l0.802-0.777
			c0.902-0.903,2.105-1.403,3.382-1.403c1.303,0,2.505,0.5,3.407,1.403l0.927,0.902
			C219.157,219.884,219.659,221.084,219.659,222.388z"/>
		<path fill="#FFFFFF" d="M205.979,207.306l-6.938,6.964c-0.876,0.827-2.104,1.328-3.407,1.328c-1.303,0-2.53-0.5-3.383-1.328
			l-0.926-0.952c-1.878-1.854-1.878-4.886,0-6.764l6.94-6.938c0.901-0.902,2.104-1.38,3.382-1.38c1.302,0,2.504,0.478,3.407,1.38
			l0.902,0.926C207.833,202.423,207.833,205.454,205.979,207.306z"/>
		<path fill="#FFFFFF" d="M192.001,188.541c0,1.304-0.502,2.507-1.403,3.407l-6.938,6.941c-0.853,0.853-2.106,1.328-3.408,1.328
			c-1.302,0-2.53-0.475-3.382-1.328l-0.928-0.926c-0.901-0.902-1.403-2.105-1.403-3.407c0-1.278,0.502-2.483,1.403-3.383l6.94-6.938
			c0.901-0.905,2.104-1.38,3.407-1.38c1.278,0,2.48,0.475,3.382,1.38l0.927,0.926C191.499,186.063,192.001,187.263,192.001,188.541z
			"/>
		<path fill="#FFFFFF" d="M176.593,173.188c0,1.275-0.476,2.478-1.377,3.38l-6.94,6.938c-0.851,0.851-2.104,1.328-3.382,1.328
			c-1.303,0-2.555-0.477-3.407-1.328l-0.927-0.926c-0.876-0.903-1.377-2.105-1.377-3.383c0-1.304,0.501-2.504,1.377-3.407
			l6.94-6.938c0.901-0.876,2.104-1.382,3.406-1.382c1.278,0,2.481,0.506,3.382,1.382l0.928,0.926
			C176.117,170.681,176.593,171.883,176.593,173.188z"/>
		<polygon fill="#FFFFFF" points="339.257,135.706 334.997,139.94 295.641,100.56 299.874,96.326 		"/>
		<path fill="#FFFFFF" d="M285.569,162.085c-2.103,2.134-2.103,5.562,0,7.667l6.592,6.592c1.878,1.878,1.878,4.906,0,6.787
			l-2.006,2.003c-0.877,0.877-2.105,1.354-3.407,1.354c-1.277,0-2.53-0.477-3.383-1.354l-23.272-23.272
			c-0.976-0.976-2.381-1.528-3.833-1.528c-1.479,0-2.881,0.553-3.858,1.528c-2.104,2.131-2.104,5.561,0,7.69l23.298,23.275
			c1.854,1.852,1.854,4.912,0,6.764l-2.029,2.029c-0.851,0.85-2.077,1.351-3.381,1.351c-1.302,0-2.53-0.501-3.381-1.351
			l-23.55-23.526c-0.977-0.999-2.38-1.552-3.833-1.552c-1.455,0-2.856,0.553-3.833,1.552c-1.027,1.004-1.604,2.382-1.604,3.832
			c0,1.456,0.577,2.807,1.604,3.834l23.524,23.523c0.902,0.902,1.403,2.105,1.403,3.409c0,1.275-0.501,2.481-1.403,3.381
			l-2.004,2.006c-0.852,0.85-2.105,1.351-3.384,1.351c-1.301,0-2.555-0.501-3.406-1.351l-23.022-23.022
			c-0.977-1.004-2.405-1.555-3.858-1.555c-1.078,0-2.104,0.303-2.981,0.851c-0.3,0.224-0.577,0.454-0.827,0.704
			c-1.028,1.028-1.603,2.405-1.603,3.832c0,1.254,0.425,2.48,1.227,3.433c0.101,0.148,0.226,0.274,0.375,0.425l16.435,16.433
			c0.901,0.902,1.403,2.105,1.403,3.381c0,1.28-0.502,2.483-1.403,3.386l-2.004,2.026c-0.876,0.879-2.128,1.38-3.432,1.38
			c-0.603,0-1.178-0.099-1.678-0.302c0.952-2.077,1.478-4.356,1.478-6.662c0-4.184-1.627-8.118-4.584-11.073l-0.927-0.926
			c-1.954-1.93-4.359-3.333-6.989-4.038c0.776-4.933-0.852-9.967-4.385-13.476l-0.926-0.929c-2.655-2.676-6.164-4.283-9.921-4.533
			c-0.275-3.756-1.879-7.265-4.533-9.923l-0.927-0.923c-2.656-2.658-6.163-4.26-9.92-4.536c-0.276-3.759-1.879-7.265-4.535-9.92
			l-0.927-0.929c-2.931-2.953-6.863-4.557-11.048-4.557c-4.008,0-7.792,1.479-10.697,4.184l-4.884-4.886l38.805-38.806h28.359
			l-15.282,15.28c-2.931,2.958-4.558,6.889-4.558,11.076c0,4.182,1.627,8.115,4.558,11.073l0.927,0.926
			c2.956,2.932,6.889,4.562,11.073,4.562s8.116-1.63,11.073-4.562l17.084-17.085c0.853-0.876,2.08-1.354,3.383-1.354
			c1.303,0,2.53,0.477,3.407,1.354l17.488,17.438c0.976,0.976,2.379,1.552,3.832,1.552s2.856-0.577,3.858-1.552
			c1.001-1.027,1.578-2.384,1.578-3.834c0-1.456-0.577-2.828-1.604-3.832l-17.484-17.464c-2.956-2.955-6.892-4.585-11.075-4.585
			c-4.184,0-8.116,1.63-11.073,4.585l-17.085,17.085c-0.853,0.853-2.079,1.354-3.382,1.354c-1.303,0-2.532-0.501-3.382-1.354
			l-0.927-0.926c-0.901-0.903-1.403-2.105-1.403-3.381c0-1.281,0.502-2.48,1.403-3.383l17.311-17.335
			c2.957-2.932,9.444-5.637,13.603-5.637h38.28c2.88,0,6.161-1.351,8.19-3.383l0.577-0.574l30.188,30.165L298.747,167.6
			l-5.485-5.515c-0.979-0.976-2.382-1.552-3.857-1.552C287.951,160.534,286.548,161.11,285.569,162.085z"/>
		<path fill="#FFFFFF" d="M186.64,109.254L143,152.894l-2.707-2.708l29.862-29.861c0.476-0.475,0.827-0.999,1.102-1.576
			l10.097-10.298c0.701-0.25,1.327-0.652,1.852-1.179l0.728-0.726L186.64,109.254z"/>
		<line fill="none" x1="339.233" y1="92.94" x2="339.132" y2="92.844"/>
		<line fill="none" x1="328.635" y1="82.371" x2="328.158" y2="81.896"/>
		<line fill="none" x1="171.257" y1="118.749" x2="171.183" y2="118.822"/>
		<line fill="none" x1="181.404" y1="108.401" x2="181.354" y2="108.45"/>
	</g>
</g>
</svg>
