<?xml version="1.0" encoding="utf-8"?>
<!-- Generator: Adobe Illustrator 16.0.0, SVG Export Plug-In . SVG Version: 6.00 Build 0)  -->
<!DOCTYPE svg PUBLIC "-//W3C//DTD SVG 1.1//EN" "http://www.w3.org/Graphics/SVG/1.1/DTD/svg11.dtd">
<svg version="1.1" id="Layer_1" xmlns="http://www.w3.org/2000/svg" xmlns:xlink="http://www.w3.org/1999/xlink" x="0px" y="0px"
	 width="512px" height="512px" viewBox="0 0 512 512" enable-background="new 0 0 512 512" xml:space="preserve">
<g>
	<path fill="#65696F" d="M506,399.68c0,49.303-40.108,89.411-89.418,89.411c-30.891,0-58.198-15.756-74.253-39.637l-7.465-13.492
		c-4.935-11.097-7.693-23.371-7.693-36.282c0-49.31,40.108-89.418,89.411-89.418c14.758,0,28.714,3.591,41.012,9.964l13.469,8.597
		C492.296,345.199,506,370.856,506,399.68z"/>
	<path fill="#BDC5D1" d="M84.087,169.38H60.662c-3.721,0-6.739,3.018-6.739,6.742c0,3.723,3.018,6.736,6.739,6.736h23.425
		c3.721,0,6.742-3.014,6.742-6.736C90.83,172.397,87.808,169.38,84.087,169.38z"/>
	<path fill="#BDC5D1" d="M132.655,182.858h23.429c3.721,0,6.739-3.014,6.739-6.736c0-3.725-3.018-6.742-6.739-6.742h-23.429
		c-3.721,0-6.738,3.018-6.738,6.742C125.917,179.845,128.934,182.858,132.655,182.858z"/>
	<path fill="#BDC5D1" d="M204.648,182.858h23.425c3.721,0,6.738-3.014,6.738-6.736c0-3.725-3.018-6.742-6.738-6.742h-23.425
		c-3.725,0-6.739,3.018-6.739,6.742C197.909,179.845,200.923,182.858,204.648,182.858z"/>
	<path fill="#BDC5D1" d="M276.643,182.858h23.418c3.725,0,6.742-3.014,6.742-6.736c0-3.725-3.018-6.742-6.742-6.742h-23.418
		c-3.725,0-6.742,3.018-6.742,6.742C269.9,179.845,272.918,182.858,276.643,182.858z"/>
	<path fill="#BDC5D1" d="M372.057,169.38h-23.425c-3.725,0-6.742,3.018-6.742,6.742c0,3.723,3.018,6.736,6.742,6.736h23.425
		c3.718,0,6.735-3.014,6.735-6.736C378.792,172.397,375.774,169.38,372.057,169.38z"/>
	<path fill="#BDC5D1" d="M84.087,203.272H60.662c-3.721,0-6.739,3.014-6.739,6.739c0,3.723,3.018,6.74,6.739,6.74h23.425
		c3.721,0,6.742-3.018,6.742-6.74C90.83,206.286,87.808,203.272,84.087,203.272z"/>
	<path fill="#BDC5D1" d="M132.655,216.751h23.429c3.721,0,6.739-3.018,6.739-6.74c0-3.725-3.018-6.739-6.739-6.739h-23.429
		c-3.721,0-6.738,3.014-6.738,6.739C125.917,213.733,128.934,216.751,132.655,216.751z"/>
	<path fill="#BDC5D1" d="M204.648,216.751h23.425c3.721,0,6.738-3.018,6.738-6.74c0-3.725-3.018-6.739-6.738-6.739h-23.425
		c-3.725,0-6.739,3.014-6.739,6.739C197.909,213.733,200.923,216.751,204.648,216.751z"/>
	<path fill="#BDC5D1" d="M276.643,216.751h23.418c3.725,0,6.742-3.018,6.742-6.74c0-3.725-3.018-6.739-6.742-6.739h-23.418
		c-3.725,0-6.742,3.014-6.742,6.739C269.9,213.733,272.918,216.751,276.643,216.751z"/>
	<path fill="#BDC5D1" d="M372.057,203.272h-23.425c-3.725,0-6.742,3.014-6.742,6.739c0,3.723,3.018,6.74,6.742,6.74h23.425
		c3.718,0,6.735-3.018,6.735-6.74C378.792,206.286,375.774,203.272,372.057,203.272z"/>
	<path fill="#307167" d="M132.82,349.058l34.651,34.654c5.018,5.014,11.677,7.772,18.766,7.772c7.092,0,13.759-2.759,18.769-7.772
		l94.898-94.899c10.349-10.346,10.349-27.186,0-37.533c-10.35-10.349-27.189-10.349-37.539,0l-76.128,76.128l-15.882-15.881
		c-10.345-10.35-27.186-10.35-37.535,0C122.475,321.872,122.475,338.708,132.82,349.058z M142.352,321.055
		c2.542-2.542,5.886-3.822,9.233-3.822c3.343,0,6.687,1.28,9.237,3.822l20.651,20.651c2.628,2.629,6.896,2.629,9.528,0
		l80.895-80.896c5.1-5.088,13.383-5.088,18.467,0c5.1,5.093,5.1,13.383,0,18.475l-94.89,94.896
		c-2.472,2.463-5.745,3.822-9.237,3.822c-3.485,0-6.766-1.359-9.233-3.822l-34.651-34.655
		C137.256,334.434,137.256,326.146,142.352,321.055z"/>
	<path fill="#BDC5D1" d="M426.428,247.785c-3.717,0-6.727,3.016-6.727,6.734V299.7l13.469,8.593V254.52
		C433.17,250.801,430.152,247.785,426.428,247.785z M305.459,429.608l-8.487-14.177"/>
	<path fill="#307167" d="M468.108,379.146c0,49.307-40.116,89.419-89.419,89.419c-30.898,0-58.198-15.756-74.252-39.641
		l-7.466-13.493c-4.935-11.096-7.692-23.366-7.692-36.285c0-49.303,40.107-89.41,89.41-89.41c14.758,0,28.714,3.591,41.012,9.964
		l13.469,8.593C454.403,324.67,468.108,350.326,468.108,379.146z"/>
	<g>
		<path fill="#BDC5D1" d="M392.189,47.626h-15.661v-6.333c0-10.137-8.243-18.384-18.38-18.384H345.63
			c-10.137,0-18.38,8.247-18.38,18.384v6.333h-40.675v-6.333c0-10.137-8.251-18.384-18.388-18.384h-12.517
			c-10.133,0-18.38,8.247-18.38,18.384v6.333h-40.682v-6.333c0-10.137-8.247-18.384-18.38-18.384H165.71
			c-10.137,0-18.384,8.247-18.384,18.384v6.333h-40.67v-6.333c0-10.137-8.248-18.384-18.389-18.384H75.753
			c-10.133,0-18.38,8.247-18.38,18.384v6.333h-8.38C25.288,47.626,6,66.913,6,90.617v255.399c0,4.829,3.925,8.754,8.75,8.754
			c4.829,0,8.754-3.925,8.754-8.754V151.74h394.177v72.069c0,4.825,3.922,8.75,8.746,8.75c4.825,0,8.746-3.925,8.746-8.75V90.617
			C435.174,66.913,415.891,47.626,392.189,47.626z M89.148,74.036c0,0.485-0.393,0.88-0.872,0.88H75.753
			c-0.487,0-0.88-0.395-0.88-0.88V41.293c0-0.487,0.393-0.882,0.88-0.882h12.522c0.479,0,0.872,0.395,0.872,0.882V74.036z
			 M359.028,74.036c0,0.485-0.394,0.88-0.88,0.88H345.63c-0.487,0-0.88-0.395-0.88-0.88V41.293c0-0.487,0.393-0.882,0.88-0.882
			h12.519c0.486,0,0.88,0.395,0.88,0.882V74.036z M48.993,65.129h8.38v8.907c0,10.135,8.248,18.382,18.38,18.382h12.522
			c10.133,0,18.38-8.247,18.38-18.382v-8.907h40.678v8.907c0,10.135,8.243,18.382,18.376,18.382h12.518
			c10.137,0,18.384-8.247,18.384-18.382v-8.907h40.678v8.907c0,10.135,8.247,18.382,18.384,18.382h12.52
			c10.129,0,18.38-8.247,18.38-18.382v-8.907h40.675v8.907c0,10.135,8.243,18.382,18.38,18.382h12.519
			c10.137,0,18.38-8.247,18.38-18.382v-8.907h15.661c14.059,0,25.492,11.434,25.492,25.488v43.621H23.504V90.617
			C23.504,76.563,34.938,65.129,48.993,65.129z M269.067,74.036c0,0.485-0.393,0.88-0.88,0.88h-12.517
			c-0.487,0-0.88-0.395-0.88-0.88V41.293c0-0.487,0.393-0.882,0.88-0.882h12.517c0.487,0,0.88,0.395,0.88,0.882V74.036z
			 M179.117,74.036c0,0.478-0.405,0.88-0.888,0.88H165.71c-0.487,0-0.88-0.395-0.88-0.88V41.293c0-0.487,0.393-0.882,0.88-0.882
			h12.518c0.491,0,0.888,0.395,0.888,0.882V74.036z"/>
		<path fill="#BDC5D1" d="M84.311,413.424H25.547c-1.127,0-2.043-0.919-2.043-2.043v-34.646c0-4.825-3.925-8.754-8.754-8.754
			c-4.825,0-8.75,3.929-8.75,8.754v34.646c0,10.777,8.77,19.544,19.547,19.544h58.764c4.829,0,8.754-3.926,8.754-8.751
			C93.065,417.35,89.14,413.424,84.311,413.424z"/>
		<path fill="#BDC5D1" d="M115.021,413.42c-4.821,0-8.746,3.926-8.746,8.75c0,4.833,3.925,8.767,8.746,8.767h192.827l-9.689-17.517
			H115.021z"/>
	</g>
	<path fill="#FFFFFF" d="M393.541,372.404h-8.117v-6.911c0-3.721-3.018-6.738-6.742-6.738c-3.717,0-6.742,3.018-6.742,6.738v13.649
		c0,3.725,3.025,6.738,6.742,6.738h14.859c3.718,0,6.734-3.014,6.734-6.738C400.275,375.422,397.259,372.404,393.541,372.404z"/>
	<path fill="#FFFFFF" d="M378.682,312.945c-36.502,0-66.197,29.7-66.197,66.197c0,36.506,29.695,66.201,66.197,66.201
		c36.501,0,66.197-29.695,66.197-66.201C444.879,342.646,415.183,312.945,378.682,312.945z M384.717,431.506
		c0.447-0.903,0.707-1.917,0.707-2.986v-8.212c0-3.721-3.018-6.742-6.742-6.742c-3.717,0-6.742,3.021-6.742,6.742v8.212
		c0,1.069,0.259,2.083,0.707,2.986c-24.25-2.777-43.542-22.073-46.324-46.328c0.896,0.452,1.91,0.703,2.986,0.703h8.204
		c3.725,0,6.742-3.014,6.742-6.738c0-3.721-3.018-6.738-6.742-6.738h-8.204c-1.076,0-2.091,0.26-2.986,0.707
		c2.782-24.258,22.074-43.55,46.324-46.328c-0.448,0.9-0.707,1.914-0.707,2.986v8.208c0,3.729,3.025,6.742,6.742,6.742
		c3.725,0,6.742-3.014,6.742-6.742v-8.208c0-1.072-0.26-2.086-0.707-2.986c24.258,2.778,43.55,22.07,46.324,46.328
		c-0.896-0.447-1.91-0.707-2.986-0.707h-8.212c-3.717,0-6.734,3.018-6.734,6.738c0,3.725,3.018,6.738,6.734,6.738h8.212
		c1.076,0,2.09-0.251,2.986-0.703C428.259,409.433,408.975,428.729,384.717,431.506z"/>
</g>
</svg>
