<?xml version="1.0" encoding="utf-8"?>
<!-- Generator: Adobe Illustrator 16.0.0, SVG Export Plug-In . SVG Version: 6.00 Build 0)  -->
<!DOCTYPE svg PUBLIC "-//W3C//DTD SVG 1.1//EN" "http://www.w3.org/Graphics/SVG/1.1/DTD/svg11.dtd">
<svg version="1.1" id="Layer_1" xmlns="http://www.w3.org/2000/svg" xmlns:xlink="http://www.w3.org/1999/xlink" x="0px" y="0px"
	 width="512px" height="512px" viewBox="0 0 512 512" enable-background="new 0 0 512 512" xml:space="preserve">
<g>
	<path fill="#65696F" d="M506,195.21c0,73.508-59.819,133.087-133.619,133.087c-73.801,0-133.616-59.579-133.616-133.087
		S298.58,62.123,372.381,62.123C446.181,62.123,506,121.702,506,195.21z"/>
	<path fill="#307167" d="M433.626,174.793c0,73.508-59.82,133.087-133.62,133.087s-133.615-59.58-133.615-133.087
		S226.206,41.706,300.006,41.706S433.626,101.286,433.626,174.793z"/>
	<path fill="#307167" d="M413.514,175.072c0,61.928-50.21,112.135-112.138,112.135c-61.928,0-112.134-50.207-112.134-112.135
		c0-61.928,50.206-112.134,112.134-112.134C363.304,62.938,413.514,113.145,413.514,175.072z"/>
	<g id="surface1">
		<path fill="#BDC5D1" d="M144.016,93.055h18.399v18.402h-18.399V93.055z"/>
		<path fill="#BDC5D1" d="M107.211,93.055h18.403v18.402h-18.403V93.055z"/>
		<path fill="#BDC5D1" d="M70.405,93.055h18.403v18.402H70.405V93.055z"/>
		<path fill="#BDC5D1" d="M33.604,93.055h18.403v18.402H33.604V93.055z"/>
		<path fill="#BDC5D1" d="M33.604,221.865h18.403v18.403H33.604V221.865z"/>
		<path fill="#BDC5D1" d="M33.604,258.671h18.403v18.402H33.604V258.671z"/>
		<path fill="#BDC5D1" d="M199.22,424.287h18.403v18.402H199.22V424.287z"/>
		<path fill="#BDC5D1" d="M79.611,166.661c0-20.322-16.479-36.801-36.805-36.801C22.479,129.86,6,146.339,6,166.661
			c0,20.322,16.479,36.801,36.806,36.801C63.132,203.462,79.611,186.983,79.611,166.661z M42.806,185.06
			c-10.163,0-18.403-8.235-18.403-18.398s8.24-18.398,18.403-18.398s18.402,8.235,18.402,18.398S52.969,185.06,42.806,185.06z"/>
		<path fill="#BDC5D1" d="M346.438,433.488c0-20.326-16.479-36.801-36.805-36.801s-36.802,16.475-36.802,36.801
			s16.476,36.806,36.802,36.806S346.438,453.814,346.438,433.488z M291.229,433.488c0-10.163,8.239-18.402,18.403-18.402
			c10.163,0,18.402,8.239,18.402,18.402s-8.239,18.402-18.402,18.402C299.469,451.891,291.229,443.651,291.229,433.488z"/>
		<path fill="#BDC5D1" d="M236.026,424.287h18.403v18.402h-18.403V424.287z"/>
		<path fill="#BDC5D1" d="M364.841,424.287h18.398v18.402h-18.398V424.287z"/>
		<path fill="#BDC5D1" d="M364.841,387.485h18.398v18.398h-18.398V387.485z"/>
		<path fill="#BDC5D1" d="M364.841,350.685h18.398v18.398h-18.398V350.685z"/>
		<path fill="#BDC5D1" d="M364.841,313.879h18.398v18.398h-18.398V313.879z"/>
	</g>
	<path fill="#FFFFFF" d="M188.778,174.909c0,61.825,50.3,112.126,112.116,112.126c61.816,0,112.121-50.301,112.121-112.126
		c0-11.661-1.829-23.25-5.444-34.435l-10.159,3.276c2.71,8.412,4.251,17.081,4.715,25.822h-10.464v10.679h10.408
		c-1.263,23.941-10.82,45.667-25.891,62.4l-7.334-7.342l-7.553,7.557l7.343,7.338c-16.732,15.08-38.463,24.625-62.4,25.882v-10.408
		h-10.679v10.408c-23.941-1.258-45.667-10.808-62.404-25.882l7.342-7.338l-7.544-7.557l-7.347,7.342
		c-15.08-16.732-24.62-38.458-25.874-62.4h10.399v-10.679h-10.399c1.253-23.941,10.807-45.659,25.874-62.4l7.347,7.338l7.544-7.544
		l-7.342-7.342C249.89,84.54,271.616,75,295.558,73.746v10.408h10.679V73.682c8.746,0.463,17.406,2.005,25.831,4.723l3.28-10.171
		c-11.202-3.611-22.791-5.436-34.453-5.436C239.079,62.797,188.778,113.093,188.778,174.909z"/>
	<path fill="#FFFFFF" d="M295.558,94.832v65.049c-6.195,2.207-10.674,8.085-10.674,15.028c0,8.837,7.188,16.016,16.011,16.016
		c2.465,0,4.779-0.597,6.866-1.602l37.41,37.415l7.549-7.552l-37.411-37.411c1.005-2.083,1.602-4.392,1.602-6.866
		c0-6.942-4.482-12.821-10.674-15.028V94.832H295.558z M295.558,174.909c0-2.941,2.396-5.337,5.337-5.337
		c2.954,0,5.342,2.396,5.342,5.337c0,2.95-2.388,5.342-5.342,5.342C297.953,180.251,295.558,177.859,295.558,174.909z"/>
	<path fill="#BDC5D1" d="M101.771,277.971c-50.288,0-91.052,40.765-91.052,91.052c0,50.284,40.764,91.048,91.052,91.048
		c50.284,0,91.048-40.764,91.048-91.048C192.763,318.761,152.033,278.026,101.771,277.971z M23.166,375.094h31.057
		c0.369,12.259,1.906,24.448,4.577,36.419H35.382C28.349,400.577,24.149,388.061,23.166,375.094z M107.838,314.395v-23.977
		c4.585,0.361,9.137,1.116,13.589,2.275c3.237,7.047,6.016,14.299,8.321,21.701H107.838z M133.115,326.532
		c2.873,11.94,4.525,24.144,4.929,36.419h-30.206v-36.419H133.115z M95.695,314.395H74.665c2.314-7.42,5.101-14.681,8.338-21.744
		l-0.275-0.111c4.259-1.064,8.596-1.773,12.967-2.121V314.395z M95.695,326.532v36.419H66.369
		c0.408-12.275,2.061-24.479,4.934-36.419H95.695z M54.223,362.951H23.166c0.983-12.967,5.183-25.482,12.216-36.419h23.417
		C56.129,338.503,54.592,350.693,54.223,362.951z M66.365,375.094h29.33v36.419H71.303c-2.873-11.944-4.525-24.147-4.934-36.419
		H66.365z M95.695,423.651v23.972c-4.367-0.339-8.708-1.048-12.967-2.104l0.275-0.129c-3.237-7.063-6.024-14.324-8.338-21.739
		H95.695z M107.838,423.651h21.911c-2.306,7.402-5.084,14.65-8.321,21.7c-4.453,1.159-9.004,1.915-13.589,2.271V423.651z
		 M107.838,411.513v-36.419h30.206c-0.404,12.271-2.057,24.475-4.929,36.419H107.838z M150.199,375.094h30.172
		c-0.983,12.967-5.183,25.483-12.216,36.419h-22.533C148.289,399.542,149.826,387.353,150.199,375.094z M150.199,362.951
		c-0.374-12.258-1.911-24.448-4.577-36.419h22.533c7.033,10.937,11.232,23.452,12.216,36.419H150.199z M158.576,314.395h-16.14
		c-1.563-5.333-3.336-10.627-5.367-15.84C145.085,302.578,152.354,307.932,158.576,314.395z M67.524,298.039
		c-2.108,5.385-3.938,10.847-5.552,16.355H44.978C51.466,307.653,59.1,302.118,67.524,298.039z M44.957,423.651h16.995
		c1.614,5.505,3.443,10.966,5.56,16.351C59.087,435.927,51.453,430.389,44.957,423.651z M137.078,439.49
		c2.022-5.212,3.8-10.506,5.367-15.839h16.131C152.359,430.109,145.09,435.468,137.078,439.49z"/>
</g>
</svg>
