<?xml version="1.0" encoding="utf-8"?>
<!-- Generator: Adobe Illustrator 16.0.0, SVG Export Plug-In . SVG Version: 6.00 Build 0)  -->
<!DOCTYPE svg PUBLIC "-//W3C//DTD SVG 1.1//EN" "http://www.w3.org/Graphics/SVG/1.1/DTD/svg11.dtd">
<svg version="1.1" id="Layer_1" xmlns="http://www.w3.org/2000/svg" xmlns:xlink="http://www.w3.org/1999/xlink" x="0px" y="0px"
	 width="512px" height="512px" viewBox="0 0 512 512" enable-background="new 0 0 512 512" xml:space="preserve">
<g>
	<path fill="#57BC90" d="M256.081,72.651c-101.126,0-183.391,82.267-183.391,183.391s82.265,183.394,183.391,183.394
		c101.124,0,183.389-82.27,183.389-183.394S357.205,72.651,256.081,72.651z M256.081,422.763
		c-91.931,0-166.721-74.79-166.721-166.721c0-91.929,74.79-166.718,166.721-166.718c91.926,0,166.718,74.79,166.718,166.718
		C422.799,347.973,348.007,422.763,256.081,422.763z"/>
	<path fill="#307167" d="M256.081,131.002c4.601,0,8.333-3.724,8.333-8.335v-16.673c0-4.608-3.732-8.335-8.333-8.335
		c-4.603,0-8.338,3.727-8.338,8.335v16.673C247.743,127.278,251.478,131.002,256.081,131.002z"/>
	<path fill="#307167" d="M256.081,381.081c-4.603,0-8.338,3.727-8.338,8.338v16.673c0,4.608,3.735,8.336,8.338,8.336
		c4.601,0,8.333-3.728,8.333-8.336v-16.673C264.414,384.808,260.682,381.081,256.081,381.081z"/>
	<path fill="#307167" d="M389.455,264.377h16.674c4.601,0,8.335-3.725,8.335-8.335c0-4.611-3.734-8.335-8.335-8.335h-16.674
		c-4.603,0-8.332,3.724-8.332,8.335C381.123,260.652,384.853,264.377,389.455,264.377z"/>
	<path fill="#307167" d="M264.414,215.548v-42.864c0-4.611-3.732-8.338-8.333-8.338c-4.603,0-8.338,3.727-8.338,8.338v42.864
		c-14.337,3.724-25.008,16.665-25.008,32.159c0,6.167,1.794,11.872,4.729,16.828l-68.973,68.973c-3.259,3.265-3.259,8.531,0,11.79
		c1.627,1.627,3.761,2.443,5.896,2.443c2.134,0,4.268-0.816,5.892-2.443l68.971-68.973c4.961,2.935,10.666,4.726,16.833,4.726
		c18.386,0,33.344-14.952,33.344-33.343C289.425,232.213,278.754,219.272,264.414,215.548z M256.081,264.377
		c-9.196,0-16.673-7.475-16.673-16.67s7.477-16.67,16.673-16.67c9.193,0,16.673,7.475,16.673,16.67S265.274,264.377,256.081,264.377
		z"/>
	<g>
		<path fill="#307167" d="M14.338,264.377c4.601,0,8.335-3.725,8.335-8.335c0-128.698,104.709-233.405,233.408-233.405
			c52.742,0,103.183,17.63,144.226,50.014h-44.192c-4.603,0-8.34,3.727-8.34,8.337c0,4.611,3.737,8.335,8.34,8.335h65.977
			c0.549,0.05,1.066,0.058,1.608,0h7.428V14.301c0-4.611-3.735-8.338-8.336-8.338c-4.603,0-8.338,3.727-8.338,8.338v48.432
			c-44.645-36.696-100.18-56.77-158.372-56.77C118.187,5.963,6,118.148,6,256.042C6,260.652,9.735,264.377,14.338,264.377z"/>
		<path fill="#307167" d="M105.107,444.936c-2.751,3.659-2,8.911,1.75,11.662c1.417,1.083,3.167,1.582,4.919,1.582
			c2.582,0,5.084-1.082,6.75-3.334c2.667-3.656,1.919-8.908-1.75-11.659C113.108,440.435,107.867,441.183,105.107,444.936z"/>
		<path fill="#307167" d="M66.269,391.668c-2.667-3.659-7.917-4.585-11.67-1.909c-3.75,2.752-4.584,7.92-1.917,11.665
			c1.666,2.257,4.167,3.499,6.836,3.499c1.666,0,3.332-0.499,4.833-1.574C68.095,400.67,68.937,395.421,66.269,391.668z"/>
		<path fill="#307167" d="M69.512,409.84c-3.418,3.076-3.75,8.338-0.667,11.748c1.585,1.915,3.918,2.841,6.251,2.841
			c1.919,0,3.917-0.664,5.502-2.085c3.418-3.083,3.75-8.335,0.667-11.753C78.274,407.091,73.022,406.84,69.512,409.84z"/>
		<path fill="#307167" d="M98.195,427.766c-3.332-3.086-8.667-2.838-11.754,0.508c-3.167,3.407-2.916,8.667,0.5,11.837
			c1.584,1.418,3.585,2.166,5.586,2.166c2.251,0,4.501-0.916,6.167-2.668c3.086-3.416,2.918-8.668-0.5-11.754
			C98.195,427.766,98.195,427.766,98.195,427.766z"/>
		<path fill="#307167" d="M53.266,371.414c-0.084,0-0.084,0-0.084,0c-2.252-4.001-7.336-5.421-11.335-3.086
			c-4.001,2.26-5.419,7.334-3.083,11.338c1.499,2.66,4.333,4.166,7.25,4.166c1.334,0,2.835-0.332,4.085-1.082
			C54.1,380.498,55.517,375.405,53.266,371.414z"/>
		<path fill="#307167" d="M497.322,273.717c0.167,0,0.251,0,0.335,0c4.498,0,8.165-3.594,8.338-8.006
			c0.162-4.677-3.421-8.508-8.004-8.667c-4.587-0.176-8.505,3.418-8.672,8.003C489.151,269.629,492.729,273.549,497.322,273.717z"/>
		<path fill="#307167" d="M16.503,289.305c4.585-0.511,7.919-4.593,7.42-9.178c-0.502-4.587-4.585-7.919-9.169-7.42
			c-4.585,0.416-7.919,4.585-7.417,9.086c0.416,4.334,4.083,7.504,8.249,7.504C15.92,289.305,16.171,289.305,16.503,289.305z"/>
		<path fill="#307167" d="M21.172,313.811c4.504-0.918,7.42-5.335,6.418-9.836c-0.915-4.502-5.335-7.426-9.836-6.429
			c-4.501,0.92-7.417,5.346-6.418,9.847c0.75,3.918,4.25,6.585,8.087,6.585C19.998,313.978,20.589,313.978,21.172,313.811z"/>
		<path fill="#307167" d="M42.346,349.822c-1.836-4.169-6.753-6.084-11.003-4.253c-4.169,1.836-6.086,6.753-4.253,10.998
			c1.418,3.083,4.417,5.008,7.668,5.008c1.085,0,2.252-0.251,3.335-0.758C42.254,358.991,44.172,354.074,42.346,349.822z"/>
		<path fill="#307167" d="M33.75,327.316c-1.332-4.42-6.083-6.839-10.417-5.422c-4.42,1.418-6.836,6.089-5.419,10.514
			c1.167,3.5,4.417,5.744,7.919,5.744c0.834,0,1.75-0.084,2.584-0.335C32.761,336.399,35.177,331.643,33.75,327.316z"/>
		<path fill="#307167" d="M251.577,489.366c-4.582-0.092-8.419,3.586-8.502,8.162c-0.081,4.677,3.586,8.417,8.17,8.508
			c0.084,0,0.165,0,0.165,0c4.587,0,8.254-3.591,8.338-8.167C259.824,493.286,256.165,489.452,251.577,489.366z"/>
		<path fill="#307167" d="M440.558,398.923c-2.835,3.583-2.171,8.846,1.412,11.668c1.585,1.169,3.335,1.752,5.171,1.752
			c2.417,0,4.92-1.085,6.583-3.262c2.835-3.583,2.171-8.834-1.501-11.659C448.556,394.595,443.393,395.254,440.558,398.923z"/>
		<path fill="#307167" d="M388.03,448.438c-3.753,2.584-4.752,7.825-2.085,11.587c1.585,2.333,4.167,3.585,6.837,3.585
			c1.666,0,3.248-0.416,4.75-1.417c3.75-2.587,4.752-7.828,2.084-11.589C397.035,446.77,391.872,445.854,388.03,448.438z"/>
		<path fill="#307167" d="M407.209,433.758c-3.5,3-3.915,8.251-0.916,11.754c1.666,1.917,4.002,2.926,6.335,2.926
			c1.917,0,3.834-0.669,5.419-2.003c3.505-3,3.918-8.249,0.915-11.751C415.955,431.182,410.714,430.766,407.209,433.758z"/>
		<path fill="#307167" d="M465.802,376.404c-3.918-2.416-9.084-1.163-11.498,2.668c-2.422,3.918-1.255,9.086,2.663,11.503
			c1.417,0.842,2.919,1.253,4.42,1.253c2.749,0,5.503-1.334,7.085-3.926C470.896,384,469.729,378.821,465.802,376.404z"/>
		<path fill="#307167" d="M424.8,417.176c-3.248,3.327-3.086,8.579,0.251,11.757c1.582,1.574,3.667,2.322,5.752,2.322
			c2.165,0,4.417-0.832,5.999-2.581c3.17-3.335,3.086-8.587-0.251-11.754C433.219,413.75,427.962,413.842,424.8,417.176z"/>
		<path fill="#307167" d="M496.563,281.958c-4.498-0.657-8.751,2.595-9.421,7.098c-0.664,4.582,2.506,8.751,7.088,9.418
			c0.413,0.081,0.837,0.081,1.167,0.081c4.085,0,7.668-2.992,8.254-7.16C504.326,286.885,501.156,282.627,496.563,281.958z"/>
		<path fill="#307167" d="M492.651,306.634c-4.499-1.083-8.997,1.669-10.164,6.086c-1.082,4.501,1.664,9.003,6.084,10.169
			c0.664,0.173,1.334,0.251,1.998,0.251c3.756,0,7.171-2.584,8.087-6.334C499.822,312.312,497.065,307.809,492.651,306.634z"/>
		<path fill="#307167" d="M136.869,456.605c-4.004-2.325-9.089-1.085-11.421,2.927c-2.417,3.918-1.083,9.086,2.835,11.419
			c1.333,0.832,2.833,1.166,4.25,1.166c2.835,0,5.586-1.417,7.168-4.08C142.118,464.109,140.795,459.022,136.869,456.605z"/>
		<path fill="#307167" d="M486.144,330.818c-4.336-1.577-9.169,0.664-10.671,5.001c-1.584,4.341,0.586,9.096,4.923,10.671
			c0.915,0.332,1.914,0.507,2.83,0.507c3.421,0,6.669-2.082,7.841-5.503C492.651,337.146,490.48,332.398,486.144,330.818z"/>
		<path fill="#307167" d="M477.146,354.158c-4.079-1.993-9.166-0.335-11.167,3.834c-2.004,4.166-0.251,9.178,3.834,11.171
			c1.166,0.583,2.417,0.839,3.667,0.839c3.086,0,6.083-1.747,7.506-4.676C482.984,361.151,481.321,356.159,477.146,354.158z"/>
		<path fill="#307167" d="M227.49,487.697c-4.587-0.58-8.673,2.66-9.253,7.253c-0.586,4.587,2.665,8.753,7.25,9.248v0.089
			c0.334,0,0.669,0,0.999,0c4.169,0,7.754-3.084,8.254-7.344C235.325,492.366,232.066,488.272,227.49,487.697z"/>
		<path fill="#307167" d="M180.559,476.945c-4.336-1.506-9.091,0.754-10.587,5.168c-1.501,4.337,0.832,9.086,5.165,10.588
			c0.918,0.251,1.833,0.418,2.751,0.418c3.418,0,6.667-2.171,7.836-5.587C187.223,483.112,184.89,478.363,180.559,476.945z"/>
		<path fill="#307167" d="M203.731,483.531c-4.504-0.999-8.921,1.752-10.004,6.251c-1.002,4.501,1.833,9.005,6.253,10.001
			c0.665,0.17,1.248,0.17,1.915,0.17c3.75,0,7.252-2.584,8.087-6.421C211.057,489.034,208.23,484.53,203.731,483.531z"/>
		<path fill="#307167" d="M158.216,467.943c-4.253-2.001-9.169-0.175-11.087,3.991c-1.917,4.169-0.167,9.18,4.002,11.087
			c1.166,0.51,2.333,0.75,3.499,0.75c3.17,0,6.17-1.747,7.587-4.822C164.134,474.777,162.382,469.853,158.216,467.943z"/>
		<path fill="#307167" d="M299.596,485.364c-4.504,0.835-7.506,5.252-6.669,9.753c0.748,4.002,4.331,6.758,8.252,6.758
			c0.499,0,1.001,0,1.498-0.089c4.504-0.907,7.504-5.251,6.669-9.752C308.515,487.449,304.095,484.53,299.596,485.364z"/>
		<path fill="#307167" d="M323.017,479.697c-4.417,1.242-6.918,5.918-5.584,10.33c1.083,3.589,4.418,5.924,8.003,5.924
			c0.751,0,1.583-0.091,2.417-0.332c4.417-1.336,6.921-6.01,5.587-10.419C332.095,480.863,327.435,478.363,323.017,479.697z"/>
		<path fill="#307167" d="M345.773,471.529c-4.248,1.75-6.251,6.666-4.499,10.924c1.332,3.17,4.415,5.079,7.669,5.079
			c1.082,0,2.168-0.167,3.248-0.575c4.253-1.841,6.256-6.677,4.504-10.927C354.852,471.777,350.025,469.776,345.773,471.529z"/>
		<path fill="#307167" d="M275.66,488.605c-4.582,0.429-8.001,4.42-7.585,9.004c0.335,4.345,4.002,7.671,8.338,7.671
			c0.167,0,0.413,0,0.664,0v-0.083c4.585-0.335,8.003-4.337,7.585-8.919C284.33,491.699,280.253,488.272,275.66,488.605z"/>
		<path fill="#307167" d="M367.522,461.106c-4.085,2.169-5.583,7.253-3.332,11.263c1.499,2.835,4.334,4.409,7.334,4.409
			c1.334,0,2.668-0.332,3.918-1.083c4.085-2.165,5.586-7.252,3.337-11.254C376.619,460.358,371.524,458.857,367.522,461.106z"/>
	</g>
</g>
</svg>
