<?xml version="1.0" encoding="utf-8"?>
<!-- Generator: Adobe Illustrator 23.0.1, SVG Export Plug-In . SVG Version: 6.00 Build 0)  -->
<svg version="1.1" id="Layer_1" xmlns="http://www.w3.org/2000/svg" xmlns:xlink="http://www.w3.org/1999/xlink" x="0px" y="0px"
	 viewBox="0 0 512 512" style="enable-background:new 0 0 512 512;" xml:space="preserve">
<style type="text/css">
	.st0{fill:#57BC90;}
	.st1{fill:#FFFFFF;}
</style>
<g>
	<path class="st0" d="M469.9,304l-37.5-71.5v-29.2c0-76.2-44.7-146.2-113.9-178.4C292.2,12.3,263.8,6,234.4,6
		C125.8,6,37.4,94.3,37.3,202.9c0,53.5,22.2,105.4,60.9,142.4l0.3,0.3v152c0,4.6,3.8,8.4,8.4,8.4h223c4.6,0,8.4-3.8,8.4-8.4
		l0.1-45.1l45,6.8c0.1,0,0.5,0.1,1,0.1c26.5,0,48-21.5,48-48V350h9.7c13,0,23.5-5.1,28.8-13.9C476.3,327.2,475.9,315.5,469.9,304z
		 M456.5,327.2c-2.2,3.8-7.4,5.9-14.5,5.9h-18c-4.7,0-8.4,3.8-8.4,8.4v69.8c0,16.9-13.9,30.9-31,31.2l-53.5-8
		c-2.4-0.4-4.8,0.3-6.6,1.9c-1.9,1.8-2.9,4.1-2.9,6.5l-0.1,46.5H115.3V342c0-2.5-1-4.7-2.7-6.2c-37.1-34.1-58.4-82.6-58.4-133
		c0-99.4,80.8-180.2,180.2-180.2c26.8,0,52.7,5.8,77,17.3c63.3,29.4,104.2,93.5,104.2,163.2v31.4c0,1.5,0.3,2.7,0.9,3.9l38.4,73.3
		C458.1,317.8,458.7,323.4,456.5,327.2z"/>
	<g>
		<path class="st1" d="M202.7,315.6l-0.4-4c-1.1-10.2-2.3-16.4-3.3-20.1c-9.7,7.4-18.7,11.1-26.9,11.1c-21.5,0-29.8-24.1-32.5-35
			c-15.7,2.1-26.7-1.1-33-9.4c-6.4-8.4-5.5-19.6-4.6-25.1c-12.4-11.1-19.2-23.9-20.3-38.2c-1.7-21.9,10.7-40.6,15.8-47.2
			c-6.2-17.8,4.8-30,14-35.6c-0.5-5,1-8.8,2.6-11.2c4.5-6.8,13.2-9.5,17.9-10.5c5.1-10.6,15.1-16.5,28.5-16.5c2.2,0,4.2,0.2,5.8,0.4
			c6.1-9,15.7-13.9,27.3-13.9c4,0,7.4,0.6,9.6,1.1c6.6-4.4,13.9-6.7,21.8-6.7c11.4,0,20.9,4.8,25.3,7.5c5.4-2.1,10.7-3.2,15.8-3.2
			c14.9,0,24.3,8.9,28.3,13.7c3.2-0.5,6.3-0.7,9.3-0.7c22.1,0,30.9,12.3,33.9,18.6c16.9,2.2,22.8,14.2,23.9,22.4
			c15.2,11,23,23.2,23.1,36.1c0.1,15.8-11.5,27.7-17,32.5c1,5.9-0.2,11.4-3.6,15.9c-10.7,14.5-41,17.2-59.6,17.4
			c1.8,7.1,1.1,13.6-2.1,19.3c-8.9,15.9-34.2,19.1-35.3,19.2l-0.4,0c-11.9,0.4-19.8,9.4-19.8,9.4l-1.2,1.4l-0.6,0.1
			c-3.6,4.9-11.4,29.2-16.9,50.1l-1.2,4.4L202.7,315.6z M266,243.1c6-0.8,22.1-4.6,27.3-13.9c2.6-4.7,2.3-10.3-1-17.3l-3.6-7.8
			l8.5,0.4c0.1,0,1.9,0.1,5,0.1c21.1,0,46.3-3.5,53.4-13.2c2.1-2.8,2.5-6.1,1.2-10.2l-1.1-3.6l3-2.2c0.2-0.1,15.5-11.4,15.4-26.2
			c-0.1-9.9-7.1-19.7-20.7-29.1l-2.2-1.5v-2.7c0-0.6-0.2-14.4-17.6-15.2l-3.7-0.2l-1-3.5c-0.2-0.6-4.5-14.5-25.3-14.5
			c-3.3,0-6.8,0.3-10.6,1l-3.5,0.6l-1.9-3c-0.1-0.1-7.5-11.7-21.6-11.7c-4.5,0-9.2,1.2-14.1,3.4l-2.8,1.3l-2.5-1.9
			c-0.1-0.1-9.7-7.2-21.7-7.2c-6.4,0-12.3,2-17.6,6.1l-2.2,1.6l-2.6-0.8c0,0-3.9-1.3-9-1.3c-9.2,0-16,3.9-20.2,11.7l-1.9,3.5l-3.9-1
			c0,0-3.1-0.7-7.1-0.7c-10.1,0-16.9,4.2-20,12.5l-1.1,3l-3.2,0.4c-2.6,0.3-10.6,2.1-13.4,6.4c-0.7,1.1-1.6,3.1-0.4,6.7l1.3,4.4
			l-4.2,1.9c-2,0.9-19.1,9.3-11.3,26.9l1.3,3l-2.2,2.5c-0.2,0.2-17,19.5-15.2,42.1c1,12.3,7.3,23.4,19,33.1l2.6,2.2l-0.9,3.2
			c0,0.1-3.2,12.2,2.2,19.4c4.3,5.7,13.9,7.3,27.8,4.7l5.3-1l0.8,5.3c0,0.3,5.3,31.3,23.3,31.3c7.1,0,15.7-4.4,25.5-13l3.1-2.7
			l3.3,2.4c3.5,2.5,6.2,11.7,8.1,27.5l7,1c11.3-41.8,17.2-50.2,20.7-52.3C242.8,252.1,252.2,243.7,266,243.1z"/>
	</g>
</g>
</svg>
