<?xml version="1.0" encoding="utf-8"?>
<!-- Generator: Adobe Illustrator 16.0.0, SVG Export Plug-In . SVG Version: 6.00 Build 0)  -->
<!DOCTYPE svg PUBLIC "-//W3C//DTD SVG 1.1//EN" "http://www.w3.org/Graphics/SVG/1.1/DTD/svg11.dtd">
<svg version="1.1" id="Layer_1" xmlns="http://www.w3.org/2000/svg" xmlns:xlink="http://www.w3.org/1999/xlink" x="0px" y="0px"
	 width="512px" height="512px" viewBox="0 0 512 512" enable-background="new 0 0 512 512" xml:space="preserve">
<g>
	<path fill="#307167" d="M469.895,304.011l-37.502-71.53v-29.194c0-76.206-44.715-146.241-113.868-178.427
		C292.161,12.331,263.846,6,234.385,6C125.805,6,37.394,94.307,37.313,202.858c0,53.528,22.195,105.425,60.874,142.424l0.292,0.266
		V497.56c0,4.647,3.795,8.44,8.441,8.44h222.958c4.646,0,8.438-3.793,8.438-8.44l0.106-45.09l44.955,6.761
		c0.135,0.026,0.482,0.052,1.015,0.052c26.471,0,48.001-21.53,48.001-48.001v-61.324h9.695c12.954,0,23.479-5.076,28.847-13.945
		C476.277,327.195,475.904,315.524,469.895,304.011z M456.458,327.195c-2.218,3.793-7.372,5.879-14.478,5.879h-18.029
		c-4.675,0-8.441,3.767-8.441,8.441v69.766c0,16.908-13.89,30.905-30.957,31.172l-53.476-7.961
		c-2.377-0.371-4.781,0.349-6.598,1.872c-1.87,1.79-2.937,4.138-2.937,6.49l-0.107,46.478H115.253V342.021
		c0-2.457-0.96-4.674-2.697-6.224c-37.1-34.108-58.362-82.617-58.362-133.02c0-99.362,80.826-180.216,180.19-180.216
		c26.79,0,52.7,5.822,77.009,17.31c63.302,29.434,104.197,93.514,104.197,163.201v31.359c0,1.468,0.321,2.749,0.934,3.899
		l38.41,73.349C458.141,317.768,458.701,323.402,456.458,327.195z"/>
	<g>
		<path fill="#57BC90" d="M202.713,315.608l-0.428-4.038c-1.088-10.21-2.322-16.392-3.311-20.054
			c-9.706,7.377-18.736,11.106-26.906,11.106c-21.467,0-29.817-24.133-32.491-35c-15.667,2.097-26.677-1.116-32.958-9.429
			c-6.373-8.436-5.546-19.621-4.609-25.135c-12.354-11.07-19.167-23.901-20.273-38.18c-1.698-21.95,10.716-40.617,15.766-47.221
			c-6.156-17.753,4.794-30.013,14.007-35.629c-0.537-5.019,0.983-8.754,2.562-11.175c4.453-6.837,13.163-9.542,17.876-10.541
			c5.136-10.647,15.145-16.467,28.502-16.467c2.241,0,4.229,0.167,5.812,0.37c6.138-8.968,15.706-13.854,27.329-13.854
			c3.968,0,7.39,0.577,9.61,1.075c6.625-4.432,13.942-6.672,21.778-6.672c11.423,0,20.949,4.833,25.347,7.51
			c5.376-2.142,10.681-3.224,15.804-3.224c14.873,0,24.318,8.921,28.286,13.658c3.221-0.451,6.328-0.681,9.271-0.681
			c22.06,0,30.857,12.314,33.902,18.57c16.89,2.183,22.811,14.224,23.903,22.44c15.247,11.049,23.025,23.195,23.127,36.13
			c0.125,15.844-11.47,27.749-16.958,32.494c0.986,5.903-0.245,11.36-3.633,15.94c-10.737,14.524-41.042,17.169-59.617,17.352
			c1.815,7.105,1.127,13.58-2.071,19.313c-8.887,15.933-34.238,19.055-35.313,19.18l-0.406,0.034
			c-11.907,0.438-19.766,9.358-19.829,9.431l-1.2,1.414l-0.634,0.114c-3.576,4.925-11.42,29.246-16.945,50.057l-1.176,4.439
			L202.713,315.608z M266.003,243.11c6.026-0.756,22.117-4.641,27.277-13.919c2.593-4.664,2.27-10.324-0.997-17.304l-3.625-7.75
			l8.55,0.365c0.058,0,1.938,0.078,5.02,0.078c21.139,0,46.279-3.454,53.449-13.152c2.103-2.84,2.489-6.093,1.219-10.241
			l-1.083-3.568l3.023-2.176c0.156-0.112,15.549-11.365,15.397-26.244c-0.102-9.899-7.061-19.675-20.682-29.061l-2.246-1.547v-2.728
			c0-0.587-0.201-14.36-17.576-15.187l-3.699-0.229l-1.048-3.54c-0.175-0.589-4.526-14.495-25.297-14.495
			c-3.279,0-6.848,0.347-10.599,1.028l-3.459,0.631l-1.867-2.977c-0.073-0.117-7.486-11.662-21.632-11.662
			c-4.461,0-9.223,1.155-14.15,3.427l-2.812,1.296l-2.478-1.857c-0.094-0.068-9.677-7.153-21.71-7.153
			c-6.365,0-12.291,2.042-17.615,6.07l-2.181,1.625l-2.575-0.835c-0.039-0.013-3.939-1.26-9.018-1.26
			c-9.223,0-16.008,3.923-20.171,11.657l-1.931,3.545l-3.913-0.97c-0.029-0.008-3.057-0.749-7.126-0.749
			c-10.136,0-16.858,4.224-19.983,12.547l-1.116,2.979l-3.159,0.357c-2.59,0.292-10.617,2.103-13.421,6.409
			c-0.738,1.13-1.581,3.058-0.438,6.72l1.349,4.387l-4.176,1.899c-1.982,0.897-19.12,9.289-11.318,26.94l1.344,3.042l-2.202,2.494
			c-0.167,0.193-16.981,19.53-15.241,42.077c0.952,12.271,7.327,23.393,18.958,33.063l2.598,2.16l-0.923,3.248
			c-0.034,0.123-3.25,12.192,2.183,19.381c4.335,5.741,13.935,7.339,27.759,4.664l5.303-1.022l0.814,5.341
			c0.047,0.308,5.285,31.322,23.288,31.322c7.09,0,15.68-4.372,25.524-13.001l3.094-2.712l3.347,2.389
			c3.464,2.473,6.19,11.723,8.118,27.515l7.019,0.965c11.321-41.767,17.211-50.248,20.688-52.265
			C242.821,252.106,252.25,243.707,266.003,243.11z"/>
	</g>
</g>
</svg>
